<?xml version="1.0" encoding="utf-8"?>
<!-- Generator: Adobe Illustrator 22.0.1, SVG Export Plug-In . SVG Version: 6.00 Build 0)  -->
<svg version="1.1" id="Layer_1" xmlns="http://www.w3.org/2000/svg" xmlns:xlink="http://www.w3.org/1999/xlink" x="0px" y="0px"
	 viewBox="0 0 48 48" style="enable-background:new 0 0 48 48;" xml:space="preserve">
<path d="M12.7,35.3c6.2,6.2,16.4,6.2,22.6,0s6.2-16.4,0-22.6s-16.4-6.2-22.6,0S6.4,29,12.7,35.3z M9.8,38.1C2,30.3,2,17.7,9.8,9.8
	s20.5-7.8,28.3,0s7.8,20.5,0,28.3S17.7,45.9,9.8,38.1z"/>
<path d="M16.9,16.9c2.3-2.3,3.5-5.4,3.5-8.5c-2.9,0.7-5.6,2.1-7.8,4.3c-2.2,2.2-3.6,4.9-4.3,7.8C11.5,20.4,14.6,19.2,16.9,16.9z
	 M9.8,9.8C13.7,6,18.7,4,23.8,4c1.6,5.4,0.2,11.5-4.1,15.8S9.4,25.4,4,23.8C4,18.7,6,13.7,9.8,9.8z"/>
<path d="M35.3,35.3c2.2-2.2,3.6-4.9,4.3-7.8c-3.1,0-6.2,1.2-8.5,3.5s-3.5,5.4-3.5,8.5C30.4,38.9,33.1,37.5,35.3,35.3z M28.2,28.2
	c4.3-4.3,10.3-5.6,15.8-4.1c0,5.1-2,10.1-5.9,14s-8.9,5.8-14,5.9C22.6,38.6,24,32.5,28.2,28.2z"/>
<path d="M9.4,12c1.7,4.5,5.4,9.6,11.2,15.4S31.5,36.9,36,38.6l1.4-3.7c-3.8-1.4-8.5-4.9-14-10.3s-8.9-10.1-10.3-14L9.4,12z"/>
<polygon points="36,9.3 9.4,35.9 12.2,38.7 38.8,12.2 "/>
</svg>
