<?xml version="1.0" encoding="utf-8"?>
<!-- Generator: Adobe Illustrator 22.0.1, SVG Export Plug-In . SVG Version: 6.00 Build 0)  -->
<svg version="1.1" id="Layer_1" xmlns="http://www.w3.org/2000/svg" xmlns:xlink="http://www.w3.org/1999/xlink" x="0px" y="0px"
	 viewBox="0 0 225 225.7" style="enable-background:new 0 0 225 225.7;" xml:space="preserve">
<style type="text/css">
	.st0{fill:none;}
</style>
<g>
	<path class="st0" d="M66.8,91.8c8-17.4,25.6-29.6,46-29.6c20.4,0,38,12.1,46,29.6h40V43.1c0-9.5-7.7-17.2-17.2-17.2H87.8v25
		c0,3.3-2.6,5.9-5.9,5.9c-3.3,0-5.9-2.7-5.9-5.9v-25h-4.3v25c0,3.3-2.7,5.9-5.9,5.9c-3.3,0-5.9-2.7-5.9-5.9v-25h-5.1v25
		c0,3.3-2.6,5.9-5.9,5.9S43,54.1,43,50.9v-25c-8.8,0.7-15.8,8.1-15.8,17.2v48.8L66.8,91.8L66.8,91.8z M152.2,49.6
		c0-4.1,3.3-7.4,7.3-7.4h15.4c4.1,0,7.3,3.3,7.3,7.4v15.5c0,4.1-3.3,7.4-7.3,7.4h-15.4c-4.1,0-7.3-3.3-7.3-7.4V49.6z"/>
	<path class="st0" d="M86.8,113.1c0,14.4,11.7,26.1,26,26.1c14.4,0,26-11.7,26-26.1c0-14.4-11.7-26.1-26-26.1
		C98.5,87,86.8,98.7,86.8,113.1z"/>
	<path class="st0" d="M163.4,109.7c0.1,1.2,0.1,2.3,0.1,3.5c0,28-22.7,50.9-50.7,50.9c-28,0-50.7-22.8-50.7-50.9
		c0-1.2,0.1-2.3,0.1-3.5H27.2v71.2c0,9.5,7.7,17.2,17.2,17.2h137.4c9.5,0,17.2-7.7,17.2-17.2v-71.2H163.4z"/>
	<path d="M181.7,3.1H44.4c-22,0-39.9,17.9-39.9,40v137.8c0,22.1,17.9,40,39.9,40h137.4c22,0,39.9-17.9,39.9-40V43.1
		C221.6,21,203.7,3.1,181.7,3.1z M43,25.9v25c0,3.3,2.6,5.9,5.9,5.9s5.9-2.7,5.9-5.9v-25h5.1v25c0,3.3,2.6,5.9,5.9,5.9
		c3.3,0,5.9-2.7,5.9-5.9v-25h4.3v25c0,3.3,2.7,5.9,5.9,5.9c3.3,0,5.9-2.7,5.9-5.9v-25h93.9c9.5,0,17.2,7.7,17.2,17.2v48.8h-40
		c-8-17.4-25.6-29.6-46-29.6c-20.4,0-38,12.1-46,29.6H27.2V43.1C27.2,34,34.1,26.6,43,25.9z M138.9,113.1c0,14.4-11.7,26.1-26,26.1
		c-14.4,0-26-11.7-26-26.1c0-14.4,11.7-26.1,26-26.1C127.2,87,138.9,98.7,138.9,113.1z M181.7,198.1H44.4c-9.5,0-17.2-7.7-17.2-17.2
		v-71.2h35.1c-0.1,1.2-0.1,2.3-0.1,3.5c0,28,22.7,50.9,50.7,50.9c28,0,50.7-22.8,50.7-50.9c0-1.2-0.1-2.3-0.1-3.5h35.5v71.2
		C198.9,190.4,191.2,198.1,181.7,198.1z"/>
	<path d="M159.5,72.4h15.4c4.1,0,7.3-3.3,7.3-7.4V49.6c0-4.1-3.3-7.4-7.3-7.4h-15.4c-4.1,0-7.3,3.3-7.3,7.4v15.5
		C152.2,69.1,155.4,72.4,159.5,72.4z"/>
</g>
</svg>
