<?xml version="1.0" standalone="no"?>
<!-- Licensee: Mariesa Dale (#27682) - http://vllg.com -->
<!DOCTYPE svg PUBLIC "-//W3C//DTD SVG 1.1//EN" "http://www.w3.org/Graphics/SVG/1.1/DTD/svg11.dtd" ><svg version="1.1" xmlns="http://www.w3.org/2000/svg"><defs><font horiz-adv-x="0" id="font"><font-face ascent="750" bbox="-516.3846 -408.4 1995.6429 1135" cap-height="820" descent="-250" font-family="Ogg Slant" font-stretch="normal" font-style="normal" font-weight="600" units-per-em="1000" x-height="522" /><missing-glyph d="M435 345 674 106 664 96 425 335 186 96 176 106 415 345 176 584 186 594 425 355 664 594 674 584ZM756 14V676H94V14ZM80 690H770V0H80Z" horiz-adv-x="850" /><glyph d="M738 395 987 392Q996 444 1006.5 500Q1017 556 1027 608Q1037 660 1046 705Q1055 750 1062 782ZM338 373Q296 373 263 364.5Q230 356 204 338Q178 320 158 292.5Q138 265 122 228Q105 191 109 147.5Q113 104 135.5 66Q158 28 197.5 2.5Q237 -23 291 -23Q305 -23 317 -22.5Q329 -22 342 -16.5Q355 -11 371 0.5Q387 12 410 34Q433 56 464.5 90.5Q496 125 540 175Q563 200 602 248.5Q641 297 693 358Q587 364 494 368.5Q401 373 338 373ZM1118 783Q1110 744 1101.5 696Q1093 648 1084 596.5Q1075 545 1065.5 492.5Q1056 440 1048 392Q1105 391 1153 391Q1201 391 1236 391Q1271 391 1305 390.5Q1339 390 1357 389Q1364 389 1359 381Q1354 373 1343 364Q1332 355 1319 346.5Q1306 338 1297 337Q1276 333 1258 333.5Q1240 334 1209 334Q1175 334 1132 335.5Q1089 337 1039 339L1020 211Q1012 158 1016 125Q1020 92 1022 81Q1025 68 1036.5 60.5Q1048 53 1062 48Q1073 52 1095 65.5Q1117 79 1141 96.5Q1165 114 1187.5 132Q1210 150 1223 164L1229 157Q1215 144 1191.5 123.5Q1168 103 1141 80.5Q1114 58 1085.5 37Q1057 16 1035 3Q1031 1 1024 0Q1017 -1 1009.5 -0.5Q1002 0 996 1Q990 2 988 4Q970 18 962 39Q954 60 953 74Q952 89 950.5 101.5Q949 114 948.5 129Q948 144 949.5 162Q951 180 955 205Q959 230 964.5 265Q970 300 978 342Q914 345 846 349Q778 353 709 357Q651 286 610.5 236.5Q570 187 559 176Q493 102 448 56Q403 10 368 -15.5Q333 -41 302 -50.5Q271 -60 234 -60Q172 -60 128 -29Q84 2 60 46Q36 90 34 136.5Q32 183 54 215Q75 247 109 279.5Q143 312 186.5 338.5Q230 365 283.5 381.5Q337 398 397 398Q448 398 533.5 397.5Q619 397 721 395L1045 784Q1006 784 961 782.5Q916 781 874 777Q834 772 798.5 766.5Q763 761 735 756.5Q707 752 687.5 748.5Q668 745 660 745Q653 745 659.5 754.5Q666 764 677.5 776Q689 788 700.5 799.5Q712 811 715 816Q721 819 741 820.5Q761 822 786 823Q811 824 836.5 824Q862 824 878 824H1060Q1132 824 1194 825Q1256 826 1305 827.5Q1354 829 1389 830Q1424 831 1441 831Q1446 831 1456 830.5Q1466 830 1473 828Q1473 823 1470 814.5Q1467 806 1461 797Q1455 788 1447 779.5Q1439 771 1430 765Q1422 763 1400.5 763.5Q1379 764 1350.5 766Q1322 768 1289.5 771Q1257 774 1227 776.5Q1197 779 1172 781Q1147 783 1133 783Z" glyph-name="A" horiz-adv-x="1349" unicode="A" /><glyph d="M1171 448 1266 781H1264L922 444Q987 443 1049.5 442.5Q1112 442 1169 442ZM338 423Q253 423 200.5 377Q148 331 122 253Q109 214 115 166Q121 118 144.5 76Q168 34 207.5 5.5Q247 -23 301 -23Q341 -23 375 -16.5Q409 -10 448.5 12Q488 34 537.5 76.5Q587 119 658 190Q669 201 693 224.5Q717 248 747.5 278Q778 308 811 340.5Q844 373 873 402Q792 406 712.5 409.5Q633 413 562.5 416Q492 419 434 421Q376 423 338 423ZM1246 782Q1239 782 1233 782.5Q1227 783 1222 783Q1206 783 1183 783Q1160 783 1133 783Q1106 783 1076 781.5Q1046 780 1015 777Q975 772 939.5 766.5Q904 761 876 756.5Q848 752 828.5 748.5Q809 745 801 745Q794 745 800.5 754.5Q807 764 818.5 776Q830 788 841.5 799.5Q853 811 856 816Q862 819 882 820.5Q902 822 927 823Q952 824 977.5 824Q1003 824 1019 824H1189Q1237 824 1295.5 824.5Q1354 825 1415.5 826Q1477 827 1536 827.5Q1595 828 1644 829Q1693 830 1727 830.5Q1761 831 1773 831Q1778 831 1788 830.5Q1798 830 1805 828Q1805 823 1802 814.5Q1799 806 1793 797Q1787 788 1779 779.5Q1771 771 1762 765Q1756 763 1731.5 763Q1707 763 1671.5 764Q1636 765 1591 767Q1546 769 1499.5 771Q1453 773 1406.5 775Q1360 777 1321 779Q1316 760 1306.5 721.5Q1297 683 1284.5 635.5Q1272 588 1258 536.5Q1244 485 1232 441H1402Q1437 441 1471 440.5Q1505 440 1523 439Q1530 439 1525 431Q1520 423 1509 414Q1498 405 1485 396.5Q1472 388 1463 387Q1442 383 1424 383.5Q1406 384 1375 384Q1346 384 1305 384.5Q1264 385 1215 387Q1192 323 1158.5 267.5Q1125 212 1087.5 168Q1050 124 1012 93.5Q974 63 942 50Q963 50 1006 49.5Q1049 49 1099 49.5Q1149 50 1198.5 51.5Q1248 53 1282 57Q1322 61 1359 66Q1396 71 1426 75Q1456 79 1477 81.5Q1498 84 1506 84Q1513 84 1506 74.5Q1499 65 1488 53Q1477 41 1465 29Q1453 17 1450 12Q1445 9 1423 8Q1401 7 1374 6Q1347 5 1320 5Q1293 5 1277 5H1195Q1123 5 1051 3.5Q979 2 919.5 0.5Q860 -1 820 -2Q780 -3 772 -3Q725 -3 712 12Q709 30 725.5 51Q742 72 761 84Q799 75 830.5 71.5Q862 68 889 68Q942 68 981 88Q1020 108 1050 148.5Q1080 189 1105 249.5Q1130 310 1154 390Q1093 392 1026 395Q959 398 889 402Q856 368 821 332.5Q786 297 756 267Q726 237 704.5 216Q683 195 677 190Q608 120 553.5 72Q499 24 450.5 -5Q402 -34 354.5 -47Q307 -60 253 -60Q205 -60 168 -44Q131 -28 104.5 -2.5Q78 23 61.5 55.5Q45 88 38.5 121Q32 154 34.5 185.5Q37 217 48 240Q65 275 99 312Q133 349 179 379Q225 409 281 428.5Q337 448 397 448Q428 448 481.5 447.5Q535 447 602.5 446.5Q670 446 747 445.5Q824 445 904 444Q1000 544 1090.5 629Q1181 714 1246 782Z" glyph-name="AE" horiz-adv-x="1572" unicode="&#198;" /><glyph d="M1120 896Q1118 894 1116 894Q1112 894 1112 898Q1112 900 1115 903Q1136 923 1158 949.5Q1180 976 1198 1000.5Q1216 1025 1229 1043.5Q1242 1062 1247 1067Q1251 1071 1258 1072Q1265 1073 1273 1073Q1280 1073 1285.5 1072.5Q1291 1072 1293 1070Q1295 1068 1295.5 1062.5Q1296 1057 1296 1049Q1296 1044 1292 1039.5Q1288 1035 1283 1030Q1278 1025 1259.5 1011.5Q1241 998 1217 979.5Q1193 961 1167 939.5Q1141 918 1120 896ZM738 395 987 392Q996 444 1006.5 500Q1017 556 1027 608Q1037 660 1046 705Q1055 750 1062 782ZM338 373Q296 373 263 364.5Q230 356 204 338Q178 320 158 292.5Q138 265 122 228Q105 191 109 147.5Q113 104 135.5 66Q158 28 197.5 2.5Q237 -23 291 -23Q305 -23 317 -22.5Q329 -22 342 -16.5Q355 -11 371 0.5Q387 12 410 34Q433 56 464.5 90.5Q496 125 540 175Q563 200 602 248.5Q641 297 693 358Q587 364 494 368.5Q401 373 338 373ZM1118 783Q1110 744 1101.5 696Q1093 648 1084 596.5Q1075 545 1065.5 492.5Q1056 440 1048 392Q1105 391 1153 391Q1201 391 1236 391Q1271 391 1305 390.5Q1339 390 1357 389Q1364 389 1359 381Q1354 373 1343 364Q1332 355 1319 346.5Q1306 338 1297 337Q1276 333 1258 333.5Q1240 334 1209 334Q1175 334 1132 335.5Q1089 337 1039 339L1020 211Q1012 158 1016 125Q1020 92 1022 81Q1025 68 1036.5 60.5Q1048 53 1062 48Q1073 52 1095 65.5Q1117 79 1141 96.5Q1165 114 1187.5 132Q1210 150 1223 164L1229 157Q1215 144 1191.5 123.5Q1168 103 1141 80.5Q1114 58 1085.5 37Q1057 16 1035 3Q1031 1 1024 0Q1017 -1 1009.5 -0.5Q1002 0 996 1Q990 2 988 4Q970 18 962 39Q954 60 953 74Q952 89 950.5 101.5Q949 114 948.5 129Q948 144 949.5 162Q951 180 955 205Q959 230 964.5 265Q970 300 978 342Q914 345 846 349Q778 353 709 357Q651 286 610.5 236.5Q570 187 559 176Q493 102 448 56Q403 10 368 -15.5Q333 -41 302 -50.5Q271 -60 234 -60Q172 -60 128 -29Q84 2 60 46Q36 90 34 136.5Q32 183 54 215Q75 247 109 279.5Q143 312 186.5 338.5Q230 365 283.5 381.5Q337 398 397 398Q448 398 533.5 397.5Q619 397 721 395L1045 784Q1006 784 961 782.5Q916 781 874 777Q834 772 798.5 766.5Q763 761 735 756.5Q707 752 687.5 748.5Q668 745 660 745Q653 745 659.5 754.5Q666 764 677.5 776Q689 788 700.5 799.5Q712 811 715 816Q721 819 741 820.5Q761 822 786 823Q811 824 836.5 824Q862 824 878 824H1060Q1132 824 1194 825Q1256 826 1305 827.5Q1354 829 1389 830Q1424 831 1441 831Q1446 831 1456 830.5Q1466 830 1473 828Q1473 823 1470 814.5Q1467 806 1461 797Q1455 788 1447 779.5Q1439 771 1430 765Q1422 763 1400.5 763.5Q1379 764 1350.5 766Q1322 768 1289.5 771Q1257 774 1227 776.5Q1197 779 1172 781Q1147 783 1133 783Z" glyph-name="Aacute" horiz-adv-x="1349" unicode="&#193;" /><glyph d="M1141 910Q1100 910 1068 932Q1036 954 1010 989Q1007 994 1005 996.5Q1003 999 1003 1002Q1003 1010 1029 1018Q1046 1023 1052 1022.5Q1058 1022 1064 1014Q1093 976 1118.5 954.5Q1144 933 1176 933Q1222 933 1259 1015Q1262 1023 1271 1023Q1276 1023 1279.5 1019.5Q1283 1016 1279 1011Q1268 992 1252.5 974Q1237 956 1219 942Q1201 928 1181 919.5Q1161 911 1141 910ZM738 395 987 392Q996 444 1006.5 500Q1017 556 1027 608Q1037 660 1046 705Q1055 750 1062 782ZM338 373Q296 373 263 364.5Q230 356 204 338Q178 320 158 292.5Q138 265 122 228Q105 191 109 147.5Q113 104 135.5 66Q158 28 197.5 2.5Q237 -23 291 -23Q305 -23 317 -22.5Q329 -22 342 -16.5Q355 -11 371 0.5Q387 12 410 34Q433 56 464.5 90.5Q496 125 540 175Q563 200 602 248.5Q641 297 693 358Q587 364 494 368.5Q401 373 338 373ZM1118 783Q1110 744 1101.5 696Q1093 648 1084 596.5Q1075 545 1065.5 492.5Q1056 440 1048 392Q1105 391 1153 391Q1201 391 1236 391Q1271 391 1305 390.5Q1339 390 1357 389Q1364 389 1359 381Q1354 373 1343 364Q1332 355 1319 346.5Q1306 338 1297 337Q1276 333 1258 333.5Q1240 334 1209 334Q1175 334 1132 335.5Q1089 337 1039 339L1020 211Q1012 158 1016 125Q1020 92 1022 81Q1025 68 1036.5 60.5Q1048 53 1062 48Q1073 52 1095 65.5Q1117 79 1141 96.5Q1165 114 1187.5 132Q1210 150 1223 164L1229 157Q1215 144 1191.5 123.5Q1168 103 1141 80.5Q1114 58 1085.5 37Q1057 16 1035 3Q1031 1 1024 0Q1017 -1 1009.5 -0.5Q1002 0 996 1Q990 2 988 4Q970 18 962 39Q954 60 953 74Q952 89 950.5 101.5Q949 114 948.5 129Q948 144 949.5 162Q951 180 955 205Q959 230 964.5 265Q970 300 978 342Q914 345 846 349Q778 353 709 357Q651 286 610.5 236.5Q570 187 559 176Q493 102 448 56Q403 10 368 -15.5Q333 -41 302 -50.5Q271 -60 234 -60Q172 -60 128 -29Q84 2 60 46Q36 90 34 136.5Q32 183 54 215Q75 247 109 279.5Q143 312 186.5 338.5Q230 365 283.5 381.5Q337 398 397 398Q448 398 533.5 397.5Q619 397 721 395L1045 784Q1006 784 961 782.5Q916 781 874 777Q834 772 798.5 766.5Q763 761 735 756.5Q707 752 687.5 748.5Q668 745 660 745Q653 745 659.5 754.5Q666 764 677.5 776Q689 788 700.5 799.5Q712 811 715 816Q721 819 741 820.5Q761 822 786 823Q811 824 836.5 824Q862 824 878 824H1060Q1132 824 1194 825Q1256 826 1305 827.5Q1354 829 1389 830Q1424 831 1441 831Q1446 831 1456 830.5Q1466 830 1473 828Q1473 823 1470 814.5Q1467 806 1461 797Q1455 788 1447 779.5Q1439 771 1430 765Q1422 763 1400.5 763.5Q1379 764 1350.5 766Q1322 768 1289.5 771Q1257 774 1227 776.5Q1197 779 1172 781Q1147 783 1133 783Z" glyph-name="Abreve" horiz-adv-x="1349" unicode="&#258;" /><glyph d="M1176 1042Q1174 1046 1170 1042Q1156 1026 1138 1008Q1120 990 1101 973.5Q1082 957 1065 943Q1048 929 1036 920Q1027 914 1017.5 908Q1008 902 997 903Q986 905 981 910.5Q976 916 977 921Q977 924 980 932Q983 940 1000 951Q1015 960 1036 972Q1057 984 1080.5 997.5Q1104 1011 1127 1025Q1150 1039 1169 1052Q1175 1058 1180 1051Q1196 1030 1208 1015.5Q1220 1001 1229.5 989Q1239 977 1248.5 966.5Q1258 956 1270 944Q1284 931 1287.5 923.5Q1291 916 1290 911Q1290 902 1283 895.5Q1276 889 1268 890Q1245 891 1231 917Q1219 940 1206.5 972Q1194 1004 1176 1042ZM738 395 987 392Q996 444 1006.5 500Q1017 556 1027 608Q1037 660 1046 705Q1055 750 1062 782ZM338 373Q296 373 263 364.5Q230 356 204 338Q178 320 158 292.5Q138 265 122 228Q105 191 109 147.5Q113 104 135.5 66Q158 28 197.5 2.5Q237 -23 291 -23Q305 -23 317 -22.5Q329 -22 342 -16.5Q355 -11 371 0.5Q387 12 410 34Q433 56 464.5 90.5Q496 125 540 175Q563 200 602 248.5Q641 297 693 358Q587 364 494 368.5Q401 373 338 373ZM1118 783Q1110 744 1101.5 696Q1093 648 1084 596.5Q1075 545 1065.5 492.5Q1056 440 1048 392Q1105 391 1153 391Q1201 391 1236 391Q1271 391 1305 390.5Q1339 390 1357 389Q1364 389 1359 381Q1354 373 1343 364Q1332 355 1319 346.5Q1306 338 1297 337Q1276 333 1258 333.5Q1240 334 1209 334Q1175 334 1132 335.5Q1089 337 1039 339L1020 211Q1012 158 1016 125Q1020 92 1022 81Q1025 68 1036.5 60.5Q1048 53 1062 48Q1073 52 1095 65.5Q1117 79 1141 96.5Q1165 114 1187.5 132Q1210 150 1223 164L1229 157Q1215 144 1191.5 123.5Q1168 103 1141 80.5Q1114 58 1085.5 37Q1057 16 1035 3Q1031 1 1024 0Q1017 -1 1009.5 -0.5Q1002 0 996 1Q990 2 988 4Q970 18 962 39Q954 60 953 74Q952 89 950.5 101.5Q949 114 948.5 129Q948 144 949.5 162Q951 180 955 205Q959 230 964.5 265Q970 300 978 342Q914 345 846 349Q778 353 709 357Q651 286 610.5 236.5Q570 187 559 176Q493 102 448 56Q403 10 368 -15.5Q333 -41 302 -50.5Q271 -60 234 -60Q172 -60 128 -29Q84 2 60 46Q36 90 34 136.5Q32 183 54 215Q75 247 109 279.5Q143 312 186.5 338.5Q230 365 283.5 381.5Q337 398 397 398Q448 398 533.5 397.5Q619 397 721 395L1045 784Q1006 784 961 782.5Q916 781 874 777Q834 772 798.5 766.5Q763 761 735 756.5Q707 752 687.5 748.5Q668 745 660 745Q653 745 659.5 754.5Q666 764 677.5 776Q689 788 700.5 799.5Q712 811 715 816Q721 819 741 820.5Q761 822 786 823Q811 824 836.5 824Q862 824 878 824H1060Q1132 824 1194 825Q1256 826 1305 827.5Q1354 829 1389 830Q1424 831 1441 831Q1446 831 1456 830.5Q1466 830 1473 828Q1473 823 1470 814.5Q1467 806 1461 797Q1455 788 1447 779.5Q1439 771 1430 765Q1422 763 1400.5 763.5Q1379 764 1350.5 766Q1322 768 1289.5 771Q1257 774 1227 776.5Q1197 779 1172 781Q1147 783 1133 783Z" glyph-name="Acircumflex" horiz-adv-x="1349" unicode="&#194;" /><glyph d="M984 958Q984 981 999.5 997Q1015 1013 1038 1013Q1061 1013 1077 997Q1093 981 1093 958Q1093 935 1077 919.5Q1061 904 1038 904Q1015 904 999.5 919.5Q984 935 984 958ZM1202 958Q1202 981 1217.5 997Q1233 1013 1256 1013Q1279 1013 1295 997Q1311 981 1311 958Q1311 935 1295 919.5Q1279 904 1256 904Q1233 904 1217.5 919.5Q1202 935 1202 958ZM738 395 987 392Q996 444 1006.5 500Q1017 556 1027 608Q1037 660 1046 705Q1055 750 1062 782ZM338 373Q296 373 263 364.5Q230 356 204 338Q178 320 158 292.5Q138 265 122 228Q105 191 109 147.5Q113 104 135.5 66Q158 28 197.5 2.5Q237 -23 291 -23Q305 -23 317 -22.5Q329 -22 342 -16.5Q355 -11 371 0.5Q387 12 410 34Q433 56 464.5 90.5Q496 125 540 175Q563 200 602 248.5Q641 297 693 358Q587 364 494 368.5Q401 373 338 373ZM1118 783Q1110 744 1101.5 696Q1093 648 1084 596.5Q1075 545 1065.5 492.5Q1056 440 1048 392Q1105 391 1153 391Q1201 391 1236 391Q1271 391 1305 390.5Q1339 390 1357 389Q1364 389 1359 381Q1354 373 1343 364Q1332 355 1319 346.5Q1306 338 1297 337Q1276 333 1258 333.5Q1240 334 1209 334Q1175 334 1132 335.5Q1089 337 1039 339L1020 211Q1012 158 1016 125Q1020 92 1022 81Q1025 68 1036.5 60.5Q1048 53 1062 48Q1073 52 1095 65.5Q1117 79 1141 96.5Q1165 114 1187.5 132Q1210 150 1223 164L1229 157Q1215 144 1191.5 123.5Q1168 103 1141 80.5Q1114 58 1085.5 37Q1057 16 1035 3Q1031 1 1024 0Q1017 -1 1009.5 -0.5Q1002 0 996 1Q990 2 988 4Q970 18 962 39Q954 60 953 74Q952 89 950.5 101.5Q949 114 948.5 129Q948 144 949.5 162Q951 180 955 205Q959 230 964.5 265Q970 300 978 342Q914 345 846 349Q778 353 709 357Q651 286 610.5 236.5Q570 187 559 176Q493 102 448 56Q403 10 368 -15.5Q333 -41 302 -50.5Q271 -60 234 -60Q172 -60 128 -29Q84 2 60 46Q36 90 34 136.5Q32 183 54 215Q75 247 109 279.5Q143 312 186.5 338.5Q230 365 283.5 381.5Q337 398 397 398Q448 398 533.5 397.5Q619 397 721 395L1045 784Q1006 784 961 782.5Q916 781 874 777Q834 772 798.5 766.5Q763 761 735 756.5Q707 752 687.5 748.5Q668 745 660 745Q653 745 659.5 754.5Q666 764 677.5 776Q689 788 700.5 799.5Q712 811 715 816Q721 819 741 820.5Q761 822 786 823Q811 824 836.5 824Q862 824 878 824H1060Q1132 824 1194 825Q1256 826 1305 827.5Q1354 829 1389 830Q1424 831 1441 831Q1446 831 1456 830.5Q1466 830 1473 828Q1473 823 1470 814.5Q1467 806 1461 797Q1455 788 1447 779.5Q1439 771 1430 765Q1422 763 1400.5 763.5Q1379 764 1350.5 766Q1322 768 1289.5 771Q1257 774 1227 776.5Q1197 779 1172 781Q1147 783 1133 783Z" glyph-name="Adieresis" horiz-adv-x="1349" unicode="&#196;" /><glyph d="M1114 897Q1093 919 1067 940.5Q1041 962 1017 980.5Q993 999 974.5 1012.5Q956 1026 951 1031Q946 1036 942 1040.5Q938 1045 938 1050Q938 1058 938.5 1063.5Q939 1069 941 1071Q943 1073 948.5 1073.5Q954 1074 961 1074Q969 1074 976 1073Q983 1072 987 1068Q991 1063 1004.5 1044.5Q1018 1026 1036 1001.5Q1054 977 1076 950.5Q1098 924 1119 904Q1122 901 1122 899Q1122 895 1118 895Q1116 895 1114 897ZM738 395 987 392Q996 444 1006.5 500Q1017 556 1027 608Q1037 660 1046 705Q1055 750 1062 782ZM338 373Q296 373 263 364.5Q230 356 204 338Q178 320 158 292.5Q138 265 122 228Q105 191 109 147.5Q113 104 135.5 66Q158 28 197.5 2.5Q237 -23 291 -23Q305 -23 317 -22.5Q329 -22 342 -16.5Q355 -11 371 0.5Q387 12 410 34Q433 56 464.5 90.5Q496 125 540 175Q563 200 602 248.5Q641 297 693 358Q587 364 494 368.5Q401 373 338 373ZM1118 783Q1110 744 1101.5 696Q1093 648 1084 596.5Q1075 545 1065.5 492.5Q1056 440 1048 392Q1105 391 1153 391Q1201 391 1236 391Q1271 391 1305 390.5Q1339 390 1357 389Q1364 389 1359 381Q1354 373 1343 364Q1332 355 1319 346.5Q1306 338 1297 337Q1276 333 1258 333.5Q1240 334 1209 334Q1175 334 1132 335.5Q1089 337 1039 339L1020 211Q1012 158 1016 125Q1020 92 1022 81Q1025 68 1036.5 60.5Q1048 53 1062 48Q1073 52 1095 65.5Q1117 79 1141 96.5Q1165 114 1187.5 132Q1210 150 1223 164L1229 157Q1215 144 1191.5 123.5Q1168 103 1141 80.5Q1114 58 1085.5 37Q1057 16 1035 3Q1031 1 1024 0Q1017 -1 1009.5 -0.5Q1002 0 996 1Q990 2 988 4Q970 18 962 39Q954 60 953 74Q952 89 950.5 101.5Q949 114 948.5 129Q948 144 949.5 162Q951 180 955 205Q959 230 964.5 265Q970 300 978 342Q914 345 846 349Q778 353 709 357Q651 286 610.5 236.5Q570 187 559 176Q493 102 448 56Q403 10 368 -15.5Q333 -41 302 -50.5Q271 -60 234 -60Q172 -60 128 -29Q84 2 60 46Q36 90 34 136.5Q32 183 54 215Q75 247 109 279.5Q143 312 186.5 338.5Q230 365 283.5 381.5Q337 398 397 398Q448 398 533.5 397.5Q619 397 721 395L1045 784Q1006 784 961 782.5Q916 781 874 777Q834 772 798.5 766.5Q763 761 735 756.5Q707 752 687.5 748.5Q668 745 660 745Q653 745 659.5 754.5Q666 764 677.5 776Q689 788 700.5 799.5Q712 811 715 816Q721 819 741 820.5Q761 822 786 823Q811 824 836.5 824Q862 824 878 824H1060Q1132 824 1194 825Q1256 826 1305 827.5Q1354 829 1389 830Q1424 831 1441 831Q1446 831 1456 830.5Q1466 830 1473 828Q1473 823 1470 814.5Q1467 806 1461 797Q1455 788 1447 779.5Q1439 771 1430 765Q1422 763 1400.5 763.5Q1379 764 1350.5 766Q1322 768 1289.5 771Q1257 774 1227 776.5Q1197 779 1172 781Q1147 783 1133 783Z" glyph-name="Agrave" horiz-adv-x="1349" unicode="&#192;" /><glyph d="M1142 976Q1167 976 1190.5 976Q1214 976 1241 977Q1269 978 1274.5 978Q1280 978 1280 976Q1280 971 1266.5 956.5Q1253 942 1229 919Q1222 919 1197 920Q1172 921 1143 921Q1130 921 1120.5 920.5Q1111 920 1102 919.5Q1093 919 1083 918.5Q1073 918 1060 918Q1032 917 1026.5 918Q1021 919 1021 921Q1021 926 1034.5 940Q1048 954 1072 977Q1079 977 1096 976.5Q1113 976 1141 976ZM738 395 987 392Q996 444 1006.5 500Q1017 556 1027 608Q1037 660 1046 705Q1055 750 1062 782ZM338 373Q296 373 263 364.5Q230 356 204 338Q178 320 158 292.5Q138 265 122 228Q105 191 109 147.5Q113 104 135.5 66Q158 28 197.5 2.5Q237 -23 291 -23Q305 -23 317 -22.5Q329 -22 342 -16.5Q355 -11 371 0.5Q387 12 410 34Q433 56 464.5 90.5Q496 125 540 175Q563 200 602 248.5Q641 297 693 358Q587 364 494 368.5Q401 373 338 373ZM1118 783Q1110 744 1101.5 696Q1093 648 1084 596.5Q1075 545 1065.5 492.5Q1056 440 1048 392Q1105 391 1153 391Q1201 391 1236 391Q1271 391 1305 390.5Q1339 390 1357 389Q1364 389 1359 381Q1354 373 1343 364Q1332 355 1319 346.5Q1306 338 1297 337Q1276 333 1258 333.5Q1240 334 1209 334Q1175 334 1132 335.5Q1089 337 1039 339L1020 211Q1012 158 1016 125Q1020 92 1022 81Q1025 68 1036.5 60.5Q1048 53 1062 48Q1073 52 1095 65.5Q1117 79 1141 96.5Q1165 114 1187.5 132Q1210 150 1223 164L1229 157Q1215 144 1191.5 123.5Q1168 103 1141 80.5Q1114 58 1085.5 37Q1057 16 1035 3Q1031 1 1024 0Q1017 -1 1009.5 -0.5Q1002 0 996 1Q990 2 988 4Q970 18 962 39Q954 60 953 74Q952 89 950.5 101.5Q949 114 948.5 129Q948 144 949.5 162Q951 180 955 205Q959 230 964.5 265Q970 300 978 342Q914 345 846 349Q778 353 709 357Q651 286 610.5 236.5Q570 187 559 176Q493 102 448 56Q403 10 368 -15.5Q333 -41 302 -50.5Q271 -60 234 -60Q172 -60 128 -29Q84 2 60 46Q36 90 34 136.5Q32 183 54 215Q75 247 109 279.5Q143 312 186.5 338.5Q230 365 283.5 381.5Q337 398 397 398Q448 398 533.5 397.5Q619 397 721 395L1045 784Q1006 784 961 782.5Q916 781 874 777Q834 772 798.5 766.5Q763 761 735 756.5Q707 752 687.5 748.5Q668 745 660 745Q653 745 659.5 754.5Q666 764 677.5 776Q689 788 700.5 799.5Q712 811 715 816Q721 819 741 820.5Q761 822 786 823Q811 824 836.5 824Q862 824 878 824H1060Q1132 824 1194 825Q1256 826 1305 827.5Q1354 829 1389 830Q1424 831 1441 831Q1446 831 1456 830.5Q1466 830 1473 828Q1473 823 1470 814.5Q1467 806 1461 797Q1455 788 1447 779.5Q1439 771 1430 765Q1422 763 1400.5 763.5Q1379 764 1350.5 766Q1322 768 1289.5 771Q1257 774 1227 776.5Q1197 779 1172 781Q1147 783 1133 783Z" glyph-name="Amacron" horiz-adv-x="1349" unicode="&#256;" /><glyph d="M406 32Q362 -6 318 -20.5Q274 -35 238 -35Q203 -35 168.5 -26.5Q134 -18 105.5 -6.5Q77 5 58 15.5Q39 26 35 30Q33 38 37 48Q41 58 48 67.5Q55 77 63.5 84.5Q72 92 80 97Q90 100 114.5 87.5Q139 75 171 59.5Q203 44 238.5 30.5Q274 17 306 17Q359 17 394 44Q424 67 463 106.5Q502 146 553 204Q585 240 625 287Q665 334 709 386Q753 438 798.5 493Q844 548 888 600.5Q932 653 972 700Q1012 747 1044 784Q1005 784 960 782.5Q915 781 874 777Q834 772 798.5 766.5Q763 761 735 756.5Q707 752 687.5 748.5Q668 745 660 745Q653 745 659.5 754.5Q666 764 677.5 776Q689 788 700.5 799.5Q712 811 715 816Q721 819 741 820.5Q761 822 786 823Q811 824 836.5 824Q862 824 878 824H1060Q1132 824 1194 825Q1256 826 1305 827.5Q1354 829 1389 830Q1424 831 1441 831Q1446 831 1456 830.5Q1466 830 1473 828Q1473 823 1470 814.5Q1467 806 1461 797Q1455 788 1447 779.5Q1439 771 1430 765Q1422 763 1400.5 763.5Q1379 764 1350.5 766Q1322 768 1289.5 771Q1257 774 1227 776.5Q1197 779 1172 781Q1147 783 1133 783H1118Q1110 742 1101 691Q1092 640 1082 585Q1072 530 1062.5 474.5Q1053 419 1044.5 369.5Q1036 320 1029.5 278.5Q1023 237 1020 211Q1012 158 1016 125Q1020 92 1022 81Q1025 68 1036.5 60.5Q1048 53 1062 48Q1073 52 1095 65.5Q1117 79 1141 96.5Q1165 114 1187.5 132Q1210 150 1223 164L1229 157Q1215 144 1191.5 123.5Q1168 103 1141 80.5Q1114 58 1085.5 37Q1057 16 1035 3Q1031 1 1024 0Q1017 -1 1009.5 -0.5Q1002 0 996 1Q990 2 988 4Q970 18 962 39Q954 60 953 74Q952 89 950.5 101.5Q949 114 948.5 129Q948 144 949.5 162Q951 180 955 205Q959 235 967 280.5Q975 326 984.5 379Q994 432 1005 489.5Q1016 547 1026.5 601Q1037 655 1046 702Q1055 749 1062 782Q1029 742 988 694Q947 646 903 593Q859 540 813 485.5Q767 431 723 379Q679 327 639 280Q599 233 567 196Q517 138 478 99Q439 60 406 32Z" glyph-name="Anocross" horiz-adv-x="1349" unicode="&#59185;" /><glyph d="M985 392Q994 444 1004.5 500Q1015 556 1025 608Q1035 660 1044 705Q1053 750 1060 782L736 395ZM336 373Q294 373 261 364.5Q228 356 202 338Q176 320 156 292.5Q136 265 120 228Q103 191 107 147.5Q111 104 133.5 66Q156 28 195.5 2.5Q235 -23 289 -23Q303 -23 315 -22.5Q327 -22 340 -16.5Q353 -11 369 0.5Q385 12 408 34Q431 56 462.5 90.5Q494 125 538 175Q561 200 600 248.5Q639 297 691 358Q585 364 492 368.5Q399 373 336 373ZM1116 783Q1108 744 1099.5 696Q1091 648 1082 596.5Q1073 545 1063.5 492.5Q1054 440 1046 392Q1103 391 1151 391Q1199 391 1234 391Q1269 391 1303 390.5Q1337 390 1355 389Q1362 389 1357 381Q1352 373 1341 364Q1330 355 1317 346.5Q1304 338 1295 337Q1274 333 1256 333.5Q1238 334 1207 334Q1173 334 1130 335.5Q1087 337 1037 339L1018 211Q1010 158 1014 125Q1018 92 1020 81Q1023 68 1034.5 60.5Q1046 53 1060 48Q1072 52 1093.5 65.5Q1115 79 1138.5 96.5Q1162 114 1184.5 132Q1207 150 1221 164L1227 157Q1205 139 1173.5 111.5Q1142 84 1112.5 52.5Q1083 21 1060 -12Q1037 -45 1031 -76Q1027 -96 1041.5 -110Q1056 -124 1088 -124Q1114 -124 1135.5 -116Q1157 -108 1170 -101Q1172 -100 1167.5 -111.5Q1163 -123 1156.5 -137Q1150 -151 1142 -164Q1134 -177 1130 -180Q1119 -185 1098.5 -190Q1078 -195 1055 -195Q1020 -195 1000.5 -173.5Q981 -152 986 -114Q989 -88 1015 -49.5Q1041 -11 1087 40Q1058 17 1033 3Q1029 1 1022 0Q1015 -1 1007.5 -0.5Q1000 0 994 1Q988 2 986 4Q968 18 960 39Q952 60 951 74Q950 89 948.5 101.5Q947 114 946.5 129Q946 144 947.5 162Q949 180 953 205Q957 230 962.5 265Q968 300 976 342Q912 345 844 349Q776 353 707 357Q649 286 608.5 236.5Q568 187 557 176Q491 102 446 56Q401 10 366 -15.5Q331 -41 300 -50.5Q269 -60 232 -60Q170 -60 126 -29Q82 2 58 46Q34 90 32 136.5Q30 183 52 215Q73 247 107 279.5Q141 312 184.5 338.5Q228 365 281.5 381.5Q335 398 395 398Q446 398 531.5 397.5Q617 397 718 395L1043 784Q1004 784 959 782.5Q914 781 872 777Q832 772 796.5 766.5Q761 761 733 756.5Q705 752 685.5 748.5Q666 745 658 745Q651 745 657.5 754.5Q664 764 675.5 776Q687 788 698.5 799.5Q710 811 713 816Q719 819 739 820.5Q759 822 784 823Q809 824 834.5 824Q860 824 876 824H1058Q1130 824 1192 825Q1254 826 1303 827.5Q1352 829 1387 830Q1422 831 1439 831Q1444 831 1454 830.5Q1464 830 1471 828Q1471 823 1468 814.5Q1465 806 1459 797Q1453 788 1445 779.5Q1437 771 1428 765Q1420 763 1398.5 763.5Q1377 764 1348.5 766Q1320 768 1287.5 771Q1255 774 1225 776.5Q1195 779 1170 781Q1145 783 1131 783Z" glyph-name="Aogonek" horiz-adv-x="1349" unicode="&#260;" /><glyph d="M1037 892Q1037 864 1057 844Q1077 824 1105 824Q1133 824 1153 844Q1173 864 1173 892Q1173 920 1153 940Q1133 960 1105 960Q1077 960 1057 940Q1037 920 1037 892ZM738 395 987 392Q996 444 1006.5 500Q1017 556 1027 608Q1037 660 1046 705Q1055 750 1062 782ZM338 373Q296 373 263 364.5Q230 356 204 338Q178 320 158 292.5Q138 265 122 228Q105 191 109 147.5Q113 104 135.5 66Q158 28 197.5 2.5Q237 -23 291 -23Q305 -23 317 -22.5Q329 -22 342 -16.5Q355 -11 371 0.5Q387 12 410 34Q433 56 464.5 90.5Q496 125 540 175Q563 200 602 248.5Q641 297 693 358Q587 364 494 368.5Q401 373 338 373ZM1024 892Q1024 926 1047.5 949.5Q1071 973 1105 973Q1139 973 1162.5 949.5Q1186 926 1186 892Q1186 870 1176.5 852.5Q1167 835 1150 824Q1260 826 1336 828.5Q1412 831 1441 831Q1446 831 1456 830.5Q1466 830 1473 828Q1473 823 1470 814.5Q1467 806 1461 797Q1455 788 1447 779.5Q1439 771 1430 765Q1422 763 1400.5 763.5Q1379 764 1350.5 766Q1322 768 1289.5 771Q1257 774 1227 776.5Q1197 779 1172 781Q1147 783 1133 783H1118Q1110 744 1101.5 696Q1093 648 1084 596.5Q1075 545 1065.5 492.5Q1056 440 1048 392Q1105 391 1153 391Q1201 391 1236 391Q1271 391 1305 390.5Q1339 390 1357 389Q1364 389 1359 381Q1354 373 1343 364Q1332 355 1319 346.5Q1306 338 1297 337Q1276 333 1258 333.5Q1240 334 1209 334Q1175 334 1132 335.5Q1089 337 1039 339L1020 211Q1012 158 1016 125Q1020 92 1022 81Q1025 68 1036.5 60.5Q1048 53 1062 48Q1073 52 1095 65.5Q1117 79 1141 96.5Q1165 114 1187.5 132Q1210 150 1223 164L1229 157Q1215 144 1191.5 123.5Q1168 103 1141 80.5Q1114 58 1085.5 37Q1057 16 1035 3Q1031 1 1024 0Q1017 -1 1009.5 -0.5Q1002 0 996 1Q990 2 988 4Q970 18 962 39Q954 60 953 74Q952 89 950.5 101.5Q949 114 948.5 129Q948 144 949.5 162Q951 180 955 205Q959 230 964.5 265Q970 300 978 342Q914 345 846 349Q778 353 709 357Q651 286 610.5 236.5Q570 187 559 176Q493 102 448 56Q403 10 368 -15.5Q333 -41 302 -50.5Q271 -60 234 -60Q172 -60 128 -29Q84 2 60 46Q36 90 34 136.5Q32 183 54 215Q75 247 109 279.5Q143 312 186.5 338.5Q230 365 283.5 381.5Q337 398 397 398Q448 398 533.5 397.5Q619 397 721 395L1045 784Q1006 784 961 782.5Q916 781 874 777Q834 772 798.5 766.5Q763 761 735 756.5Q707 752 687.5 748.5Q668 745 660 745Q653 745 659.5 754.5Q666 764 677.5 776Q689 788 700.5 799.5Q712 811 715 816Q721 819 741 820.5Q761 822 786 823Q811 824 836.5 824Q862 824 878 824H1060Q1043 835 1033.5 852.5Q1024 870 1024 892Z" glyph-name="Aring" horiz-adv-x="1349" unicode="&#197;" /><glyph d="M980 916Q1002 944 1017.5 963.5Q1033 983 1045 995Q1057 1007 1066.5 1012.5Q1076 1018 1086 1018Q1104 1018 1126 1008Q1148 998 1171 986Q1194 974 1215 964Q1236 954 1251 954Q1258 954 1263.5 955Q1269 956 1275.5 962Q1282 968 1291 980Q1300 992 1316 1014Q1321 1020 1325 1018Q1329 1016 1324 1009Q1288 956 1261.5 927.5Q1235 899 1209 899Q1192 899 1170.5 910Q1149 921 1126.5 933.5Q1104 946 1083 957Q1062 968 1046 968Q1041 968 1037.5 966.5Q1034 965 1028 959Q1022 953 1013 941.5Q1004 930 988 911Q981 903 978.5 905.5Q976 908 980 916ZM738 395 987 392Q996 444 1006.5 500Q1017 556 1027 608Q1037 660 1046 705Q1055 750 1062 782ZM338 373Q296 373 263 364.5Q230 356 204 338Q178 320 158 292.5Q138 265 122 228Q105 191 109 147.5Q113 104 135.5 66Q158 28 197.5 2.5Q237 -23 291 -23Q305 -23 317 -22.5Q329 -22 342 -16.5Q355 -11 371 0.5Q387 12 410 34Q433 56 464.5 90.5Q496 125 540 175Q563 200 602 248.5Q641 297 693 358Q587 364 494 368.5Q401 373 338 373ZM1118 783Q1110 744 1101.5 696Q1093 648 1084 596.5Q1075 545 1065.5 492.5Q1056 440 1048 392Q1105 391 1153 391Q1201 391 1236 391Q1271 391 1305 390.5Q1339 390 1357 389Q1364 389 1359 381Q1354 373 1343 364Q1332 355 1319 346.5Q1306 338 1297 337Q1276 333 1258 333.5Q1240 334 1209 334Q1175 334 1132 335.5Q1089 337 1039 339L1020 211Q1012 158 1016 125Q1020 92 1022 81Q1025 68 1036.5 60.5Q1048 53 1062 48Q1073 52 1095 65.5Q1117 79 1141 96.5Q1165 114 1187.5 132Q1210 150 1223 164L1229 157Q1215 144 1191.5 123.5Q1168 103 1141 80.5Q1114 58 1085.5 37Q1057 16 1035 3Q1031 1 1024 0Q1017 -1 1009.5 -0.5Q1002 0 996 1Q990 2 988 4Q970 18 962 39Q954 60 953 74Q952 89 950.5 101.5Q949 114 948.5 129Q948 144 949.5 162Q951 180 955 205Q959 230 964.5 265Q970 300 978 342Q914 345 846 349Q778 353 709 357Q651 286 610.5 236.5Q570 187 559 176Q493 102 448 56Q403 10 368 -15.5Q333 -41 302 -50.5Q271 -60 234 -60Q172 -60 128 -29Q84 2 60 46Q36 90 34 136.5Q32 183 54 215Q75 247 109 279.5Q143 312 186.5 338.5Q230 365 283.5 381.5Q337 398 397 398Q448 398 533.5 397.5Q619 397 721 395L1045 784Q1006 784 961 782.5Q916 781 874 777Q834 772 798.5 766.5Q763 761 735 756.5Q707 752 687.5 748.5Q668 745 660 745Q653 745 659.5 754.5Q666 764 677.5 776Q689 788 700.5 799.5Q712 811 715 816Q721 819 741 820.5Q761 822 786 823Q811 824 836.5 824Q862 824 878 824H1060Q1132 824 1194 825Q1256 826 1305 827.5Q1354 829 1389 830Q1424 831 1441 831Q1446 831 1456 830.5Q1466 830 1473 828Q1473 823 1470 814.5Q1467 806 1461 797Q1455 788 1447 779.5Q1439 771 1430 765Q1422 763 1400.5 763.5Q1379 764 1350.5 766Q1322 768 1289.5 771Q1257 774 1227 776.5Q1197 779 1172 781Q1147 783 1133 783Z" glyph-name="Atilde" horiz-adv-x="1349" unicode="&#195;" /><glyph d="M362 49Q381 47 415 45.5Q449 44 492 43.5Q535 43 582.5 44Q630 45 675 49Q723 53 755.5 60.5Q788 68 810.5 81.5Q833 95 848.5 115.5Q864 136 876 166Q889 196 890.5 231.5Q892 267 882.5 299.5Q873 332 851.5 358Q830 384 798 397Q779 400 754.5 401Q730 402 704 401Q678 400 652 398Q626 396 604 393Q574 322 545 263Q516 204 486.5 159.5Q457 115 426.5 86.5Q396 58 362 49ZM857 438Q896 461 924 494.5Q952 528 962 567Q970 604 962 644Q954 684 924 717.5Q894 751 838.5 773Q783 795 697 795Q532 795 413 722Q294 649 224 481Q212 452 194.5 438Q177 424 150 424Q121 424 117 440.5Q113 457 131 486Q176 556 246.5 620Q317 684 400.5 731.5Q484 779 574.5 806Q665 833 751 831Q839 831 897 809.5Q955 788 987 753Q1019 718 1026 674Q1033 630 1018 586Q1010 564 994 542Q978 520 957 500Q936 480 913 463.5Q890 447 869 435Q903 420 922 390.5Q941 361 947.5 326Q954 291 949.5 255Q945 219 932 191Q918 162 884.5 128Q851 94 806.5 65Q762 36 711.5 17Q661 -2 614 -2Q527 -2 468 -1Q409 0 383 0Q311 1 260.5 0.5Q210 0 177 -1Q144 -2 125.5 -2.5Q107 -3 99 -3Q52 -3 39 12Q38 21 42 32.5Q46 44 53 55.5Q60 67 69.5 77Q79 87 88 93Q97 96 116.5 91.5Q136 87 161 79.5Q186 72 214.5 63.5Q243 55 271 50.5Q299 46 324.5 47Q350 48 369 59Q391 77 410.5 111Q430 145 449.5 191.5Q469 238 490 294Q511 350 537 413Q563 479 593 537.5Q623 596 655.5 644Q688 692 721.5 726Q755 760 788 777L795 775Q777 766 754.5 726.5Q732 687 707 633Q682 579 656.5 517.5Q631 456 609 404L607 400Q673 416 736 424.5Q799 433 857 438Z" glyph-name="B" horiz-adv-x="1030" unicode="B" /><glyph d="M702 111Q673 76 634 40Q595 4 550.5 -25Q506 -54 458.5 -72.5Q411 -91 366 -91Q291 -91 234.5 -65Q178 -39 140.5 5Q103 49 84.5 108Q66 167 68 233Q70 299 92.5 368.5Q115 438 160 503Q196 555 252.5 612.5Q309 670 381 718Q453 766 537.5 797Q622 828 715 828Q766 828 807.5 817.5Q849 807 880 793.5Q911 780 931 766.5Q951 753 958 748Q963 744 957 736Q951 728 940.5 720.5Q930 713 918 707.5Q906 702 900 702Q883 702 858 716.5Q833 731 798 748Q763 765 718 779.5Q673 794 618 794Q558 794 502.5 773Q447 752 397.5 716.5Q348 681 306 634Q264 587 231 536Q191 473 170.5 406Q150 339 148 275Q146 211 162 154.5Q178 98 212.5 55.5Q247 13 299.5 -12Q352 -37 421 -37Q459 -37 498.5 -23Q538 -9 574.5 13Q611 35 642 63Q673 91 695 118Q697 121 702 118.5Q707 116 702 111Z" glyph-name="C" horiz-adv-x="760" unicode="C" /><glyph d="M800 896Q798 894 796 894Q792 894 792 898Q792 900 795 903Q816 923 838 949.5Q860 976 878 1000.5Q896 1025 909 1043.5Q922 1062 927 1067Q931 1071 938 1072Q945 1073 953 1073Q960 1073 965.5 1072.5Q971 1072 973 1070Q975 1068 975.5 1062.5Q976 1057 976 1049Q976 1044 972 1039.5Q968 1035 963 1030Q958 1025 939.5 1011.5Q921 998 897 979.5Q873 961 847 939.5Q821 918 800 896ZM702 111Q673 76 634 40Q595 4 550.5 -25Q506 -54 458.5 -72.5Q411 -91 366 -91Q291 -91 234.5 -65Q178 -39 140.5 5Q103 49 84.5 108Q66 167 68 233Q70 299 92.5 368.5Q115 438 160 503Q196 555 252.5 612.5Q309 670 381 718Q453 766 537.5 797Q622 828 715 828Q766 828 807.5 817.5Q849 807 880 793.5Q911 780 931 766.5Q951 753 958 748Q963 744 957 736Q951 728 940.5 720.5Q930 713 918 707.5Q906 702 900 702Q883 702 858 716.5Q833 731 798 748Q763 765 718 779.5Q673 794 618 794Q558 794 502.5 773Q447 752 397.5 716.5Q348 681 306 634Q264 587 231 536Q191 473 170.5 406Q150 339 148 275Q146 211 162 154.5Q178 98 212.5 55.5Q247 13 299.5 -12Q352 -37 421 -37Q459 -37 498.5 -23Q538 -9 574.5 13Q611 35 642 63Q673 91 695 118Q697 121 702 118.5Q707 116 702 111Z" glyph-name="Cacute" horiz-adv-x="760" unicode="&#262;" /><glyph d="M755 902Q757 898 761 902Q774 918 792.5 936Q811 954 830 970.5Q849 987 866 1001Q883 1015 895 1024Q904 1030 913.5 1036Q923 1042 934 1041Q945 1039 950 1033.5Q955 1028 954 1023Q954 1020 951 1012Q948 1004 931 993Q916 984 895 972Q874 960 850.5 946.5Q827 933 804 919Q781 905 762 892Q755 887 750 893Q733 914 722 928.5Q711 943 701 955Q691 967 682 977.5Q673 988 661 1000Q647 1013 643.5 1020.5Q640 1028 641 1033Q641 1042 648 1048.5Q655 1055 663 1054Q686 1053 700 1027Q712 1004 724.5 972Q737 940 755 902ZM702 111Q673 76 634 40Q595 4 550.5 -25Q506 -54 458.5 -72.5Q411 -91 366 -91Q291 -91 234.5 -65Q178 -39 140.5 5Q103 49 84.5 108Q66 167 68 233Q70 299 92.5 368.5Q115 438 160 503Q196 555 252.5 612.5Q309 670 381 718Q453 766 537.5 797Q622 828 715 828Q766 828 807.5 817.5Q849 807 880 793.5Q911 780 931 766.5Q951 753 958 748Q963 744 957 736Q951 728 940.5 720.5Q930 713 918 707.5Q906 702 900 702Q883 702 858 716.5Q833 731 798 748Q763 765 718 779.5Q673 794 618 794Q558 794 502.5 773Q447 752 397.5 716.5Q348 681 306 634Q264 587 231 536Q191 473 170.5 406Q150 339 148 275Q146 211 162 154.5Q178 98 212.5 55.5Q247 13 299.5 -12Q352 -37 421 -37Q459 -37 498.5 -23Q538 -9 574.5 13Q611 35 642 63Q673 91 695 118Q697 121 702 118.5Q707 116 702 111Z" glyph-name="Ccaron" horiz-adv-x="760" unicode="&#268;" /><glyph d="M702 111Q673 76 634 40Q595 4 550.5 -25Q506 -54 458.5 -72.5Q411 -91 366 -91Q324 -91 287.5 -82.5Q251 -74 221 -58Q210 -73 201.5 -87Q193 -101 185 -112Q181 -115 184 -115Q187 -115 190 -115Q230 -115 259 -122.5Q288 -130 307 -141Q326 -152 334.5 -166.5Q343 -181 343 -194Q343 -217 333 -243.5Q323 -270 305 -293Q287 -316 262.5 -331.5Q238 -347 209 -347Q172 -347 144.5 -335.5Q117 -324 117 -306Q117 -287 128.5 -273Q140 -259 158 -259Q173 -259 184.5 -267Q196 -275 208 -284Q220 -293 233.5 -301Q247 -309 265 -309Q288 -309 302 -290Q316 -271 316 -248Q316 -233 307.5 -219Q299 -205 278.5 -194Q258 -183 224 -177Q190 -171 139 -171Q128 -171 134 -160Q150 -140 171.5 -110Q193 -80 213 -54Q150 -19 113.5 43Q77 105 69.5 181Q62 257 84 340.5Q106 424 160 503Q196 555 252.5 612.5Q309 670 381 718Q453 766 537.5 797Q622 828 715 828Q766 828 807.5 817.5Q849 807 880 793.5Q911 780 931 766.5Q951 753 958 748Q963 744 957 736Q951 728 940.5 720.5Q930 713 918 707.5Q906 702 900 702Q883 702 858 716.5Q833 731 798 748Q763 765 718 779.5Q673 794 618 794Q558 794 502.5 773Q447 752 397.5 716.5Q348 681 306 634Q264 587 231 536Q191 473 170.5 406Q150 339 148 275Q146 211 162 154.5Q178 98 212.5 55.5Q247 13 299.5 -12Q352 -37 421 -37Q459 -37 498.5 -23Q538 -9 574.5 13Q611 35 642 63Q673 91 695 118Q697 121 702 118.5Q707 116 702 111Z" glyph-name="Ccedilla" horiz-adv-x="760" unicode="&#199;" /><glyph d="M804 1042Q802 1046 798 1042Q784 1026 766 1008Q748 990 729 973.5Q710 957 693 943Q676 929 664 920Q655 914 645.5 908Q636 902 625 903Q614 905 609 910.5Q604 916 605 921Q605 924 608 932Q611 940 628 951Q643 960 664 972Q685 984 708.5 997.5Q732 1011 755 1025Q778 1039 797 1052Q803 1058 808 1051Q824 1030 836 1015.5Q848 1001 857.5 989Q867 977 876.5 966.5Q886 956 898 944Q912 931 915.5 923.5Q919 916 918 911Q918 902 911 895.5Q904 889 896 890Q873 891 859 917Q847 940 834.5 972Q822 1004 804 1042ZM702 111Q673 76 634 40Q595 4 550.5 -25Q506 -54 458.5 -72.5Q411 -91 366 -91Q291 -91 234.5 -65Q178 -39 140.5 5Q103 49 84.5 108Q66 167 68 233Q70 299 92.5 368.5Q115 438 160 503Q196 555 252.5 612.5Q309 670 381 718Q453 766 537.5 797Q622 828 715 828Q766 828 807.5 817.5Q849 807 880 793.5Q911 780 931 766.5Q951 753 958 748Q963 744 957 736Q951 728 940.5 720.5Q930 713 918 707.5Q906 702 900 702Q883 702 858 716.5Q833 731 798 748Q763 765 718 779.5Q673 794 618 794Q558 794 502.5 773Q447 752 397.5 716.5Q348 681 306 634Q264 587 231 536Q191 473 170.5 406Q150 339 148 275Q146 211 162 154.5Q178 98 212.5 55.5Q247 13 299.5 -12Q352 -37 421 -37Q459 -37 498.5 -23Q538 -9 574.5 13Q611 35 642 63Q673 91 695 118Q697 121 702 118.5Q707 116 702 111Z" glyph-name="Ccircumflex" horiz-adv-x="760" unicode="&#264;" /><glyph d="M757 961Q757 985 773.5 1002Q790 1019 814 1019Q838 1019 855 1002Q872 985 872 961Q872 937 855 920.5Q838 904 814 904Q790 904 773.5 920.5Q757 937 757 961ZM702 111Q673 76 634 40Q595 4 550.5 -25Q506 -54 458.5 -72.5Q411 -91 366 -91Q291 -91 234.5 -65Q178 -39 140.5 5Q103 49 84.5 108Q66 167 68 233Q70 299 92.5 368.5Q115 438 160 503Q196 555 252.5 612.5Q309 670 381 718Q453 766 537.5 797Q622 828 715 828Q766 828 807.5 817.5Q849 807 880 793.5Q911 780 931 766.5Q951 753 958 748Q963 744 957 736Q951 728 940.5 720.5Q930 713 918 707.5Q906 702 900 702Q883 702 858 716.5Q833 731 798 748Q763 765 718 779.5Q673 794 618 794Q558 794 502.5 773Q447 752 397.5 716.5Q348 681 306 634Q264 587 231 536Q191 473 170.5 406Q150 339 148 275Q146 211 162 154.5Q178 98 212.5 55.5Q247 13 299.5 -12Q352 -37 421 -37Q459 -37 498.5 -23Q538 -9 574.5 13Q611 35 642 63Q673 91 695 118Q697 121 702 118.5Q707 116 702 111Z" glyph-name="Cdotaccent" horiz-adv-x="760" unicode="&#266;" /><glyph d="M441 0Q369 1 309.5 0.5Q250 0 206 -1Q162 -2 134.5 -2.5Q107 -3 99 -3Q52 -3 39 12Q38 21 42 32.5Q46 44 53 55.5Q60 67 69.5 77Q79 87 88 93Q97 96 118 91.5Q139 87 166 80Q193 73 224 65Q255 57 285 53.5Q315 50 341.5 52Q368 54 386 67Q414 86 434 118Q454 150 472.5 193.5Q491 237 510.5 292Q530 347 557 413Q583 479 612.5 537Q642 595 673 641.5Q704 688 737 721Q770 754 803 771L810 769Q792 760 770 721.5Q748 683 724 630Q700 577 675 516.5Q650 456 628 404Q566 257 504 169Q442 81 373 45Q386 44 424 43Q462 42 510.5 42.5Q559 43 611.5 44.5Q664 46 706 49Q769 53 817.5 65.5Q866 78 904 101.5Q942 125 971.5 162Q1001 199 1027 253Q1055 313 1064.5 376Q1074 439 1063.5 499Q1053 559 1023 612Q993 665 943.5 705Q894 745 824 768.5Q754 792 664 792Q582 792 516 778Q450 764 398 732Q346 700 305.5 648.5Q265 597 234 522Q227 492 207 479Q187 466 160 466Q131 466 127 482.5Q123 499 141 527Q180 587 244 643Q308 699 386 741.5Q464 784 549 808.5Q634 833 714 831Q809 831 882.5 805.5Q956 780 1008.5 737Q1061 694 1092.5 638.5Q1124 583 1135.5 522Q1147 461 1138 400Q1129 339 1101 285Q1074 236 1023 185Q972 134 908 92.5Q844 51 773 24.5Q702 -2 636 -2Z" glyph-name="D" horiz-adv-x="1138" unicode="D" /><glyph d="M913 882Q915 878 919 882Q932 898 950.5 916Q969 934 988 950.5Q1007 967 1024 981Q1041 995 1053 1004Q1062 1010 1071.5 1016Q1081 1022 1092 1021Q1103 1019 1108 1013.5Q1113 1008 1112 1003Q1112 1000 1109 992Q1106 984 1089 973Q1074 964 1053 952Q1032 940 1008.5 926.5Q985 913 962 899Q939 885 920 872Q913 867 908 873Q891 894 880 908.5Q869 923 859 935Q849 947 840 957.5Q831 968 819 980Q805 993 801.5 1000.5Q798 1008 799 1013Q799 1022 806 1028.5Q813 1035 821 1034Q844 1033 858 1007Q870 984 882.5 952Q895 920 913 882ZM441 0Q369 1 309.5 0.5Q250 0 206 -1Q162 -2 134.5 -2.5Q107 -3 99 -3Q52 -3 39 12Q38 21 42 32.5Q46 44 53 55.5Q60 67 69.5 77Q79 87 88 93Q97 96 118 91.5Q139 87 166 80Q193 73 224 65Q255 57 285 53.5Q315 50 341.5 52Q368 54 386 67Q414 86 434 118Q454 150 472.5 193.5Q491 237 510.5 292Q530 347 557 413Q583 479 612.5 537Q642 595 673 641.5Q704 688 737 721Q770 754 803 771L810 769Q792 760 770 721.5Q748 683 724 630Q700 577 675 516.5Q650 456 628 404Q566 257 504 169Q442 81 373 45Q386 44 424 43Q462 42 510.5 42.5Q559 43 611.5 44.5Q664 46 706 49Q769 53 817.5 65.5Q866 78 904 101.5Q942 125 971.5 162Q1001 199 1027 253Q1055 313 1064.5 376Q1074 439 1063.5 499Q1053 559 1023 612Q993 665 943.5 705Q894 745 824 768.5Q754 792 664 792Q582 792 516 778Q450 764 398 732Q346 700 305.5 648.5Q265 597 234 522Q227 492 207 479Q187 466 160 466Q131 466 127 482.5Q123 499 141 527Q180 587 244 643Q308 699 386 741.5Q464 784 549 808.5Q634 833 714 831Q809 831 882.5 805.5Q956 780 1008.5 737Q1061 694 1092.5 638.5Q1124 583 1135.5 522Q1147 461 1138 400Q1129 339 1101 285Q1074 236 1023 185Q972 134 908 92.5Q844 51 773 24.5Q702 -2 636 -2Z" glyph-name="Dcaron" horiz-adv-x="1138" unicode="&#270;" /><glyph d="M441 0Q369 1 309.5 0.5Q250 0 206 -1Q162 -2 134.5 -2.5Q107 -3 99 -3Q52 -3 39 12Q38 21 42 32.5Q46 44 53 55.5Q60 67 69.5 77Q79 87 88 93Q97 96 118 91.5Q139 87 166 80Q193 73 224 65Q255 57 285 53.5Q315 50 341.5 52Q368 54 386 67Q408 82 425 105.5Q442 129 457 160Q472 191 487 229.5Q502 268 519 314Q508 313 497.5 313Q487 313 476 313Q451 312 446 312.5Q441 313 441 315Q441 320 453 332.5Q465 345 487 366Q495 366 508 365.5Q521 365 538 365L557 413Q583 479 612.5 537Q642 595 673 641.5Q704 688 737 721Q770 754 803 771L810 769Q792 760 770 721.5Q748 683 724 630Q700 577 675 516.5Q650 456 628 404Q623 393 619 384Q615 375 611 365Q637 365 665 365Q693 365 721 366Q746 367 751 367Q756 367 756 365Q756 360 744 347.5Q732 335 710 314Q703 314 690 314Q677 314 660.5 314.5Q644 315 626 315Q608 315 592 315H588Q486 104 373 45Q386 44 424 43Q462 42 510.5 42.5Q559 43 611.5 44.5Q664 46 706 49Q769 53 817.5 65.5Q866 78 904 101.5Q942 125 971.5 162Q1001 199 1027 253Q1055 313 1064.5 376Q1074 439 1063.5 499Q1053 559 1023 612Q993 665 943.5 705Q894 745 824 768.5Q754 792 664 792Q582 792 516 778Q450 764 398 732Q346 700 305.5 648.5Q265 597 234 522Q227 492 207 479Q187 466 160 466Q131 466 127 482.5Q123 499 141 527Q180 587 244 643Q308 699 386 741.5Q464 784 549 808.5Q634 833 714 831Q809 831 882.5 805.5Q956 780 1008.5 737Q1061 694 1092.5 638.5Q1124 583 1135.5 522Q1147 461 1138 400Q1129 339 1101 285Q1074 236 1023 185Q972 134 908 92.5Q844 51 773 24.5Q702 -2 636 -2Z" glyph-name="Dcroat" horiz-adv-x="1138" unicode="&#272;" /><glyph d="M342 445Q393 445 457 445.5Q521 446 589 447Q640 571 699 648Q758 725 821 760Q766 774 710 784Q654 794 604 794Q535 794 477 776Q419 758 370.5 719Q322 680 281 619Q240 558 204 472Q197 442 177 429Q157 416 131 416Q101 416 97 432.5Q93 449 111 477Q156 547 216 611Q276 675 350.5 723Q425 771 513 799.5Q601 828 703 828Q775 828 857.5 813Q940 798 1034 775Q1083 763 1115.5 754.5Q1148 746 1168 739.5Q1188 733 1196.5 728Q1205 723 1207 719Q1209 714 1205 706.5Q1201 699 1195 691Q1189 683 1182 676.5Q1175 670 1170 669Q1165 669 1146.5 673Q1128 677 1101 684Q1074 691 1040.5 700Q1007 709 971 719Q942 727 905.5 737Q869 747 830 757Q813 745 793 713Q773 681 751 638.5Q729 596 707 546.5Q685 497 664 449Q737 450 799 451Q861 452 896 452Q931 452 963 450.5Q995 449 1011 445Q1017 444 1013.5 435Q1010 426 1001.5 415Q993 404 982 394.5Q971 385 962 384Q941 380 921 380.5Q901 381 869 383Q834 385 775.5 392.5Q717 400 647 408Q589 274 525 181Q461 88 398 50Q415 50 452.5 49.5Q490 49 535 49Q580 49 625.5 51Q671 53 706 57Q746 61 784.5 66Q823 71 854.5 75Q886 79 908.5 81.5Q931 84 939 84Q946 84 939 74.5Q932 65 921 53Q910 41 898 29Q886 17 883 12Q878 9 855 8Q832 7 803 6Q774 5 745.5 5Q717 5 701 5H519Q447 5 376.5 3.5Q306 2 248.5 0.5Q191 -1 152.5 -2Q114 -3 106 -3Q59 -3 46 12Q43 30 59.5 51Q76 72 95 84Q104 86 125.5 82.5Q147 79 175 73Q203 67 235 60.5Q267 54 298 51.5Q329 49 356.5 52Q384 55 402 68Q429 86 450 119.5Q471 153 491 198Q511 243 531.5 298.5Q552 354 576 417Q516 424 455 429.5Q394 435 338 437Q330 437 328 438.5Q326 440 328 441.5Q330 443 334.5 444Q339 445 342 445Z" glyph-name="E" horiz-adv-x="1066" unicode="E" /><glyph d="M950 888Q948 886 946 886Q942 886 942 890Q942 892 945 895Q966 915 988 941.5Q1010 968 1028 992.5Q1046 1017 1059 1035.5Q1072 1054 1077 1059Q1081 1063 1088 1064Q1095 1065 1103 1065Q1110 1065 1115.5 1064.5Q1121 1064 1123 1062Q1125 1060 1125.5 1054.5Q1126 1049 1126 1041Q1126 1036 1122 1031.5Q1118 1027 1113 1022Q1108 1017 1089.5 1003.5Q1071 990 1047 971.5Q1023 953 997 931.5Q971 910 950 888ZM342 445Q393 445 457 445.5Q521 446 589 447Q640 571 699 648Q758 725 821 760Q766 774 710 784Q654 794 604 794Q535 794 477 776Q419 758 370.5 719Q322 680 281 619Q240 558 204 472Q197 442 177 429Q157 416 131 416Q101 416 97 432.5Q93 449 111 477Q156 547 216 611Q276 675 350.5 723Q425 771 513 799.5Q601 828 703 828Q775 828 857.5 813Q940 798 1034 775Q1083 763 1115.5 754.5Q1148 746 1168 739.5Q1188 733 1196.5 728Q1205 723 1207 719Q1209 714 1205 706.5Q1201 699 1195 691Q1189 683 1182 676.5Q1175 670 1170 669Q1165 669 1146.5 673Q1128 677 1101 684Q1074 691 1040.5 700Q1007 709 971 719Q942 727 905.5 737Q869 747 830 757Q813 745 793 713Q773 681 751 638.5Q729 596 707 546.5Q685 497 664 449Q737 450 799 451Q861 452 896 452Q931 452 963 450.5Q995 449 1011 445Q1017 444 1013.5 435Q1010 426 1001.5 415Q993 404 982 394.5Q971 385 962 384Q941 380 921 380.5Q901 381 869 383Q834 385 775.5 392.5Q717 400 647 408Q589 274 525 181Q461 88 398 50Q415 50 452.5 49.5Q490 49 535 49Q580 49 625.5 51Q671 53 706 57Q746 61 784.5 66Q823 71 854.5 75Q886 79 908.5 81.5Q931 84 939 84Q946 84 939 74.5Q932 65 921 53Q910 41 898 29Q886 17 883 12Q878 9 855 8Q832 7 803 6Q774 5 745.5 5Q717 5 701 5H519Q447 5 376.5 3.5Q306 2 248.5 0.5Q191 -1 152.5 -2Q114 -3 106 -3Q59 -3 46 12Q43 30 59.5 51Q76 72 95 84Q104 86 125.5 82.5Q147 79 175 73Q203 67 235 60.5Q267 54 298 51.5Q329 49 356.5 52Q384 55 402 68Q429 86 450 119.5Q471 153 491 198Q511 243 531.5 298.5Q552 354 576 417Q516 424 455 429.5Q394 435 338 437Q330 437 328 438.5Q326 440 328 441.5Q330 443 334.5 444Q339 445 342 445Z" glyph-name="Eacute" horiz-adv-x="1066" unicode="&#201;" /><glyph d="M965 890Q924 890 892 912Q860 934 834 969Q831 974 829 976.5Q827 979 827 982Q827 990 853 998Q870 1003 876 1002.5Q882 1002 888 994Q917 956 942.5 934.5Q968 913 1000 913Q1046 913 1083 995Q1086 1003 1095 1003Q1100 1003 1103.5 999.5Q1107 996 1103 991Q1092 972 1076.5 954Q1061 936 1043 922Q1025 908 1005 899.5Q985 891 965 890ZM342 445Q393 445 457 445.5Q521 446 589 447Q640 571 699 648Q758 725 821 760Q766 774 710 784Q654 794 604 794Q535 794 477 776Q419 758 370.5 719Q322 680 281 619Q240 558 204 472Q197 442 177 429Q157 416 131 416Q101 416 97 432.5Q93 449 111 477Q156 547 216 611Q276 675 350.5 723Q425 771 513 799.5Q601 828 703 828Q775 828 857.5 813Q940 798 1034 775Q1083 763 1115.5 754.5Q1148 746 1168 739.5Q1188 733 1196.5 728Q1205 723 1207 719Q1209 714 1205 706.5Q1201 699 1195 691Q1189 683 1182 676.5Q1175 670 1170 669Q1165 669 1146.5 673Q1128 677 1101 684Q1074 691 1040.5 700Q1007 709 971 719Q942 727 905.5 737Q869 747 830 757Q813 745 793 713Q773 681 751 638.5Q729 596 707 546.5Q685 497 664 449Q737 450 799 451Q861 452 896 452Q931 452 963 450.5Q995 449 1011 445Q1017 444 1013.5 435Q1010 426 1001.5 415Q993 404 982 394.5Q971 385 962 384Q941 380 921 380.5Q901 381 869 383Q834 385 775.5 392.5Q717 400 647 408Q589 274 525 181Q461 88 398 50Q415 50 452.5 49.5Q490 49 535 49Q580 49 625.5 51Q671 53 706 57Q746 61 784.5 66Q823 71 854.5 75Q886 79 908.5 81.5Q931 84 939 84Q946 84 939 74.5Q932 65 921 53Q910 41 898 29Q886 17 883 12Q878 9 855 8Q832 7 803 6Q774 5 745.5 5Q717 5 701 5H519Q447 5 376.5 3.5Q306 2 248.5 0.5Q191 -1 152.5 -2Q114 -3 106 -3Q59 -3 46 12Q43 30 59.5 51Q76 72 95 84Q104 86 125.5 82.5Q147 79 175 73Q203 67 235 60.5Q267 54 298 51.5Q329 49 356.5 52Q384 55 402 68Q429 86 450 119.5Q471 153 491 198Q511 243 531.5 298.5Q552 354 576 417Q516 424 455 429.5Q394 435 338 437Q330 437 328 438.5Q326 440 328 441.5Q330 443 334.5 444Q339 445 342 445Z" glyph-name="Ebreve" horiz-adv-x="1066" unicode="&#276;" /><glyph d="M956 882Q958 878 962 882Q975 898 993.5 916Q1012 934 1031 950.5Q1050 967 1067 981Q1084 995 1096 1004Q1105 1010 1114.5 1016Q1124 1022 1135 1021Q1146 1019 1151 1013.5Q1156 1008 1155 1003Q1155 1000 1152 992Q1149 984 1132 973Q1117 964 1096 952Q1075 940 1051.5 926.5Q1028 913 1005 899Q982 885 963 872Q956 867 951 873Q934 894 923 908.5Q912 923 902 935Q892 947 883 957.5Q874 968 862 980Q848 993 844.5 1000.5Q841 1008 842 1013Q842 1022 849 1028.5Q856 1035 864 1034Q887 1033 901 1007Q913 984 925.5 952Q938 920 956 882ZM342 445Q393 445 457 445.5Q521 446 589 447Q640 571 699 648Q758 725 821 760Q766 774 710 784Q654 794 604 794Q535 794 477 776Q419 758 370.5 719Q322 680 281 619Q240 558 204 472Q197 442 177 429Q157 416 131 416Q101 416 97 432.5Q93 449 111 477Q156 547 216 611Q276 675 350.5 723Q425 771 513 799.5Q601 828 703 828Q775 828 857.5 813Q940 798 1034 775Q1083 763 1115.5 754.5Q1148 746 1168 739.5Q1188 733 1196.5 728Q1205 723 1207 719Q1209 714 1205 706.5Q1201 699 1195 691Q1189 683 1182 676.5Q1175 670 1170 669Q1165 669 1146.5 673Q1128 677 1101 684Q1074 691 1040.5 700Q1007 709 971 719Q942 727 905.5 737Q869 747 830 757Q813 745 793 713Q773 681 751 638.5Q729 596 707 546.5Q685 497 664 449Q737 450 799 451Q861 452 896 452Q931 452 963 450.5Q995 449 1011 445Q1017 444 1013.5 435Q1010 426 1001.5 415Q993 404 982 394.5Q971 385 962 384Q941 380 921 380.5Q901 381 869 383Q834 385 775.5 392.5Q717 400 647 408Q589 274 525 181Q461 88 398 50Q415 50 452.5 49.5Q490 49 535 49Q580 49 625.5 51Q671 53 706 57Q746 61 784.5 66Q823 71 854.5 75Q886 79 908.5 81.5Q931 84 939 84Q946 84 939 74.5Q932 65 921 53Q910 41 898 29Q886 17 883 12Q878 9 855 8Q832 7 803 6Q774 5 745.5 5Q717 5 701 5H519Q447 5 376.5 3.5Q306 2 248.5 0.5Q191 -1 152.5 -2Q114 -3 106 -3Q59 -3 46 12Q43 30 59.5 51Q76 72 95 84Q104 86 125.5 82.5Q147 79 175 73Q203 67 235 60.5Q267 54 298 51.5Q329 49 356.5 52Q384 55 402 68Q429 86 450 119.5Q471 153 491 198Q511 243 531.5 298.5Q552 354 576 417Q516 424 455 429.5Q394 435 338 437Q330 437 328 438.5Q326 440 328 441.5Q330 443 334.5 444Q339 445 342 445Z" glyph-name="Ecaron" horiz-adv-x="1066" unicode="&#282;" /><glyph d="M995 1022Q993 1026 989 1022Q975 1006 957 988Q939 970 920 953.5Q901 937 884 923Q867 909 855 900Q846 894 836.5 888Q827 882 816 883Q805 885 800 890.5Q795 896 796 901Q796 904 799 912Q802 920 819 931Q834 940 855 952Q876 964 899.5 977.5Q923 991 946 1005Q969 1019 988 1032Q994 1038 999 1031Q1015 1010 1027 995.5Q1039 981 1048.5 969Q1058 957 1067.5 946.5Q1077 936 1089 924Q1103 911 1106.5 903.5Q1110 896 1109 891Q1109 882 1102 875.5Q1095 869 1087 870Q1064 871 1050 897Q1038 920 1025.5 952Q1013 984 995 1022ZM342 445Q393 445 457 445.5Q521 446 589 447Q640 571 699 648Q758 725 821 760Q766 774 710 784Q654 794 604 794Q535 794 477 776Q419 758 370.5 719Q322 680 281 619Q240 558 204 472Q197 442 177 429Q157 416 131 416Q101 416 97 432.5Q93 449 111 477Q156 547 216 611Q276 675 350.5 723Q425 771 513 799.5Q601 828 703 828Q775 828 857.5 813Q940 798 1034 775Q1083 763 1115.5 754.5Q1148 746 1168 739.5Q1188 733 1196.5 728Q1205 723 1207 719Q1209 714 1205 706.5Q1201 699 1195 691Q1189 683 1182 676.5Q1175 670 1170 669Q1165 669 1146.5 673Q1128 677 1101 684Q1074 691 1040.5 700Q1007 709 971 719Q942 727 905.5 737Q869 747 830 757Q813 745 793 713Q773 681 751 638.5Q729 596 707 546.5Q685 497 664 449Q737 450 799 451Q861 452 896 452Q931 452 963 450.5Q995 449 1011 445Q1017 444 1013.5 435Q1010 426 1001.5 415Q993 404 982 394.5Q971 385 962 384Q941 380 921 380.5Q901 381 869 383Q834 385 775.5 392.5Q717 400 647 408Q589 274 525 181Q461 88 398 50Q415 50 452.5 49.5Q490 49 535 49Q580 49 625.5 51Q671 53 706 57Q746 61 784.5 66Q823 71 854.5 75Q886 79 908.5 81.5Q931 84 939 84Q946 84 939 74.5Q932 65 921 53Q910 41 898 29Q886 17 883 12Q878 9 855 8Q832 7 803 6Q774 5 745.5 5Q717 5 701 5H519Q447 5 376.5 3.5Q306 2 248.5 0.5Q191 -1 152.5 -2Q114 -3 106 -3Q59 -3 46 12Q43 30 59.5 51Q76 72 95 84Q104 86 125.5 82.5Q147 79 175 73Q203 67 235 60.5Q267 54 298 51.5Q329 49 356.5 52Q384 55 402 68Q429 86 450 119.5Q471 153 491 198Q511 243 531.5 298.5Q552 354 576 417Q516 424 455 429.5Q394 435 338 437Q330 437 328 438.5Q326 440 328 441.5Q330 443 334.5 444Q339 445 342 445Z" glyph-name="Ecircumflex" horiz-adv-x="1066" unicode="&#202;" /><glyph d="M851 987Q855 1010 873 1023Q891 1036 913 1032Q936 1028 949 1009.5Q962 991 958 968Q954 946 935.5 933Q917 920 894 925Q872 929 859 947Q846 965 851 987ZM1065 949Q1069 971 1087.5 984.5Q1106 998 1128 993Q1151 989 1164 970.5Q1177 952 1172 930Q1168 907 1149.5 894.5Q1131 882 1109 886Q1086 890 1073.5 908Q1061 926 1065 949ZM342 445Q393 445 457 445.5Q521 446 589 447Q640 571 699 648Q758 725 821 760Q766 774 710 784Q654 794 604 794Q535 794 477 776Q419 758 370.5 719Q322 680 281 619Q240 558 204 472Q197 442 177 429Q157 416 131 416Q101 416 97 432.5Q93 449 111 477Q156 547 216 611Q276 675 350.5 723Q425 771 513 799.5Q601 828 703 828Q775 828 857.5 813Q940 798 1034 775Q1083 763 1115.5 754.5Q1148 746 1168 739.5Q1188 733 1196.5 728Q1205 723 1207 719Q1209 714 1205 706.5Q1201 699 1195 691Q1189 683 1182 676.5Q1175 670 1170 669Q1165 669 1146.5 673Q1128 677 1101 684Q1074 691 1040.5 700Q1007 709 971 719Q942 727 905.5 737Q869 747 830 757Q813 745 793 713Q773 681 751 638.5Q729 596 707 546.5Q685 497 664 449Q737 450 799 451Q861 452 896 452Q931 452 963 450.5Q995 449 1011 445Q1017 444 1013.5 435Q1010 426 1001.5 415Q993 404 982 394.5Q971 385 962 384Q941 380 921 380.5Q901 381 869 383Q834 385 775.5 392.5Q717 400 647 408Q589 274 525 181Q461 88 398 50Q415 50 452.5 49.5Q490 49 535 49Q580 49 625.5 51Q671 53 706 57Q746 61 784.5 66Q823 71 854.5 75Q886 79 908.5 81.5Q931 84 939 84Q946 84 939 74.5Q932 65 921 53Q910 41 898 29Q886 17 883 12Q878 9 855 8Q832 7 803 6Q774 5 745.5 5Q717 5 701 5H519Q447 5 376.5 3.5Q306 2 248.5 0.5Q191 -1 152.5 -2Q114 -3 106 -3Q59 -3 46 12Q43 30 59.5 51Q76 72 95 84Q104 86 125.5 82.5Q147 79 175 73Q203 67 235 60.5Q267 54 298 51.5Q329 49 356.5 52Q384 55 402 68Q429 86 450 119.5Q471 153 491 198Q511 243 531.5 298.5Q552 354 576 417Q516 424 455 429.5Q394 435 338 437Q330 437 328 438.5Q326 440 328 441.5Q330 443 334.5 444Q339 445 342 445Z" glyph-name="Edieresis" horiz-adv-x="1066" unicode="&#203;" /><glyph d="M939 941Q939 965 955.5 982Q972 999 996 999Q1020 999 1037 982Q1054 965 1054 941Q1054 917 1037 900.5Q1020 884 996 884Q972 884 955.5 900.5Q939 917 939 941ZM342 445Q393 445 457 445.5Q521 446 589 447Q640 571 699 648Q758 725 821 760Q766 774 710 784Q654 794 604 794Q535 794 477 776Q419 758 370.5 719Q322 680 281 619Q240 558 204 472Q197 442 177 429Q157 416 131 416Q101 416 97 432.5Q93 449 111 477Q156 547 216 611Q276 675 350.5 723Q425 771 513 799.5Q601 828 703 828Q775 828 857.5 813Q940 798 1034 775Q1083 763 1115.5 754.5Q1148 746 1168 739.5Q1188 733 1196.5 728Q1205 723 1207 719Q1209 714 1205 706.5Q1201 699 1195 691Q1189 683 1182 676.5Q1175 670 1170 669Q1165 669 1146.5 673Q1128 677 1101 684Q1074 691 1040.5 700Q1007 709 971 719Q942 727 905.5 737Q869 747 830 757Q813 745 793 713Q773 681 751 638.5Q729 596 707 546.5Q685 497 664 449Q737 450 799 451Q861 452 896 452Q931 452 963 450.5Q995 449 1011 445Q1017 444 1013.5 435Q1010 426 1001.5 415Q993 404 982 394.5Q971 385 962 384Q941 380 921 380.5Q901 381 869 383Q834 385 775.5 392.5Q717 400 647 408Q589 274 525 181Q461 88 398 50Q415 50 452.5 49.5Q490 49 535 49Q580 49 625.5 51Q671 53 706 57Q746 61 784.5 66Q823 71 854.5 75Q886 79 908.5 81.5Q931 84 939 84Q946 84 939 74.5Q932 65 921 53Q910 41 898 29Q886 17 883 12Q878 9 855 8Q832 7 803 6Q774 5 745.5 5Q717 5 701 5H519Q447 5 376.5 3.5Q306 2 248.5 0.5Q191 -1 152.5 -2Q114 -3 106 -3Q59 -3 46 12Q43 30 59.5 51Q76 72 95 84Q104 86 125.5 82.5Q147 79 175 73Q203 67 235 60.5Q267 54 298 51.5Q329 49 356.5 52Q384 55 402 68Q429 86 450 119.5Q471 153 491 198Q511 243 531.5 298.5Q552 354 576 417Q516 424 455 429.5Q394 435 338 437Q330 437 328 438.5Q326 440 328 441.5Q330 443 334.5 444Q339 445 342 445Z" glyph-name="Edotaccent" horiz-adv-x="1066" unicode="&#278;" /><glyph d="M1007 886Q986 908 960 929.5Q934 951 910 969.5Q886 988 867.5 1001.5Q849 1015 844 1020Q839 1025 835 1029.5Q831 1034 831 1039Q831 1047 831.5 1052.5Q832 1058 834 1060Q836 1062 841.5 1062.5Q847 1063 854 1063Q862 1063 869 1062Q876 1061 880 1057Q884 1052 897.5 1033.5Q911 1015 929 990.5Q947 966 969 939.5Q991 913 1012 893Q1015 890 1015 888Q1015 884 1011 884Q1009 884 1007 886ZM342 445Q393 445 457 445.5Q521 446 589 447Q640 571 699 648Q758 725 821 760Q766 774 710 784Q654 794 604 794Q535 794 477 776Q419 758 370.5 719Q322 680 281 619Q240 558 204 472Q197 442 177 429Q157 416 131 416Q101 416 97 432.5Q93 449 111 477Q156 547 216 611Q276 675 350.5 723Q425 771 513 799.5Q601 828 703 828Q775 828 857.5 813Q940 798 1034 775Q1083 763 1115.5 754.5Q1148 746 1168 739.5Q1188 733 1196.5 728Q1205 723 1207 719Q1209 714 1205 706.5Q1201 699 1195 691Q1189 683 1182 676.5Q1175 670 1170 669Q1165 669 1146.5 673Q1128 677 1101 684Q1074 691 1040.5 700Q1007 709 971 719Q942 727 905.5 737Q869 747 830 757Q813 745 793 713Q773 681 751 638.5Q729 596 707 546.5Q685 497 664 449Q737 450 799 451Q861 452 896 452Q931 452 963 450.5Q995 449 1011 445Q1017 444 1013.5 435Q1010 426 1001.5 415Q993 404 982 394.5Q971 385 962 384Q941 380 921 380.5Q901 381 869 383Q834 385 775.5 392.5Q717 400 647 408Q589 274 525 181Q461 88 398 50Q415 50 452.5 49.5Q490 49 535 49Q580 49 625.5 51Q671 53 706 57Q746 61 784.5 66Q823 71 854.5 75Q886 79 908.5 81.5Q931 84 939 84Q946 84 939 74.5Q932 65 921 53Q910 41 898 29Q886 17 883 12Q878 9 855 8Q832 7 803 6Q774 5 745.5 5Q717 5 701 5H519Q447 5 376.5 3.5Q306 2 248.5 0.5Q191 -1 152.5 -2Q114 -3 106 -3Q59 -3 46 12Q43 30 59.5 51Q76 72 95 84Q104 86 125.5 82.5Q147 79 175 73Q203 67 235 60.5Q267 54 298 51.5Q329 49 356.5 52Q384 55 402 68Q429 86 450 119.5Q471 153 491 198Q511 243 531.5 298.5Q552 354 576 417Q516 424 455 429.5Q394 435 338 437Q330 437 328 438.5Q326 440 328 441.5Q330 443 334.5 444Q339 445 342 445Z" glyph-name="Egrave" horiz-adv-x="1066" unicode="&#200;" /><glyph d="M1043 944Q1067 939 1090.5 935Q1114 931 1140 927Q1168 923 1173.5 922.5Q1179 922 1179 920Q1177 915 1161.5 903Q1146 891 1119 872Q1112 874 1087.5 879Q1063 884 1035 889Q1022 891 1012.5 892.5Q1003 894 994 895Q985 896 975 897Q965 898 952 900Q924 904 918.5 905.5Q913 907 914 909Q915 914 930.5 925.5Q946 937 973 956Q980 955 997 952Q1014 949 1042 944ZM342 445Q393 445 457 445.5Q521 446 589 447Q640 571 699 648Q758 725 821 760Q766 774 710 784Q654 794 604 794Q535 794 477 776Q419 758 370.5 719Q322 680 281 619Q240 558 204 472Q197 442 177 429Q157 416 131 416Q101 416 97 432.5Q93 449 111 477Q156 547 216 611Q276 675 350.5 723Q425 771 513 799.5Q601 828 703 828Q775 828 857.5 813Q940 798 1034 775Q1083 763 1115.5 754.5Q1148 746 1168 739.5Q1188 733 1196.5 728Q1205 723 1207 719Q1209 714 1205 706.5Q1201 699 1195 691Q1189 683 1182 676.5Q1175 670 1170 669Q1165 669 1146.5 673Q1128 677 1101 684Q1074 691 1040.5 700Q1007 709 971 719Q942 727 905.5 737Q869 747 830 757Q813 745 793 713Q773 681 751 638.5Q729 596 707 546.5Q685 497 664 449Q737 450 799 451Q861 452 896 452Q931 452 963 450.5Q995 449 1011 445Q1017 444 1013.5 435Q1010 426 1001.5 415Q993 404 982 394.5Q971 385 962 384Q941 380 921 380.5Q901 381 869 383Q834 385 775.5 392.5Q717 400 647 408Q589 274 525 181Q461 88 398 50Q415 50 452.5 49.5Q490 49 535 49Q580 49 625.5 51Q671 53 706 57Q746 61 784.5 66Q823 71 854.5 75Q886 79 908.5 81.5Q931 84 939 84Q946 84 939 74.5Q932 65 921 53Q910 41 898 29Q886 17 883 12Q878 9 855 8Q832 7 803 6Q774 5 745.5 5Q717 5 701 5H519Q447 5 376.5 3.5Q306 2 248.5 0.5Q191 -1 152.5 -2Q114 -3 106 -3Q59 -3 46 12Q43 30 59.5 51Q76 72 95 84Q104 86 125.5 82.5Q147 79 175 73Q203 67 235 60.5Q267 54 298 51.5Q329 49 356.5 52Q384 55 402 68Q429 86 450 119.5Q471 153 491 198Q511 243 531.5 298.5Q552 354 576 417Q516 424 455 429.5Q394 435 338 437Q330 437 328 438.5Q326 440 328 441.5Q330 443 334.5 444Q339 445 342 445Z" glyph-name="Emacron" horiz-adv-x="1066" unicode="&#274;" /><glyph d="M332 -277Q325 -280 321.5 -274.5Q318 -269 327 -265Q373 -247 411.5 -227.5Q450 -208 484.5 -182Q519 -156 550.5 -121Q582 -86 613 -37Q614 -25 613 -7L566 375Q554 476 544 549.5Q534 623 524 675L270 296Q202 195 145.5 111.5Q89 28 29 -31.5Q-31 -91 -102 -123.5Q-173 -156 -269 -156Q-299 -156 -334.5 -150.5Q-370 -145 -400.5 -137.5Q-431 -130 -452 -122.5Q-473 -115 -476 -112Q-479 -108 -472.5 -97.5Q-466 -87 -455 -76Q-444 -65 -431.5 -55.5Q-419 -46 -410 -43Q-403 -41 -378.5 -49.5Q-354 -58 -319 -69.5Q-284 -81 -239.5 -90.5Q-195 -100 -147 -100Q-98 -100 -53.5 -75.5Q-9 -51 37.5 -1.5Q84 48 137.5 123.5Q191 199 259 300L522 690Q509 755 494 788Q479 821 457 835Q442 844 423 844Q404 844 382 836Q370 832 339.5 812.5Q309 793 274.5 769Q240 745 208 720.5Q176 696 160 683L154 690Q170 703 204 730Q238 757 278 786.5Q318 816 356.5 842.5Q395 869 421 883Q428 887 442 890.5Q456 894 471 895.5Q486 897 500.5 896Q515 895 525 891Q546 882 562 851Q578 820 591.5 761Q605 702 618 612.5Q631 523 646 396L683 85Q737 196 776 283.5Q815 371 848 438Q881 505 911 554.5Q941 604 977 640Q1004 667 1036 687.5Q1068 708 1108 723.5Q1148 739 1198 750.5Q1248 762 1312 772Q1304 773 1289 774Q1274 775 1258.5 775.5Q1243 776 1228 776Q1213 776 1205 776Q1122 776 1053 772.5Q984 769 930 765.5Q876 762 837.5 758.5Q799 755 778 755Q771 755 776 764.5Q781 774 791 786.5Q801 799 814 810.5Q827 822 837 825Q843 828 875.5 827.5Q908 827 955 825.5Q1002 824 1056 822.5Q1110 821 1158 821Q1204 821 1247.5 822.5Q1291 824 1328.5 826Q1366 828 1396.5 829.5Q1427 831 1447 831Q1453 831 1448 822Q1443 813 1432.5 801.5Q1422 790 1409 781Q1396 772 1388 772Q1285 772 1201 730Q1117 688 1037 605Q949 513 862.5 372Q776 231 673 44Q628 -38 589 -89.5Q550 -141 510.5 -175Q471 -209 428 -231.5Q385 -254 332 -277Z" glyph-name="Eng" horiz-adv-x="947" unicode="&#330;" /><glyph d="M342 445Q393 445 457 445.5Q521 446 589 447Q640 571 699 648Q758 725 821 760Q766 774 710 784Q654 794 604 794Q535 794 477 776Q419 758 370.5 719Q322 680 281 619Q240 558 204 472Q197 442 177 429Q157 416 131 416Q101 416 97 432.5Q93 449 111 477Q156 547 216 611Q276 675 350.5 723Q425 771 513 799.5Q601 828 703 828Q775 828 857.5 813Q940 798 1034 775Q1083 763 1115.5 754.5Q1148 746 1168 739.5Q1188 733 1196.5 728Q1205 723 1207 719Q1209 714 1205 706.5Q1201 699 1195 691Q1189 683 1182 676.5Q1175 670 1170 669Q1165 669 1146.5 673Q1128 677 1101 684Q1074 691 1040.5 700Q1007 709 971 719Q942 727 905.5 737Q869 747 830 757Q813 745 793 713Q773 681 751 638.5Q729 596 707 546.5Q685 497 664 449Q737 450 799 451Q861 452 896 452Q931 452 963 450.5Q995 449 1011 445Q1017 444 1013.5 435Q1010 426 1001.5 415Q993 404 982 394.5Q971 385 962 384Q941 380 921 380.5Q901 381 869 383Q834 385 775.5 392.5Q717 400 647 408Q589 274 525 181Q461 88 398 50Q415 50 452.5 49.5Q490 49 535 49Q580 49 625.5 51Q671 53 706 57Q746 61 784.5 66Q823 71 854.5 75Q886 79 908.5 81.5Q931 84 939 84H947L949 79Q917 42 897.5 17Q878 -8 866.5 -25.5Q855 -43 850 -55Q845 -67 844 -76Q841 -96 855 -110Q869 -124 901 -124Q927 -124 948.5 -116Q970 -108 983 -101Q985 -100 980.5 -111.5Q976 -123 969.5 -137Q963 -151 955 -164Q947 -177 943 -180Q932 -185 911.5 -190Q891 -195 868 -195Q833 -195 813.5 -173.5Q794 -152 799 -114Q802 -91 821.5 -61.5Q841 -32 877 10Q865 8 841.5 7Q818 6 791.5 5.5Q765 5 740 5Q715 5 701 5H519Q447 5 376.5 3.5Q306 2 248.5 0.5Q191 -1 152.5 -2Q114 -3 106 -3Q59 -3 46 12Q43 30 59.5 51Q76 72 95 84Q104 86 125.5 82.5Q147 79 175 73Q203 67 235 60.5Q267 54 298 51.5Q329 49 356.5 52Q384 55 402 68Q429 86 450 119.5Q471 153 491 198Q511 243 531.5 298.5Q552 354 576 417Q516 424 455 429.5Q394 435 338 437Q330 437 328 438.5Q326 440 328 441.5Q330 443 334.5 444Q339 445 342 445Z" glyph-name="Eogonek" horiz-adv-x="1066" unicode="&#280;" /><glyph d="M441 0Q369 1 309.5 0.5Q250 0 206 -1Q162 -2 134.5 -2.5Q107 -3 99 -3Q52 -3 39 12Q38 21 42 32.5Q46 44 53 55.5Q60 67 69.5 77Q79 87 88 93Q97 96 118 91.5Q139 87 166 80Q193 73 224 65Q255 57 285 53.5Q315 50 341.5 52Q368 54 386 67Q408 82 425 105.5Q442 129 457 160Q472 191 487 229.5Q502 268 519 314Q508 313 497.5 313Q487 313 476 313Q451 312 446 312.5Q441 313 441 315Q441 320 453 332.5Q465 345 487 366Q495 366 508 365.5Q521 365 538 365L557 413Q583 479 612.5 537Q642 595 673 641.5Q704 688 737 721Q770 754 803 771L810 769Q792 760 770 721.5Q748 683 724 630Q700 577 675 516.5Q650 456 628 404Q623 393 619 384Q615 375 611 365Q637 365 665 365Q693 365 721 366Q746 367 751 367Q756 367 756 365Q756 360 744 347.5Q732 335 710 314Q703 314 690 314Q677 314 660.5 314.5Q644 315 626 315Q608 315 592 315H588Q486 104 373 45Q386 44 424 43Q462 42 510.5 42.5Q559 43 611.5 44.5Q664 46 706 49Q769 53 817.5 65.5Q866 78 904 101.5Q942 125 971.5 162Q1001 199 1027 253Q1055 313 1064.5 376Q1074 439 1063.5 499Q1053 559 1023 612Q993 665 943.5 705Q894 745 824 768.5Q754 792 664 792Q582 792 516 778Q450 764 398 732Q346 700 305.5 648.5Q265 597 234 522Q227 492 207 479Q187 466 160 466Q131 466 127 482.5Q123 499 141 527Q180 587 244 643Q308 699 386 741.5Q464 784 549 808.5Q634 833 714 831Q809 831 882.5 805.5Q956 780 1008.5 737Q1061 694 1092.5 638.5Q1124 583 1135.5 522Q1147 461 1138 400Q1129 339 1101 285Q1074 236 1023 185Q972 134 908 92.5Q844 51 773 24.5Q702 -2 636 -2Z" glyph-name="Eth" horiz-adv-x="1138" unicode="&#208;" /><glyph d="M200 258Q188 202 194 154.5Q200 107 223 72.5Q246 38 284.5 19Q323 0 376 0Q445 0 504.5 23Q564 46 613 83Q662 120 700.5 167.5Q739 215 766 265H776L659 27Q588 4 521.5 -3Q455 -10 374 -10Q315 -10 268.5 11Q222 32 190.5 68Q159 104 144 152.5Q129 201 133 257Q97 256 67 254Q37 252 1 249Q1 254 1.5 261Q2 268 7 274L134 268Q139 308 153 349.5Q167 391 193 433Q158 431 130 429Q102 427 68 424Q66 437 73 449Q91 448 105.5 447Q120 446 134.5 445.5Q149 445 164.5 444.5Q180 444 200 444Q249 521 314 571Q379 621 449.5 650.5Q520 680 590 691.5Q660 703 720 703Q815 703 872.5 688Q930 673 958 658L850 438H841Q865 498 872 545Q879 592 865 625Q851 658 814.5 675.5Q778 693 717 693Q661 693 604.5 682.5Q548 672 492.5 644Q437 616 384 567.5Q331 519 282 444H383Q455 444 534 446Q613 448 688 453Q690 448 688 440.5Q686 433 681 428Q609 431 530.5 433Q452 435 380 435Q349 435 323.5 435Q298 435 276 434L274 431Q247 388 229.5 346.5Q212 305 202 267H284Q356 267 430 268.5Q504 270 579 275Q581 269 579 261.5Q577 254 570 250Q499 253 426.5 255.5Q354 258 282 258Z" glyph-name="Euro" horiz-adv-x="883" unicode="&#8364;" /><glyph d="M140 416Q111 416 107 432.5Q103 449 121 477Q166 547 226 611Q286 675 360.5 723Q435 771 523 799.5Q611 828 712 828Q784 828 867 813Q950 798 1044 775Q1093 763 1125.5 754.5Q1158 746 1177.5 739.5Q1197 733 1205.5 728Q1214 723 1216 719Q1218 714 1214 706.5Q1210 699 1204 691Q1198 683 1191 676.5Q1184 670 1180 669Q1175 669 1156.5 673Q1138 677 1110.5 684Q1083 691 1049.5 700Q1016 709 980 719Q949 727 912.5 737.5Q876 748 834 759Q812 742 790.5 708.5Q769 675 747.5 632.5Q726 590 705 542.5Q684 495 663 449Q721 451 770.5 451.5Q820 452 852 452Q888 452 920 450.5Q952 449 968 445Q974 444 970.5 436Q967 428 958.5 418Q950 408 939 399.5Q928 391 919 390Q898 386 878 386.5Q858 387 826 389Q793 391 746.5 396.5Q700 402 644 409L642 404Q576 257 507 159.5Q438 62 366 24Q300 -10 238.5 -22.5Q177 -35 124 -35Q73 -35 49.5 -31Q26 -27 18 -19Q16 -11 20 -1Q24 9 31 18.5Q38 28 46.5 35.5Q55 43 63 48Q72 50 93.5 46.5Q115 43 143.5 37.5Q172 32 204 26Q236 20 267 18Q298 16 325.5 19Q353 22 371 35Q399 54 423 91Q447 128 470.5 177.5Q494 227 519 287Q544 347 573 413Q573 414 575 418Q521 424 463.5 429Q406 434 348 437Q339 437 337.5 438.5Q336 440 338 441.5Q340 443 344 444Q348 445 351 445Q404 445 465 445.5Q526 446 588 447Q639 559 695 639.5Q751 720 826 761Q772 775 717 784.5Q662 794 613 794Q544 794 486 776Q428 758 379.5 719Q331 680 290 619Q249 558 214 472Q206 442 186.5 429Q167 416 140 416Z" glyph-name="F" horiz-adv-x="965" unicode="F" /><glyph d="M397 -2Q318 -2 261 23.5Q204 49 168.5 92Q133 135 117.5 191Q102 247 104.5 307.5Q107 368 128 430Q149 492 186 546Q219 594 271.5 644Q324 694 394 735Q464 776 550.5 802Q637 828 738 828Q774 828 808.5 825.5Q843 823 880 816.5Q917 810 957 799.5Q997 789 1044 774Q1049 772 1049 768Q1049 762 1041 752.5Q1033 743 1022 734Q1011 725 1000 718.5Q989 712 983 712Q973 712 954 718Q919 729 880.5 742.5Q842 756 802 767.5Q762 779 720.5 786.5Q679 794 639 794Q570 794 512 775Q454 756 406.5 725.5Q359 695 323 656.5Q287 618 262 578Q226 520 205.5 458.5Q185 397 182 337.5Q179 278 194 224.5Q209 171 244 130.5Q279 90 334 66Q389 42 466 41Q523 40 581 57Q639 74 692.5 113Q746 152 793 215.5Q840 279 876 371Q856 374 821.5 378Q787 382 736 383Q688 383 638.5 378.5Q589 374 547 368.5Q505 363 474 358Q443 353 433 353Q426 353 430.5 362Q435 371 445 382.5Q455 394 467.5 404.5Q480 415 490 419Q495 422 515 423Q535 424 560.5 424Q586 424 611.5 424Q637 424 653 424Q701 424 743.5 425Q786 426 819.5 426.5Q853 427 875.5 428Q898 429 906 429Q915 429 926.5 422Q938 415 948 405Q958 395 964 384Q970 373 969 365Q933 314 893.5 247.5Q854 181 818.5 114Q783 47 753.5 -13Q724 -73 707 -111Q701 -124 685 -136Q669 -148 647.5 -159.5Q626 -171 601 -181Q576 -191 553 -199.5Q530 -208 510.5 -215Q491 -222 480 -226Q472 -228 471 -224Q470 -220 477 -217Q511 -204 544.5 -186.5Q578 -169 604 -131Q613 -117 633.5 -84Q654 -51 679.5 -9Q705 33 732.5 79Q760 125 782 166Q737 129 687 98Q637 67 587 45Q537 23 488 10.5Q439 -2 397 -2Z" glyph-name="G" horiz-adv-x="1016" unicode="G" /><glyph d="M807 900Q766 900 734 922Q702 944 676 979Q673 984 671 986.5Q669 989 669 992Q669 1000 695 1008Q712 1013 718 1012.5Q724 1012 730 1004Q759 966 784.5 944.5Q810 923 842 923Q888 923 925 1005Q928 1013 937 1013Q942 1013 945.5 1009.5Q949 1006 945 1001Q934 982 918.5 964Q903 946 885 932Q867 918 847 909.5Q827 901 807 900ZM397 -2Q318 -2 261 23.5Q204 49 168.5 92Q133 135 117.5 191Q102 247 104.5 307.5Q107 368 128 430Q149 492 186 546Q219 594 271.5 644Q324 694 394 735Q464 776 550.5 802Q637 828 738 828Q774 828 808.5 825.5Q843 823 880 816.5Q917 810 957 799.5Q997 789 1044 774Q1049 772 1049 768Q1049 762 1041 752.5Q1033 743 1022 734Q1011 725 1000 718.5Q989 712 983 712Q973 712 954 718Q919 729 880.5 742.5Q842 756 802 767.5Q762 779 720.5 786.5Q679 794 639 794Q570 794 512 775Q454 756 406.5 725.5Q359 695 323 656.5Q287 618 262 578Q226 520 205.5 458.5Q185 397 182 337.5Q179 278 194 224.5Q209 171 244 130.5Q279 90 334 66Q389 42 466 41Q523 40 581 57Q639 74 692.5 113Q746 152 793 215.5Q840 279 876 371Q856 374 821.5 378Q787 382 736 383Q688 383 638.5 378.5Q589 374 547 368.5Q505 363 474 358Q443 353 433 353Q426 353 430.5 362Q435 371 445 382.5Q455 394 467.5 404.5Q480 415 490 419Q495 422 515 423Q535 424 560.5 424Q586 424 611.5 424Q637 424 653 424Q701 424 743.5 425Q786 426 819.5 426.5Q853 427 875.5 428Q898 429 906 429Q915 429 926.5 422Q938 415 948 405Q958 395 964 384Q970 373 969 365Q933 314 893.5 247.5Q854 181 818.5 114Q783 47 753.5 -13Q724 -73 707 -111Q701 -124 685 -136Q669 -148 647.5 -159.5Q626 -171 601 -181Q576 -191 553 -199.5Q530 -208 510.5 -215Q491 -222 480 -226Q472 -228 471 -224Q470 -220 477 -217Q511 -204 544.5 -186.5Q578 -169 604 -131Q613 -117 633.5 -84Q654 -51 679.5 -9Q705 33 732.5 79Q760 125 782 166Q737 129 687 98Q637 67 587 45Q537 23 488 10.5Q439 -2 397 -2Z" glyph-name="Gbreve" horiz-adv-x="1016" unicode="&#286;" /><glyph d="M851 1042Q849 1046 845 1042Q831 1026 813 1008Q795 990 776 973.5Q757 957 740 943Q723 929 711 920Q702 914 692.5 908Q683 902 672 903Q661 905 656 910.5Q651 916 652 921Q652 924 655 932Q658 940 675 951Q690 960 711 972Q732 984 755.5 997.5Q779 1011 802 1025Q825 1039 844 1052Q850 1058 855 1051Q871 1030 883 1015.5Q895 1001 904.5 989Q914 977 923.5 966.5Q933 956 945 944Q959 931 962.5 923.5Q966 916 965 911Q965 902 958 895.5Q951 889 943 890Q920 891 906 917Q894 940 881.5 972Q869 1004 851 1042ZM397 -2Q318 -2 261 23.5Q204 49 168.5 92Q133 135 117.5 191Q102 247 104.5 307.5Q107 368 128 430Q149 492 186 546Q219 594 271.5 644Q324 694 394 735Q464 776 550.5 802Q637 828 738 828Q774 828 808.5 825.5Q843 823 880 816.5Q917 810 957 799.5Q997 789 1044 774Q1049 772 1049 768Q1049 762 1041 752.5Q1033 743 1022 734Q1011 725 1000 718.5Q989 712 983 712Q973 712 954 718Q919 729 880.5 742.5Q842 756 802 767.5Q762 779 720.5 786.5Q679 794 639 794Q570 794 512 775Q454 756 406.5 725.5Q359 695 323 656.5Q287 618 262 578Q226 520 205.5 458.5Q185 397 182 337.5Q179 278 194 224.5Q209 171 244 130.5Q279 90 334 66Q389 42 466 41Q523 40 581 57Q639 74 692.5 113Q746 152 793 215.5Q840 279 876 371Q856 374 821.5 378Q787 382 736 383Q688 383 638.5 378.5Q589 374 547 368.5Q505 363 474 358Q443 353 433 353Q426 353 430.5 362Q435 371 445 382.5Q455 394 467.5 404.5Q480 415 490 419Q495 422 515 423Q535 424 560.5 424Q586 424 611.5 424Q637 424 653 424Q701 424 743.5 425Q786 426 819.5 426.5Q853 427 875.5 428Q898 429 906 429Q915 429 926.5 422Q938 415 948 405Q958 395 964 384Q970 373 969 365Q933 314 893.5 247.5Q854 181 818.5 114Q783 47 753.5 -13Q724 -73 707 -111Q701 -124 685 -136Q669 -148 647.5 -159.5Q626 -171 601 -181Q576 -191 553 -199.5Q530 -208 510.5 -215Q491 -222 480 -226Q472 -228 471 -224Q470 -220 477 -217Q511 -204 544.5 -186.5Q578 -169 604 -131Q613 -117 633.5 -84Q654 -51 679.5 -9Q705 33 732.5 79Q760 125 782 166Q737 129 687 98Q637 67 587 45Q537 23 488 10.5Q439 -2 397 -2Z" glyph-name="Gcircumflex" horiz-adv-x="1016" unicode="&#284;" /><glyph d="M271 -137Q263 -148 247 -159.5Q231 -171 218 -171Q210 -171 204 -168.5Q198 -166 192 -158Q189 -152 190.5 -141Q192 -130 196.5 -118Q201 -106 207.5 -95.5Q214 -85 220 -80Q225 -76 239.5 -73.5Q254 -71 266 -71Q278 -71 291 -74Q304 -77 309 -84Q315 -92 313.5 -110Q312 -128 304 -142Q292 -165 272.5 -183.5Q253 -202 231.5 -215.5Q210 -229 188.5 -239Q167 -249 150 -256Q148 -257 147 -255.5Q146 -254 148 -253Q180 -237 216 -206Q252 -175 273 -137ZM397 -2Q318 -2 261 23.5Q204 49 168.5 92Q133 135 117.5 191Q102 247 104.5 307.5Q107 368 128 430Q149 492 186 546Q219 594 271.5 644Q324 694 394 735Q464 776 550.5 802Q637 828 738 828Q774 828 808.5 825.5Q843 823 880 816.5Q917 810 957 799.5Q997 789 1044 774Q1049 772 1049 768Q1049 762 1041 752.5Q1033 743 1022 734Q1011 725 1000 718.5Q989 712 983 712Q973 712 954 718Q919 729 880.5 742.5Q842 756 802 767.5Q762 779 720.5 786.5Q679 794 639 794Q570 794 512 775Q454 756 406.5 725.5Q359 695 323 656.5Q287 618 262 578Q226 520 205.5 458.5Q185 397 182 337.5Q179 278 194 224.5Q209 171 244 130.5Q279 90 334 66Q389 42 466 41Q523 40 581 57Q639 74 692.5 113Q746 152 793 215.5Q840 279 876 371Q856 374 821.5 378Q787 382 736 383Q688 383 638.5 378.5Q589 374 547 368.5Q505 363 474 358Q443 353 433 353Q426 353 430.5 362Q435 371 445 382.5Q455 394 467.5 404.5Q480 415 490 419Q495 422 515 423Q535 424 560.5 424Q586 424 611.5 424Q637 424 653 424Q701 424 743.5 425Q786 426 819.5 426.5Q853 427 875.5 428Q898 429 906 429Q915 429 926.5 422Q938 415 948 405Q958 395 964 384Q970 373 969 365Q933 314 893.5 247.5Q854 181 818.5 114Q783 47 753.5 -13Q724 -73 707 -111Q701 -124 685 -136Q669 -148 647.5 -159.5Q626 -171 601 -181Q576 -191 553 -199.5Q530 -208 510.5 -215Q491 -222 480 -226Q472 -228 471 -224Q470 -220 477 -217Q511 -204 544.5 -186.5Q578 -169 604 -131Q613 -117 633.5 -84Q654 -51 679.5 -9Q705 33 732.5 79Q760 125 782 166Q737 129 687 98Q637 67 587 45Q537 23 488 10.5Q439 -2 397 -2Z" glyph-name="Gcommaaccent" horiz-adv-x="1016" unicode="&#290;" /><glyph d="M789 966Q789 990 805.5 1007Q822 1024 846 1024Q870 1024 887 1007Q904 990 904 966Q904 942 887 925.5Q870 909 846 909Q822 909 805.5 925.5Q789 942 789 966ZM397 -2Q318 -2 261 23.5Q204 49 168.5 92Q133 135 117.5 191Q102 247 104.5 307.5Q107 368 128 430Q149 492 186 546Q219 594 271.5 644Q324 694 394 735Q464 776 550.5 802Q637 828 738 828Q774 828 808.5 825.5Q843 823 880 816.5Q917 810 957 799.5Q997 789 1044 774Q1049 772 1049 768Q1049 762 1041 752.5Q1033 743 1022 734Q1011 725 1000 718.5Q989 712 983 712Q973 712 954 718Q919 729 880.5 742.5Q842 756 802 767.5Q762 779 720.5 786.5Q679 794 639 794Q570 794 512 775Q454 756 406.5 725.5Q359 695 323 656.5Q287 618 262 578Q226 520 205.5 458.5Q185 397 182 337.5Q179 278 194 224.5Q209 171 244 130.5Q279 90 334 66Q389 42 466 41Q523 40 581 57Q639 74 692.5 113Q746 152 793 215.5Q840 279 876 371Q856 374 821.5 378Q787 382 736 383Q688 383 638.5 378.5Q589 374 547 368.5Q505 363 474 358Q443 353 433 353Q426 353 430.5 362Q435 371 445 382.5Q455 394 467.5 404.5Q480 415 490 419Q495 422 515 423Q535 424 560.5 424Q586 424 611.5 424Q637 424 653 424Q701 424 743.5 425Q786 426 819.5 426.5Q853 427 875.5 428Q898 429 906 429Q915 429 926.5 422Q938 415 948 405Q958 395 964 384Q970 373 969 365Q933 314 893.5 247.5Q854 181 818.5 114Q783 47 753.5 -13Q724 -73 707 -111Q701 -124 685 -136Q669 -148 647.5 -159.5Q626 -171 601 -181Q576 -191 553 -199.5Q530 -208 510.5 -215Q491 -222 480 -226Q472 -228 471 -224Q470 -220 477 -217Q511 -204 544.5 -186.5Q578 -169 604 -131Q613 -117 633.5 -84Q654 -51 679.5 -9Q705 33 732.5 79Q760 125 782 166Q737 129 687 98Q637 67 587 45Q537 23 488 10.5Q439 -2 397 -2Z" glyph-name="Gdotaccent" horiz-adv-x="1016" unicode="&#288;" /><glyph d="M383 417Q298 417 238.5 376Q179 335 146 259Q124 212 130 157.5Q136 103 164 56Q192 9 238.5 -22.5Q285 -54 345 -54Q366 -54 388.5 -46.5Q411 -39 438.5 -15Q466 9 501 54Q536 99 582 175Q609 220 645 279Q681 338 716 400Q622 407 535.5 412Q449 417 383 417ZM78 247Q99 278 136 312.5Q173 347 221 376Q269 405 325.5 423.5Q382 442 443 442Q494 442 572 441Q650 440 739 439Q762 479 783 515.5Q804 552 821 583Q847 631 862.5 669.5Q878 708 876 734Q876 747 867.5 757.5Q859 768 845 773Q833 769 811.5 755.5Q790 742 766 724.5Q742 707 719.5 688.5Q697 670 684 657L678 663Q691 676 714.5 696.5Q738 717 765.5 739.5Q793 762 821 783Q849 804 872 818Q875 820 882 821Q889 822 896.5 821.5Q904 821 910.5 819.5Q917 818 919 817Q928 810 934.5 800Q941 790 945.5 779.5Q950 769 952.5 758.5Q955 748 955 741Q956 726 950 706.5Q944 687 934 664.5Q924 642 911.5 618Q899 594 886 572Q869 543 849.5 508.5Q830 474 808 438Q897 436 981.5 435Q1066 434 1133 434Q1161 481 1183 516.5Q1205 552 1216 569Q1261 637 1318 689Q1375 741 1436.5 777Q1498 813 1559 832.5Q1620 852 1674 855Q1690 856 1718 853.5Q1746 851 1778.5 847Q1811 843 1845.5 837.5Q1880 832 1909.5 826.5Q1939 821 1960 817Q1981 813 1987 811Q1998 808 1995 799Q1992 790 1982 780.5Q1972 771 1958.5 763.5Q1945 756 1935 756Q1915 756 1872 765Q1829 774 1778 785.5Q1727 797 1676.5 806Q1626 815 1591 815Q1556 815 1521 806Q1486 797 1448.5 770.5Q1411 744 1370 696Q1329 648 1282 570Q1261 536 1240.5 502Q1220 468 1200 434Q1286 434 1339.5 433.5Q1393 433 1410 432Q1418 432 1413 424Q1408 416 1396.5 406.5Q1385 397 1371 388.5Q1357 380 1348 379Q1338 377 1324 376.5Q1310 376 1289 376Q1268 376 1238 376Q1208 376 1167 376Q1147 341 1128 306.5Q1109 272 1090 237Q1064 189 1049 151Q1034 113 1036 86Q1037 74 1045 63.5Q1053 53 1068 48Q1079 52 1100.5 65.5Q1122 79 1146 96.5Q1170 114 1192.5 132Q1215 150 1229 164L1235 157Q1221 144 1197.5 123.5Q1174 103 1147 80.5Q1120 58 1091.5 37Q1063 16 1041 3Q1037 1 1030 0Q1023 -1 1015.5 -0.5Q1008 0 1001.5 1Q995 2 994 4Q976 18 967 41.5Q958 65 957 80Q956 95 962 114.5Q968 134 978 156.5Q988 179 1001 202.5Q1014 226 1026 249Q1043 280 1061.5 312Q1080 344 1099 376Q1031 378 949.5 383.5Q868 389 783 395Q761 358 739.5 323Q718 288 700 258.5Q682 229 668.5 207.5Q655 186 649 177Q604 109 550.5 58.5Q497 8 447.5 -25Q398 -58 357.5 -74Q317 -90 299 -90Q255 -90 215 -74.5Q175 -59 142.5 -33.5Q110 -8 87 26Q64 60 54 97.5Q44 135 49 173.5Q54 212 78 247Z" glyph-name="H" horiz-adv-x="1337" unicode="H" /><glyph d="M383 417Q298 417 238.5 376Q179 335 146 259Q124 212 130 157.5Q136 103 164 56Q192 9 238.5 -22.5Q285 -54 345 -54Q366 -54 388.5 -46.5Q411 -39 438.5 -15Q466 9 501 54Q536 99 582 175Q610 221 646 280.5Q682 340 718 403Q623 408 536 412.5Q449 417 383 417ZM78 247Q99 278 136 312.5Q173 347 221 376Q269 405 325.5 423.5Q382 442 443 442Q494 442 572 441Q650 440 739 439Q762 479 783 515.5Q804 552 821 583Q847 631 862.5 669.5Q878 708 876 734Q876 747 867.5 757.5Q859 768 845 773Q833 769 811.5 755.5Q790 742 766 724.5Q742 707 719.5 688.5Q697 670 684 657L678 663Q691 676 714.5 696.5Q738 717 765.5 739.5Q793 762 821 783Q849 804 872 818Q875 820 882 821Q889 822 896.5 821.5Q904 821 910.5 819.5Q917 818 919 817Q928 810 934.5 800Q941 790 945.5 779.5Q950 769 952.5 758.5Q955 748 955 741Q956 726 950 706.5Q944 687 934 664.5Q924 642 911.5 618Q899 594 886 572Q869 543 849.5 508.5Q830 474 808 438Q897 436 981.5 435Q1066 434 1133 434Q1161 481 1183 516.5Q1205 552 1216 569Q1261 637 1313.5 689.5Q1366 742 1421.5 778Q1477 814 1533.5 833Q1590 852 1644 855Q1690 857 1730 855.5Q1770 854 1787 849Q1798 846 1795.5 835Q1793 824 1784 812.5Q1775 801 1762 791.5Q1749 782 1739 782Q1725 782 1702 787Q1679 792 1652 797.5Q1625 803 1597 808Q1569 813 1547 813Q1518 813 1490.5 804.5Q1463 796 1432.5 769.5Q1402 743 1365.5 695.5Q1329 648 1282 570Q1261 536 1240.5 502Q1220 468 1200 434Q1286 434 1339.5 433.5Q1393 433 1410 432Q1418 432 1414 425Q1410 418 1399.5 410Q1389 402 1376 394.5Q1363 387 1354 386Q1344 384 1330 383.5Q1316 383 1294.5 383Q1273 383 1243 383Q1213 383 1171 383Q1150 346 1130 309.5Q1110 273 1090 237Q1064 189 1049 151Q1034 113 1036 86Q1037 74 1045 63.5Q1053 53 1068 48Q1079 52 1100.5 65.5Q1122 79 1146 96.5Q1170 114 1192.5 132Q1215 150 1229 164L1235 157Q1221 144 1197.5 123.5Q1174 103 1147 80.5Q1120 58 1091.5 37Q1063 16 1041 3Q1037 1 1030 0Q1023 -1 1015.5 -0.5Q1008 0 1001.5 1Q995 2 994 4Q976 18 967 41.5Q958 65 957 80Q956 95 962 114.5Q968 134 978 156.5Q988 179 1001 202.5Q1014 226 1026 249Q1045 282 1064 316Q1083 350 1103 383Q1035 385 953.5 389.5Q872 394 785 399Q762 361 740.5 325.5Q719 290 701 260Q683 230 669 208.5Q655 187 649 177Q604 109 550.5 58.5Q497 8 447.5 -25Q398 -58 357.5 -74Q317 -90 299 -90Q255 -90 215 -74.5Q175 -59 142.5 -33.5Q110 -8 87 26Q64 60 54 97.5Q44 135 49 173.5Q54 212 78 247Z" glyph-name="H.alt" horiz-adv-x="1337" unicode="&#58503;" /><glyph d="M876 734Q876 747 867.5 757.5Q859 768 845 773Q833 769 817 760Q801 751 784 739.5Q767 728 749.5 714Q732 700 719 687Q686 654 693 629Q700 604 751 604H832Q853 645 865.5 678Q878 711 876 734ZM1057 596Q1033 595 1007 595H899L886 572Q869 543 849.5 508.5Q830 474 808 438Q897 436 981.5 435Q1066 434 1133 434Q1161 481 1183 516.5Q1205 552 1216 569Q1219 574 1222.5 579.5Q1226 585 1230 590Q1182 592 1137.5 594Q1093 596 1057 596ZM383 417Q298 417 238.5 376Q179 335 146 259Q124 212 130 157.5Q136 103 164 56Q192 9 238.5 -22.5Q285 -54 345 -54Q366 -54 388.5 -46.5Q411 -39 438.5 -15Q466 9 501 54Q536 99 582 175Q610 221 646 280.5Q682 340 718 403Q623 408 536 412.5Q449 417 383 417ZM1041 3Q1037 1 1030 0Q1023 -1 1015.5 -0.5Q1008 0 1001.5 1Q995 2 994 4Q976 18 967 41.5Q958 65 957 80Q956 95 962 114.5Q968 134 978 156.5Q988 179 1001 202.5Q1014 226 1026 249Q1045 282 1064 316Q1083 350 1103 383Q1035 385 953.5 389.5Q872 394 785 399Q762 361 740.5 325.5Q719 290 701 260Q683 230 669 208.5Q655 187 649 177Q604 109 550.5 58.5Q497 8 447.5 -25Q398 -58 357.5 -74Q317 -90 299 -90Q255 -90 215 -74.5Q175 -59 142.5 -33.5Q110 -8 87 26Q64 60 54 97.5Q44 135 49 173.5Q54 212 78 247Q99 278 136 312.5Q173 347 221 376Q269 405 325.5 423.5Q382 442 443 442Q494 442 572 441Q650 440 739 439Q762 479 783 515.5Q804 552 821 583L827 595H751Q722 595 705 603Q688 611 683 624.5Q678 638 685 655.5Q692 673 711 692Q724 705 742.5 721Q761 737 782 754Q803 771 826 787.5Q849 804 872 818Q875 820 882 821Q889 822 896.5 821.5Q904 821 910.5 819.5Q917 818 919 817Q928 810 934.5 800Q941 790 945.5 779.5Q950 769 952.5 758.5Q955 748 955 741Q957 717 941 680Q925 643 905 605Q949 606 991 606.5Q1033 607 1062 607Q1100 607 1148 608.5Q1196 610 1247 612Q1292 670 1346 714Q1400 758 1456.5 788.5Q1513 819 1569 835.5Q1625 852 1674 855Q1690 856 1718 853.5Q1746 851 1778.5 847Q1811 843 1845.5 837.5Q1880 832 1909.5 826.5Q1939 821 1960 817Q1981 813 1987 811Q1998 808 1995 799Q1992 790 1982 780.5Q1972 771 1958.5 763.5Q1945 756 1935 756Q1915 756 1872 765Q1829 774 1778 785.5Q1727 797 1676.5 806Q1626 815 1591 815Q1559 815 1526.5 807.5Q1494 800 1460 778Q1426 756 1389.5 717Q1353 678 1311 615L1552 629Q1558 629 1556.5 621.5Q1555 614 1547.5 605Q1540 596 1528.5 587.5Q1517 579 1505 578Q1496 576 1476 576.5Q1456 577 1427.5 578.5Q1399 580 1364 582Q1329 584 1292 586L1282 570Q1261 536 1240.5 502Q1220 468 1200 434Q1286 434 1339.5 433.5Q1393 433 1410 432Q1418 432 1414 425Q1410 418 1399.5 410Q1389 402 1376 394.5Q1363 387 1354 386Q1344 384 1330 383.5Q1316 383 1294.5 383Q1273 383 1243 383Q1213 383 1171 383Q1150 346 1130 309.5Q1110 273 1090 237Q1064 189 1049 151Q1034 113 1036 86Q1037 74 1045 63.5Q1053 53 1068 48Q1079 52 1100.5 65.5Q1122 79 1146 96.5Q1170 114 1192.5 132Q1215 150 1229 164L1235 157Q1221 144 1197.5 123.5Q1174 103 1147 80.5Q1120 58 1091.5 37Q1063 16 1041 3Z" glyph-name="Hbar" horiz-adv-x="1337" unicode="&#294;" /><glyph d="M876 734Q876 747 867.5 757.5Q859 768 845 773Q833 769 817 760Q801 751 784 739.5Q767 728 749.5 714Q732 700 719 687Q686 654 693 629Q700 604 751 604H832Q853 645 865.5 678Q878 711 876 734ZM1216 569Q1219 574 1222.5 579.5Q1226 585 1230 590Q1182 592 1137.5 594Q1093 596 1057 596Q1033 595 1007 595H899L886 572Q869 543 849.5 508.5Q830 474 808 438Q897 436 981.5 435Q1066 434 1133 434Q1161 481 1183 516.5Q1205 552 1216 569ZM383 417Q298 417 238.5 376Q179 335 146 259Q124 212 130 157.5Q136 103 164 56Q192 9 238.5 -22.5Q285 -54 345 -54Q366 -54 388.5 -46.5Q411 -39 438.5 -15Q466 9 501 54Q536 99 582 175Q610 221 646 280.5Q682 340 718 403Q623 408 536 412.5Q449 417 383 417ZM711 692Q724 705 742.5 721Q761 737 782 754Q803 771 826 787.5Q849 804 872 818Q875 820 882 821Q889 822 896.5 821.5Q904 821 910.5 819.5Q917 818 919 817Q928 810 934.5 800Q941 790 945.5 779.5Q950 769 952.5 758.5Q955 748 955 741Q957 717 941 680Q925 643 905 605Q949 606 991 606.5Q1033 607 1062 607Q1100 607 1147.5 608.5Q1195 610 1246 612Q1290 670 1339 714Q1388 758 1439.5 788.5Q1491 819 1543 835.5Q1595 852 1644 855Q1690 857 1730 855.5Q1770 854 1787 849Q1798 846 1795.5 835Q1793 824 1784 812.5Q1775 801 1762 791.5Q1749 782 1739 782Q1725 782 1702 787Q1679 792 1652 797.5Q1625 803 1597 808Q1569 813 1547 813Q1520 813 1494.5 805.5Q1469 798 1441.5 777Q1414 756 1382 717Q1350 678 1310 615L1552 629Q1558 629 1556.5 621.5Q1555 614 1547.5 605Q1540 596 1528.5 587.5Q1517 579 1505 578Q1496 576 1476 576.5Q1456 577 1427.5 578.5Q1399 580 1364 582Q1329 584 1292 586L1282 570Q1261 536 1240.5 502Q1220 468 1200 434Q1286 434 1339.5 433.5Q1393 433 1410 432Q1418 432 1414 425Q1410 418 1399.5 410Q1389 402 1376 394.5Q1363 387 1354 386Q1344 384 1330 383.5Q1316 383 1294.5 383Q1273 383 1243 383Q1213 383 1171 383Q1150 346 1130 309.5Q1110 273 1090 237Q1064 189 1049 151Q1034 113 1036 86Q1037 74 1045 63.5Q1053 53 1068 48Q1079 52 1100.5 65.5Q1122 79 1146 96.5Q1170 114 1192.5 132Q1215 150 1229 164L1235 157Q1221 144 1197.5 123.5Q1174 103 1147 80.5Q1120 58 1091.5 37Q1063 16 1041 3Q1037 1 1030 0Q1023 -1 1015.5 -0.5Q1008 0 1001.5 1Q995 2 994 4Q976 18 967 41.5Q958 65 957 80Q956 95 962 114.5Q968 134 978 156.5Q988 179 1001 202.5Q1014 226 1026 249Q1045 282 1064 316Q1083 350 1103 383Q1035 385 953.5 389.5Q872 394 785 399Q762 361 740.5 325.5Q719 290 701 260Q683 230 669 208.5Q655 187 649 177Q604 109 550.5 58.5Q497 8 447.5 -25Q398 -58 357.5 -74Q317 -90 299 -90Q255 -90 215 -74.5Q175 -59 142.5 -33.5Q110 -8 87 26Q64 60 54 97.5Q44 135 49 173.5Q54 212 78 247Q99 278 136 312.5Q173 347 221 376Q269 405 325.5 423.5Q382 442 443 442Q494 442 572 441Q650 440 739 439Q762 479 783 515.5Q804 552 821 583L827 595H751Q722 595 705 603Q688 611 683 624.5Q678 638 685 655.5Q692 673 711 692Z" glyph-name="Hbar.alt" horiz-adv-x="1337" unicode="&#64028;" /><glyph d="M1252 1012Q1250 1016 1246 1012Q1232 996 1214 978Q1196 960 1177 943.5Q1158 927 1141 913Q1124 899 1112 890Q1103 884 1093.5 878Q1084 872 1073 873Q1062 875 1057 880.5Q1052 886 1053 891Q1053 894 1056 902Q1059 910 1076 921Q1091 930 1112 942Q1133 954 1156.5 967.5Q1180 981 1203 995Q1226 1009 1245 1022Q1251 1028 1256 1021Q1272 1000 1284 985.5Q1296 971 1305.5 959Q1315 947 1324.5 936.5Q1334 926 1346 914Q1360 901 1363.5 893.5Q1367 886 1366 881Q1366 872 1359 865.5Q1352 859 1344 860Q1321 861 1307 887Q1295 910 1282.5 942Q1270 974 1252 1012ZM383 417Q298 417 238.5 376Q179 335 146 259Q124 212 130 157.5Q136 103 164 56Q192 9 238.5 -22.5Q285 -54 345 -54Q366 -54 388.5 -46.5Q411 -39 438.5 -15Q466 9 501 54Q536 99 582 175Q609 220 645 279Q681 338 716 400Q622 407 535.5 412Q449 417 383 417ZM78 247Q99 278 136 312.5Q173 347 221 376Q269 405 325.5 423.5Q382 442 443 442Q494 442 572 441Q650 440 739 439Q762 479 783 515.5Q804 552 821 583Q847 631 862.5 669.5Q878 708 876 734Q876 747 867.5 757.5Q859 768 845 773Q833 769 811.5 755.5Q790 742 766 724.5Q742 707 719.5 688.5Q697 670 684 657L678 663Q691 676 714.5 696.5Q738 717 765.5 739.5Q793 762 821 783Q849 804 872 818Q875 820 882 821Q889 822 896.5 821.5Q904 821 910.5 819.5Q917 818 919 817Q928 810 934.5 800Q941 790 945.5 779.5Q950 769 952.5 758.5Q955 748 955 741Q956 726 950 706.5Q944 687 934 664.5Q924 642 911.5 618Q899 594 886 572Q869 543 849.5 508.5Q830 474 808 438Q897 436 981.5 435Q1066 434 1133 434Q1161 481 1183 516.5Q1205 552 1216 569Q1261 637 1318 689Q1375 741 1436.5 777Q1498 813 1559 832.5Q1620 852 1674 855Q1690 856 1718 853.5Q1746 851 1778.5 847Q1811 843 1845.5 837.5Q1880 832 1909.5 826.5Q1939 821 1960 817Q1981 813 1987 811Q1998 808 1995 799Q1992 790 1982 780.5Q1972 771 1958.5 763.5Q1945 756 1935 756Q1915 756 1872 765Q1829 774 1778 785.5Q1727 797 1676.5 806Q1626 815 1591 815Q1556 815 1521 806Q1486 797 1448.5 770.5Q1411 744 1370 696Q1329 648 1282 570Q1261 536 1240.5 502Q1220 468 1200 434Q1286 434 1339.5 433.5Q1393 433 1410 432Q1418 432 1413 424Q1408 416 1396.5 406.5Q1385 397 1371 388.5Q1357 380 1348 379Q1338 377 1324 376.5Q1310 376 1289 376Q1268 376 1238 376Q1208 376 1167 376Q1147 341 1128 306.5Q1109 272 1090 237Q1064 189 1049 151Q1034 113 1036 86Q1037 74 1045 63.5Q1053 53 1068 48Q1079 52 1100.5 65.5Q1122 79 1146 96.5Q1170 114 1192.5 132Q1215 150 1229 164L1235 157Q1221 144 1197.5 123.5Q1174 103 1147 80.5Q1120 58 1091.5 37Q1063 16 1041 3Q1037 1 1030 0Q1023 -1 1015.5 -0.5Q1008 0 1001.5 1Q995 2 994 4Q976 18 967 41.5Q958 65 957 80Q956 95 962 114.5Q968 134 978 156.5Q988 179 1001 202.5Q1014 226 1026 249Q1043 280 1061.5 312Q1080 344 1099 376Q1031 378 949.5 383.5Q868 389 783 395Q761 358 739.5 323Q718 288 700 258.5Q682 229 668.5 207.5Q655 186 649 177Q604 109 550.5 58.5Q497 8 447.5 -25Q398 -58 357.5 -74Q317 -90 299 -90Q255 -90 215 -74.5Q175 -59 142.5 -33.5Q110 -8 87 26Q64 60 54 97.5Q44 135 49 173.5Q54 212 78 247Z" glyph-name="Hcircumflex" horiz-adv-x="1337" unicode="&#292;" /><glyph d="M1252 1012Q1250 1016 1246 1012Q1232 996 1214 978Q1196 960 1177 943.5Q1158 927 1141 913Q1124 899 1112 890Q1103 884 1093.5 878Q1084 872 1073 873Q1062 875 1057 880.5Q1052 886 1053 891Q1053 894 1056 902Q1059 910 1076 921Q1091 930 1112 942Q1133 954 1156.5 967.5Q1180 981 1203 995Q1226 1009 1245 1022Q1251 1028 1256 1021Q1272 1000 1284 985.5Q1296 971 1305.5 959Q1315 947 1324.5 936.5Q1334 926 1346 914Q1360 901 1363.5 893.5Q1367 886 1366 881Q1366 872 1359 865.5Q1352 859 1344 860Q1321 861 1307 887Q1295 910 1282.5 942Q1270 974 1252 1012ZM383 417Q298 417 238.5 376Q179 335 146 259Q124 212 130 157.5Q136 103 164 56Q192 9 238.5 -22.5Q285 -54 345 -54Q366 -54 388.5 -46.5Q411 -39 438.5 -15Q466 9 501 54Q536 99 582 175Q610 221 646 280.5Q682 340 718 403Q623 408 536 412.5Q449 417 383 417ZM78 247Q99 278 136 312.5Q173 347 221 376Q269 405 325.5 423.5Q382 442 443 442Q494 442 572 441Q650 440 739 439Q762 479 783 515.5Q804 552 821 583Q847 631 862.5 669.5Q878 708 876 734Q876 747 867.5 757.5Q859 768 845 773Q833 769 811.5 755.5Q790 742 766 724.5Q742 707 719.5 688.5Q697 670 684 657L678 663Q691 676 714.5 696.5Q738 717 765.5 739.5Q793 762 821 783Q849 804 872 818Q875 820 882 821Q889 822 896.5 821.5Q904 821 910.5 819.5Q917 818 919 817Q928 810 934.5 800Q941 790 945.5 779.5Q950 769 952.5 758.5Q955 748 955 741Q956 726 950 706.5Q944 687 934 664.5Q924 642 911.5 618Q899 594 886 572Q869 543 849.5 508.5Q830 474 808 438Q897 436 981.5 435Q1066 434 1133 434Q1161 481 1183 516.5Q1205 552 1216 569Q1261 637 1313.5 689.5Q1366 742 1421.5 778Q1477 814 1533.5 833Q1590 852 1644 855Q1690 857 1730 855.5Q1770 854 1787 849Q1798 846 1795.5 835Q1793 824 1784 812.5Q1775 801 1762 791.5Q1749 782 1739 782Q1725 782 1702 787Q1679 792 1652 797.5Q1625 803 1597 808Q1569 813 1547 813Q1518 813 1490.5 804.5Q1463 796 1432.5 769.5Q1402 743 1365.5 695.5Q1329 648 1282 570Q1261 536 1240.5 502Q1220 468 1200 434Q1286 434 1339.5 433.5Q1393 433 1410 432Q1418 432 1414 425Q1410 418 1399.5 410Q1389 402 1376 394.5Q1363 387 1354 386Q1344 384 1330 383.5Q1316 383 1294.5 383Q1273 383 1243 383Q1213 383 1171 383Q1150 346 1130 309.5Q1110 273 1090 237Q1064 189 1049 151Q1034 113 1036 86Q1037 74 1045 63.5Q1053 53 1068 48Q1079 52 1100.5 65.5Q1122 79 1146 96.5Q1170 114 1192.5 132Q1215 150 1229 164L1235 157Q1221 144 1197.5 123.5Q1174 103 1147 80.5Q1120 58 1091.5 37Q1063 16 1041 3Q1037 1 1030 0Q1023 -1 1015.5 -0.5Q1008 0 1001.5 1Q995 2 994 4Q976 18 967 41.5Q958 65 957 80Q956 95 962 114.5Q968 134 978 156.5Q988 179 1001 202.5Q1014 226 1026 249Q1045 282 1064 316Q1083 350 1103 383Q1035 385 953.5 389.5Q872 394 785 399Q762 361 740.5 325.5Q719 290 701 260Q683 230 669 208.5Q655 187 649 177Q604 109 550.5 58.5Q497 8 447.5 -25Q398 -58 357.5 -74Q317 -90 299 -90Q255 -90 215 -74.5Q175 -59 142.5 -33.5Q110 -8 87 26Q64 60 54 97.5Q44 135 49 173.5Q54 212 78 247Z" glyph-name="Hcircumflex.alt" horiz-adv-x="1337" unicode="&#64029;" /><glyph d="M464 421Q498 494 529.5 553.5Q561 613 593 659Q625 705 660 737.5Q695 770 735 788Q711 790 678 788.5Q645 787 609 782.5Q573 778 537 772Q501 766 471 761Q441 756 419.5 752.5Q398 749 391 749Q384 749 388 757.5Q392 766 402 777.5Q412 789 424.5 799.5Q437 810 447 814Q453 817 473 818.5Q493 820 518 820Q543 820 568.5 820Q594 820 611 820Q658 820 716.5 821.5Q775 823 828 824.5Q881 826 919.5 827.5Q958 829 966 829Q1014 829 1025 815Q1027 805 1013 790Q999 775 980 763Q966 759 932 766Q898 773 857 778.5Q816 784 775.5 783Q735 782 708 763Q680 744 662 711.5Q644 679 627.5 634.5Q611 590 592 534.5Q573 479 544 413Q478 266 403.5 171Q329 76 261 40Q271 36 296.5 37.5Q322 39 356.5 43.5Q391 48 430.5 53.5Q470 59 507 64.5Q544 70 575 73.5Q606 77 623 76Q633 76 631.5 64Q630 52 620 38.5Q610 25 592.5 13.5Q575 2 551 2L412 5Q340 5 273 3.5Q206 2 153 0.5Q100 -1 65 -2Q30 -3 22 -3Q-24 -3 -37 12Q-37 17 -32.5 24.5Q-28 32 -20.5 39.5Q-13 47 -4 52.5Q5 58 12 60Q21 63 39 60Q57 57 80.5 53Q104 49 131 45Q158 41 186 41Q218 41 244 46Q270 51 291 68Q317 89 336.5 122Q356 155 375 199.5Q394 244 414.5 299.5Q435 355 464 421Z" glyph-name="I" horiz-adv-x="732" unicode="I" /><glyph d="M1083 823Q1129 823 1163 824.5Q1197 826 1223.5 828Q1250 830 1271.5 831.5Q1293 833 1313 833Q1319 833 1314 822.5Q1309 812 1298.5 800Q1288 788 1275 777.5Q1262 767 1254 767Q1205 767 1168 749.5Q1131 732 1101.5 701.5Q1072 671 1049 628Q1026 585 1006.5 534.5Q987 484 968.5 427Q950 370 930 310Q894 206 866.5 134.5Q839 63 812 13Q785 -37 755 -71.5Q725 -106 683.5 -136.5Q642 -167 585.5 -199.5Q529 -232 450 -278Q430 -291 425.5 -285Q421 -279 444 -266Q509 -229 557 -193.5Q605 -158 642 -120Q679 -82 707 -38.5Q735 5 759.5 60Q784 115 808.5 184.5Q833 254 862 342Q923 514 1001 617.5Q1079 721 1181 765Q1105 773 1031 778.5Q957 784 900 784Q822 784 778.5 775.5Q735 767 708 749Q680 730 662 699.5Q644 669 627.5 627.5Q611 586 592 532.5Q573 479 544 413Q478 266 403.5 171Q329 76 261 40Q271 36 296.5 37.5Q322 39 356.5 43.5Q391 48 430.5 53.5Q470 59 507 64.5Q544 70 575 73.5Q606 77 623 76Q633 76 631.5 64Q630 52 620 38.5Q610 25 592.5 13.5Q575 2 551 2L412 5Q340 5 273 3.5Q206 2 153 0.5Q100 -1 65 -2Q30 -3 22 -3Q-24 -3 -37 12Q-37 17 -32.5 24.5Q-28 32 -20.5 39.5Q-13 47 -4 52.5Q5 58 12 60Q21 63 39 60Q57 57 80.5 53Q104 49 131 45Q158 41 186 41Q218 41 244 46Q270 51 291 68Q317 89 336.5 122Q356 155 375 199.5Q394 244 414.5 299.5Q435 355 464 421Q498 494 529.5 551.5Q561 609 593 652.5Q625 696 660 726Q695 756 735 774Q699 778 644.5 774.5Q590 771 537 765.5Q484 760 442.5 754.5Q401 749 391 749Q384 749 388 757.5Q392 766 402 777.5Q412 789 424.5 799.5Q437 810 447 814Q458 820 517 821.5Q576 823 686 823Z" glyph-name="IJ" horiz-adv-x="1126" unicode="&#306;" /><glyph d="M812 895Q810 893 808 893Q804 893 804 897Q804 899 807 902Q828 922 850 948.5Q872 975 890 999.5Q908 1024 921 1042.5Q934 1061 939 1066Q943 1070 950 1071Q957 1072 965 1072Q972 1072 977.5 1071.5Q983 1071 985 1069Q987 1067 987.5 1061.5Q988 1056 988 1048Q988 1043 984 1038.5Q980 1034 975 1029Q970 1024 951.5 1010.5Q933 997 909 978.5Q885 960 859 938.5Q833 917 812 895ZM464 421Q498 494 529.5 553.5Q561 613 593 659Q625 705 660 737.5Q695 770 735 788Q711 790 678 788.5Q645 787 609 782.5Q573 778 537 772Q501 766 471 761Q441 756 419.5 752.5Q398 749 391 749Q384 749 388 757.5Q392 766 402 777.5Q412 789 424.5 799.5Q437 810 447 814Q453 817 473 818.5Q493 820 518 820Q543 820 568.5 820Q594 820 611 820Q658 820 716.5 821.5Q775 823 828 824.5Q881 826 919.5 827.5Q958 829 966 829Q1014 829 1025 815Q1027 805 1013 790Q999 775 980 763Q966 759 932 766Q898 773 857 778.5Q816 784 775.5 783Q735 782 708 763Q680 744 662 711.5Q644 679 627.5 634.5Q611 590 592 534.5Q573 479 544 413Q478 266 403.5 171Q329 76 261 40Q271 36 296.5 37.5Q322 39 356.5 43.5Q391 48 430.5 53.5Q470 59 507 64.5Q544 70 575 73.5Q606 77 623 76Q633 76 631.5 64Q630 52 620 38.5Q610 25 592.5 13.5Q575 2 551 2L412 5Q340 5 273 3.5Q206 2 153 0.5Q100 -1 65 -2Q30 -3 22 -3Q-24 -3 -37 12Q-37 17 -32.5 24.5Q-28 32 -20.5 39.5Q-13 47 -4 52.5Q5 58 12 60Q21 63 39 60Q57 57 80.5 53Q104 49 131 45Q158 41 186 41Q218 41 244 46Q270 51 291 68Q317 89 336.5 122Q356 155 375 199.5Q394 244 414.5 299.5Q435 355 464 421Z" glyph-name="Iacute" horiz-adv-x="732" unicode="&#205;" /><glyph d="M765 910Q724 910 692 932Q660 954 634 989Q631 994 629 996.5Q627 999 627 1002Q627 1010 653 1018Q670 1023 676 1022.5Q682 1022 688 1014Q717 976 742.5 954.5Q768 933 800 933Q846 933 883 1015Q886 1023 895 1023Q900 1023 903.5 1019.5Q907 1016 903 1011Q892 992 876.5 974Q861 956 843 942Q825 928 805 919.5Q785 911 765 910ZM464 421Q498 494 529.5 553.5Q561 613 593 659Q625 705 660 737.5Q695 770 735 788Q711 790 678 788.5Q645 787 609 782.5Q573 778 537 772Q501 766 471 761Q441 756 419.5 752.5Q398 749 391 749Q384 749 388 757.5Q392 766 402 777.5Q412 789 424.5 799.5Q437 810 447 814Q453 817 473 818.5Q493 820 518 820Q543 820 568.5 820Q594 820 611 820Q658 820 716.5 821.5Q775 823 828 824.5Q881 826 919.5 827.5Q958 829 966 829Q1014 829 1025 815Q1027 805 1013 790Q999 775 980 763Q966 759 932 766Q898 773 857 778.5Q816 784 775.5 783Q735 782 708 763Q680 744 662 711.5Q644 679 627.5 634.5Q611 590 592 534.5Q573 479 544 413Q478 266 403.5 171Q329 76 261 40Q271 36 296.5 37.5Q322 39 356.5 43.5Q391 48 430.5 53.5Q470 59 507 64.5Q544 70 575 73.5Q606 77 623 76Q633 76 631.5 64Q630 52 620 38.5Q610 25 592.5 13.5Q575 2 551 2L412 5Q340 5 273 3.5Q206 2 153 0.5Q100 -1 65 -2Q30 -3 22 -3Q-24 -3 -37 12Q-37 17 -32.5 24.5Q-28 32 -20.5 39.5Q-13 47 -4 52.5Q5 58 12 60Q21 63 39 60Q57 57 80.5 53Q104 49 131 45Q158 41 186 41Q218 41 244 46Q270 51 291 68Q317 89 336.5 122Q356 155 375 199.5Q394 244 414.5 299.5Q435 355 464 421Z" glyph-name="Ibreve" horiz-adv-x="732" unicode="&#300;" /><glyph d="M823 1042Q821 1046 817 1042Q803 1026 785 1008Q767 990 748 973.5Q729 957 712 943Q695 929 683 920Q674 914 664.5 908Q655 902 644 903Q633 905 628 910.5Q623 916 624 921Q624 924 627 932Q630 940 647 951Q662 960 683 972Q704 984 727.5 997.5Q751 1011 774 1025Q797 1039 816 1052Q822 1058 827 1051Q843 1030 855 1015.5Q867 1001 876.5 989Q886 977 895.5 966.5Q905 956 917 944Q931 931 934.5 923.5Q938 916 937 911Q937 902 930 895.5Q923 889 915 890Q892 891 878 917Q866 940 853.5 972Q841 1004 823 1042ZM464 421Q498 494 529.5 553.5Q561 613 593 659Q625 705 660 737.5Q695 770 735 788Q711 790 678 788.5Q645 787 609 782.5Q573 778 537 772Q501 766 471 761Q441 756 419.5 752.5Q398 749 391 749Q384 749 388 757.5Q392 766 402 777.5Q412 789 424.5 799.5Q437 810 447 814Q453 817 473 818.5Q493 820 518 820Q543 820 568.5 820Q594 820 611 820Q658 820 716.5 821.5Q775 823 828 824.5Q881 826 919.5 827.5Q958 829 966 829Q1014 829 1025 815Q1027 805 1013 790Q999 775 980 763Q966 759 932 766Q898 773 857 778.5Q816 784 775.5 783Q735 782 708 763Q680 744 662 711.5Q644 679 627.5 634.5Q611 590 592 534.5Q573 479 544 413Q478 266 403.5 171Q329 76 261 40Q271 36 296.5 37.5Q322 39 356.5 43.5Q391 48 430.5 53.5Q470 59 507 64.5Q544 70 575 73.5Q606 77 623 76Q633 76 631.5 64Q630 52 620 38.5Q610 25 592.5 13.5Q575 2 551 2L412 5Q340 5 273 3.5Q206 2 153 0.5Q100 -1 65 -2Q30 -3 22 -3Q-24 -3 -37 12Q-37 17 -32.5 24.5Q-28 32 -20.5 39.5Q-13 47 -4 52.5Q5 58 12 60Q21 63 39 60Q57 57 80.5 53Q104 49 131 45Q158 41 186 41Q218 41 244 46Q270 51 291 68Q317 89 336.5 122Q356 155 375 199.5Q394 244 414.5 299.5Q435 355 464 421Z" glyph-name="Icircumflex" horiz-adv-x="732" unicode="&#206;" /><glyph d="M636 962Q636 985 651.5 1001Q667 1017 690 1017Q713 1017 729 1001Q745 985 745 962Q745 939 729 923.5Q713 908 690 908Q667 908 651.5 923.5Q636 939 636 962ZM854 962Q854 985 869.5 1001Q885 1017 908 1017Q931 1017 947 1001Q963 985 963 962Q963 939 947 923.5Q931 908 908 908Q885 908 869.5 923.5Q854 939 854 962ZM464 421Q498 494 529.5 553.5Q561 613 593 659Q625 705 660 737.5Q695 770 735 788Q711 790 678 788.5Q645 787 609 782.5Q573 778 537 772Q501 766 471 761Q441 756 419.5 752.5Q398 749 391 749Q384 749 388 757.5Q392 766 402 777.5Q412 789 424.5 799.5Q437 810 447 814Q453 817 473 818.5Q493 820 518 820Q543 820 568.5 820Q594 820 611 820Q658 820 716.5 821.5Q775 823 828 824.5Q881 826 919.5 827.5Q958 829 966 829Q1014 829 1025 815Q1027 805 1013 790Q999 775 980 763Q966 759 932 766Q898 773 857 778.5Q816 784 775.5 783Q735 782 708 763Q680 744 662 711.5Q644 679 627.5 634.5Q611 590 592 534.5Q573 479 544 413Q478 266 403.5 171Q329 76 261 40Q271 36 296.5 37.5Q322 39 356.5 43.5Q391 48 430.5 53.5Q470 59 507 64.5Q544 70 575 73.5Q606 77 623 76Q633 76 631.5 64Q630 52 620 38.5Q610 25 592.5 13.5Q575 2 551 2L412 5Q340 5 273 3.5Q206 2 153 0.5Q100 -1 65 -2Q30 -3 22 -3Q-24 -3 -37 12Q-37 17 -32.5 24.5Q-28 32 -20.5 39.5Q-13 47 -4 52.5Q5 58 12 60Q21 63 39 60Q57 57 80.5 53Q104 49 131 45Q158 41 186 41Q218 41 244 46Q270 51 291 68Q317 89 336.5 122Q356 155 375 199.5Q394 244 414.5 299.5Q435 355 464 421Z" glyph-name="Idieresis" horiz-adv-x="732" unicode="&#207;" /><glyph d="M752 966Q752 990 768.5 1007Q785 1024 809 1024Q833 1024 850 1007Q867 990 867 966Q867 942 850 925.5Q833 909 809 909Q785 909 768.5 925.5Q752 942 752 966ZM464 421Q498 494 529.5 553.5Q561 613 593 659Q625 705 660 737.5Q695 770 735 788Q711 790 678 788.5Q645 787 609 782.5Q573 778 537 772Q501 766 471 761Q441 756 419.5 752.5Q398 749 391 749Q384 749 388 757.5Q392 766 402 777.5Q412 789 424.5 799.5Q437 810 447 814Q453 817 473 818.5Q493 820 518 820Q543 820 568.5 820Q594 820 611 820Q658 820 716.5 821.5Q775 823 828 824.5Q881 826 919.5 827.5Q958 829 966 829Q1014 829 1025 815Q1027 805 1013 790Q999 775 980 763Q966 759 932 766Q898 773 857 778.5Q816 784 775.5 783Q735 782 708 763Q680 744 662 711.5Q644 679 627.5 634.5Q611 590 592 534.5Q573 479 544 413Q478 266 403.5 171Q329 76 261 40Q271 36 296.5 37.5Q322 39 356.5 43.5Q391 48 430.5 53.5Q470 59 507 64.5Q544 70 575 73.5Q606 77 623 76Q633 76 631.5 64Q630 52 620 38.5Q610 25 592.5 13.5Q575 2 551 2L412 5Q340 5 273 3.5Q206 2 153 0.5Q100 -1 65 -2Q30 -3 22 -3Q-24 -3 -37 12Q-37 17 -32.5 24.5Q-28 32 -20.5 39.5Q-13 47 -4 52.5Q5 58 12 60Q21 63 39 60Q57 57 80.5 53Q104 49 131 45Q158 41 186 41Q218 41 244 46Q270 51 291 68Q317 89 336.5 122Q356 155 375 199.5Q394 244 414.5 299.5Q435 355 464 421Z" glyph-name="Idotaccent" horiz-adv-x="732" unicode="&#304;" /><glyph d="M837 896Q816 918 790 939.5Q764 961 740 979.5Q716 998 697.5 1011.5Q679 1025 674 1030Q669 1035 665 1039.5Q661 1044 661 1049Q661 1057 661.5 1062.5Q662 1068 664 1070Q666 1072 671.5 1072.5Q677 1073 684 1073Q692 1073 699 1072Q706 1071 710 1067Q714 1062 727.5 1043.5Q741 1025 759 1000.5Q777 976 799 949.5Q821 923 842 903Q845 900 845 898Q845 894 841 894Q839 894 837 896ZM464 421Q498 494 529.5 553.5Q561 613 593 659Q625 705 660 737.5Q695 770 735 788Q711 790 678 788.5Q645 787 609 782.5Q573 778 537 772Q501 766 471 761Q441 756 419.5 752.5Q398 749 391 749Q384 749 388 757.5Q392 766 402 777.5Q412 789 424.5 799.5Q437 810 447 814Q453 817 473 818.5Q493 820 518 820Q543 820 568.5 820Q594 820 611 820Q658 820 716.5 821.5Q775 823 828 824.5Q881 826 919.5 827.5Q958 829 966 829Q1014 829 1025 815Q1027 805 1013 790Q999 775 980 763Q966 759 932 766Q898 773 857 778.5Q816 784 775.5 783Q735 782 708 763Q680 744 662 711.5Q644 679 627.5 634.5Q611 590 592 534.5Q573 479 544 413Q478 266 403.5 171Q329 76 261 40Q271 36 296.5 37.5Q322 39 356.5 43.5Q391 48 430.5 53.5Q470 59 507 64.5Q544 70 575 73.5Q606 77 623 76Q633 76 631.5 64Q630 52 620 38.5Q610 25 592.5 13.5Q575 2 551 2L412 5Q340 5 273 3.5Q206 2 153 0.5Q100 -1 65 -2Q30 -3 22 -3Q-24 -3 -37 12Q-37 17 -32.5 24.5Q-28 32 -20.5 39.5Q-13 47 -4 52.5Q5 58 12 60Q21 63 39 60Q57 57 80.5 53Q104 49 131 45Q158 41 186 41Q218 41 244 46Q270 51 291 68Q317 89 336.5 122Q356 155 375 199.5Q394 244 414.5 299.5Q435 355 464 421Z" glyph-name="Igrave" horiz-adv-x="732" unicode="&#204;" /><glyph d="M802 976Q827 976 850.5 976Q874 976 901 977Q929 978 934.5 978Q940 978 940 976Q940 971 926.5 956.5Q913 942 889 919Q882 919 857 920Q832 921 803 921Q790 921 780.5 920.5Q771 920 762 919.5Q753 919 743 918.5Q733 918 720 918Q692 917 686.5 918Q681 919 681 921Q681 926 694.5 940Q708 954 732 977Q739 977 756 976.5Q773 976 801 976ZM464 421Q498 494 529.5 553.5Q561 613 593 659Q625 705 660 737.5Q695 770 735 788Q711 790 678 788.5Q645 787 609 782.5Q573 778 537 772Q501 766 471 761Q441 756 419.5 752.5Q398 749 391 749Q384 749 388 757.5Q392 766 402 777.5Q412 789 424.5 799.5Q437 810 447 814Q453 817 473 818.5Q493 820 518 820Q543 820 568.5 820Q594 820 611 820Q658 820 716.5 821.5Q775 823 828 824.5Q881 826 919.5 827.5Q958 829 966 829Q1014 829 1025 815Q1027 805 1013 790Q999 775 980 763Q966 759 932 766Q898 773 857 778.5Q816 784 775.5 783Q735 782 708 763Q680 744 662 711.5Q644 679 627.5 634.5Q611 590 592 534.5Q573 479 544 413Q478 266 403.5 171Q329 76 261 40Q271 36 296.5 37.5Q322 39 356.5 43.5Q391 48 430.5 53.5Q470 59 507 64.5Q544 70 575 73.5Q606 77 623 76Q633 76 631.5 64Q630 52 620 38.5Q610 25 592.5 13.5Q575 2 551 2L412 5Q340 5 273 3.5Q206 2 153 0.5Q100 -1 65 -2Q30 -3 22 -3Q-24 -3 -37 12Q-37 17 -32.5 24.5Q-28 32 -20.5 39.5Q-13 47 -4 52.5Q5 58 12 60Q21 63 39 60Q57 57 80.5 53Q104 49 131 45Q158 41 186 41Q218 41 244 46Q270 51 291 68Q317 89 336.5 122Q356 155 375 199.5Q394 244 414.5 299.5Q435 355 464 421Z" glyph-name="Imacron" horiz-adv-x="732" unicode="&#298;" /><glyph d="M464 421Q498 494 529.5 553.5Q561 613 593 659Q625 705 660 737.5Q695 770 735 788Q711 790 678 788.5Q645 787 609 782.5Q573 778 537 772Q501 766 471 761Q441 756 419.5 752.5Q398 749 391 749Q384 749 388 757.5Q392 766 402 777.5Q412 789 424.5 799.5Q437 810 447 814Q453 817 473 818.5Q493 820 518 820Q543 820 568.5 820Q594 820 611 820Q658 820 716.5 821.5Q775 823 828 824.5Q881 826 919.5 827.5Q958 829 966 829Q1014 829 1025 815Q1027 805 1013 790Q999 775 980 763Q966 759 932 766Q898 773 857 778.5Q816 784 775.5 783Q735 782 708 763Q680 744 662 711.5Q644 679 627.5 634.5Q611 590 592 534.5Q573 479 544 413Q478 266 403.5 171Q329 76 261 40Q271 36 296.5 37.5Q322 39 356.5 43.5Q391 48 430.5 53.5Q470 59 507 64.5Q544 70 575 73.5Q606 77 623 76Q634 75 631 60.5Q628 46 614 31Q595 8 583 -8.5Q571 -25 564 -37.5Q557 -50 554 -59.5Q551 -69 550 -76Q547 -96 561 -110Q575 -124 607 -124Q633 -124 654.5 -116Q676 -108 689 -101Q691 -100 686.5 -111.5Q682 -123 675.5 -137Q669 -151 661 -164Q653 -177 649 -180Q638 -185 617.5 -190Q597 -195 574 -195Q539 -195 519.5 -173.5Q500 -152 505 -114Q507 -91 526.5 -62.5Q546 -34 582 8Q567 2 551 2L412 5Q340 5 273 3.5Q206 2 153 0.5Q100 -1 65 -2Q30 -3 22 -3Q-24 -3 -37 12Q-37 17 -32.5 24.5Q-28 32 -20.5 39.5Q-13 47 -4 52.5Q5 58 12 60Q21 63 39 60Q57 57 80.5 53Q104 49 131 45Q158 41 186 41Q218 41 244 46Q270 51 291 68Q317 89 336.5 122Q356 155 375 199.5Q394 244 414.5 299.5Q435 355 464 421Z" glyph-name="Iogonek" horiz-adv-x="732" unicode="&#302;" /><glyph d="M634 916Q656 944 671.5 963.5Q687 983 699 995Q711 1007 720.5 1012.5Q730 1018 740 1018Q758 1018 780 1008Q802 998 825 986Q848 974 869 964Q890 954 905 954Q912 954 917.5 955Q923 956 929.5 962Q936 968 945 980Q954 992 970 1014Q975 1020 979 1018Q983 1016 978 1009Q942 956 915.5 927.5Q889 899 863 899Q846 899 824.5 910Q803 921 780.5 933.5Q758 946 737 957Q716 968 700 968Q695 968 691.5 966.5Q688 965 682 959Q676 953 667 941.5Q658 930 642 911Q635 903 632.5 905.5Q630 908 634 916ZM464 421Q498 494 529.5 553.5Q561 613 593 659Q625 705 660 737.5Q695 770 735 788Q711 790 678 788.5Q645 787 609 782.5Q573 778 537 772Q501 766 471 761Q441 756 419.5 752.5Q398 749 391 749Q384 749 388 757.5Q392 766 402 777.5Q412 789 424.5 799.5Q437 810 447 814Q453 817 473 818.5Q493 820 518 820Q543 820 568.5 820Q594 820 611 820Q658 820 716.5 821.5Q775 823 828 824.5Q881 826 919.5 827.5Q958 829 966 829Q1014 829 1025 815Q1027 805 1013 790Q999 775 980 763Q966 759 932 766Q898 773 857 778.5Q816 784 775.5 783Q735 782 708 763Q680 744 662 711.5Q644 679 627.5 634.5Q611 590 592 534.5Q573 479 544 413Q478 266 403.5 171Q329 76 261 40Q271 36 296.5 37.5Q322 39 356.5 43.5Q391 48 430.5 53.5Q470 59 507 64.5Q544 70 575 73.5Q606 77 623 76Q633 76 631.5 64Q630 52 620 38.5Q610 25 592.5 13.5Q575 2 551 2L412 5Q340 5 273 3.5Q206 2 153 0.5Q100 -1 65 -2Q30 -3 22 -3Q-24 -3 -37 12Q-37 17 -32.5 24.5Q-28 32 -20.5 39.5Q-13 47 -4 52.5Q5 58 12 60Q21 63 39 60Q57 57 80.5 53Q104 49 131 45Q158 41 186 41Q218 41 244 46Q270 51 291 68Q317 89 336.5 122Q356 155 375 199.5Q394 244 414.5 299.5Q435 355 464 421Z" glyph-name="Itilde" horiz-adv-x="732" unicode="&#296;" /><glyph d="M562 780Q524 785 473 779Q422 773 372.5 764Q323 755 281.5 747Q240 739 221 739Q214 739 219 748.5Q224 758 234 770.5Q244 783 257 794.5Q270 806 280 809Q286 812 293.5 814Q301 816 318 817.5Q335 819 364 820Q393 821 441 821Q487 821 521 822.5Q555 824 581.5 826Q608 828 629.5 829.5Q651 831 671 831Q677 831 672 822Q667 813 656.5 801.5Q646 790 633 781Q620 772 612 772Q539 772 490.5 733.5Q442 695 407 630.5Q372 566 345 483Q318 400 288 310Q252 206 224.5 134.5Q197 63 170 13Q143 -37 113 -71.5Q83 -106 41.5 -136.5Q0 -167 -56.5 -199.5Q-113 -232 -192 -278Q-212 -291 -216.5 -285Q-221 -279 -198 -266Q-133 -229 -85 -193.5Q-37 -158 0 -120Q37 -82 65 -38.5Q93 5 117.5 60Q142 115 166.5 184.5Q191 254 220 342Q250 429 282 497Q314 565 354 618.5Q394 672 444.5 711.5Q495 751 562 780Z" glyph-name="J" horiz-adv-x="394" unicode="J" /><glyph d="M564 1042Q562 1046 558 1042Q544 1026 526 1008Q508 990 489 973.5Q470 957 453 943Q436 929 424 920Q415 914 405.5 908Q396 902 385 903Q374 905 369 910.5Q364 916 365 921Q365 924 368 932Q371 940 388 951Q403 960 424 972Q445 984 468.5 997.5Q492 1011 515 1025Q538 1039 557 1052Q563 1058 568 1051Q584 1030 596 1015.5Q608 1001 617.5 989Q627 977 636.5 966.5Q646 956 658 944Q672 931 675.5 923.5Q679 916 678 911Q678 902 671 895.5Q664 889 656 890Q633 891 619 917Q607 940 594.5 972Q582 1004 564 1042ZM562 780Q524 785 473 779Q422 773 372.5 764Q323 755 281.5 747Q240 739 221 739Q214 739 219 748.5Q224 758 234 770.5Q244 783 257 794.5Q270 806 280 809Q286 812 293.5 814Q301 816 318 817.5Q335 819 364 820Q393 821 441 821Q487 821 521 822.5Q555 824 581.5 826Q608 828 629.5 829.5Q651 831 671 831Q677 831 672 822Q667 813 656.5 801.5Q646 790 633 781Q620 772 612 772Q539 772 490.5 733.5Q442 695 407 630.5Q372 566 345 483Q318 400 288 310Q252 206 224.5 134.5Q197 63 170 13Q143 -37 113 -71.5Q83 -106 41.5 -136.5Q0 -167 -56.5 -199.5Q-113 -232 -192 -278Q-212 -291 -216.5 -285Q-221 -279 -198 -266Q-133 -229 -85 -193.5Q-37 -158 0 -120Q37 -82 65 -38.5Q93 5 117.5 60Q142 115 166.5 184.5Q191 254 220 342Q250 429 282 497Q314 565 354 618.5Q394 672 444.5 711.5Q495 751 562 780Z" glyph-name="Jcircumflex" horiz-adv-x="394" unicode="&#308;" /><glyph d="M766 471Q776 415 790 360Q804 305 819.5 257Q835 209 851 171Q867 133 881 111Q912 60 949 47Q974 54 1008.5 81Q1043 108 1082 144L1088 140Q1072 125 1052.5 106.5Q1033 88 1011.5 69.5Q990 51 967 33.5Q944 16 920 3Q916 1 909 0Q902 -1 895.5 -0.5Q889 0 883 1Q877 2 875 4Q857 18 841 39.5Q825 61 817 75Q802 99 786 137Q770 175 755.5 221.5Q741 268 728.5 319Q716 370 708 420Q646 365 589.5 314.5Q533 264 491 227Q452 164 408 115Q364 66 316 39Q253 4 193.5 -9Q134 -22 85 -22Q33 -22 7.5 -16.5Q-18 -11 -24 -5Q-24 -1 -21.5 7.5Q-19 16 -13.5 25.5Q-8 35 0 45Q8 55 18 61Q26 62 46 57Q66 52 93.5 45Q121 38 152.5 32.5Q184 27 214 27Q244 27 271 31.5Q298 36 317 49Q339 65 358.5 93Q378 121 398.5 161.5Q419 202 441.5 256Q464 310 491 378Q532 478 570.5 549Q609 620 645 668Q681 716 713.5 743.5Q746 771 775 783Q737 788 687.5 783Q638 778 590 769.5Q542 761 502 753.5Q462 746 444 746Q437 746 441.5 755.5Q446 765 456.5 777Q467 789 480 800.5Q493 812 503 816Q508 819 516 820.5Q524 822 540.5 823Q557 824 586 824Q615 824 663 824Q709 824 743.5 825.5Q778 827 804.5 829Q831 831 852.5 832.5Q874 834 894 834Q900 834 894.5 826Q889 818 878.5 809Q868 800 855 792Q842 784 834 784Q793 784 765.5 765Q738 746 711.5 702Q685 658 655 585Q625 512 580 404Q563 364 545 325.5Q527 287 506 252Q539 284 581.5 323Q624 362 670 404Q716 446 763.5 488.5Q811 531 856 570Q901 609 940.5 642Q980 675 1010 698Q1100 766 1183 793.5Q1266 821 1344 821Q1358 821 1364.5 817Q1371 813 1371 808Q1371 802 1365.5 791Q1360 780 1352.5 770Q1345 760 1336.5 752.5Q1328 745 1322 745Q1290 745 1250 749Q1210 753 1172 753Q1143 753 1105.5 738Q1068 723 1031 696Q1006 678 974.5 652Q943 626 907.5 596Q872 566 833 532Q794 498 755 463Z" glyph-name="K" horiz-adv-x="1116" unicode="K" /><glyph d="M559 -110Q552 -121 536 -132Q520 -143 508 -143Q492 -143 483 -130Q480 -124 481 -113.5Q482 -103 486.5 -91.5Q491 -80 497.5 -70Q504 -60 510 -55Q515 -51 529 -48.5Q543 -46 555 -46Q566 -46 578.5 -49Q591 -52 596 -59Q602 -66 600.5 -83.5Q599 -101 591 -115Q579 -138 560.5 -155.5Q542 -173 521 -186.5Q500 -200 479 -209.5Q458 -219 442 -225Q440 -226 439 -224.5Q438 -223 440 -222Q456 -215 473 -203Q490 -191 506 -176.5Q522 -162 536.5 -145Q551 -128 561 -110ZM766 471Q776 415 790 360Q804 305 819.5 257Q835 209 851 171Q867 133 881 111Q912 60 949 47Q974 54 1008.5 81Q1043 108 1082 144L1088 140Q1072 125 1052.5 106.5Q1033 88 1011.5 69.5Q990 51 967 33.5Q944 16 920 3Q916 1 909 0Q902 -1 895.5 -0.5Q889 0 883 1Q877 2 875 4Q857 18 841 39.5Q825 61 817 75Q802 99 786 137Q770 175 755.5 221.5Q741 268 728.5 319Q716 370 708 420Q646 365 589.5 314.5Q533 264 491 227Q452 164 408 115Q364 66 316 39Q253 4 193.5 -9Q134 -22 85 -22Q33 -22 7.5 -16.5Q-18 -11 -24 -5Q-24 -1 -21.5 7.5Q-19 16 -13.5 25.5Q-8 35 0 45Q8 55 18 61Q26 62 46 57Q66 52 93.5 45Q121 38 152.5 32.5Q184 27 214 27Q244 27 271 31.5Q298 36 317 49Q339 65 358.5 93Q378 121 398.5 161.5Q419 202 441.5 256Q464 310 491 378Q532 478 570.5 549Q609 620 645 668Q681 716 713.5 743.5Q746 771 775 783Q737 788 687.5 783Q638 778 590 769.5Q542 761 502 753.5Q462 746 444 746Q437 746 441.5 755.5Q446 765 456.5 777Q467 789 480 800.5Q493 812 503 816Q508 819 516 820.5Q524 822 540.5 823Q557 824 586 824Q615 824 663 824Q709 824 743.5 825.5Q778 827 804.5 829Q831 831 852.5 832.5Q874 834 894 834Q900 834 894.5 826Q889 818 878.5 809Q868 800 855 792Q842 784 834 784Q793 784 765.5 765Q738 746 711.5 702Q685 658 655 585Q625 512 580 404Q563 364 545 325.5Q527 287 506 252Q539 284 581.5 323Q624 362 670 404Q716 446 763.5 488.5Q811 531 856 570Q901 609 940.5 642Q980 675 1010 698Q1100 766 1183 793.5Q1266 821 1344 821Q1358 821 1364.5 817Q1371 813 1371 808Q1371 802 1365.5 791Q1360 780 1352.5 770Q1345 760 1336.5 752.5Q1328 745 1322 745Q1290 745 1250 749Q1210 753 1172 753Q1143 753 1105.5 738Q1068 723 1031 696Q1006 678 974.5 652Q943 626 907.5 596Q872 566 833 532Q794 498 755 463Z" glyph-name="Kcommaaccent" horiz-adv-x="1116" unicode="&#310;" /><glyph d="M117 116Q68 116 32.5 94Q-3 72 -21 24Q-31 -1 -23.5 -31Q-16 -61 4 -87.5Q24 -114 54.5 -131.5Q85 -149 121 -149Q148 -149 170.5 -140.5Q193 -132 214.5 -112Q236 -92 258 -57.5Q280 -23 304 30Q250 67 201.5 91.5Q153 116 117 116ZM999 6Q981 -15 962.5 -36.5Q944 -58 930 -72Q902 -99 876.5 -121.5Q851 -144 824 -160Q797 -176 767 -184.5Q737 -193 700 -193Q664 -193 619.5 -173Q575 -153 526 -122.5Q477 -92 426.5 -55.5Q376 -19 327 14Q300 -29 267.5 -68Q235 -107 200 -136Q165 -165 127.5 -182.5Q90 -200 53 -200Q12 -200 -19.5 -182Q-51 -164 -69.5 -135.5Q-88 -107 -93 -72.5Q-98 -38 -84 -5Q-74 20 -47.5 46.5Q-21 73 15 94.5Q51 116 94 130Q137 144 179 144Q210 144 248 128.5Q286 113 329 89Q350 142 372 209Q394 276 416.5 346.5Q439 417 463 484.5Q487 552 512 605Q566 727 674.5 791Q783 855 932 855Q958 855 991 850.5Q1024 846 1054.5 840Q1085 834 1109.5 827.5Q1134 821 1143 817Q1154 812 1150.5 801.5Q1147 791 1136.5 780Q1126 769 1113.5 760.5Q1101 752 1095 752Q1074 752 1042 763.5Q1010 775 973 789.5Q936 804 896.5 815.5Q857 827 820 827Q785 827 758.5 819.5Q732 812 706.5 788Q681 764 654.5 718Q628 672 594 596Q567 536 540.5 472.5Q514 409 486.5 344.5Q459 280 430.5 217Q402 154 373 96Q370 89 366.5 83Q363 77 360 71Q411 41 465.5 6Q520 -29 573.5 -59Q627 -89 678 -109Q729 -129 773 -129Q810 -129 840.5 -116.5Q871 -104 897.5 -83.5Q924 -63 946.5 -38Q969 -13 991 12Z" glyph-name="L" horiz-adv-x="1008" unicode="L" /><glyph d="M916 915Q914 913 912 913Q908 913 908 917Q908 919 911 922Q932 942 954 968.5Q976 995 994 1019.5Q1012 1044 1025 1062.5Q1038 1081 1043 1086Q1047 1090 1054 1091Q1061 1092 1069 1092Q1076 1092 1081.5 1091.5Q1087 1091 1089 1089Q1091 1087 1091.5 1081.5Q1092 1076 1092 1068Q1092 1063 1088 1058.5Q1084 1054 1079 1049Q1074 1044 1055.5 1030.5Q1037 1017 1013 998.5Q989 980 963 958.5Q937 937 916 915ZM117 116Q68 116 32.5 94Q-3 72 -21 24Q-31 -1 -23.5 -31Q-16 -61 4 -87.5Q24 -114 54.5 -131.5Q85 -149 121 -149Q148 -149 170.5 -140.5Q193 -132 214.5 -112Q236 -92 258 -57.5Q280 -23 304 30Q250 67 201.5 91.5Q153 116 117 116ZM999 6Q981 -15 962.5 -36.5Q944 -58 930 -72Q902 -99 876.5 -121.5Q851 -144 824 -160Q797 -176 767 -184.5Q737 -193 700 -193Q664 -193 619.5 -173Q575 -153 526 -122.5Q477 -92 426.5 -55.5Q376 -19 327 14Q300 -29 267.5 -68Q235 -107 200 -136Q165 -165 127.5 -182.5Q90 -200 53 -200Q12 -200 -19.5 -182Q-51 -164 -69.5 -135.5Q-88 -107 -93 -72.5Q-98 -38 -84 -5Q-74 20 -47.5 46.5Q-21 73 15 94.5Q51 116 94 130Q137 144 179 144Q210 144 248 128.5Q286 113 329 89Q350 142 372 209Q394 276 416.5 346.5Q439 417 463 484.5Q487 552 512 605Q566 727 674.5 791Q783 855 932 855Q958 855 991 850.5Q1024 846 1054.5 840Q1085 834 1109.5 827.5Q1134 821 1143 817Q1154 812 1150.5 801.5Q1147 791 1136.5 780Q1126 769 1113.5 760.5Q1101 752 1095 752Q1074 752 1042 763.5Q1010 775 973 789.5Q936 804 896.5 815.5Q857 827 820 827Q785 827 758.5 819.5Q732 812 706.5 788Q681 764 654.5 718Q628 672 594 596Q567 536 540.5 472.5Q514 409 486.5 344.5Q459 280 430.5 217Q402 154 373 96Q370 89 366.5 83Q363 77 360 71Q411 41 465.5 6Q520 -29 573.5 -59Q627 -89 678 -109Q729 -129 773 -129Q810 -129 840.5 -116.5Q871 -104 897.5 -83.5Q924 -63 946.5 -38Q969 -13 991 12Z" glyph-name="Lacute" horiz-adv-x="1008" unicode="&#313;" /><glyph d="M998 932Q1000 928 1004 932Q1017 948 1035.5 966Q1054 984 1073 1000.5Q1092 1017 1109 1031Q1126 1045 1138 1054Q1147 1060 1156.5 1066Q1166 1072 1177 1071Q1188 1069 1193 1063.5Q1198 1058 1197 1053Q1197 1050 1194 1042Q1191 1034 1174 1023Q1159 1014 1138 1002Q1117 990 1093.5 976.5Q1070 963 1047 949Q1024 935 1005 922Q998 917 993 923Q976 944 965 958.5Q954 973 944 985Q934 997 925 1007.5Q916 1018 904 1030Q890 1043 886.5 1050.5Q883 1058 884 1063Q884 1072 891 1078.5Q898 1085 906 1084Q929 1083 943 1057Q955 1034 967.5 1002Q980 970 998 932ZM117 116Q68 116 32.5 94Q-3 72 -21 24Q-31 -1 -23.5 -31Q-16 -61 4 -87.5Q24 -114 54.5 -131.5Q85 -149 121 -149Q148 -149 170.5 -140.5Q193 -132 214.5 -112Q236 -92 258 -57.5Q280 -23 304 30Q250 67 201.5 91.5Q153 116 117 116ZM999 6Q981 -15 962.5 -36.5Q944 -58 930 -72Q902 -99 876.5 -121.5Q851 -144 824 -160Q797 -176 767 -184.5Q737 -193 700 -193Q664 -193 619.5 -173Q575 -153 526 -122.5Q477 -92 426.5 -55.5Q376 -19 327 14Q300 -29 267.5 -68Q235 -107 200 -136Q165 -165 127.5 -182.5Q90 -200 53 -200Q12 -200 -19.5 -182Q-51 -164 -69.5 -135.5Q-88 -107 -93 -72.5Q-98 -38 -84 -5Q-74 20 -47.5 46.5Q-21 73 15 94.5Q51 116 94 130Q137 144 179 144Q210 144 248 128.5Q286 113 329 89Q350 142 372 209Q394 276 416.5 346.5Q439 417 463 484.5Q487 552 512 605Q566 727 674.5 791Q783 855 932 855Q958 855 991 850.5Q1024 846 1054.5 840Q1085 834 1109.5 827.5Q1134 821 1143 817Q1154 812 1150.5 801.5Q1147 791 1136.5 780Q1126 769 1113.5 760.5Q1101 752 1095 752Q1074 752 1042 763.5Q1010 775 973 789.5Q936 804 896.5 815.5Q857 827 820 827Q785 827 758.5 819.5Q732 812 706.5 788Q681 764 654.5 718Q628 672 594 596Q567 536 540.5 472.5Q514 409 486.5 344.5Q459 280 430.5 217Q402 154 373 96Q370 89 366.5 83Q363 77 360 71Q411 41 465.5 6Q520 -29 573.5 -59Q627 -89 678 -109Q729 -129 773 -129Q810 -129 840.5 -116.5Q871 -104 897.5 -83.5Q924 -63 946.5 -38Q969 -13 991 12Z" glyph-name="Lcaron" horiz-adv-x="1008" unicode="&#317;" /><glyph d="M373 -293Q366 -304 350 -315Q334 -326 322 -326Q306 -326 297 -313Q294 -307 295 -296.5Q296 -286 300.5 -274.5Q305 -263 311.5 -253Q318 -243 324 -238Q329 -234 343 -231.5Q357 -229 369 -229Q380 -229 392.5 -232Q405 -235 410 -242Q416 -249 414.5 -266.5Q413 -284 405 -298Q393 -321 374.5 -338.5Q356 -356 335 -369.5Q314 -383 293 -392.5Q272 -402 256 -408Q254 -409 253 -407.5Q252 -406 254 -405Q270 -398 287 -386Q304 -374 320 -359.5Q336 -345 350.5 -328Q365 -311 375 -293ZM117 116Q68 116 32.5 94Q-3 72 -21 24Q-31 -1 -23.5 -31Q-16 -61 4 -87.5Q24 -114 54.5 -131.5Q85 -149 121 -149Q148 -149 170.5 -140.5Q193 -132 214.5 -112Q236 -92 258 -57.5Q280 -23 304 30Q250 67 201.5 91.5Q153 116 117 116ZM999 6Q981 -15 962.5 -36.5Q944 -58 930 -72Q902 -99 876.5 -121.5Q851 -144 824 -160Q797 -176 767 -184.5Q737 -193 700 -193Q664 -193 619.5 -173Q575 -153 526 -122.5Q477 -92 426.5 -55.5Q376 -19 327 14Q300 -29 267.5 -68Q235 -107 200 -136Q165 -165 127.5 -182.5Q90 -200 53 -200Q12 -200 -19.5 -182Q-51 -164 -69.5 -135.5Q-88 -107 -93 -72.5Q-98 -38 -84 -5Q-74 20 -47.5 46.5Q-21 73 15 94.5Q51 116 94 130Q137 144 179 144Q210 144 248 128.5Q286 113 329 89Q350 142 372 209Q394 276 416.5 346.5Q439 417 463 484.5Q487 552 512 605Q566 727 674.5 791Q783 855 932 855Q958 855 991 850.5Q1024 846 1054.5 840Q1085 834 1109.5 827.5Q1134 821 1143 817Q1154 812 1150.5 801.5Q1147 791 1136.5 780Q1126 769 1113.5 760.5Q1101 752 1095 752Q1074 752 1042 763.5Q1010 775 973 789.5Q936 804 896.5 815.5Q857 827 820 827Q785 827 758.5 819.5Q732 812 706.5 788Q681 764 654.5 718Q628 672 594 596Q567 536 540.5 472.5Q514 409 486.5 344.5Q459 280 430.5 217Q402 154 373 96Q370 89 366.5 83Q363 77 360 71Q411 41 465.5 6Q520 -29 573.5 -59Q627 -89 678 -109Q729 -129 773 -129Q810 -129 840.5 -116.5Q871 -104 897.5 -83.5Q924 -63 946.5 -38Q969 -13 991 12Z" glyph-name="Lcommaaccent" horiz-adv-x="1008" unicode="&#315;" /><glyph d="M746 360Q746 384 762.5 401Q779 418 803 418Q827 418 844 401Q861 384 861 360Q861 336 844 319.5Q827 303 803 303Q779 303 762.5 319.5Q746 336 746 360ZM117 116Q68 116 32.5 94Q-3 72 -21 24Q-31 -1 -23.5 -31Q-16 -61 4 -87.5Q24 -114 54.5 -131.5Q85 -149 121 -149Q148 -149 170.5 -140.5Q193 -132 214.5 -112Q236 -92 258 -57.5Q280 -23 304 30Q250 67 201.5 91.5Q153 116 117 116ZM999 6Q981 -15 962.5 -36.5Q944 -58 930 -72Q902 -99 876.5 -121.5Q851 -144 824 -160Q797 -176 767 -184.5Q737 -193 700 -193Q664 -193 619.5 -173Q575 -153 526 -122.5Q477 -92 426.5 -55.5Q376 -19 327 14Q300 -29 267.5 -68Q235 -107 200 -136Q165 -165 127.5 -182.5Q90 -200 53 -200Q12 -200 -19.5 -182Q-51 -164 -69.5 -135.5Q-88 -107 -93 -72.5Q-98 -38 -84 -5Q-74 20 -47.5 46.5Q-21 73 15 94.5Q51 116 94 130Q137 144 179 144Q210 144 248 128.5Q286 113 329 89Q350 142 372 209Q394 276 416.5 346.5Q439 417 463 484.5Q487 552 512 605Q566 727 674.5 791Q783 855 932 855Q958 855 991 850.5Q1024 846 1054.5 840Q1085 834 1109.5 827.5Q1134 821 1143 817Q1154 812 1150.5 801.5Q1147 791 1136.5 780Q1126 769 1113.5 760.5Q1101 752 1095 752Q1074 752 1042 763.5Q1010 775 973 789.5Q936 804 896.5 815.5Q857 827 820 827Q785 827 758.5 819.5Q732 812 706.5 788Q681 764 654.5 718Q628 672 594 596Q567 536 540.5 472.5Q514 409 486.5 344.5Q459 280 430.5 217Q402 154 373 96Q370 89 366.5 83Q363 77 360 71Q411 41 465.5 6Q520 -29 573.5 -59Q627 -89 678 -109Q729 -129 773 -129Q810 -129 840.5 -116.5Q871 -104 897.5 -83.5Q924 -63 946.5 -38Q969 -13 991 12Z" glyph-name="Ldot" horiz-adv-x="1008" unicode="&#319;" /><glyph d="M117 116Q68 116 32.5 94Q-3 72 -21 24Q-31 -1 -23.5 -31Q-16 -61 4 -87.5Q24 -114 54.5 -131.5Q85 -149 121 -149Q148 -149 170.5 -140.5Q193 -132 214.5 -112Q236 -92 258 -57.5Q280 -23 304 30Q250 67 201.5 91.5Q153 116 117 116ZM999 6Q981 -15 962.5 -36.5Q944 -58 930 -72Q902 -99 876.5 -121.5Q851 -144 824 -160Q797 -176 767 -184.5Q737 -193 700 -193Q664 -193 619.5 -173Q575 -153 526 -122.5Q477 -92 426.5 -55.5Q376 -19 327 14Q300 -29 267.5 -68Q235 -107 200 -136Q165 -165 127.5 -182.5Q90 -200 53 -200Q12 -200 -19.5 -182Q-51 -164 -69.5 -135.5Q-88 -107 -93 -72.5Q-98 -38 -84 -5Q-74 20 -47.5 46.5Q-21 73 15 94.5Q51 116 94 130Q137 144 179 144Q210 144 248 128.5Q286 113 329 89Q354 152 380 234Q406 316 434 400Q399 383 369 369Q339 355 314 341Q308 341 304.5 349.5Q301 358 304 363Q330 373 364.5 386Q399 399 439 415Q456 468 474.5 516Q493 564 512 605Q566 727 674.5 791Q783 855 932 855Q958 855 991 850.5Q1024 846 1054.5 840Q1085 834 1109.5 827.5Q1134 821 1143 817Q1154 812 1150.5 801.5Q1147 791 1136.5 780Q1126 769 1113.5 760.5Q1101 752 1095 752Q1074 752 1042 763.5Q1010 775 973 789.5Q936 804 896.5 815.5Q857 827 820 827Q785 827 758.5 819.5Q732 812 706.5 788Q681 764 654.5 718Q628 672 594 596Q577 560 561.5 522Q546 484 529 446Q571 464 605 481Q639 498 665 511Q671 509 675.5 501.5Q680 494 675 489Q643 477 605 463Q567 449 522 430Q486 344 449 259Q412 174 373 96Q370 89 366.5 83Q363 77 360 71Q411 41 465.5 6Q520 -29 573.5 -59Q627 -89 678 -109Q729 -129 773 -129Q810 -129 840.5 -116.5Q871 -104 897.5 -83.5Q924 -63 946.5 -38Q969 -13 991 12Z" glyph-name="Lslash" horiz-adv-x="1008" unicode="&#321;" /><glyph d="M1665 792Q1676 800 1681.5 797Q1687 794 1678 784Q1641 737 1604 669.5Q1567 602 1533 526.5Q1499 451 1469 375Q1439 299 1417 237Q1400 189 1397 151Q1394 113 1396 86Q1397 74 1405 63.5Q1413 53 1428 48Q1439 52 1463.5 68.5Q1488 85 1516 106Q1544 127 1569.5 148Q1595 169 1609 183L1615 177Q1601 164 1574.5 140Q1548 116 1517 90Q1486 64 1454.5 40Q1423 16 1401 3Q1397 1 1390 0Q1383 -1 1375.5 -0.5Q1368 0 1361.5 1Q1355 2 1354 4Q1336 18 1325 41.5Q1314 65 1313 80Q1312 95 1314 114.5Q1316 134 1320 156Q1324 178 1330.5 202Q1337 226 1345 249Q1361 295 1381 345.5Q1401 396 1420.5 441Q1440 486 1457 521.5Q1474 557 1485 574Q1497 596 1509.5 616.5Q1522 637 1536 657Q1508 630 1466.5 590Q1425 550 1375.5 502.5Q1326 455 1272.5 402.5Q1219 350 1166.5 298Q1114 246 1067 197.5Q1020 149 984 110Q979 104 975.5 90.5Q972 77 969.5 62Q967 47 965.5 33Q964 19 963 11Q962 8 952.5 6Q943 4 932 3.5Q921 3 911 4.5Q901 6 899 9Q894 14 899 44.5Q904 75 909 127Q914 181 920 246.5Q926 312 931 382.5Q936 453 938.5 524.5Q941 596 940 662Q904 615 861 559.5Q818 504 773 446Q728 388 683 332Q638 276 597.5 228Q557 180 523.5 143.5Q490 107 468 90Q446 72 420 56Q394 40 366.5 27Q339 14 310.5 6.5Q282 -1 255 -1Q232 -1 200.5 2.5Q169 6 139 10.5Q109 15 86.5 20.5Q64 26 61 31Q56 38 59 48.5Q62 59 69.5 70Q77 81 86 89.5Q95 98 103 100Q119 101 144.5 95.5Q170 90 201 82.5Q232 75 266.5 69Q301 63 335 62Q369 61 400.5 68.5Q432 76 457 96Q484 117 518.5 153.5Q553 190 593 237.5Q633 285 677 339.5Q721 394 765.5 451.5Q810 509 854 566Q898 623 939 675Q937 749 929.5 811.5Q922 874 906 917Q901 928 889.5 938.5Q878 949 864 954Q852 950 822.5 930.5Q793 911 760 886.5Q727 862 696 837.5Q665 813 649 800L645 806Q661 819 693.5 846Q726 873 763.5 902.5Q801 932 837.5 958.5Q874 985 900 999Q904 1001 911.5 1002Q919 1003 926.5 1002.5Q934 1002 940 1000.5Q946 999 948 998Q963 984 973.5 956.5Q984 929 993 884Q1002 836 1006 773.5Q1010 711 1010.5 640.5Q1011 570 1008.5 496.5Q1006 423 1002 354.5Q998 286 992 226Q986 166 981 124Q1049 196 1137 282.5Q1225 369 1317.5 458.5Q1410 548 1500.5 634Q1591 720 1665 792Z" glyph-name="M" horiz-adv-x="1654" unicode="M" /><glyph d="M673 57Q660 36 648.5 16Q637 -4 632 -9Q627 -14 620.5 -13Q614 -12 613 -7L566 375Q554 476 544 549.5Q534 623 524 675L270 296Q202 195 145.5 111.5Q89 28 29 -31.5Q-31 -91 -102 -123.5Q-173 -156 -269 -156Q-299 -156 -334.5 -150.5Q-370 -145 -400.5 -137.5Q-431 -130 -452 -122.5Q-473 -115 -476 -112Q-479 -108 -472.5 -97.5Q-466 -87 -455 -76Q-444 -65 -431.5 -55.5Q-419 -46 -410 -43Q-403 -41 -378.5 -49.5Q-354 -58 -319 -69.5Q-284 -81 -239.5 -90.5Q-195 -100 -147 -100Q-98 -100 -53.5 -75.5Q-9 -51 37.5 -1.5Q84 48 137.5 123.5Q191 199 259 300L522 690Q509 755 494 788Q479 821 457 835Q442 844 423 844Q404 844 382 836Q370 832 339.5 812.5Q309 793 274.5 769Q240 745 208 720.5Q176 696 160 683L154 690Q170 703 204 730Q238 757 278 786.5Q318 816 356.5 842.5Q395 869 421 883Q428 887 442 890.5Q456 894 471 895.5Q486 897 500.5 896Q515 895 525 891Q546 882 562 851Q578 820 592 761Q606 702 619 612.5Q632 523 646 396L681 94Q754 214 828 331.5Q902 449 972 549Q1035 640 1086.5 697.5Q1138 755 1184 788Q1230 821 1274 833Q1318 845 1366 845Q1396 845 1432 841.5Q1468 838 1501 833.5Q1534 829 1559 824.5Q1584 820 1591 818Q1595 817 1595 814Q1595 809 1586.5 799Q1578 789 1567 778.5Q1556 768 1544.5 760Q1533 752 1526 752Q1523 752 1519.5 752Q1516 752 1510 753Q1493 755 1464.5 761Q1436 767 1401.5 773Q1367 779 1329.5 784Q1292 789 1258 789Q1228 789 1198.5 776Q1169 763 1136.5 733Q1104 703 1065.5 655Q1027 607 978 537Q894 418 820 298Q746 178 673 57Z" glyph-name="N" horiz-adv-x="947" unicode="N" /><glyph d="M1033 645Q996 585 949.5 508Q903 431 855 351Q807 271 762 194Q717 117 684 57Q673 36 662 16Q651 -4 647 -9Q644 -12 638.5 -12.5Q633 -13 627.5 -12.5Q622 -12 617.5 -10.5Q613 -9 613 -7L566 375Q552 485 542 562.5Q532 640 521 694L273 296Q231 228 194.5 168.5Q158 109 122 59Q86 9 48.5 -31Q11 -71 -32.5 -99Q-76 -127 -127 -141.5Q-178 -156 -242 -156Q-272 -156 -307.5 -150.5Q-343 -145 -374 -137.5Q-405 -130 -426.5 -122.5Q-448 -115 -451 -112Q-454 -108 -448 -97.5Q-442 -87 -431.5 -76Q-421 -65 -409 -55.5Q-397 -46 -389 -43Q-382 -41 -357.5 -49.5Q-333 -58 -297 -69.5Q-261 -81 -216 -90.5Q-171 -100 -123 -100Q-74 -100 -31.5 -75.5Q11 -51 55.5 -1.5Q100 48 149.5 123.5Q199 199 262 300L518 709Q506 764 491.5 793Q477 822 457 835Q442 844 423 844Q404 844 382 836Q370 832 339.5 812.5Q309 793 274.5 769Q240 745 208 720.5Q176 696 160 683L154 690Q170 703 204 730Q238 757 278 786.5Q318 816 356.5 842.5Q395 869 421 883Q428 887 442 890.5Q456 894 471 895.5Q486 897 500.5 896Q515 895 525 891Q546 882 562 851Q578 820 592 761Q606 702 619 612.5Q632 523 646 396L683 83L656 31Q693 97 741 181Q789 265 839.5 350.5Q890 436 937.5 514.5Q985 593 1020 650Q1043 687 1064.5 724.5Q1086 762 1104 795.5Q1122 829 1137 857.5Q1152 886 1161 904Q1164 908 1171.5 907Q1179 906 1186 902Q1193 898 1196.5 891.5Q1200 885 1195 879Q1183 866 1162.5 838.5Q1142 811 1119 777Q1096 743 1073 708Q1050 673 1033 645Z" glyph-name="N.alt" horiz-adv-x="947" unicode="&#58509;" /><glyph d="M873 851Q871 849 869 849Q865 849 865 853Q865 855 868 858Q889 878 911 904.5Q933 931 951 955.5Q969 980 982 998.5Q995 1017 1000 1022Q1004 1026 1011 1027Q1018 1028 1026 1028Q1033 1028 1038.5 1027.5Q1044 1027 1046 1025Q1048 1023 1048.5 1017.5Q1049 1012 1049 1004Q1049 999 1045 994.5Q1041 990 1036 985Q1031 980 1012.5 966.5Q994 953 970 934.5Q946 916 920 894.5Q894 873 873 851ZM673 57Q660 36 648.5 16Q637 -4 632 -9Q627 -14 620.5 -13Q614 -12 613 -7L566 375Q554 476 544 549.5Q534 623 524 675L270 296Q202 195 145.5 111.5Q89 28 29 -31.5Q-31 -91 -102 -123.5Q-173 -156 -269 -156Q-299 -156 -334.5 -150.5Q-370 -145 -400.5 -137.5Q-431 -130 -452 -122.5Q-473 -115 -476 -112Q-479 -108 -472.5 -97.5Q-466 -87 -455 -76Q-444 -65 -431.5 -55.5Q-419 -46 -410 -43Q-403 -41 -378.5 -49.5Q-354 -58 -319 -69.5Q-284 -81 -239.5 -90.5Q-195 -100 -147 -100Q-98 -100 -53.5 -75.5Q-9 -51 37.5 -1.5Q84 48 137.5 123.5Q191 199 259 300L522 690Q509 755 494 788Q479 821 457 835Q442 844 423 844Q404 844 382 836Q370 832 339.5 812.5Q309 793 274.5 769Q240 745 208 720.5Q176 696 160 683L154 690Q170 703 204 730Q238 757 278 786.5Q318 816 356.5 842.5Q395 869 421 883Q428 887 442 890.5Q456 894 471 895.5Q486 897 500.5 896Q515 895 525 891Q546 882 562 851Q578 820 592 761Q606 702 619 612.5Q632 523 646 396L681 94Q754 214 828 331.5Q902 449 972 549Q1035 640 1086.5 697.5Q1138 755 1184 788Q1230 821 1274 833Q1318 845 1366 845Q1396 845 1432 841.5Q1468 838 1501 833.5Q1534 829 1559 824.5Q1584 820 1591 818Q1595 817 1595 814Q1595 809 1586.5 799Q1578 789 1567 778.5Q1556 768 1544.5 760Q1533 752 1526 752Q1523 752 1519.5 752Q1516 752 1510 753Q1493 755 1464.5 761Q1436 767 1401.5 773Q1367 779 1329.5 784Q1292 789 1258 789Q1228 789 1198.5 776Q1169 763 1136.5 733Q1104 703 1065.5 655Q1027 607 978 537Q894 418 820 298Q746 178 673 57Z" glyph-name="Nacute" horiz-adv-x="947" unicode="&#323;" /><glyph d="M833 851Q831 849 829 849Q825 849 825 853Q825 855 828 858Q849 878 871 904.5Q893 931 911 955.5Q929 980 942 998.5Q955 1017 960 1022Q964 1026 971 1027Q978 1028 986 1028Q993 1028 998.5 1027.5Q1004 1027 1006 1025Q1008 1023 1008.5 1017.5Q1009 1012 1009 1004Q1009 999 1005 994.5Q1001 990 996 985Q991 980 972.5 966.5Q954 953 930 934.5Q906 916 880 894.5Q854 873 833 851ZM1033 645Q996 585 949.5 508Q903 431 855 351Q807 271 762 194Q717 117 684 57Q673 36 662 16Q651 -4 647 -9Q644 -12 638.5 -12.5Q633 -13 627.5 -12.5Q622 -12 617.5 -10.5Q613 -9 613 -7L566 375Q552 485 542 562.5Q532 640 521 694L273 296Q231 228 194.5 168.5Q158 109 122 59Q86 9 48.5 -31Q11 -71 -32.5 -99Q-76 -127 -127 -141.5Q-178 -156 -242 -156Q-272 -156 -307.5 -150.5Q-343 -145 -374 -137.5Q-405 -130 -426.5 -122.5Q-448 -115 -451 -112Q-454 -108 -448 -97.5Q-442 -87 -431.5 -76Q-421 -65 -409 -55.5Q-397 -46 -389 -43Q-382 -41 -357.5 -49.5Q-333 -58 -297 -69.5Q-261 -81 -216 -90.5Q-171 -100 -123 -100Q-74 -100 -31.5 -75.5Q11 -51 55.5 -1.5Q100 48 149.5 123.5Q199 199 262 300L518 709Q506 764 491.5 793Q477 822 457 835Q442 844 423 844Q404 844 382 836Q370 832 339.5 812.5Q309 793 274.5 769Q240 745 208 720.5Q176 696 160 683L154 690Q170 703 204 730Q238 757 278 786.5Q318 816 356.5 842.5Q395 869 421 883Q428 887 442 890.5Q456 894 471 895.5Q486 897 500.5 896Q515 895 525 891Q546 882 562 851Q578 820 592 761Q606 702 619 612.5Q632 523 646 396L683 83L656 31Q693 97 741 181Q789 265 839.5 350.5Q890 436 937.5 514.5Q985 593 1020 650Q1043 687 1064.5 724.5Q1086 762 1104 795.5Q1122 829 1137 857.5Q1152 886 1161 904Q1164 908 1171.5 907Q1179 906 1186 902Q1193 898 1196.5 891.5Q1200 885 1195 879Q1183 866 1162.5 838.5Q1142 811 1119 777Q1096 743 1073 708Q1050 673 1033 645Z" glyph-name="Nacute.alt" horiz-adv-x="947" unicode="&#64030;" /><glyph d="M884 877Q886 873 890 877Q903 893 921.5 911Q940 929 959 945.5Q978 962 995 976Q1012 990 1024 999Q1033 1005 1042.5 1011Q1052 1017 1063 1016Q1074 1014 1079 1008.5Q1084 1003 1083 998Q1083 995 1080 987Q1077 979 1060 968Q1045 959 1024 947Q1003 935 979.5 921.5Q956 908 933 894Q910 880 891 867Q884 862 879 868Q862 889 851 903.5Q840 918 830 930Q820 942 811 952.5Q802 963 790 975Q776 988 772.5 995.5Q769 1003 770 1008Q770 1017 777 1023.5Q784 1030 792 1029Q815 1028 829 1002Q841 979 853.5 947Q866 915 884 877ZM673 57Q660 36 648.5 16Q637 -4 632 -9Q627 -14 620.5 -13Q614 -12 613 -7L566 375Q554 476 544 549.5Q534 623 524 675L270 296Q202 195 145.5 111.5Q89 28 29 -31.5Q-31 -91 -102 -123.5Q-173 -156 -269 -156Q-299 -156 -334.5 -150.5Q-370 -145 -400.5 -137.5Q-431 -130 -452 -122.5Q-473 -115 -476 -112Q-479 -108 -472.5 -97.5Q-466 -87 -455 -76Q-444 -65 -431.5 -55.5Q-419 -46 -410 -43Q-403 -41 -378.5 -49.5Q-354 -58 -319 -69.5Q-284 -81 -239.5 -90.5Q-195 -100 -147 -100Q-98 -100 -53.5 -75.5Q-9 -51 37.5 -1.5Q84 48 137.5 123.5Q191 199 259 300L522 690Q509 755 494 788Q479 821 457 835Q442 844 423 844Q404 844 382 836Q370 832 339.5 812.5Q309 793 274.5 769Q240 745 208 720.5Q176 696 160 683L154 690Q170 703 204 730Q238 757 278 786.5Q318 816 356.5 842.5Q395 869 421 883Q428 887 442 890.5Q456 894 471 895.5Q486 897 500.5 896Q515 895 525 891Q546 882 562 851Q578 820 592 761Q606 702 619 612.5Q632 523 646 396L681 94Q754 214 828 331.5Q902 449 972 549Q1035 640 1086.5 697.5Q1138 755 1184 788Q1230 821 1274 833Q1318 845 1366 845Q1396 845 1432 841.5Q1468 838 1501 833.5Q1534 829 1559 824.5Q1584 820 1591 818Q1595 817 1595 814Q1595 809 1586.5 799Q1578 789 1567 778.5Q1556 768 1544.5 760Q1533 752 1526 752Q1523 752 1519.5 752Q1516 752 1510 753Q1493 755 1464.5 761Q1436 767 1401.5 773Q1367 779 1329.5 784Q1292 789 1258 789Q1228 789 1198.5 776Q1169 763 1136.5 733Q1104 703 1065.5 655Q1027 607 978 537Q894 418 820 298Q746 178 673 57Z" glyph-name="Ncaron" horiz-adv-x="947" unicode="&#327;" /><glyph d="M830 877Q832 873 836 877Q849 893 867.5 911Q886 929 905 945.5Q924 962 941 976Q958 990 970 999Q979 1005 988.5 1011Q998 1017 1009 1016Q1020 1014 1025 1008.5Q1030 1003 1029 998Q1029 995 1026 987Q1023 979 1006 968Q991 959 970 947Q949 935 925.5 921.5Q902 908 879 894Q856 880 837 867Q830 862 825 868Q808 889 797 903.5Q786 918 776 930Q766 942 757 952.5Q748 963 736 975Q722 988 718.5 995.5Q715 1003 716 1008Q716 1017 723 1023.5Q730 1030 738 1029Q761 1028 775 1002Q787 979 799.5 947Q812 915 830 877ZM1033 645Q996 585 949.5 508Q903 431 855 351Q807 271 762 194Q717 117 684 57Q673 36 662 16Q651 -4 647 -9Q644 -12 638.5 -12.5Q633 -13 627.5 -12.5Q622 -12 617.5 -10.5Q613 -9 613 -7L566 375Q552 485 542 562.5Q532 640 521 694L273 296Q231 228 194.5 168.5Q158 109 122 59Q86 9 48.5 -31Q11 -71 -32.5 -99Q-76 -127 -127 -141.5Q-178 -156 -242 -156Q-272 -156 -307.5 -150.5Q-343 -145 -374 -137.5Q-405 -130 -426.5 -122.5Q-448 -115 -451 -112Q-454 -108 -448 -97.5Q-442 -87 -431.5 -76Q-421 -65 -409 -55.5Q-397 -46 -389 -43Q-382 -41 -357.5 -49.5Q-333 -58 -297 -69.5Q-261 -81 -216 -90.5Q-171 -100 -123 -100Q-74 -100 -31.5 -75.5Q11 -51 55.5 -1.5Q100 48 149.5 123.5Q199 199 262 300L518 709Q506 764 491.5 793Q477 822 457 835Q442 844 423 844Q404 844 382 836Q370 832 339.5 812.5Q309 793 274.5 769Q240 745 208 720.5Q176 696 160 683L154 690Q170 703 204 730Q238 757 278 786.5Q318 816 356.5 842.5Q395 869 421 883Q428 887 442 890.5Q456 894 471 895.5Q486 897 500.5 896Q515 895 525 891Q546 882 562 851Q578 820 592 761Q606 702 619 612.5Q632 523 646 396L683 83L656 31Q693 97 741 181Q789 265 839.5 350.5Q890 436 937.5 514.5Q985 593 1020 650Q1043 687 1064.5 724.5Q1086 762 1104 795.5Q1122 829 1137 857.5Q1152 886 1161 904Q1164 908 1171.5 907Q1179 906 1186 902Q1193 898 1196.5 891.5Q1200 885 1195 879Q1183 866 1162.5 838.5Q1142 811 1119 777Q1096 743 1073 708Q1050 673 1033 645Z" glyph-name="Ncaron.alt" horiz-adv-x="947" unicode="&#64031;" /><glyph d="M326 -110Q319 -121 303 -132Q287 -143 275 -143Q259 -143 250 -130Q247 -124 248 -113.5Q249 -103 253.5 -91.5Q258 -80 264.5 -70Q271 -60 277 -55Q282 -51 296 -48.5Q310 -46 322 -46Q333 -46 345.5 -49Q358 -52 363 -59Q369 -66 367.5 -83.5Q366 -101 358 -115Q346 -138 327.5 -155.5Q309 -173 288 -186.5Q267 -200 246 -209.5Q225 -219 209 -225Q207 -226 206 -224.5Q205 -223 207 -222Q223 -215 240 -203Q257 -191 273 -176.5Q289 -162 303.5 -145Q318 -128 328 -110ZM673 57Q660 36 648.5 16Q637 -4 632 -9Q627 -14 620.5 -13Q614 -12 613 -7L566 375Q554 476 544 549.5Q534 623 524 675L270 296Q202 195 145.5 111.5Q89 28 29 -31.5Q-31 -91 -102 -123.5Q-173 -156 -269 -156Q-299 -156 -334.5 -150.5Q-370 -145 -400.5 -137.5Q-431 -130 -452 -122.5Q-473 -115 -476 -112Q-479 -108 -472.5 -97.5Q-466 -87 -455 -76Q-444 -65 -431.5 -55.5Q-419 -46 -410 -43Q-403 -41 -378.5 -49.5Q-354 -58 -319 -69.5Q-284 -81 -239.5 -90.5Q-195 -100 -147 -100Q-98 -100 -53.5 -75.5Q-9 -51 37.5 -1.5Q84 48 137.5 123.5Q191 199 259 300L522 690Q509 755 494 788Q479 821 457 835Q442 844 423 844Q404 844 382 836Q370 832 339.5 812.5Q309 793 274.5 769Q240 745 208 720.5Q176 696 160 683L154 690Q170 703 204 730Q238 757 278 786.5Q318 816 356.5 842.5Q395 869 421 883Q428 887 442 890.5Q456 894 471 895.5Q486 897 500.5 896Q515 895 525 891Q546 882 562 851Q578 820 592 761Q606 702 619 612.5Q632 523 646 396L681 94Q754 214 828 331.5Q902 449 972 549Q1035 640 1086.5 697.5Q1138 755 1184 788Q1230 821 1274 833Q1318 845 1366 845Q1396 845 1432 841.5Q1468 838 1501 833.5Q1534 829 1559 824.5Q1584 820 1591 818Q1595 817 1595 814Q1595 809 1586.5 799Q1578 789 1567 778.5Q1556 768 1544.5 760Q1533 752 1526 752Q1523 752 1519.5 752Q1516 752 1510 753Q1493 755 1464.5 761Q1436 767 1401.5 773Q1367 779 1329.5 784Q1292 789 1258 789Q1228 789 1198.5 776Q1169 763 1136.5 733Q1104 703 1065.5 655Q1027 607 978 537Q894 418 820 298Q746 178 673 57Z" glyph-name="Ncommaaccent" horiz-adv-x="947" unicode="&#325;" /><glyph d="M326 -110Q319 -121 303 -132Q287 -143 275 -143Q259 -143 250 -130Q247 -124 248 -113.5Q249 -103 253.5 -91.5Q258 -80 264.5 -70Q271 -60 277 -55Q282 -51 296 -48.5Q310 -46 322 -46Q333 -46 345.5 -49Q358 -52 363 -59Q369 -66 367.5 -83.5Q366 -101 358 -115Q346 -138 327.5 -155.5Q309 -173 288 -186.5Q267 -200 246 -209.5Q225 -219 209 -225Q207 -226 206 -224.5Q205 -223 207 -222Q223 -215 240 -203Q257 -191 273 -176.5Q289 -162 303.5 -145Q318 -128 328 -110ZM1033 645Q996 585 949.5 508Q903 431 855 351Q807 271 762 194Q717 117 684 57Q673 36 662 16Q651 -4 647 -9Q644 -12 638.5 -12.5Q633 -13 627.5 -12.5Q622 -12 617.5 -10.5Q613 -9 613 -7L566 375Q552 485 542 562.5Q532 640 521 694L273 296Q231 228 194.5 168.5Q158 109 122 59Q86 9 48.5 -31Q11 -71 -32.5 -99Q-76 -127 -127 -141.5Q-178 -156 -242 -156Q-272 -156 -307.5 -150.5Q-343 -145 -374 -137.5Q-405 -130 -426.5 -122.5Q-448 -115 -451 -112Q-454 -108 -448 -97.5Q-442 -87 -431.5 -76Q-421 -65 -409 -55.5Q-397 -46 -389 -43Q-382 -41 -357.5 -49.5Q-333 -58 -297 -69.5Q-261 -81 -216 -90.5Q-171 -100 -123 -100Q-74 -100 -31.5 -75.5Q11 -51 55.5 -1.5Q100 48 149.5 123.5Q199 199 262 300L518 709Q506 764 491.5 793Q477 822 457 835Q442 844 423 844Q404 844 382 836Q370 832 339.5 812.5Q309 793 274.5 769Q240 745 208 720.5Q176 696 160 683L154 690Q170 703 204 730Q238 757 278 786.5Q318 816 356.5 842.5Q395 869 421 883Q428 887 442 890.5Q456 894 471 895.5Q486 897 500.5 896Q515 895 525 891Q546 882 562 851Q578 820 592 761Q606 702 619 612.5Q632 523 646 396L683 83L656 31Q693 97 741 181Q789 265 839.5 350.5Q890 436 937.5 514.5Q985 593 1020 650Q1043 687 1064.5 724.5Q1086 762 1104 795.5Q1122 829 1137 857.5Q1152 886 1161 904Q1164 908 1171.5 907Q1179 906 1186 902Q1193 898 1196.5 891.5Q1200 885 1195 879Q1183 866 1162.5 838.5Q1142 811 1119 777Q1096 743 1073 708Q1050 673 1033 645Z" glyph-name="Ncommaaccent.alt" horiz-adv-x="947" unicode="&#64032;" /><glyph d="M747 906Q769 934 784.5 953.5Q800 973 812 985Q824 997 833.5 1002.5Q843 1008 853 1008Q871 1008 893 998Q915 988 938 976Q961 964 982 954Q1003 944 1018 944Q1025 944 1030.5 945Q1036 946 1042.5 952Q1049 958 1058 970Q1067 982 1083 1004Q1088 1010 1092 1008Q1096 1006 1091 999Q1055 946 1028.5 917.5Q1002 889 976 889Q959 889 937.5 900Q916 911 893.5 923.5Q871 936 850 947Q829 958 813 958Q808 958 804.5 956.5Q801 955 795 949Q789 943 780 931.5Q771 920 755 901Q748 893 745.5 895.5Q743 898 747 906ZM673 57Q660 36 648.5 16Q637 -4 632 -9Q627 -14 620.5 -13Q614 -12 613 -7L566 375Q554 476 544 549.5Q534 623 524 675L270 296Q202 195 145.5 111.5Q89 28 29 -31.5Q-31 -91 -102 -123.5Q-173 -156 -269 -156Q-299 -156 -334.5 -150.5Q-370 -145 -400.5 -137.5Q-431 -130 -452 -122.5Q-473 -115 -476 -112Q-479 -108 -472.5 -97.5Q-466 -87 -455 -76Q-444 -65 -431.5 -55.5Q-419 -46 -410 -43Q-403 -41 -378.5 -49.5Q-354 -58 -319 -69.5Q-284 -81 -239.5 -90.5Q-195 -100 -147 -100Q-98 -100 -53.5 -75.5Q-9 -51 37.5 -1.5Q84 48 137.5 123.5Q191 199 259 300L522 690Q509 755 494 788Q479 821 457 835Q442 844 423 844Q404 844 382 836Q370 832 339.5 812.5Q309 793 274.5 769Q240 745 208 720.5Q176 696 160 683L154 690Q170 703 204 730Q238 757 278 786.5Q318 816 356.5 842.5Q395 869 421 883Q428 887 442 890.5Q456 894 471 895.5Q486 897 500.5 896Q515 895 525 891Q546 882 562 851Q578 820 592 761Q606 702 619 612.5Q632 523 646 396L681 94Q754 214 828 331.5Q902 449 972 549Q1035 640 1086.5 697.5Q1138 755 1184 788Q1230 821 1274 833Q1318 845 1366 845Q1396 845 1432 841.5Q1468 838 1501 833.5Q1534 829 1559 824.5Q1584 820 1591 818Q1595 817 1595 814Q1595 809 1586.5 799Q1578 789 1567 778.5Q1556 768 1544.5 760Q1533 752 1526 752Q1523 752 1519.5 752Q1516 752 1510 753Q1493 755 1464.5 761Q1436 767 1401.5 773Q1367 779 1329.5 784Q1292 789 1258 789Q1228 789 1198.5 776Q1169 763 1136.5 733Q1104 703 1065.5 655Q1027 607 978 537Q894 418 820 298Q746 178 673 57Z" glyph-name="Ntilde" horiz-adv-x="947" unicode="&#209;" /><glyph d="M693 906Q715 934 730.5 953.5Q746 973 758 985Q770 997 779.5 1002.5Q789 1008 799 1008Q817 1008 839 998Q861 988 884 976Q907 964 928 954Q949 944 964 944Q971 944 976.5 945Q982 946 988.5 952Q995 958 1004 970Q1013 982 1029 1004Q1034 1010 1038 1008Q1042 1006 1037 999Q1001 946 974.5 917.5Q948 889 922 889Q905 889 883.5 900Q862 911 839.5 923.5Q817 936 796 947Q775 958 759 958Q754 958 750.5 956.5Q747 955 741 949Q735 943 726 931.5Q717 920 701 901Q694 893 691.5 895.5Q689 898 693 906ZM1033 645Q996 585 949.5 508Q903 431 855 351Q807 271 762 194Q717 117 684 57Q673 36 662 16Q651 -4 647 -9Q644 -12 638.5 -12.5Q633 -13 627.5 -12.5Q622 -12 617.5 -10.5Q613 -9 613 -7L566 375Q552 485 542 562.5Q532 640 521 694L273 296Q231 228 194.5 168.5Q158 109 122 59Q86 9 48.5 -31Q11 -71 -32.5 -99Q-76 -127 -127 -141.5Q-178 -156 -242 -156Q-272 -156 -307.5 -150.5Q-343 -145 -374 -137.5Q-405 -130 -426.5 -122.5Q-448 -115 -451 -112Q-454 -108 -448 -97.5Q-442 -87 -431.5 -76Q-421 -65 -409 -55.5Q-397 -46 -389 -43Q-382 -41 -357.5 -49.5Q-333 -58 -297 -69.5Q-261 -81 -216 -90.5Q-171 -100 -123 -100Q-74 -100 -31.5 -75.5Q11 -51 55.5 -1.5Q100 48 149.5 123.5Q199 199 262 300L518 709Q506 764 491.5 793Q477 822 457 835Q442 844 423 844Q404 844 382 836Q370 832 339.5 812.5Q309 793 274.5 769Q240 745 208 720.5Q176 696 160 683L154 690Q170 703 204 730Q238 757 278 786.5Q318 816 356.5 842.5Q395 869 421 883Q428 887 442 890.5Q456 894 471 895.5Q486 897 500.5 896Q515 895 525 891Q546 882 562 851Q578 820 592 761Q606 702 619 612.5Q632 523 646 396L683 83L656 31Q693 97 741 181Q789 265 839.5 350.5Q890 436 937.5 514.5Q985 593 1020 650Q1043 687 1064.5 724.5Q1086 762 1104 795.5Q1122 829 1137 857.5Q1152 886 1161 904Q1164 908 1171.5 907Q1179 906 1186 902Q1193 898 1196.5 891.5Q1200 885 1195 879Q1183 866 1162.5 838.5Q1142 811 1119 777Q1096 743 1073 708Q1050 673 1033 645Z" glyph-name="Ntilde.alt" horiz-adv-x="947" unicode="&#64033;" /><glyph d="M408 -2Q326 -2 267.5 23.5Q209 49 171.5 92Q134 135 118 190.5Q102 246 104.5 307Q107 368 128 429Q149 490 187 544Q224 600 280.5 652Q337 704 401.5 743.5Q466 783 534 807Q602 831 662 831Q746 831 806 805.5Q866 780 903.5 737Q941 694 958 638.5Q975 583 972.5 522Q970 461 949 400Q928 339 890 285Q853 229 797.5 177Q742 125 677 85.5Q612 46 542.5 22Q473 -2 408 -2ZM466 36Q523 35 574 49.5Q625 64 668.5 92Q712 120 749 159Q786 198 815 247Q851 304 871.5 367Q892 430 895.5 491Q899 552 884.5 607Q870 662 835.5 704Q801 746 746.5 770.5Q692 795 615 795Q498 795 413.5 738.5Q329 682 267 580Q231 522 210 460Q189 398 185.5 338Q182 278 196.5 223.5Q211 169 245 127.5Q279 86 334 61.5Q389 37 466 36Z" glyph-name="O" horiz-adv-x="972" unicode="O" /><glyph d="M601 443Q679 443 752.5 444Q826 445 893 446Q902 499 897.5 550Q893 601 874 644.5Q855 688 822 722Q789 756 741 775Q725 758 708 722Q691 686 673.5 640.5Q656 595 637.5 543Q619 491 601 443ZM464 35Q521 34 572.5 49Q624 64 668.5 92.5Q713 121 750.5 160.5Q788 200 817 249Q842 288 859 330Q876 372 886 415Q823 421 750.5 426Q678 431 597 433Q548 296 495.5 193.5Q443 91 384 44Q420 35 464 35ZM350 445Q379 444 409 444Q435 443 466 443Q497 443 528 443Q573 569 622.5 654Q672 739 732 778Q707 787 678.5 792Q650 797 617 797Q500 797 413.5 739Q327 681 265 579Q233 528 213 473Q193 418 186 364Q179 310 186.5 259Q194 208 216.5 166Q239 124 277 93Q315 62 370 47Q399 70 418.5 109Q438 148 454 198.5Q470 249 486 308.5Q502 368 525 433Q481 434 451 434.5Q421 435 400 435.5Q379 436 366.5 436.5Q354 437 346 437Q338 437 336 438Q334 439 336 440.5Q338 442 342.5 443.5Q347 445 350 445ZM408 -2Q326 -2 267.5 23.5Q209 49 171.5 92Q134 135 118 190.5Q102 246 104.5 307Q107 368 128 429Q149 490 187 544Q224 600 280.5 652Q337 704 401.5 743.5Q466 783 534 807Q602 831 662 831Q717 831 762 819Q797 821 842 822.5Q887 824 932 824Q1004 824 1077.5 825Q1151 826 1214 827.5Q1277 829 1323 830Q1369 831 1386 831Q1391 831 1401 830.5Q1411 830 1418 828Q1418 823 1415 814.5Q1412 806 1406 797Q1400 788 1392 779.5Q1384 771 1375 765Q1367 763 1336.5 763.5Q1306 764 1265 766Q1224 768 1178 771Q1132 774 1094 776.5Q1056 779 1030.5 781Q1005 783 1005 783L805 805Q859 783 895 745Q931 707 950 659.5Q969 612 971.5 557.5Q974 503 962 448Q1036 450 1093 451Q1150 452 1184 452Q1219 452 1246 450.5Q1273 449 1289 445Q1295 444 1291.5 435Q1288 426 1279.5 415Q1271 404 1260 394.5Q1249 385 1240 384Q1229 382 1221 381Q1213 380 1204 380Q1195 380 1184 381Q1173 382 1157 383Q1124 385 1072 392.5Q1020 400 951 408Q940 376 925 345Q910 314 890 285Q861 242 821 201Q781 160 734 124.5Q687 89 635 61.5Q583 34 530 18L926 68Q966 72 1007.5 75Q1049 78 1084.5 80.5Q1120 83 1145.5 84Q1171 85 1179 85Q1186 85 1179 75.5Q1172 66 1161 54Q1150 42 1138 30Q1126 18 1123 13Q1118 10 1095 9Q1072 8 1043 7Q1014 6 985.5 6Q957 6 941 6H839Q767 6 695 4.5Q623 3 563.5 1.5Q504 0 464 -1Q424 -2 416 -2V-1Q414 -1 412 -1.5Q410 -2 408 -2Z" glyph-name="OE" horiz-adv-x="1318" unicode="&#338;" /><glyph d="M753 886Q751 884 749 884Q745 884 745 888Q745 890 748 893Q769 913 791 939.5Q813 966 831 990.5Q849 1015 862 1033.5Q875 1052 880 1057Q884 1061 891 1062Q898 1063 906 1063Q913 1063 918.5 1062.5Q924 1062 926 1060Q928 1058 928.5 1052.5Q929 1047 929 1039Q929 1034 925 1029.5Q921 1025 916 1020Q911 1015 892.5 1001.5Q874 988 850 969.5Q826 951 800 929.5Q774 908 753 886ZM408 -2Q326 -2 267.5 23.5Q209 49 171.5 92Q134 135 118 190.5Q102 246 104.5 307Q107 368 128 429Q149 490 187 544Q224 600 280.5 652Q337 704 401.5 743.5Q466 783 534 807Q602 831 662 831Q746 831 806 805.5Q866 780 903.5 737Q941 694 958 638.5Q975 583 972.5 522Q970 461 949 400Q928 339 890 285Q853 229 797.5 177Q742 125 677 85.5Q612 46 542.5 22Q473 -2 408 -2ZM466 36Q523 35 574 49.5Q625 64 668.5 92Q712 120 749 159Q786 198 815 247Q851 304 871.5 367Q892 430 895.5 491Q899 552 884.5 607Q870 662 835.5 704Q801 746 746.5 770.5Q692 795 615 795Q498 795 413.5 738.5Q329 682 267 580Q231 522 210 460Q189 398 185.5 338Q182 278 196.5 223.5Q211 169 245 127.5Q279 86 334 61.5Q389 37 466 36Z" glyph-name="Oacute" horiz-adv-x="972" unicode="&#211;" /><glyph d="M774 899Q733 899 701 921Q669 943 643 978Q640 983 638 985.5Q636 988 636 991Q636 999 662 1007Q679 1012 685 1011.5Q691 1011 697 1003Q726 965 751.5 943.5Q777 922 809 922Q855 922 892 1004Q895 1012 904 1012Q909 1012 912.5 1008.5Q916 1005 912 1000Q901 981 885.5 963Q870 945 852 931Q834 917 814 908.5Q794 900 774 899ZM408 -2Q326 -2 267.5 23.5Q209 49 171.5 92Q134 135 118 190.5Q102 246 104.5 307Q107 368 128 429Q149 490 187 544Q224 600 280.5 652Q337 704 401.5 743.5Q466 783 534 807Q602 831 662 831Q746 831 806 805.5Q866 780 903.5 737Q941 694 958 638.5Q975 583 972.5 522Q970 461 949 400Q928 339 890 285Q853 229 797.5 177Q742 125 677 85.5Q612 46 542.5 22Q473 -2 408 -2ZM466 36Q523 35 574 49.5Q625 64 668.5 92Q712 120 749 159Q786 198 815 247Q851 304 871.5 367Q892 430 895.5 491Q899 552 884.5 607Q870 662 835.5 704Q801 746 746.5 770.5Q692 795 615 795Q498 795 413.5 738.5Q329 682 267 580Q231 522 210 460Q189 398 185.5 338Q182 278 196.5 223.5Q211 169 245 127.5Q279 86 334 61.5Q389 37 466 36Z" glyph-name="Obreve" horiz-adv-x="972" unicode="&#334;" /><glyph d="M785 1042Q783 1046 779 1042Q765 1026 747 1008Q729 990 710 973.5Q691 957 674 943Q657 929 645 920Q636 914 626.5 908Q617 902 606 903Q595 905 590 910.5Q585 916 586 921Q586 924 589 932Q592 940 609 951Q624 960 645 972Q666 984 689.5 997.5Q713 1011 736 1025Q759 1039 778 1052Q784 1058 789 1051Q805 1030 817 1015.5Q829 1001 838.5 989Q848 977 857.5 966.5Q867 956 879 944Q893 931 896.5 923.5Q900 916 899 911Q899 902 892 895.5Q885 889 877 890Q854 891 840 917Q828 940 815.5 972Q803 1004 785 1042ZM408 -2Q326 -2 267.5 23.5Q209 49 171.5 92Q134 135 118 190.5Q102 246 104.5 307Q107 368 128 429Q149 490 187 544Q224 600 280.5 652Q337 704 401.5 743.5Q466 783 534 807Q602 831 662 831Q746 831 806 805.5Q866 780 903.5 737Q941 694 958 638.5Q975 583 972.5 522Q970 461 949 400Q928 339 890 285Q853 229 797.5 177Q742 125 677 85.5Q612 46 542.5 22Q473 -2 408 -2ZM466 36Q523 35 574 49.5Q625 64 668.5 92Q712 120 749 159Q786 198 815 247Q851 304 871.5 367Q892 430 895.5 491Q899 552 884.5 607Q870 662 835.5 704Q801 746 746.5 770.5Q692 795 615 795Q498 795 413.5 738.5Q329 682 267 580Q231 522 210 460Q189 398 185.5 338Q182 278 196.5 223.5Q211 169 245 127.5Q279 86 334 61.5Q389 37 466 36Z" glyph-name="Ocircumflex" horiz-adv-x="972" unicode="&#212;" /><glyph d="M598 959Q598 982 613.5 998Q629 1014 652 1014Q675 1014 691 998Q707 982 707 959Q707 936 691 920.5Q675 905 652 905Q629 905 613.5 920.5Q598 936 598 959ZM816 959Q816 982 831.5 998Q847 1014 870 1014Q893 1014 909 998Q925 982 925 959Q925 936 909 920.5Q893 905 870 905Q847 905 831.5 920.5Q816 936 816 959ZM408 -2Q326 -2 267.5 23.5Q209 49 171.5 92Q134 135 118 190.5Q102 246 104.5 307Q107 368 128 429Q149 490 187 544Q224 600 280.5 652Q337 704 401.5 743.5Q466 783 534 807Q602 831 662 831Q746 831 806 805.5Q866 780 903.5 737Q941 694 958 638.5Q975 583 972.5 522Q970 461 949 400Q928 339 890 285Q853 229 797.5 177Q742 125 677 85.5Q612 46 542.5 22Q473 -2 408 -2ZM466 36Q523 35 574 49.5Q625 64 668.5 92Q712 120 749 159Q786 198 815 247Q851 304 871.5 367Q892 430 895.5 491Q899 552 884.5 607Q870 662 835.5 704Q801 746 746.5 770.5Q692 795 615 795Q498 795 413.5 738.5Q329 682 267 580Q231 522 210 460Q189 398 185.5 338Q182 278 196.5 223.5Q211 169 245 127.5Q279 86 334 61.5Q389 37 466 36Z" glyph-name="Odieresis" horiz-adv-x="972" unicode="&#214;" /><glyph d="M778 896Q757 918 731 939.5Q705 961 681 979.5Q657 998 638.5 1011.5Q620 1025 615 1030Q610 1035 606 1039.5Q602 1044 602 1049Q602 1057 602.5 1062.5Q603 1068 605 1070Q607 1072 612.5 1072.5Q618 1073 625 1073Q633 1073 640 1072Q647 1071 651 1067Q655 1062 668.5 1043.5Q682 1025 700 1000.5Q718 976 740 949.5Q762 923 783 903Q786 900 786 898Q786 894 782 894Q780 894 778 896ZM408 -2Q326 -2 267.5 23.5Q209 49 171.5 92Q134 135 118 190.5Q102 246 104.5 307Q107 368 128 429Q149 490 187 544Q224 600 280.5 652Q337 704 401.5 743.5Q466 783 534 807Q602 831 662 831Q746 831 806 805.5Q866 780 903.5 737Q941 694 958 638.5Q975 583 972.5 522Q970 461 949 400Q928 339 890 285Q853 229 797.5 177Q742 125 677 85.5Q612 46 542.5 22Q473 -2 408 -2ZM466 36Q523 35 574 49.5Q625 64 668.5 92Q712 120 749 159Q786 198 815 247Q851 304 871.5 367Q892 430 895.5 491Q899 552 884.5 607Q870 662 835.5 704Q801 746 746.5 770.5Q692 795 615 795Q498 795 413.5 738.5Q329 682 267 580Q231 522 210 460Q189 398 185.5 338Q182 278 196.5 223.5Q211 169 245 127.5Q279 86 334 61.5Q389 37 466 36Z" glyph-name="Ograve" horiz-adv-x="972" unicode="&#210;" /><glyph d="M804 896Q802 894 799 894Q796 894 794 898Q794 900 797 903Q817 922 836.5 948Q856 974 872.5 997.5Q889 1021 900.5 1039Q912 1057 916 1061Q919 1066 926 1067Q933 1068 941 1068Q947 1068 953 1067.5Q959 1067 961 1065Q964 1061 964 1045Q964 1036 952 1026Q947 1021 930.5 1008Q914 995 892 977Q870 959 846.5 938Q823 917 804 896ZM681 896Q681 894 677 894Q673 894 671 898Q671 901 673 903Q689 922 704.5 948Q720 974 732 997.5Q744 1021 752.5 1039Q761 1057 765 1061Q768 1066 775 1067Q782 1068 788 1068Q803 1068 809 1065Q813 1061 813 1045Q813 1040 810 1035.5Q807 1031 803 1026Q799 1021 785 1008Q771 995 752.5 977Q734 959 715 938Q696 917 681 896ZM408 -2Q326 -2 267.5 23.5Q209 49 171.5 92Q134 135 118 190.5Q102 246 104.5 307Q107 368 128 429Q149 490 187 544Q224 600 280.5 652Q337 704 401.5 743.5Q466 783 534 807Q602 831 662 831Q746 831 806 805.5Q866 780 903.5 737Q941 694 958 638.5Q975 583 972.5 522Q970 461 949 400Q928 339 890 285Q853 229 797.5 177Q742 125 677 85.5Q612 46 542.5 22Q473 -2 408 -2ZM466 36Q523 35 574 49.5Q625 64 668.5 92Q712 120 749 159Q786 198 815 247Q851 304 871.5 367Q892 430 895.5 491Q899 552 884.5 607Q870 662 835.5 704Q801 746 746.5 770.5Q692 795 615 795Q498 795 413.5 738.5Q329 682 267 580Q231 522 210 460Q189 398 185.5 338Q182 278 196.5 223.5Q211 169 245 127.5Q279 86 334 61.5Q389 37 466 36Z" glyph-name="Ohungarumlaut" horiz-adv-x="972" unicode="&#336;" /><glyph d="M754 976Q779 976 802.5 976Q826 976 853 977Q881 978 886.5 978Q892 978 892 976Q892 971 878.5 956.5Q865 942 841 919Q834 919 809 920Q784 921 755 921Q742 921 732.5 920.5Q723 920 714 919.5Q705 919 695 918.5Q685 918 672 918Q644 917 638.5 918Q633 919 633 921Q633 926 646.5 940Q660 954 684 977Q691 977 708 976.5Q725 976 753 976ZM408 -2Q326 -2 267.5 23.5Q209 49 171.5 92Q134 135 118 190.5Q102 246 104.5 307Q107 368 128 429Q149 490 187 544Q224 600 280.5 652Q337 704 401.5 743.5Q466 783 534 807Q602 831 662 831Q746 831 806 805.5Q866 780 903.5 737Q941 694 958 638.5Q975 583 972.5 522Q970 461 949 400Q928 339 890 285Q853 229 797.5 177Q742 125 677 85.5Q612 46 542.5 22Q473 -2 408 -2ZM466 36Q523 35 574 49.5Q625 64 668.5 92Q712 120 749 159Q786 198 815 247Q851 304 871.5 367Q892 430 895.5 491Q899 552 884.5 607Q870 662 835.5 704Q801 746 746.5 770.5Q692 795 615 795Q498 795 413.5 738.5Q329 682 267 580Q231 522 210 460Q189 398 185.5 338Q182 278 196.5 223.5Q211 169 245 127.5Q279 86 334 61.5Q389 37 466 36Z" glyph-name="Omacron" horiz-adv-x="972" unicode="&#332;" /><glyph d="M772 757Q740 775 701.5 785Q663 795 615 795Q498 795 413.5 738.5Q329 682 267 580Q228 518 207 450.5Q186 383 185 319.5Q184 256 204 199.5Q224 143 267 104Q333 186 398 269Q463 352 523 428ZM466 36Q523 35 574 49.5Q625 64 668.5 92Q712 120 749 159Q786 198 815 247Q857 313 878 385.5Q899 458 896.5 526Q894 594 867.5 652Q841 710 788 747Q756 707 722.5 665Q689 623 656.5 581Q624 539 593 498.5Q562 458 535 422Q475 345 410 260.5Q345 176 282 92Q316 66 361.5 51.5Q407 37 466 36ZM408 -2Q357 -2 315.5 8Q274 18 241 36L198 -23Q184 -24 180.5 -23.5Q177 -23 170 -15L221 47Q164 85 135.5 144.5Q107 204 104 272Q101 340 122.5 411Q144 482 187 544Q224 600 280.5 652Q337 704 401.5 743.5Q466 783 534 807Q602 831 662 831Q705 831 741 824Q777 817 808 804L868 885Q881 885 883.5 883Q886 881 894 873Q862 837 828 795Q873 772 903.5 737.5Q934 703 950.5 660.5Q967 618 971.5 570.5Q976 523 967.5 473.5Q959 424 939.5 376Q920 328 890 285Q853 229 797.5 177Q742 125 677 85.5Q612 46 542.5 22Q473 -2 408 -2Z" glyph-name="Oslash" horiz-adv-x="972" unicode="&#216;" /><glyph d="M600 926Q622 954 637.5 973.5Q653 993 665 1005Q677 1017 686.5 1022.5Q696 1028 706 1028Q724 1028 746 1018Q768 1008 791 996Q814 984 835 974Q856 964 871 964Q878 964 883.5 965Q889 966 895.5 972Q902 978 911 990Q920 1002 936 1024Q941 1030 945 1028Q949 1026 944 1019Q908 966 881.5 937.5Q855 909 829 909Q812 909 790.5 920Q769 931 746.5 943.5Q724 956 703 967Q682 978 666 978Q661 978 657.5 976.5Q654 975 648 969Q642 963 633 951.5Q624 940 608 921Q601 913 598.5 915.5Q596 918 600 926ZM408 -2Q326 -2 267.5 23.5Q209 49 171.5 92Q134 135 118 190.5Q102 246 104.5 307Q107 368 128 429Q149 490 187 544Q224 600 280.5 652Q337 704 401.5 743.5Q466 783 534 807Q602 831 662 831Q746 831 806 805.5Q866 780 903.5 737Q941 694 958 638.5Q975 583 972.5 522Q970 461 949 400Q928 339 890 285Q853 229 797.5 177Q742 125 677 85.5Q612 46 542.5 22Q473 -2 408 -2ZM466 36Q523 35 574 49.5Q625 64 668.5 92Q712 120 749 159Q786 198 815 247Q851 304 871.5 367Q892 430 895.5 491Q899 552 884.5 607Q870 662 835.5 704Q801 746 746.5 770.5Q692 795 615 795Q498 795 413.5 738.5Q329 682 267 580Q231 522 210 460Q189 398 185.5 338Q182 278 196.5 223.5Q211 169 245 127.5Q279 86 334 61.5Q389 37 466 36Z" glyph-name="Otilde" horiz-adv-x="972" unicode="&#213;" /><glyph d="M802 342Q849 342 888.5 365.5Q928 389 949 431Q971 474 973 523Q975 572 956.5 618.5Q938 665 899.5 703.5Q861 742 804 764Q786 751 764 712.5Q742 674 719 623.5Q696 573 672.5 516Q649 459 630 409Q662 382 708.5 362Q755 342 802 342ZM358 45Q377 45 406 44.5Q435 44 470 44.5Q505 45 543.5 46.5Q582 48 618 52Q699 60 747.5 72Q796 84 812 84Q819 84 812.5 74.5Q806 65 794.5 53Q783 41 771.5 29Q760 17 757 12Q751 9 734 8Q717 7 695.5 6Q674 5 651.5 5Q629 5 613 5H503Q431 5 360.5 3.5Q290 2 232 0.5Q174 -1 135.5 -2Q97 -3 89 -3Q42 -3 30 12Q27 30 43.5 46Q60 62 79 74Q88 76 108.5 73Q129 70 155.5 64.5Q182 59 213 53Q244 47 273.5 45Q303 43 329.5 46.5Q356 50 374 63Q402 82 423.5 114.5Q445 147 465.5 191Q486 235 507 291Q528 347 555 413Q580 477 609 533.5Q638 590 668.5 635.5Q699 681 731 714.5Q763 748 796 766Q769 776 737 781.5Q705 787 670 787Q592 787 526 774.5Q460 762 408.5 734Q357 706 320.5 662Q284 618 264 555Q256 525 240.5 511.5Q225 498 199 498Q169 498 169.5 514.5Q170 531 189 560Q210 591 243 623.5Q276 656 317 686Q358 716 405 742.5Q452 769 501.5 788.5Q551 808 601.5 818.5Q652 829 700 828Q779 829 838.5 811.5Q898 794 940 763.5Q982 733 1006.5 694.5Q1031 656 1040 615Q1049 574 1044 535Q1039 496 1022 465Q1004 431 973.5 404.5Q943 378 904.5 360Q866 342 823.5 332Q781 322 739 322Q704 322 669.5 330.5Q635 339 606 353Q550 230 490.5 153.5Q431 77 358 45Z" glyph-name="P" horiz-adv-x="1004" unicode="P" /><glyph d="M547 136Q552 140 555 137.5Q558 135 553 131Q481 73 417 41Q353 9 317 9Q269 9 225.5 27Q182 45 149 77.5Q116 110 95 155.5Q74 201 70.5 255.5Q67 310 83 372Q99 434 140 501Q163 536 199 574.5Q235 613 280 650Q325 687 377 720.5Q429 754 483.5 779.5Q538 805 593 820Q648 835 700 835Q775 835 832 811.5Q889 788 927.5 747.5Q966 707 985 653.5Q1004 600 1003.5 540.5Q1003 481 982 418Q961 355 919 297Q887 251 842.5 206Q798 161 736 114Q674 67 591.5 17Q509 -33 401 -90Q420 -86 446 -86Q499 -86 564.5 -102.5Q630 -119 702 -143.5Q774 -168 849.5 -197Q925 -226 997.5 -250.5Q1070 -275 1137.5 -291.5Q1205 -308 1260 -308Q1323 -308 1371 -291Q1419 -274 1458 -247.5Q1497 -221 1528.5 -190Q1560 -159 1590 -130L1597 -133Q1585 -147 1569.5 -163.5Q1554 -180 1537.5 -196.5Q1521 -213 1505 -228Q1489 -243 1477 -253Q1446 -280 1417.5 -302.5Q1389 -325 1359 -341Q1329 -357 1297.5 -366Q1266 -375 1229 -375Q1166 -375 1092 -356.5Q1018 -338 939 -310Q860 -282 781 -249Q702 -216 629.5 -188Q557 -160 495 -141.5Q433 -123 390 -123Q339 -123 299.5 -138Q260 -153 228 -168Q215 -174 195 -185.5Q175 -197 151.5 -210.5Q128 -224 104.5 -239Q81 -254 61 -266Q47 -275 37.5 -272Q28 -269 25.5 -261Q23 -253 28 -242.5Q33 -232 48 -226Q63 -220 89 -210.5Q115 -201 154.5 -185.5Q194 -170 247.5 -147.5Q301 -125 372 -92Q489 -37 571.5 17.5Q654 72 710.5 122.5Q767 173 802.5 217.5Q838 262 861 298Q892 345 907.5 400Q923 455 921.5 510.5Q920 566 901 617.5Q882 669 844.5 709Q807 749 750.5 773Q694 797 617 797Q559 797 500 774Q441 751 387.5 714Q334 677 289 630Q244 583 215 536Q158 443 149.5 356.5Q141 270 169 203.5Q197 137 255 97.5Q313 58 388 58Q406 58 428 66.5Q450 75 472.5 87.5Q495 100 515 113.5Q535 127 547 136Z" glyph-name="Q" horiz-adv-x="1012" unicode="Q" /><glyph d="M330 206Q358 228 388.5 251.5Q419 275 447.5 294.5Q476 314 501 326.5Q526 339 543 339Q573 339 600.5 317.5Q628 296 644 271Q660 246 675 217Q690 188 706 159Q739 188 766.5 221Q794 254 814 286Q850 343 870.5 406Q891 469 894.5 529.5Q898 590 883.5 645Q869 700 835 741.5Q801 783 746.5 807.5Q692 832 616 832Q559 832 501.5 810Q444 788 391.5 751.5Q339 715 295 669Q251 623 222 575Q186 518 165.5 456Q145 394 141.5 334Q138 274 152.5 220Q167 166 201 125Q235 84 289.5 59Q344 34 420 33Q474 32 530.5 53Q587 74 640 109Q621 141 603.5 173Q586 205 569 231Q553 255 528 272Q503 289 484 289Q475 289 458 281Q441 273 420.5 260Q400 247 377.5 230.5Q355 214 335 198Q318 187 318.5 192.5Q319 198 330 206ZM365 -3Q283 -3 224.5 22.5Q166 48 129 90.5Q92 133 76 188.5Q60 244 63 304Q66 364 87 425.5Q108 487 145 540Q182 597 244.5 655Q307 713 379 760Q451 807 525 836.5Q599 866 661 866Q744 866 803.5 840.5Q863 815 901 772.5Q939 730 955.5 674.5Q972 619 969 559Q966 499 945.5 437.5Q925 376 887 323Q858 278 812.5 233.5Q767 189 713 147Q725 125 737 105.5Q749 86 762 71Q775 56 788 47.5Q801 39 815 39Q830 39 848 45Q866 51 885.5 62.5Q905 74 924 91Q943 108 960 130Q971 144 975 142.5Q979 141 968 125Q957 110 934 84Q911 58 883 33.5Q855 9 827 -9Q799 -27 777 -27Q749 -27 727 -9.5Q705 8 685 37Q674 51 664.5 67Q655 83 645 100Q573 54 500 25.5Q427 -3 365 -3Z" glyph-name="Q.alt" horiz-adv-x="1013" unicode="&#58512;" /><glyph d="M-63 -1Q-65 4 -62 13Q-59 22 -52.5 31.5Q-46 41 -38 49.5Q-30 58 -22 63Q-12 66 14.5 60.5Q41 55 75 47.5Q109 40 146 33.5Q183 27 216 27Q238 27 254.5 32.5Q271 38 285 48Q313 67 333 101.5Q353 136 372 183.5Q391 231 411 289Q431 347 458 413Q485 478 516 536Q547 594 582 642Q617 690 656 726Q695 762 739 784Q698 795 653 795Q575 795 516 780.5Q457 766 412.5 736.5Q368 707 334.5 662Q301 617 274 555Q261 526 248 512Q235 498 208 498Q179 498 179.5 514.5Q180 531 199 560Q231 606 286.5 655Q342 704 409.5 743.5Q477 783 550.5 807.5Q624 832 692 830Q786 831 847.5 801Q909 771 941 724.5Q973 678 975.5 623Q978 568 953 521Q936 487 906.5 464.5Q877 442 842 428Q807 414 768 406.5Q729 399 692 394Q700 321 719.5 250Q739 179 775 112Q804 57 840 41Q865 48 901.5 74.5Q938 101 977 137L982 129Q966 114 945.5 95.5Q925 77 901.5 58.5Q878 40 853 22.5Q828 5 804 -8Q796 -13 781.5 -11.5Q767 -10 762 -7Q744 7 729.5 29Q715 51 699 82Q663 153 642.5 234Q622 315 615 393Q614 404 618.5 407Q623 410 636 410Q642 410 652.5 410Q663 410 675 409.5Q687 409 699 409Q711 409 720 409Q771 409 812 429.5Q853 450 882 506Q901 546 901 588.5Q901 631 883 669Q865 707 830 737Q795 767 743 782Q713 765 685 723.5Q657 682 630.5 628Q604 574 579.5 514.5Q555 455 533 403Q471 256 411.5 165.5Q352 75 280 37Q214 2 160 -10.5Q106 -23 55 -23Q2 -23 -27.5 -15Q-57 -7 -63 -1Z" glyph-name="R" horiz-adv-x="1001" unicode="R" /><glyph d="M848 896Q846 894 844 894Q840 894 840 898Q840 900 843 903Q864 923 886 949.5Q908 976 926 1000.5Q944 1025 957 1043.5Q970 1062 975 1067Q979 1071 986 1072Q993 1073 1001 1073Q1008 1073 1013.5 1072.5Q1019 1072 1021 1070Q1023 1068 1023.5 1062.5Q1024 1057 1024 1049Q1024 1044 1020 1039.5Q1016 1035 1011 1030Q1006 1025 987.5 1011.5Q969 998 945 979.5Q921 961 895 939.5Q869 918 848 896ZM-63 -1Q-65 4 -62 13Q-59 22 -52.5 31.5Q-46 41 -38 49.5Q-30 58 -22 63Q-12 66 14.5 60.5Q41 55 75 47.5Q109 40 146 33.5Q183 27 216 27Q238 27 254.5 32.5Q271 38 285 48Q313 67 333 101.5Q353 136 372 183.5Q391 231 411 289Q431 347 458 413Q485 478 516 536Q547 594 582 642Q617 690 656 726Q695 762 739 784Q698 795 653 795Q575 795 516 780.5Q457 766 412.5 736.5Q368 707 334.5 662Q301 617 274 555Q261 526 248 512Q235 498 208 498Q179 498 179.5 514.5Q180 531 199 560Q231 606 286.5 655Q342 704 409.5 743.5Q477 783 550.5 807.5Q624 832 692 830Q786 831 847.5 801Q909 771 941 724.5Q973 678 975.5 623Q978 568 953 521Q936 487 906.5 464.5Q877 442 842 428Q807 414 768 406.5Q729 399 692 394Q700 321 719.5 250Q739 179 775 112Q804 57 840 41Q865 48 901.5 74.5Q938 101 977 137L982 129Q966 114 945.5 95.5Q925 77 901.5 58.5Q878 40 853 22.5Q828 5 804 -8Q796 -13 781.5 -11.5Q767 -10 762 -7Q744 7 729.5 29Q715 51 699 82Q663 153 642.5 234Q622 315 615 393Q614 404 618.5 407Q623 410 636 410Q642 410 652.5 410Q663 410 675 409.5Q687 409 699 409Q711 409 720 409Q771 409 812 429.5Q853 450 882 506Q901 546 901 588.5Q901 631 883 669Q865 707 830 737Q795 767 743 782Q713 765 685 723.5Q657 682 630.5 628Q604 574 579.5 514.5Q555 455 533 403Q471 256 411.5 165.5Q352 75 280 37Q214 2 160 -10.5Q106 -23 55 -23Q2 -23 -27.5 -15Q-57 -7 -63 -1Z" glyph-name="Racute" horiz-adv-x="1001" unicode="&#340;" /><glyph d="M909 892Q911 888 915 892Q928 908 946.5 926Q965 944 984 960.5Q1003 977 1020 991Q1037 1005 1049 1014Q1058 1020 1067.5 1026Q1077 1032 1088 1031Q1099 1029 1104 1023.5Q1109 1018 1108 1013Q1108 1010 1105 1002Q1102 994 1085 983Q1070 974 1049 962Q1028 950 1004.5 936.5Q981 923 958 909Q935 895 916 882Q909 877 904 883Q887 904 876 918.5Q865 933 855 945Q845 957 836 967.5Q827 978 815 990Q801 1003 797.5 1010.5Q794 1018 795 1023Q795 1032 802 1038.5Q809 1045 817 1044Q840 1043 854 1017Q866 994 878.5 962Q891 930 909 892ZM-7 -1Q-9 4 -6 13Q-3 22 3.5 31.5Q10 41 18 49.5Q26 58 34 63Q44 66 70.5 60.5Q97 55 131 47.5Q165 40 202 33.5Q239 27 272 27Q294 27 310.5 32.5Q327 38 341 48Q369 67 389 101.5Q409 136 428 183.5Q447 231 467 289Q487 347 514 413Q541 478 572 536Q603 594 638 642Q673 690 712 726Q751 762 795 784Q754 795 709 795Q631 795 572 780.5Q513 766 468.5 736.5Q424 707 390.5 662Q357 617 330 555Q317 526 304 512Q291 498 264 498Q235 498 235.5 514.5Q236 531 255 560Q287 606 342.5 655Q398 704 465.5 743.5Q533 783 606.5 807.5Q680 832 748 830Q842 831 903.5 801Q965 771 997 724.5Q1029 678 1031.5 623Q1034 568 1009 521Q992 487 962.5 464.5Q933 442 898 428Q863 414 824 406.5Q785 399 748 394Q756 321 775.5 250Q795 179 831 112Q860 57 896 41Q921 48 957.5 74.5Q994 101 1033 137L1038 129Q1022 114 1001.5 95.5Q981 77 957.5 58.5Q934 40 909 22.5Q884 5 860 -8Q852 -13 837.5 -11.5Q823 -10 818 -7Q800 7 785.5 29Q771 51 755 82Q719 153 698.5 234Q678 315 671 393Q670 404 674.5 407Q679 410 692 410Q698 410 708.5 410Q719 410 731 409.5Q743 409 755 409Q767 409 776 409Q827 409 868 429.5Q909 450 938 506Q957 546 957 588.5Q957 631 939 669Q921 707 886 737Q851 767 799 782Q769 765 741 723.5Q713 682 686.5 628Q660 574 635.5 514.5Q611 455 589 403Q527 256 467.5 165.5Q408 75 336 37Q270 2 216 -10.5Q162 -23 111 -23Q58 -23 28.5 -15Q-1 -7 -7 -1Z" glyph-name="Rcaron" horiz-adv-x="1088" unicode="&#344;" /><glyph d="M491 -111Q484 -122 468 -133Q452 -144 440 -144Q424 -144 415 -131Q412 -125 413 -114.5Q414 -104 418.5 -92.5Q423 -81 429.5 -71Q436 -61 442 -56Q447 -52 461 -49.5Q475 -47 487 -47Q498 -47 510.5 -50Q523 -53 528 -60Q534 -67 532.5 -84.5Q531 -102 523 -116Q511 -139 492.5 -156.5Q474 -174 453 -187.5Q432 -201 411 -210.5Q390 -220 374 -226Q372 -227 371 -225.5Q370 -224 372 -223Q388 -216 405 -204Q422 -192 438 -177.5Q454 -163 468.5 -146Q483 -129 493 -111ZM-63 -1Q-65 4 -62 13Q-59 22 -52.5 31.5Q-46 41 -38 49.5Q-30 58 -22 63Q-12 66 14.5 60.5Q41 55 75 47.5Q109 40 146 33.5Q183 27 216 27Q238 27 254.5 32.5Q271 38 285 48Q313 67 333 101.5Q353 136 372 183.5Q391 231 411 289Q431 347 458 413Q485 478 516 536Q547 594 582 642Q617 690 656 726Q695 762 739 784Q698 795 653 795Q575 795 516 780.5Q457 766 412.5 736.5Q368 707 334.5 662Q301 617 274 555Q261 526 248 512Q235 498 208 498Q179 498 179.5 514.5Q180 531 199 560Q231 606 286.5 655Q342 704 409.5 743.5Q477 783 550.5 807.5Q624 832 692 830Q786 831 847.5 801Q909 771 941 724.5Q973 678 975.5 623Q978 568 953 521Q936 487 906.5 464.5Q877 442 842 428Q807 414 768 406.5Q729 399 692 394Q700 321 719.5 250Q739 179 775 112Q804 57 840 41Q865 48 901.5 74.5Q938 101 977 137L982 129Q966 114 945.5 95.5Q925 77 901.5 58.5Q878 40 853 22.5Q828 5 804 -8Q796 -13 781.5 -11.5Q767 -10 762 -7Q744 7 729.5 29Q715 51 699 82Q663 153 642.5 234Q622 315 615 393Q614 404 618.5 407Q623 410 636 410Q642 410 652.5 410Q663 410 675 409.5Q687 409 699 409Q711 409 720 409Q771 409 812 429.5Q853 450 882 506Q901 546 901 588.5Q901 631 883 669Q865 707 830 737Q795 767 743 782Q713 765 685 723.5Q657 682 630.5 628Q604 574 579.5 514.5Q555 455 533 403Q471 256 411.5 165.5Q352 75 280 37Q214 2 160 -10.5Q106 -23 55 -23Q2 -23 -27.5 -15Q-57 -7 -63 -1Z" glyph-name="Rcommaaccent" horiz-adv-x="1001" unicode="&#342;" /><glyph d="M240 336Q218 313 194 288.5Q170 264 149 240Q128 216 114 194Q100 172 99 156Q104 145 126 126Q148 107 182 87.5Q216 68 259 54Q302 40 350 40Q393 40 435.5 49.5Q478 59 515 77Q552 95 581 121.5Q610 148 626 182Q647 229 638.5 263Q630 297 603 323Q576 349 535.5 369Q495 389 451 407.5Q407 426 365 444.5Q323 463 293.5 487Q264 511 252.5 541Q241 571 257 613Q267 637 291.5 662.5Q316 688 350 712Q384 736 424.5 757Q465 778 506.5 794Q548 810 588 819Q628 828 660 828Q697 828 734.5 820.5Q772 813 804.5 800Q837 787 862.5 769Q888 751 900 730Q853 665 804.5 611Q756 557 714 497L708 501Q741 548 772 587.5Q803 627 839 678Q824 700 801 720Q778 740 747 755Q716 770 677.5 778.5Q639 787 593 787Q549 787 505 776Q461 765 423.5 745.5Q386 726 358 699.5Q330 673 318 641Q305 608 319 583Q333 558 364 537Q395 516 437 498Q479 480 522.5 461Q566 442 606 420Q646 398 671.5 370Q697 342 703 305.5Q709 269 686 220Q671 187 629.5 147Q588 107 532.5 72.5Q477 38 413 15Q349 -8 288 -8Q237 -8 195.5 3Q154 14 120.5 31.5Q87 49 60 70.5Q33 92 12 113Q30 134 56.5 161.5Q83 189 112.5 219.5Q142 250 173 281.5Q204 313 231 340Z" glyph-name="S" horiz-adv-x="761" unicode="S" /><glyph d="M770 896Q768 894 766 894Q762 894 762 898Q762 900 765 903Q786 923 808 949.5Q830 976 848 1000.5Q866 1025 879 1043.5Q892 1062 897 1067Q901 1071 908 1072Q915 1073 923 1073Q930 1073 935.5 1072.5Q941 1072 943 1070Q945 1068 945.5 1062.5Q946 1057 946 1049Q946 1044 942 1039.5Q938 1035 933 1030Q928 1025 909.5 1011.5Q891 998 867 979.5Q843 961 817 939.5Q791 918 770 896ZM240 336Q218 313 194 288.5Q170 264 149 240Q128 216 114 194Q100 172 99 156Q104 145 126 126Q148 107 182 87.5Q216 68 259 54Q302 40 350 40Q393 40 435.5 49.5Q478 59 515 77Q552 95 581 121.5Q610 148 626 182Q647 229 638.5 263Q630 297 603 323Q576 349 535.5 369Q495 389 451 407.5Q407 426 365 444.5Q323 463 293.5 487Q264 511 252.5 541Q241 571 257 613Q267 637 291.5 662.5Q316 688 350 712Q384 736 424.5 757Q465 778 506.5 794Q548 810 588 819Q628 828 660 828Q697 828 734.5 820.5Q772 813 804.5 800Q837 787 862.5 769Q888 751 900 730Q853 665 804.5 611Q756 557 714 497L708 501Q741 548 772 587.5Q803 627 839 678Q824 700 801 720Q778 740 747 755Q716 770 677.5 778.5Q639 787 593 787Q549 787 505 776Q461 765 423.5 745.5Q386 726 358 699.5Q330 673 318 641Q305 608 319 583Q333 558 364 537Q395 516 437 498Q479 480 522.5 461Q566 442 606 420Q646 398 671.5 370Q697 342 703 305.5Q709 269 686 220Q671 187 629.5 147Q588 107 532.5 72.5Q477 38 413 15Q349 -8 288 -8Q237 -8 195.5 3Q154 14 120.5 31.5Q87 49 60 70.5Q33 92 12 113Q30 134 56.5 161.5Q83 189 112.5 219.5Q142 250 173 281.5Q204 313 231 340Z" glyph-name="Sacute" horiz-adv-x="761" unicode="&#346;" /><glyph d="M825 902Q827 898 831 902Q844 918 862.5 936Q881 954 900 970.5Q919 987 936 1001Q953 1015 965 1024Q974 1030 983.5 1036Q993 1042 1004 1041Q1015 1039 1020 1033.5Q1025 1028 1024 1023Q1024 1020 1021 1012Q1018 1004 1001 993Q986 984 965 972Q944 960 920.5 946.5Q897 933 874 919Q851 905 832 892Q825 887 820 893Q803 914 792 928.5Q781 943 771 955Q761 967 752 977.5Q743 988 731 1000Q717 1013 713.5 1020.5Q710 1028 711 1033Q711 1042 718 1048.5Q725 1055 733 1054Q756 1053 770 1027Q782 1004 794.5 972Q807 940 825 902ZM240 336Q218 313 194 288.5Q170 264 149 240Q128 216 114 194Q100 172 99 156Q104 145 126 126Q148 107 182 87.5Q216 68 259 54Q302 40 350 40Q393 40 435.5 49.5Q478 59 515 77Q552 95 581 121.5Q610 148 626 182Q647 229 638.5 263Q630 297 603 323Q576 349 535.5 369Q495 389 451 407.5Q407 426 365 444.5Q323 463 293.5 487Q264 511 252.5 541Q241 571 257 613Q267 637 291.5 662.5Q316 688 350 712Q384 736 424.5 757Q465 778 506.5 794Q548 810 588 819Q628 828 660 828Q697 828 734.5 820.5Q772 813 804.5 800Q837 787 862.5 769Q888 751 900 730Q853 665 804.5 611Q756 557 714 497L708 501Q741 548 772 587.5Q803 627 839 678Q824 700 801 720Q778 740 747 755Q716 770 677.5 778.5Q639 787 593 787Q549 787 505 776Q461 765 423.5 745.5Q386 726 358 699.5Q330 673 318 641Q305 608 319 583Q333 558 364 537Q395 516 437 498Q479 480 522.5 461Q566 442 606 420Q646 398 671.5 370Q697 342 703 305.5Q709 269 686 220Q671 187 629.5 147Q588 107 532.5 72.5Q477 38 413 15Q349 -8 288 -8Q237 -8 195.5 3Q154 14 120.5 31.5Q87 49 60 70.5Q33 92 12 113Q30 134 56.5 161.5Q83 189 112.5 219.5Q142 250 173 281.5Q204 313 231 340Z" glyph-name="Scaron" horiz-adv-x="761" unicode="&#352;" /><glyph d="M240 336Q218 313 194 288.5Q170 264 149 240Q128 216 114 194Q100 172 99 156Q104 145 126 126Q148 107 182 87.5Q216 68 259 54Q302 40 350 40Q393 40 435.5 49.5Q478 59 515 77Q552 95 581 121.5Q610 148 626 182Q647 229 638.5 263Q630 297 603 323Q576 349 535.5 369Q495 389 451 407.5Q407 426 365 444.5Q323 463 293.5 487Q264 511 252.5 541Q241 571 257 613Q267 637 291.5 662.5Q316 688 350 712Q384 736 424.5 757Q465 778 506.5 794Q548 810 588 819Q628 828 660 828Q697 828 734.5 820.5Q772 813 804.5 800Q837 787 862.5 769Q888 751 900 730Q853 665 804.5 611Q756 557 714 497L708 501Q741 548 772 587.5Q803 627 839 678Q824 700 801 720Q778 740 747 755Q716 770 677.5 778.5Q639 787 593 787Q549 787 505 776Q461 765 423.5 745.5Q386 726 358 699.5Q330 673 318 641Q305 608 319 583Q333 558 364 537Q395 516 437 498Q479 480 522.5 461Q566 442 606 420Q646 398 671.5 370Q697 342 703 305.5Q709 269 686 220Q671 187 629.5 147Q588 107 532.5 72.5Q477 38 413 15Q349 -8 288 -8Q239 -8 195 3L161 -48Q157 -51 160 -51Q163 -51 166 -51Q206 -51 235 -58.5Q264 -66 283 -77Q302 -88 310.5 -102.5Q319 -117 319 -130Q319 -153 309 -179.5Q299 -206 281 -229Q263 -252 238.5 -267.5Q214 -283 185 -283Q148 -283 120.5 -271.5Q93 -260 93 -242Q93 -223 104.5 -209Q116 -195 134 -195Q149 -195 160.5 -203Q172 -211 184 -220Q196 -229 209.5 -237Q223 -245 241 -245Q264 -245 278 -226Q292 -207 292 -184Q292 -169 283.5 -155Q275 -141 254.5 -130Q234 -119 200 -113Q166 -107 115 -107Q104 -107 110 -96L186 5Q127 22 84.5 52.5Q42 83 12 113Q30 134 56.5 161.5Q83 189 112.5 219.5Q142 250 173 281.5Q204 313 231 340Z" glyph-name="Scedilla" horiz-adv-x="761" unicode="&#350;" /><glyph d="M834 1042Q832 1046 828 1042Q814 1026 796 1008Q778 990 759 973.5Q740 957 723 943Q706 929 694 920Q685 914 675.5 908Q666 902 655 903Q644 905 639 910.5Q634 916 635 921Q635 924 638 932Q641 940 658 951Q673 960 694 972Q715 984 738.5 997.5Q762 1011 785 1025Q808 1039 827 1052Q833 1058 838 1051Q854 1030 866 1015.5Q878 1001 887.5 989Q897 977 906.5 966.5Q916 956 928 944Q942 931 945.5 923.5Q949 916 948 911Q948 902 941 895.5Q934 889 926 890Q903 891 889 917Q877 940 864.5 972Q852 1004 834 1042ZM240 336Q218 313 194 288.5Q170 264 149 240Q128 216 114 194Q100 172 99 156Q104 145 126 126Q148 107 182 87.5Q216 68 259 54Q302 40 350 40Q393 40 435.5 49.5Q478 59 515 77Q552 95 581 121.5Q610 148 626 182Q647 229 638.5 263Q630 297 603 323Q576 349 535.5 369Q495 389 451 407.5Q407 426 365 444.5Q323 463 293.5 487Q264 511 252.5 541Q241 571 257 613Q267 637 291.5 662.5Q316 688 350 712Q384 736 424.5 757Q465 778 506.5 794Q548 810 588 819Q628 828 660 828Q697 828 734.5 820.5Q772 813 804.5 800Q837 787 862.5 769Q888 751 900 730Q853 665 804.5 611Q756 557 714 497L708 501Q741 548 772 587.5Q803 627 839 678Q824 700 801 720Q778 740 747 755Q716 770 677.5 778.5Q639 787 593 787Q549 787 505 776Q461 765 423.5 745.5Q386 726 358 699.5Q330 673 318 641Q305 608 319 583Q333 558 364 537Q395 516 437 498Q479 480 522.5 461Q566 442 606 420Q646 398 671.5 370Q697 342 703 305.5Q709 269 686 220Q671 187 629.5 147Q588 107 532.5 72.5Q477 38 413 15Q349 -8 288 -8Q237 -8 195.5 3Q154 14 120.5 31.5Q87 49 60 70.5Q33 92 12 113Q30 134 56.5 161.5Q83 189 112.5 219.5Q142 250 173 281.5Q204 313 231 340Z" glyph-name="Scircumflex" horiz-adv-x="761" unicode="&#348;" /><glyph d="M204 -150Q197 -161 181 -172Q165 -183 153 -183Q137 -183 128 -170Q125 -164 126 -153.5Q127 -143 131.5 -131.5Q136 -120 142.5 -110Q149 -100 155 -95Q160 -91 174 -88.5Q188 -86 200 -86Q211 -86 223.5 -89Q236 -92 241 -99Q247 -106 245.5 -123.5Q244 -141 236 -155Q224 -178 205.5 -195.5Q187 -213 166 -226.5Q145 -240 124 -249.5Q103 -259 87 -265Q85 -266 84 -264.5Q83 -263 85 -262Q101 -255 118 -243Q135 -231 151 -216.5Q167 -202 181.5 -185Q196 -168 206 -150ZM240 336Q218 313 194 288.5Q170 264 149 240Q128 216 114 194Q100 172 99 156Q104 145 126 126Q148 107 182 87.5Q216 68 259 54Q302 40 350 40Q393 40 435.5 49.5Q478 59 515 77Q552 95 581 121.5Q610 148 626 182Q647 229 638.5 263Q630 297 603 323Q576 349 535.5 369Q495 389 451 407.5Q407 426 365 444.5Q323 463 293.5 487Q264 511 252.5 541Q241 571 257 613Q267 637 291.5 662.5Q316 688 350 712Q384 736 424.5 757Q465 778 506.5 794Q548 810 588 819Q628 828 660 828Q697 828 734.5 820.5Q772 813 804.5 800Q837 787 862.5 769Q888 751 900 730Q853 665 804.5 611Q756 557 714 497L708 501Q741 548 772 587.5Q803 627 839 678Q824 700 801 720Q778 740 747 755Q716 770 677.5 778.5Q639 787 593 787Q549 787 505 776Q461 765 423.5 745.5Q386 726 358 699.5Q330 673 318 641Q305 608 319 583Q333 558 364 537Q395 516 437 498Q479 480 522.5 461Q566 442 606 420Q646 398 671.5 370Q697 342 703 305.5Q709 269 686 220Q671 187 629.5 147Q588 107 532.5 72.5Q477 38 413 15Q349 -8 288 -8Q237 -8 195.5 3Q154 14 120.5 31.5Q87 49 60 70.5Q33 92 12 113Q30 134 56.5 161.5Q83 189 112.5 219.5Q142 250 173 281.5Q204 313 231 340Z" glyph-name="Scommaaccent" horiz-adv-x="761" unicode="&#536;" /><glyph d="M96 528Q67 528 64 544Q61 560 77 589Q116 659 167 706.5Q218 754 274.5 782.5Q331 811 389.5 823Q448 835 502 835Q565 835 632 829.5Q699 824 769.5 817.5Q840 811 913.5 805.5Q987 800 1062 800Q1107 800 1130 807Q1153 814 1158 812Q1162 811 1156.5 802.5Q1151 794 1142 783.5Q1133 773 1123 763.5Q1113 754 1106 751Q1097 746 1087 742Q1077 738 1065 735Q1053 732 1037.5 730.5Q1022 729 1000 729Q980 729 951.5 732Q923 735 888 739.5Q853 744 814 750Q775 756 734 762Q705 741 684 709.5Q663 678 643.5 634.5Q624 591 603.5 535Q583 479 555 409Q524 336 480.5 262.5Q437 189 379 130Q321 71 248.5 34Q176 -3 87 -3Q64 -3 36 0Q8 3 -17.5 7Q-43 11 -62 16Q-81 21 -84 26Q-89 33 -85.5 43.5Q-82 54 -74.5 65Q-67 76 -57.5 84.5Q-48 93 -40 95Q-27 97 -4 90.5Q19 84 49 74.5Q79 65 113 57Q147 49 181.5 46.5Q216 44 249.5 51.5Q283 59 311 82Q337 103 355.5 133Q374 163 391.5 204.5Q409 246 427.5 299Q446 352 473 418Q533 560 596 644Q659 728 726 764Q678 772 629.5 779.5Q581 787 537 793Q493 799 455.5 803Q418 807 392 807Q352 807 319.5 793.5Q287 780 259.5 753Q232 726 207.5 684Q183 642 160 585Q153 567 147 556Q141 545 134.5 538.5Q128 532 118.5 530Q109 528 96 528Z" glyph-name="T" horiz-adv-x="758" unicode="T" /><glyph d="M96 528Q67 528 64 544Q61 560 77 589Q116 659 167 706.5Q218 754 274.5 782.5Q331 811 389.5 823Q448 835 502 835Q565 835 632 829.5Q699 824 769.5 817.5Q840 811 913.5 805.5Q987 800 1062 800Q1107 800 1130 807Q1153 814 1158 812Q1162 811 1156.5 802.5Q1151 794 1142 783.5Q1133 773 1123 763.5Q1113 754 1106 751Q1097 746 1087 742Q1077 738 1065 735Q1053 732 1037.5 730.5Q1022 729 1000 729Q980 729 951.5 732Q923 735 888 739.5Q853 744 814 750Q775 756 734 762Q707 742 686.5 713.5Q666 685 647.5 645.5Q629 606 610.5 555.5Q592 505 568 442Q619 442 661.5 444Q704 446 736 448Q741 444 738 435.5Q735 427 730 424Q695 426 654 428Q613 430 564 431L555 409Q524 336 480.5 262.5Q437 189 379 130Q321 71 248.5 34Q176 -3 87 -3Q64 -3 36 0Q8 3 -17.5 7Q-43 11 -62 16Q-81 21 -84 26Q-89 33 -85.5 43.5Q-82 54 -74.5 65Q-67 76 -57.5 84.5Q-48 93 -40 95Q-27 97 -4 90.5Q19 84 49 74.5Q79 65 113 57Q147 49 181.5 46.5Q216 44 249.5 51.5Q283 59 311 82Q337 103 355.5 133Q374 163 391.5 204.5Q409 246 427.5 299Q446 352 473 418L478 430Q393 429 330 424Q325 427 328 435.5Q331 444 336 448Q365 446 402 444.5Q439 443 483 442Q541 573 601.5 651Q662 729 726 764Q678 772 629.5 779.5Q581 787 537 793Q493 799 455.5 803Q418 807 392 807Q352 807 319.5 793.5Q287 780 259.5 753Q232 726 207.5 684Q183 642 160 585Q153 567 147 556Q141 545 134.5 538.5Q128 532 118.5 530Q109 528 96 528Z" glyph-name="Tbar" horiz-adv-x="758" unicode="&#358;" /><glyph d="M778 902Q780 898 784 902Q797 918 815.5 936Q834 954 853 970.5Q872 987 889 1001Q906 1015 918 1024Q927 1030 936.5 1036Q946 1042 957 1041Q968 1039 973 1033.5Q978 1028 977 1023Q977 1020 974 1012Q971 1004 954 993Q939 984 918 972Q897 960 873.5 946.5Q850 933 827 919Q804 905 785 892Q778 887 773 893Q756 914 745 928.5Q734 943 724 955Q714 967 705 977.5Q696 988 684 1000Q670 1013 666.5 1020.5Q663 1028 664 1033Q664 1042 671 1048.5Q678 1055 686 1054Q709 1053 723 1027Q735 1004 747.5 972Q760 940 778 902ZM96 528Q67 528 64 544Q61 560 77 589Q116 659 167 706.5Q218 754 274.5 782.5Q331 811 389.5 823Q448 835 502 835Q565 835 632 829.5Q699 824 769.5 817.5Q840 811 913.5 805.5Q987 800 1062 800Q1107 800 1130 807Q1153 814 1158 812Q1162 811 1156.5 802.5Q1151 794 1142 783.5Q1133 773 1123 763.5Q1113 754 1106 751Q1097 746 1087 742Q1077 738 1065 735Q1053 732 1037.5 730.5Q1022 729 1000 729Q980 729 951.5 732Q923 735 888 739.5Q853 744 814 750Q775 756 734 762Q705 741 684 709.5Q663 678 643.5 634.5Q624 591 603.5 535Q583 479 555 409Q524 336 480.5 262.5Q437 189 379 130Q321 71 248.5 34Q176 -3 87 -3Q64 -3 36 0Q8 3 -17.5 7Q-43 11 -62 16Q-81 21 -84 26Q-89 33 -85.5 43.5Q-82 54 -74.5 65Q-67 76 -57.5 84.5Q-48 93 -40 95Q-27 97 -4 90.5Q19 84 49 74.5Q79 65 113 57Q147 49 181.5 46.5Q216 44 249.5 51.5Q283 59 311 82Q337 103 355.5 133Q374 163 391.5 204.5Q409 246 427.5 299Q446 352 473 418Q533 560 596 644Q659 728 726 764Q678 772 629.5 779.5Q581 787 537 793Q493 799 455.5 803Q418 807 392 807Q352 807 319.5 793.5Q287 780 259.5 753Q232 726 207.5 684Q183 642 160 585Q153 567 147 556Q141 545 134.5 538.5Q128 532 118.5 530Q109 528 96 528Z" glyph-name="Tcaron" horiz-adv-x="758" unicode="&#356;" /><glyph d="M260 -150Q253 -161 237 -172Q221 -183 209 -183Q193 -183 184 -170Q181 -164 182 -153.5Q183 -143 187.5 -131.5Q192 -120 198.5 -110Q205 -100 211 -95Q216 -91 230 -88.5Q244 -86 256 -86Q267 -86 279.5 -89Q292 -92 297 -99Q303 -106 301.5 -123.5Q300 -141 292 -155Q280 -178 261.5 -195.5Q243 -213 222 -226.5Q201 -240 180 -249.5Q159 -259 143 -265Q141 -266 140 -264.5Q139 -263 141 -262Q157 -255 174 -243Q191 -231 207 -216.5Q223 -202 237.5 -185Q252 -168 262 -150ZM96 528Q67 528 64 544Q61 560 77 589Q116 659 167 706.5Q218 754 274.5 782.5Q331 811 389.5 823Q448 835 502 835Q565 835 632 829.5Q699 824 769.5 817.5Q840 811 913.5 805.5Q987 800 1062 800Q1107 800 1130 807Q1153 814 1158 812Q1162 811 1156.5 802.5Q1151 794 1142 783.5Q1133 773 1123 763.5Q1113 754 1106 751Q1097 746 1087 742Q1077 738 1065 735Q1053 732 1037.5 730.5Q1022 729 1000 729Q980 729 951.5 732Q923 735 888 739.5Q853 744 814 750Q775 756 734 762Q705 741 684 709.5Q663 678 643.5 634.5Q624 591 603.5 535Q583 479 555 409Q524 336 480.5 262.5Q437 189 379 130Q321 71 248.5 34Q176 -3 87 -3Q64 -3 36 0Q8 3 -17.5 7Q-43 11 -62 16Q-81 21 -84 26Q-89 33 -85.5 43.5Q-82 54 -74.5 65Q-67 76 -57.5 84.5Q-48 93 -40 95Q-27 97 -4 90.5Q19 84 49 74.5Q79 65 113 57Q147 49 181.5 46.5Q216 44 249.5 51.5Q283 59 311 82Q337 103 355.5 133Q374 163 391.5 204.5Q409 246 427.5 299Q446 352 473 418Q533 560 596 644Q659 728 726 764Q678 772 629.5 779.5Q581 787 537 793Q493 799 455.5 803Q418 807 392 807Q352 807 319.5 793.5Q287 780 259.5 753Q232 726 207.5 684Q183 642 160 585Q153 567 147 556Q141 545 134.5 538.5Q128 532 118.5 530Q109 528 96 528Z" glyph-name="Tcommaaccent" horiz-adv-x="758" unicode="&#354;" /><glyph d="M631 211Q654 211 679 223.5Q704 236 726.5 255.5Q749 275 767.5 297.5Q786 320 798 341Q816 373 828 413.5Q840 454 844 493Q848 532 843 563Q838 594 821 606Q809 601 770 571Q731 541 680.5 494Q630 447 576 388Q522 329 479 268Q508 245 547.5 228Q587 211 631 211ZM464 421Q498 494 529.5 553.5Q561 613 593 659Q625 705 660 737.5Q695 770 735 788Q711 790 678 788.5Q645 787 609 782.5Q573 778 537 772Q501 766 471 761Q441 756 419.5 752.5Q398 749 391 749Q384 749 388 757.5Q392 766 402 777.5Q412 789 424.5 799.5Q437 810 447 814Q453 817 473 818.5Q493 820 518 820Q543 820 568.5 820Q594 820 611 820Q658 820 716.5 821.5Q775 823 828 824.5Q881 826 919.5 827.5Q958 829 966 829Q1014 829 1025 815Q1027 805 1013 790Q999 775 980 763Q966 759 932 766Q898 773 857 778.5Q816 784 775.5 783Q735 782 708 763Q680 744 662 711.5Q644 679 627.5 634.5Q611 590 592 534.5Q573 479 544 413Q531 385 518.5 359.5Q506 334 493 310Q521 343 556 381Q591 419 629 457Q667 495 705.5 530Q744 565 778.5 592.5Q813 620 841 637.5Q869 655 886 658Q905 652 915 633.5Q925 615 926.5 589Q928 563 923.5 532Q919 501 909.5 471Q900 441 888 414.5Q876 388 862 370Q839 340 806.5 308Q774 276 735.5 249.5Q697 223 654.5 205.5Q612 188 570 188Q532 188 500 197Q468 206 440 223Q395 155 349 109Q303 63 261 40Q271 36 296.5 37.5Q322 39 356.5 43.5Q391 48 430.5 53.5Q470 59 507 64.5Q544 70 575 73.5Q606 77 623 76Q633 76 631.5 64Q630 52 620 38.5Q610 25 592.5 13.5Q575 2 551 2L412 5Q340 5 273 3.5Q206 2 153 0.5Q100 -1 65 -2Q30 -3 22 -3Q-24 -3 -37 12Q-37 17 -32.5 24.5Q-28 32 -20.5 39.5Q-13 47 -4 52.5Q5 58 12 60Q21 63 39 60Q57 57 80.5 53Q104 49 131 45Q158 41 186 41Q218 41 244 46Q270 51 291 68Q317 89 336.5 122Q356 155 375 199.5Q394 244 414.5 299.5Q435 355 464 421Z" glyph-name="Thorn" horiz-adv-x="925" unicode="&#222;" /><glyph d="M836 424Q789 347 753.5 290Q718 233 694.5 190Q671 147 660 116Q649 85 650 62Q651 54 655 45Q659 36 664.5 28Q670 20 676 14Q682 8 688 7Q700 10 727 28.5Q754 47 784.5 70.5Q815 94 844 117.5Q873 141 888 154L893 147Q878 134 849 108.5Q820 83 785.5 54.5Q751 26 717 0.5Q683 -25 659 -38Q656 -40 649.5 -40.5Q643 -41 636 -40.5Q629 -40 623.5 -39Q618 -38 616 -36Q600 -23 585.5 -2Q571 19 568 48Q566 82 579.5 119Q593 156 621 205Q586 166 538 121.5Q490 77 438.5 39.5Q387 2 338 -23Q289 -48 253 -48Q215 -48 182.5 -31Q150 -14 125.5 14.5Q101 43 86 81Q71 119 69 161Q67 203 80 244.5Q93 286 117.5 329.5Q142 373 175 418.5Q208 464 245 514Q279 559 307.5 597Q336 635 357 666.5Q378 698 389 723Q400 748 399 768Q397 783 390 796Q383 809 372 823Q360 820 331 802Q302 784 268.5 761Q235 738 204.5 715Q174 692 159 679L153 687Q167 699 198.5 724Q230 749 266.5 776Q303 803 338.5 827.5Q374 852 398 865Q402 867 408.5 867.5Q415 868 422 867Q429 866 434.5 864.5Q440 863 442 862Q457 849 464.5 827.5Q472 806 477 777Q480 754 467 724Q454 694 430 656.5Q406 619 372.5 574.5Q339 530 302 479Q267 432 237.5 389Q208 346 187 307Q166 268 155 233Q144 198 146 167Q148 138 158 107Q168 76 187.5 49.5Q207 23 236 6Q265 -11 305 -11Q324 -11 351.5 1.5Q379 14 410 34.5Q441 55 474 81Q507 107 537.5 134Q568 161 594 187.5Q620 214 638 234Q664 277 697.5 329.5Q731 382 773 451Q828 540 860.5 591.5Q893 643 910.5 674Q928 705 932.5 723.5Q937 742 936 766Q934 781 927 794Q920 807 908 821Q896 818 867 800Q838 782 805 759.5Q772 737 741.5 714.5Q711 692 696 679L690 687Q704 699 735.5 724Q767 749 803 776Q839 803 875 827.5Q911 852 934 865Q938 867 944.5 867.5Q951 868 958 867Q965 866 970.5 864.5Q976 863 978 862Q994 849 1001 827.5Q1008 806 1014 777Q1015 754 1008.5 730Q1002 706 982.5 668.5Q963 631 927.5 573Q892 515 836 424Z" glyph-name="U" horiz-adv-x="928" unicode="U" /><glyph d="M649 886Q647 884 645 884Q641 884 641 888Q641 890 644 893Q665 913 687 939.5Q709 966 727 990.5Q745 1015 758 1033.5Q771 1052 776 1057Q780 1061 787 1062Q794 1063 802 1063Q809 1063 814.5 1062.5Q820 1062 822 1060Q824 1058 824.5 1052.5Q825 1047 825 1039Q825 1034 821 1029.5Q817 1025 812 1020Q807 1015 788.5 1001.5Q770 988 746 969.5Q722 951 696 929.5Q670 908 649 886ZM836 424Q789 347 753.5 290Q718 233 694.5 190Q671 147 660 116Q649 85 650 62Q651 54 655 45Q659 36 664.5 28Q670 20 676 14Q682 8 688 7Q700 10 727 28.5Q754 47 784.5 70.5Q815 94 844 117.5Q873 141 888 154L893 147Q878 134 849 108.5Q820 83 785.5 54.5Q751 26 717 0.5Q683 -25 659 -38Q656 -40 649.5 -40.5Q643 -41 636 -40.5Q629 -40 623.5 -39Q618 -38 616 -36Q600 -23 585.5 -2Q571 19 568 48Q566 82 579.5 119Q593 156 621 205Q586 166 538 121.5Q490 77 438.5 39.5Q387 2 338 -23Q289 -48 253 -48Q215 -48 182.5 -31Q150 -14 125.5 14.5Q101 43 86 81Q71 119 69 161Q67 203 80 244.5Q93 286 117.5 329.5Q142 373 175 418.5Q208 464 245 514Q279 559 307.5 597Q336 635 357 666.5Q378 698 389 723Q400 748 399 768Q397 783 390 796Q383 809 372 823Q360 820 331 802Q302 784 268.5 761Q235 738 204.5 715Q174 692 159 679L153 687Q167 699 198.5 724Q230 749 266.5 776Q303 803 338.5 827.5Q374 852 398 865Q402 867 408.5 867.5Q415 868 422 867Q429 866 434.5 864.5Q440 863 442 862Q457 849 464.5 827.5Q472 806 477 777Q480 754 467 724Q454 694 430 656.5Q406 619 372.5 574.5Q339 530 302 479Q267 432 237.5 389Q208 346 187 307Q166 268 155 233Q144 198 146 167Q148 138 158 107Q168 76 187.5 49.5Q207 23 236 6Q265 -11 305 -11Q324 -11 351.5 1.5Q379 14 410 34.5Q441 55 474 81Q507 107 537.5 134Q568 161 594 187.5Q620 214 638 234Q664 277 697.5 329.5Q731 382 773 451Q828 540 860.5 591.5Q893 643 910.5 674Q928 705 932.5 723.5Q937 742 936 766Q934 781 927 794Q920 807 908 821Q896 818 867 800Q838 782 805 759.5Q772 737 741.5 714.5Q711 692 696 679L690 687Q704 699 735.5 724Q767 749 803 776Q839 803 875 827.5Q911 852 934 865Q938 867 944.5 867.5Q951 868 958 867Q965 866 970.5 864.5Q976 863 978 862Q994 849 1001 827.5Q1008 806 1014 777Q1015 754 1008.5 730Q1002 706 982.5 668.5Q963 631 927.5 573Q892 515 836 424Z" glyph-name="Uacute" horiz-adv-x="928" unicode="&#218;" /><glyph d="M681 889Q640 889 608 911Q576 933 550 968Q547 973 545 975.5Q543 978 543 981Q543 989 569 997Q586 1002 592 1001.5Q598 1001 604 993Q633 955 658.5 933.5Q684 912 716 912Q762 912 799 994Q802 1002 811 1002Q816 1002 819.5 998.5Q823 995 819 990Q808 971 792.5 953Q777 935 759 921Q741 907 721 898.5Q701 890 681 889ZM836 424Q789 347 753.5 290Q718 233 694.5 190Q671 147 660 116Q649 85 650 62Q651 54 655 45Q659 36 664.5 28Q670 20 676 14Q682 8 688 7Q700 10 727 28.5Q754 47 784.5 70.5Q815 94 844 117.5Q873 141 888 154L893 147Q878 134 849 108.5Q820 83 785.5 54.5Q751 26 717 0.5Q683 -25 659 -38Q656 -40 649.5 -40.5Q643 -41 636 -40.5Q629 -40 623.5 -39Q618 -38 616 -36Q600 -23 585.5 -2Q571 19 568 48Q566 82 579.5 119Q593 156 621 205Q586 166 538 121.5Q490 77 438.5 39.5Q387 2 338 -23Q289 -48 253 -48Q215 -48 182.5 -31Q150 -14 125.5 14.5Q101 43 86 81Q71 119 69 161Q67 203 80 244.5Q93 286 117.5 329.5Q142 373 175 418.5Q208 464 245 514Q279 559 307.5 597Q336 635 357 666.5Q378 698 389 723Q400 748 399 768Q397 783 390 796Q383 809 372 823Q360 820 331 802Q302 784 268.5 761Q235 738 204.5 715Q174 692 159 679L153 687Q167 699 198.5 724Q230 749 266.5 776Q303 803 338.5 827.5Q374 852 398 865Q402 867 408.5 867.5Q415 868 422 867Q429 866 434.5 864.5Q440 863 442 862Q457 849 464.5 827.5Q472 806 477 777Q480 754 467 724Q454 694 430 656.5Q406 619 372.5 574.5Q339 530 302 479Q267 432 237.5 389Q208 346 187 307Q166 268 155 233Q144 198 146 167Q148 138 158 107Q168 76 187.5 49.5Q207 23 236 6Q265 -11 305 -11Q324 -11 351.5 1.5Q379 14 410 34.5Q441 55 474 81Q507 107 537.5 134Q568 161 594 187.5Q620 214 638 234Q664 277 697.5 329.5Q731 382 773 451Q828 540 860.5 591.5Q893 643 910.5 674Q928 705 932.5 723.5Q937 742 936 766Q934 781 927 794Q920 807 908 821Q896 818 867 800Q838 782 805 759.5Q772 737 741.5 714.5Q711 692 696 679L690 687Q704 699 735.5 724Q767 749 803 776Q839 803 875 827.5Q911 852 934 865Q938 867 944.5 867.5Q951 868 958 867Q965 866 970.5 864.5Q976 863 978 862Q994 849 1001 827.5Q1008 806 1014 777Q1015 754 1008.5 730Q1002 706 982.5 668.5Q963 631 927.5 573Q892 515 836 424Z" glyph-name="Ubreve" horiz-adv-x="928" unicode="&#364;" /><glyph d="M728 1042Q726 1046 722 1042Q708 1026 690 1008Q672 990 653 973.5Q634 957 617 943Q600 929 588 920Q579 914 569.5 908Q560 902 549 903Q538 905 533 910.5Q528 916 529 921Q529 924 532 932Q535 940 552 951Q567 960 588 972Q609 984 632.5 997.5Q656 1011 679 1025Q702 1039 721 1052Q727 1058 732 1051Q748 1030 760 1015.5Q772 1001 781.5 989Q791 977 800.5 966.5Q810 956 822 944Q836 931 839.5 923.5Q843 916 842 911Q842 902 835 895.5Q828 889 820 890Q797 891 783 917Q771 940 758.5 972Q746 1004 728 1042ZM836 424Q789 347 753.5 290Q718 233 694.5 190Q671 147 660 116Q649 85 650 62Q651 54 655 45Q659 36 664.5 28Q670 20 676 14Q682 8 688 7Q700 10 727 28.5Q754 47 784.5 70.5Q815 94 844 117.5Q873 141 888 154L893 147Q878 134 849 108.5Q820 83 785.5 54.5Q751 26 717 0.5Q683 -25 659 -38Q656 -40 649.5 -40.5Q643 -41 636 -40.5Q629 -40 623.5 -39Q618 -38 616 -36Q600 -23 585.5 -2Q571 19 568 48Q566 82 579.5 119Q593 156 621 205Q586 166 538 121.5Q490 77 438.5 39.5Q387 2 338 -23Q289 -48 253 -48Q215 -48 182.5 -31Q150 -14 125.5 14.5Q101 43 86 81Q71 119 69 161Q67 203 80 244.5Q93 286 117.5 329.5Q142 373 175 418.5Q208 464 245 514Q279 559 307.5 597Q336 635 357 666.5Q378 698 389 723Q400 748 399 768Q397 783 390 796Q383 809 372 823Q360 820 331 802Q302 784 268.5 761Q235 738 204.5 715Q174 692 159 679L153 687Q167 699 198.5 724Q230 749 266.5 776Q303 803 338.5 827.5Q374 852 398 865Q402 867 408.5 867.5Q415 868 422 867Q429 866 434.5 864.5Q440 863 442 862Q457 849 464.5 827.5Q472 806 477 777Q480 754 467 724Q454 694 430 656.5Q406 619 372.5 574.5Q339 530 302 479Q267 432 237.5 389Q208 346 187 307Q166 268 155 233Q144 198 146 167Q148 138 158 107Q168 76 187.5 49.5Q207 23 236 6Q265 -11 305 -11Q324 -11 351.5 1.5Q379 14 410 34.5Q441 55 474 81Q507 107 537.5 134Q568 161 594 187.5Q620 214 638 234Q664 277 697.5 329.5Q731 382 773 451Q828 540 860.5 591.5Q893 643 910.5 674Q928 705 932.5 723.5Q937 742 936 766Q934 781 927 794Q920 807 908 821Q896 818 867 800Q838 782 805 759.5Q772 737 741.5 714.5Q711 692 696 679L690 687Q704 699 735.5 724Q767 749 803 776Q839 803 875 827.5Q911 852 934 865Q938 867 944.5 867.5Q951 868 958 867Q965 866 970.5 864.5Q976 863 978 862Q994 849 1001 827.5Q1008 806 1014 777Q1015 754 1008.5 730Q1002 706 982.5 668.5Q963 631 927.5 573Q892 515 836 424Z" glyph-name="Ucircumflex" horiz-adv-x="928" unicode="&#219;" /><glyph d="M745 948Q745 971 760.5 987Q776 1003 799 1003Q822 1003 838 987Q854 971 854 948Q854 925 838 909.5Q822 894 799 894Q776 894 760.5 909.5Q745 925 745 948ZM527 948Q527 971 542.5 987Q558 1003 581 1003Q604 1003 620 987Q636 971 636 948Q636 925 620 909.5Q604 894 581 894Q558 894 542.5 909.5Q527 925 527 948ZM836 424Q789 347 753.5 290Q718 233 694.5 190Q671 147 660 116Q649 85 650 62Q651 54 655 45Q659 36 664.5 28Q670 20 676 14Q682 8 688 7Q700 10 727 28.5Q754 47 784.5 70.5Q815 94 844 117.5Q873 141 888 154L893 147Q878 134 849 108.5Q820 83 785.5 54.5Q751 26 717 0.5Q683 -25 659 -38Q656 -40 649.5 -40.5Q643 -41 636 -40.5Q629 -40 623.5 -39Q618 -38 616 -36Q600 -23 585.5 -2Q571 19 568 48Q566 82 579.5 119Q593 156 621 205Q586 166 538 121.5Q490 77 438.5 39.5Q387 2 338 -23Q289 -48 253 -48Q215 -48 182.5 -31Q150 -14 125.5 14.5Q101 43 86 81Q71 119 69 161Q67 203 80 244.5Q93 286 117.5 329.5Q142 373 175 418.5Q208 464 245 514Q279 559 307.5 597Q336 635 357 666.5Q378 698 389 723Q400 748 399 768Q397 783 390 796Q383 809 372 823Q360 820 331 802Q302 784 268.5 761Q235 738 204.5 715Q174 692 159 679L153 687Q167 699 198.5 724Q230 749 266.5 776Q303 803 338.5 827.5Q374 852 398 865Q402 867 408.5 867.5Q415 868 422 867Q429 866 434.5 864.5Q440 863 442 862Q457 849 464.5 827.5Q472 806 477 777Q480 754 467 724Q454 694 430 656.5Q406 619 372.5 574.5Q339 530 302 479Q267 432 237.5 389Q208 346 187 307Q166 268 155 233Q144 198 146 167Q148 138 158 107Q168 76 187.5 49.5Q207 23 236 6Q265 -11 305 -11Q324 -11 351.5 1.5Q379 14 410 34.5Q441 55 474 81Q507 107 537.5 134Q568 161 594 187.5Q620 214 638 234Q664 277 697.5 329.5Q731 382 773 451Q828 540 860.5 591.5Q893 643 910.5 674Q928 705 932.5 723.5Q937 742 936 766Q934 781 927 794Q920 807 908 821Q896 818 867 800Q838 782 805 759.5Q772 737 741.5 714.5Q711 692 696 679L690 687Q704 699 735.5 724Q767 749 803 776Q839 803 875 827.5Q911 852 934 865Q938 867 944.5 867.5Q951 868 958 867Q965 866 970.5 864.5Q976 863 978 862Q994 849 1001 827.5Q1008 806 1014 777Q1015 754 1008.5 730Q1002 706 982.5 668.5Q963 631 927.5 573Q892 515 836 424Z" glyph-name="Udieresis" horiz-adv-x="928" unicode="&#220;" /><glyph d="M707 886Q686 908 660 929.5Q634 951 610 969.5Q586 988 567.5 1001.5Q549 1015 544 1020Q539 1025 535 1029.5Q531 1034 531 1039Q531 1047 531.5 1052.5Q532 1058 534 1060Q536 1062 541.5 1062.5Q547 1063 554 1063Q562 1063 569 1062Q576 1061 580 1057Q584 1052 597.5 1033.5Q611 1015 629 990.5Q647 966 669 939.5Q691 913 712 893Q715 890 715 888Q715 884 711 884Q709 884 707 886ZM836 424Q789 347 753.5 290Q718 233 694.5 190Q671 147 660 116Q649 85 650 62Q651 54 655 45Q659 36 664.5 28Q670 20 676 14Q682 8 688 7Q700 10 727 28.5Q754 47 784.5 70.5Q815 94 844 117.5Q873 141 888 154L893 147Q878 134 849 108.5Q820 83 785.5 54.5Q751 26 717 0.5Q683 -25 659 -38Q656 -40 649.5 -40.5Q643 -41 636 -40.5Q629 -40 623.5 -39Q618 -38 616 -36Q600 -23 585.5 -2Q571 19 568 48Q566 82 579.5 119Q593 156 621 205Q586 166 538 121.5Q490 77 438.5 39.5Q387 2 338 -23Q289 -48 253 -48Q215 -48 182.5 -31Q150 -14 125.5 14.5Q101 43 86 81Q71 119 69 161Q67 203 80 244.5Q93 286 117.5 329.5Q142 373 175 418.5Q208 464 245 514Q279 559 307.5 597Q336 635 357 666.5Q378 698 389 723Q400 748 399 768Q397 783 390 796Q383 809 372 823Q360 820 331 802Q302 784 268.5 761Q235 738 204.5 715Q174 692 159 679L153 687Q167 699 198.5 724Q230 749 266.5 776Q303 803 338.5 827.5Q374 852 398 865Q402 867 408.5 867.5Q415 868 422 867Q429 866 434.5 864.5Q440 863 442 862Q457 849 464.5 827.5Q472 806 477 777Q480 754 467 724Q454 694 430 656.5Q406 619 372.5 574.5Q339 530 302 479Q267 432 237.5 389Q208 346 187 307Q166 268 155 233Q144 198 146 167Q148 138 158 107Q168 76 187.5 49.5Q207 23 236 6Q265 -11 305 -11Q324 -11 351.5 1.5Q379 14 410 34.5Q441 55 474 81Q507 107 537.5 134Q568 161 594 187.5Q620 214 638 234Q664 277 697.5 329.5Q731 382 773 451Q828 540 860.5 591.5Q893 643 910.5 674Q928 705 932.5 723.5Q937 742 936 766Q934 781 927 794Q920 807 908 821Q896 818 867 800Q838 782 805 759.5Q772 737 741.5 714.5Q711 692 696 679L690 687Q704 699 735.5 724Q767 749 803 776Q839 803 875 827.5Q911 852 934 865Q938 867 944.5 867.5Q951 868 958 867Q965 866 970.5 864.5Q976 863 978 862Q994 849 1001 827.5Q1008 806 1014 777Q1015 754 1008.5 730Q1002 706 982.5 668.5Q963 631 927.5 573Q892 515 836 424Z" glyph-name="Ugrave" horiz-adv-x="928" unicode="&#217;" /><glyph d="M599 886Q599 884 595 884Q591 884 589 888Q589 891 591 893Q607 912 622.5 938Q638 964 650 987.5Q662 1011 670.5 1029Q679 1047 683 1051Q686 1056 693 1057Q700 1058 706 1058Q721 1058 727 1055Q731 1051 731 1035Q731 1030 728 1025.5Q725 1021 721 1016Q717 1011 703 998Q689 985 670.5 967Q652 949 633 928Q614 907 599 886ZM722 886Q720 884 717 884Q714 884 712 888Q712 890 715 893Q735 912 754.5 938Q774 964 790.5 987.5Q807 1011 818.5 1029Q830 1047 834 1051Q837 1056 844 1057Q851 1058 859 1058Q865 1058 871 1057.5Q877 1057 879 1055Q882 1051 882 1035Q882 1026 870 1016Q865 1011 848.5 998Q832 985 810 967Q788 949 764.5 928Q741 907 722 886ZM836 424Q789 347 753.5 290Q718 233 694.5 190Q671 147 660 116Q649 85 650 62Q651 54 655 45Q659 36 664.5 28Q670 20 676 14Q682 8 688 7Q700 10 727 28.5Q754 47 784.5 70.5Q815 94 844 117.5Q873 141 888 154L893 147Q878 134 849 108.5Q820 83 785.5 54.5Q751 26 717 0.5Q683 -25 659 -38Q656 -40 649.5 -40.5Q643 -41 636 -40.5Q629 -40 623.5 -39Q618 -38 616 -36Q600 -23 585.5 -2Q571 19 568 48Q566 82 579.5 119Q593 156 621 205Q586 166 538 121.5Q490 77 438.5 39.5Q387 2 338 -23Q289 -48 253 -48Q215 -48 182.5 -31Q150 -14 125.5 14.5Q101 43 86 81Q71 119 69 161Q67 203 80 244.5Q93 286 117.5 329.5Q142 373 175 418.5Q208 464 245 514Q279 559 307.5 597Q336 635 357 666.5Q378 698 389 723Q400 748 399 768Q397 783 390 796Q383 809 372 823Q360 820 331 802Q302 784 268.5 761Q235 738 204.5 715Q174 692 159 679L153 687Q167 699 198.5 724Q230 749 266.5 776Q303 803 338.5 827.5Q374 852 398 865Q402 867 408.5 867.5Q415 868 422 867Q429 866 434.5 864.5Q440 863 442 862Q457 849 464.5 827.5Q472 806 477 777Q480 754 467 724Q454 694 430 656.5Q406 619 372.5 574.5Q339 530 302 479Q267 432 237.5 389Q208 346 187 307Q166 268 155 233Q144 198 146 167Q148 138 158 107Q168 76 187.5 49.5Q207 23 236 6Q265 -11 305 -11Q324 -11 351.5 1.5Q379 14 410 34.5Q441 55 474 81Q507 107 537.5 134Q568 161 594 187.5Q620 214 638 234Q664 277 697.5 329.5Q731 382 773 451Q828 540 860.5 591.5Q893 643 910.5 674Q928 705 932.5 723.5Q937 742 936 766Q934 781 927 794Q920 807 908 821Q896 818 867 800Q838 782 805 759.5Q772 737 741.5 714.5Q711 692 696 679L690 687Q704 699 735.5 724Q767 749 803 776Q839 803 875 827.5Q911 852 934 865Q938 867 944.5 867.5Q951 868 958 867Q965 866 970.5 864.5Q976 863 978 862Q994 849 1001 827.5Q1008 806 1014 777Q1015 754 1008.5 730Q1002 706 982.5 668.5Q963 631 927.5 573Q892 515 836 424Z" glyph-name="Uhungarumlaut" horiz-adv-x="928" unicode="&#368;" /></font>
</defs>
</svg>
