<?xml version="1.0" encoding="utf-8"?>
<!-- Generator: Adobe Illustrator 19.0.0, SVG Export Plug-In . SVG Version: 6.00 Build 0)  -->
<!DOCTYPE svg PUBLIC "-//W3C//DTD SVG 1.1//EN" "http://www.w3.org/Graphics/SVG/1.1/DTD/svg11.dtd">
<svg version="1.1" id="Layer_1" xmlns="http://www.w3.org/2000/svg" xmlns:xlink="http://www.w3.org/1999/xlink" x="0px" y="0px"
	 viewBox="-739 996.3 56.7 56.7" style="enable-background:new -739 996.3 56.7 56.7;" xml:space="preserve">
<path d="M-686.6,1020.5c-0.3-1.6-0.8-3.2-1.4-4.6c-0.6-1.5-1.4-2.9-2.3-4.2c-0.9-1.3-1.9-2.5-3-3.7c-1.1-1.1-2.3-2.1-3.7-3
	c-1.3-0.9-2.7-1.7-4.2-2.3c-1.5-0.6-3.1-1.1-4.6-1.4c-1.6-0.3-3.3-0.5-5-0.5c-1.7,0-3.3,0.2-5,0.5c-1.6,0.3-3.2,0.8-4.6,1.4
	c-1.5,0.6-2.9,1.4-4.2,2.3c-1.3,0.9-2.5,1.9-3.7,3c-1.1,1.1-2.1,2.3-3,3.7c-0.9,1.3-1.7,2.7-2.3,4.2c-0.6,1.5-1.1,3.1-1.4,4.6
	c-0.3,1.6-0.5,3.3-0.5,5c0,1.7,0.2,3.4,0.5,5c0.3,1.6,0.8,3.2,1.4,4.6c0.6,1.5,1.4,2.9,2.3,4.2c0.9,1.3,1.9,2.5,3,3.7
	c1.1,1.1,2.3,2.1,3.7,3c1.3,0.9,2.7,1.7,4.2,2.3c1.5,0.6,3.1,1.1,4.6,1.4c1.6,0.3,3.3,0.5,5,0.5c1.7,0,3.3-0.2,5-0.5
	c1.6-0.3,3.2-0.8,4.6-1.4c1.5-0.6,2.9-1.4,4.2-2.3c1.3-0.9,2.5-1.9,3.7-3c1.1-1.1,2.1-2.3,3-3.7c0.9-1.3,1.7-2.7,2.3-4.2
	c0.6-1.5,1.1-3.1,1.4-4.6c0.3-1.6,0.5-3.3,0.5-5C-686.1,1023.8-686.2,1022.1-686.6,1020.5z M-689.7,1025.2
	c-0.3-0.1-7.4-1.6-14.7-0.7c-0.1-0.4-0.3-0.7-0.5-1.1c-0.4-1-0.9-2.1-1.4-3.1c8.3-3.4,11.7-8.3,11.8-8.4
	C-691.5,1015.6-689.7,1020.2-689.7,1025.2z M-696.8,1009.6c-0.1,0.1-3.1,4.7-11,7.6c-3.6-6.6-7.6-11.9-7.9-12.3
	c1.6-0.4,3.3-0.6,5-0.6C-705.4,1004.3-700.6,1006.3-696.8,1009.6z M-715.8,1004.9C-715.8,1004.9-715.8,1004.9-715.8,1004.9
	C-715.8,1004.9-715.9,1004.9-715.8,1004.9C-715.9,1005-715.9,1004.9-715.8,1004.9z M-719.8,1006.3c0.3,0.4,4.2,5.7,7.8,12.2
	c-10.1,2.7-18.9,2.6-19.5,2.6C-730.1,1014.5-725.7,1009.1-719.8,1006.3z M-731.9,1025.4c0-0.2,0-0.4,0-0.7c0.4,0,10.8,0.2,21.7-3
	c0.6,1.2,1.2,2.4,1.7,3.6c-0.3,0.1-0.6,0.2-0.8,0.3c-11.4,3.7-17.2,13.9-17.2,13.9s0,0,0,0C-729.9,1035.8-731.9,1030.9-731.9,1025.4
	z M-710.8,1046.5c-5.1,0-9.8-1.8-13.4-4.8c0.3,0.2,0.5,0.4,0.5,0.4s4-8.8,16.6-13.2c0,0,0.1,0,0.1,0c3,7.7,4.2,14.2,4.5,16
	C-705.1,1046-707.9,1046.5-710.8,1046.5z M-699,1042.9c-0.2-1.3-1.3-7.5-4.1-15.1c6.8-1.1,12.7,0.8,13.2,0.9
	C-690.9,1034.7-694.2,1039.7-699,1042.9z"/>
</svg>
