<?xml version="1.0" encoding="utf-8"?>
<!-- Generator: Adobe Illustrator 19.0.0, SVG Export Plug-In . SVG Version: 6.00 Build 0)  -->
<!DOCTYPE svg PUBLIC "-//W3C//DTD SVG 1.1//EN" "http://www.w3.org/Graphics/SVG/1.1/DTD/svg11.dtd">
<svg version="1.1" id="Layer_1" xmlns:sketch="http://www.bohemiancoding.com/sketch/ns"
	 xmlns="http://www.w3.org/2000/svg" xmlns:xlink="http://www.w3.org/1999/xlink" x="0px" y="0px" viewBox="-737 995 60 60"
	 style="enable-background:new -737 995 60 60;" xml:space="preserve">
<title></title>
<desc></desc>
<g id="black">
	<g id="slice" transform="translate(-900.000000, -500.000000)">
	</g>
	<g id="github" transform="translate(11.000000, 11.000000)">
		<path d="M-724.4,1039.1c0-0.6,0-2.4,0-4.6c-7.4,1.7-9-3.7-9-3.7c-1.2-3.2-3-4-3-4c-2.4-1.7,0.2-1.7,0.2-1.7
			c2.7,0.2,4.1,2.8,4.1,2.8c2.4,4.2,6.2,3,7.8,2.3c0.2-1.8,0.9-3,1.7-3.7c-5.9-0.7-12.1-3-12.1-13.5c0-3,1-5.4,2.7-7.3
			c-0.3-0.7-1.2-3.5,0.3-7.2c0,0,2.2-0.7,7.3,2.8c2.1-0.6,4.4-0.9,6.7-0.9c2.3,0,4.5,0.3,6.7,0.9c5.1-3.5,7.3-2.8,7.3-2.8
			c1.5,3.8,0.5,6.5,0.3,7.2c1.7,1.9,2.7,4.3,2.7,7.3c0,10.5-6.2,12.8-12.2,13.5c1,0.8,1.8,2.5,1.8,5.1c0,3.7,0,6.6,0,7.5
			c0,0.7,0.5,1.6,1.8,1.3c10.6-3.6,18.2-13.9,18.2-25.9c0-15.1-11.9-27.3-26.6-27.3c-14.7,0-26.6,12.2-26.6,27.3
			c0,12.1,7.6,22.3,18.2,25.9C-724.9,1040.6-724.4,1039.8-724.4,1039.1z"/>
	</g>
</g>
</svg>
