<?xml version="1.0" encoding="utf-8"?>
<!-- Generator: Adobe Illustrator 19.0.0, SVG Export Plug-In . SVG Version: 6.00 Build 0)  -->
<!DOCTYPE svg PUBLIC "-//W3C//DTD SVG 1.1//EN" "http://www.w3.org/Graphics/SVG/1.1/DTD/svg11.dtd">
<svg version="1.1" id="Layer_1" xmlns="http://www.w3.org/2000/svg" xmlns:xlink="http://www.w3.org/1999/xlink" x="0px" y="0px"
	 viewBox="-751 1009 32 32" style="enable-background:new -751 1009 32 32;" xml:space="preserve">
<g id="Flat_copy">
	<path d="M-726.4,1013.5h-17.2c-1.7,0-2.9,1.2-2.9,2.9v17.2c0,1.7,1.2,2.9,2.9,2.9h17.2c1.7,0,2.9-1.2,2.9-2.9v-17.2
		C-723.5,1014.7-724.7,1013.5-726.4,1013.5z M-735,1020.5c2.5,0,4.6,2,4.6,4.4s-2.1,4.4-4.6,4.4s-4.6-2-4.6-4.4
		S-737.5,1020.5-735,1020.5z M-726.4,1032.9c0,0.5-0.2,0.7-0.7,0.7h-15.8c-0.5,0-0.7-0.2-0.7-0.7v-10l1.8,0.4
		c-0.2,0.6-0.3,1.3-0.3,1.9c0,3.8,3.2,6.9,7.1,6.9c3.9,0,7.1-3.1,7.1-6.9c0-0.7-0.1-1.4-0.3-1.9l1.7-0.4L-726.4,1032.9
		L-726.4,1032.9z M-726.4,1020c0,0.4-0.3,0.7-0.7,0.7h-2.9c-0.4,0-0.7-0.3-0.7-0.7v-2.9c0-0.4,0.3-0.7,0.7-0.7h2.9
		c0.4,0,0.7,0.3,0.7,0.7V1020z"/>
</g>
</svg>
