<svg id="Layer_1" data-name="Layer 1" xmlns="http://www.w3.org/2000/svg" viewBox="0 0 218 265.33"><title>mailchimp</title><path d="M147.61,98.76a15.65,15.65,0,0,1,3.93,0c.71-1.61.83-4.4.19-7.44-.94-4.51-2.22-7.24-4.85-6.82s-2.74,3.7-1.8,8.21A15.22,15.22,0,0,0,147.61,98.76Z"/><path d="M125,102.33c1.89.83,3.05,1.38,3.5.9.29-.3.21-.87-.24-1.6a11.07,11.07,0,0,0-4.88-3.93,13.3,13.3,0,0,0-12.94,1.55c-1.26.93-2.46,2.21-2.29,3,.06.25.25.44.69.5,1,.12,4.68-1.72,8.87-2A15.5,15.5,0,0,1,125,102.33Z"/><path d="M121.18,104.5a9,9,0,0,0-4.69,2,3,3,0,0,0-1.19,1.87.58.58,0,0,0,.18.45.61.61,0,0,0,.41.15,7.69,7.69,0,0,0,1.8-.49,15.65,15.65,0,0,1,7.91-.83c1.23.14,1.82.22,2.09-.2a.7.7,0,0,0-.07-.79C127,105.68,124.56,104.1,121.18,104.5Z"/><path d="M140,112.45c1.67.82,3.5.5,4.1-.72s-.27-2.87-1.94-3.69-3.5-.49-4.1.72S138.3,111.63,140,112.45Z"/><path d="M150.69,103.08c-1.35,0-2.48,1.46-2.51,3.32s1,3.39,2.4,3.41,2.48-1.47,2.51-3.33S152.05,103.1,150.69,103.08Z"/><path d="M59.64,136.6c-.33-.43-.89-.3-1.42-.17a5.42,5.42,0,0,1-1.27.17,2.71,2.71,0,0,1-2.31-1.17c-.62-1-.58-2.36.1-4,.09-.22.2-.46.32-.73,1.08-2.43,2.9-6.52.86-10.41a9.24,9.24,0,0,0-7.06-5.13,9.09,9.09,0,0,0-7.78,2.8c-3,3.31-3.46,7.81-2.88,9.4.21.59.54.75.78.78.51.07,1.27-.3,1.74-1.57,0-.1.08-.24.14-.42a12.47,12.47,0,0,1,1.24-2.92,5.3,5.3,0,0,1,3.4-2.35,5.48,5.48,0,0,1,4.15.77,5.32,5.32,0,0,1,2,6.41,14.93,14.93,0,0,0-1,5.69c.34,4,2.82,5.66,5,5.84a4.32,4.32,0,0,0,4.07-2A.84.84,0,0,0,59.64,136.6Z"/><path d="M184.9,129.21c-.08-.29-.62-2.26-1.36-4.63a37,37,0,0,0-1.51-4,14.64,14.64,0,0,0,2.63-10.66,13.49,13.49,0,0,0-3.92-7.62c-2.34-2.46-7.13-5-13.85-6.86l-3.53-1c0-.14-.18-8.31-.34-11.82a40.76,40.76,0,0,0-1.55-10.4c-1.47-5.27-4-9.89-7.2-12.85,8.78-9.1,14.27-19.14,14.25-27.74,0-16.55-20.35-21.56-45.4-11.19l-5.3,2.25-9.74-9.54C79.52-11.78-9.78,87.48,18.77,111.58L25,116.87A30.62,30.62,0,0,0,23.28,131a27.88,27.88,0,0,0,9.63,17.91c5.27,4.66,12.19,7.61,18.91,7.61,11.11,25.6,36.49,41.31,66.26,42.19,31.92.95,58.72-14,70-40.94.74-1.89,3.85-10.4,3.85-17.91S187.62,129.21,184.9,129.21ZM54.27,149.36a16.14,16.14,0,0,1-3,.21c-9.65-.26-20.06-8.94-21.1-19.24-1.14-11.38,4.67-20.14,15-22.21a17.55,17.55,0,0,1,4.32-.31c5.77.31,14.27,4.74,16.21,17.31C67.44,136.25,64.71,147.58,54.27,149.36ZM43.5,101.31A24.56,24.56,0,0,0,28,111.2c-2.06-1.72-5.91-5-6.59-6.35-5.51-10.47,6-30.83,14.08-42.33,19.91-28.41,51.09-49.91,65.53-46,2.34.66,10.12,9.67,10.12,9.67A203.92,203.92,0,0,0,83.31,45.35C65.28,59.23,51.66,79.41,43.5,101.31ZM144.72,145.1a.56.56,0,0,0,.33-.56.53.53,0,0,0-.58-.48s-15.11,2.24-29.38-3c1.56-5,5.69-3.22,11.94-2.72a87.33,87.33,0,0,0,28.81-3.11,66.2,66.2,0,0,0,21.54-10.72,43.72,43.72,0,0,1,3,10.26,5,5,0,0,1,3.16.58c1.36.84,2.36,2.57,1.67,7.07a39.1,39.1,0,0,1-10.95,21.49,45.22,45.22,0,0,1-13.16,9.83,55.47,55.47,0,0,1-8.6,3.63c-22.62,7.39-45.77-.73-53.24-18.17a28,28,0,0,1-1.49-4.12c-3.18-11.5-.48-25.29,8-34h0a3.06,3.06,0,0,0,1.05-2,3.6,3.6,0,0,0-.81-1.92c-3-4.29-13.19-11.59-11.13-25.71,1.47-10.15,10.35-17.3,18.62-16.87.7,0,1.4.08,2.1.12,3.58.21,6.71.67,9.66.79a19.29,19.29,0,0,0,14.65-4.89c1.77-1.47,3.19-2.76,5.6-3.17a7.15,7.15,0,0,1,2.14-.2,7,7,0,0,1,3.61,1.15c4.22,2.81,4.82,9.6,5,14.58.12,2.84.46,9.7.58,11.68.27,4.5,1.45,5.14,3.85,5.93,1.35.44,2.6.77,4.45,1.29,5.58,1.57,8.89,3.16,11,5.2a7,7,0,0,1,2,3.93c.66,4.8-3.73,10.74-15.34,16.13-12.7,5.89-28.1,7.38-38.75,6.2l-3.73-.42c-8.51-1.15-13.36,9.85-8.26,17.39,3.3,4.86,12.27,8,21.24,8,20.57,0,36.39-8.78,42.27-16.37a7.89,7.89,0,0,0,.47-.67c.29-.44.05-.68-.31-.43-4.8,3.29-26.15,16.34-49,12.42a30.34,30.34,0,0,1-5.3-1.45c-2-.78-6.23-2.72-6.74-7C133.12,150.49,144.72,145.1,144.72,145.1Zm-29.19-3.44ZM80.28,62.41c7.07-8.18,15.79-15.29,23.59-19.29a.31.31,0,0,1,.41.43,22.74,22.74,0,0,0-2.19,5.34.32.32,0,0,0,.49.34c4.86-3.31,13.31-6.86,20.72-7.31a.33.33,0,0,1,.22.58,17.41,17.41,0,0,0-3.26,3.27.31.31,0,0,0,.24.5,40.63,40.63,0,0,1,17.32,4.54c.33.18.1.81-.27.73a70.44,70.44,0,0,0-31.37.08c-11,2.68-19.36,6.81-25.47,11.26A.32.32,0,0,1,80.28,62.41Z"/><path d="M177.06,227.79c-3.57,0-5.34,2.81-6.15,4.62-.45,1-.64,2.21-1,2.21-.52,0-.08-1.09-.51-2.63a5.58,5.58,0,0,0-5.8-4.2c-3.75,0-5.36,3.17-6.12,4.91-.52,1.19-.59,1.92-1,1.92-.58,0,0-1.34.23-2.45a9.31,9.31,0,0,0,.12-3.86h-5.94v22.36H159V239.54c0-2.19.92-5,2.49-5,1.82,0,2.19,1.4,2.19,4v12.13h8.15V239.54c0-1.95.79-5,2.5-5s2.17,2,2.17,4v12.13h8V237.52C184.5,231.68,182.45,227.79,177.06,227.79Z"/><path d="M36.18,227.79c-3.58,0-5.34,2.81-6.15,4.62-.46,1-.65,2.21-1,2.21s-.08-1.09-.5-2.63a5.6,5.6,0,0,0-5.81-4.2c-3.75,0-5.35,3.17-6.12,4.91-.52,1.19-.58,1.92-1,1.92-.58,0,0-1.34.22-2.45a9.22,9.22,0,0,0,.13-3.86H10v22.36h8.12V239.54c0-2.19.92-5,2.49-5,1.82,0,2.18,1.4,2.18,4v12.13h8.15V239.54c0-1.95.8-5,2.51-5s2.17,2,2.17,4v12.13h8V237.52C43.62,231.68,41.56,227.79,36.18,227.79Z"/><path d="M57.92,227.8a25.62,25.62,0,0,0-10.68,2.28v6.72S52.17,234,56.17,234c3.19,0,3.58,1.72,3.43,3.15a16.84,16.84,0,0,0-3.72-.25c-6.62,0-10,3-10,7.83,0,4.58,3.75,6.49,6.92,6.49a7.6,7.6,0,0,0,7.26-4.57c.44-1,.51-1.71.9-1.71s.3.49.28,1.51a16.33,16.33,0,0,0,.32,4.25h6.12v-11C67.72,232.8,65.29,227.8,57.92,227.8Zm-2,17.64c-1.94.45-3-.15-3-1.43,0-1.77,1.82-2.47,4.42-2.47,1.15,0,2.23.1,2.23.1A5.77,5.77,0,0,1,56,245.44Z"/><rect x="81.98" y="221.54" width="8.12" height="29.14"/><path d="M99.48,239.49c0-2,1.86-3.65,5.29-3.65a15.39,15.39,0,0,1,7.42,2v-7.78s-2.37-2.28-8.21-2.28c-6.15,0-11.28,3.6-11.28,11.34s4.65,12.05,11.26,12.05a12.82,12.82,0,0,0,8.24-2.84v-7.58a14.28,14.28,0,0,1-7.39,2.39C100.89,243.16,99.48,241.59,99.48,239.49Z"/><path d="M129.08,227.8c-4.7,0-6.49,4.45-6.85,5.22s-.66,1.6-1,1.6,0-1.34.23-1.94a26.26,26.26,0,0,0,1.18-7.81,10.23,10.23,0,0,0-.34-3.33h-7v29.13h8.12V239.55c0-1.82.72-5,2.77-5,1.69,0,2.22,1.25,2.22,3.78v12.32h8.12V238.84C136.5,233.1,135.55,227.8,129.08,227.8Z"/><path d="M139.58,228.34v22.33h8.12V228.34a8.69,8.69,0,0,1-4,.79A8.78,8.78,0,0,1,139.58,228.34Z"/><ellipse cx="143.62" cy="223.4" rx="4.97" ry="3.24"/><path d="M70.79,228.34v22.33h8.12V228.34a8.64,8.64,0,0,1-4,.79A8.78,8.78,0,0,1,70.79,228.34Z"/><ellipse cx="74.83" cy="223.4" rx="4.97" ry="3.24"/><path d="M201.08,227.79c-4.18,0-6.09,3.13-6.92,4.91-.55,1.18-.62,1.93-1,1.93-.58,0,0-1.35.26-2.46a9.31,9.31,0,0,0,.12-3.86h-6v28.54h8.12V247.8a6.35,6.35,0,0,0,5.49,3.37c5.87,0,8.82-5,8.82-11.68C210,231.88,206.46,227.79,201.08,227.79Zm-2.23,18.08c-1.86,0-3.23-2.36-3.23-5.65s1.4-5.65,3.16-5.65c2.26,0,3.23,2.07,3.23,5.65S201.12,245.87,198.85,245.87Z"/></svg>