<?xml version="1.0" encoding="utf-8"?>
<!-- Generator: Adobe Illustrator 19.0.0, SVG Export Plug-In . SVG Version: 6.00 Build 0)  -->
<!DOCTYPE svg PUBLIC "-//W3C//DTD SVG 1.1//EN" "http://www.w3.org/Graphics/SVG/1.1/DTD/svg11.dtd">
<svg version="1.1" id="Layer_1" xmlns="http://www.w3.org/2000/svg" xmlns:xlink="http://www.w3.org/1999/xlink" x="0px" y="0px"
	 viewBox="-739 996.3 56.7 56.7" style="enable-background:new -739 996.3 56.7 56.7;" xml:space="preserve">
<g>
	<path d="M-701,1038.5l14.9,7.5c0,0,0.1,0,0.1,0c0,0,0,0,0-0.1V1014L-701,1038.5z"/>
	<polygon points="-701.9,1003.3 -712.5,1020.5 -702.3,1037 -686.3,1011.1 	"/>
	<polygon points="-718.7,1029.6 -704.8,1036.5 -718.7,1014 	"/>
	<path d="M-736,1037.8c0,0.2,0.2,0.6,0.4,0.7l14.9,7.5c0,0,0.1,0,0.1,0c0,0,0,0,0-0.1v-34.6l-15.4-7.7L-736,1037.8z"/>
</g>
</svg>
