<?xml version="1.0" encoding="utf-8"?>
<!-- Generator: Adobe Illustrator 19.0.0, SVG Export Plug-In . SVG Version: 6.00 Build 0)  -->
<!DOCTYPE svg PUBLIC "-//W3C//DTD SVG 1.1//EN" "http://www.w3.org/Graphics/SVG/1.1/DTD/svg11.dtd">
<svg version="1.1" id="Layer_1" xmlns="http://www.w3.org/2000/svg" xmlns:xlink="http://www.w3.org/1999/xlink" x="0px" y="0px"
	 viewBox="-739 996.3 56.7 56.7" style="enable-background:new -739 996.3 56.7 56.7;" xml:space="preserve">
<style type="text/css">
	.st0{fill:#FFFFFF;}
</style>
<g>
	<path class="st0" d="M-708.9,1023.4L-708.9,1023.4C-708.9,1023.4-709,1023.4-708.9,1023.4L-708.9,1023.4z"/>
	<path class="st0" d="M-689.7,1001h-42.1c-2,0-3.7,1.6-3.7,3.6v42.6c0,2,1.6,3.6,3.7,3.6h42.1c2,0,3.7-1.6,3.7-3.6v-42.6
		C-686.1,1002.6-687.7,1001-689.7,1001z M-720.5,1042.6h-7.5v-22.5h7.5V1042.6z M-724.3,1017.1L-724.3,1017.1
		c-2.6,0-4.2-1.7-4.2-3.9c0-2.2,1.7-3.9,4.2-3.9c2.6,0,4.1,1.7,4.2,3.9C-720,1015.4-721.7,1017.1-724.3,1017.1z M-693.6,1042.6h-7.5
		v-12c0-3-1.1-5.1-3.8-5.1c-2.1,0-3.3,1.4-3.8,2.7c-0.2,0.5-0.2,1.1-0.2,1.8v12.5h-7.5c0,0,0.1-20.4,0-22.5h7.5v3.2
		c1-1.5,2.8-3.7,6.7-3.7c4.9,0,8.6,3.2,8.6,10.1L-693.6,1042.6L-693.6,1042.6z"/>
</g>
</svg>
