<?xml version="1.0" encoding="utf-8"?>
<!-- Generator: Adobe Illustrator 19.0.0, SVG Export Plug-In . SVG Version: 6.00 Build 0)  -->
<!DOCTYPE svg PUBLIC "-//W3C//DTD SVG 1.1//EN" "http://www.w3.org/Graphics/SVG/1.1/DTD/svg11.dtd">
<svg version="1.1" id="Layer_1" xmlns="http://www.w3.org/2000/svg" xmlns:xlink="http://www.w3.org/1999/xlink" x="0px" y="0px"
	 viewBox="-751 1009 76.9 76.9" style="enable-background:new -751 1009 76.9 76.9;" xml:space="preserve">
<style type="text/css">
	.st0{fill:#FFFFFF;}
</style>
<g>
	<path class="st0" d="M-711.1,1047.6c0.3-0.1,0.5-0.2,0.8-0.2c-0.5-1.2-1.1-2.4-1.7-3.5c-10.6,3.2-20.9,3-21.2,2.9
		c0,0.2,0,0.4,0,0.7c0,5.3,2,10.2,5.3,13.8C-727.9,1061.2-722.3,1051.2-711.1,1047.6z"/>
	<path class="st0" d="M-713.7,1040.7c-3.6-6.4-7.4-11.5-7.7-11.9c-5.8,2.7-10.1,8-11.4,14.4
		C-732.2,1043.2-723.6,1043.3-713.7,1040.7z"/>
	<path class="st0" d="M-709,1050.8c-12.2,4.2-16.2,12.8-16.2,12.9c3.5,2.7,7.9,4.4,12.7,4.4c2.9,0,5.6-0.6,8.1-1.6
		c-0.3-1.8-1.5-8.1-4.4-15.7C-709,1050.8-709,1050.8-709,1050.8z"/>
	<path class="st0" d="M-698.9,1031.9c-3.6-3.2-8.4-5.2-13.6-5.2c-1.7,0-3.3,0.2-4.9,0.6c0.3,0.4,4.2,5.6,7.7,12.1
		C-701.9,1036.5-699,1032-698.9,1031.9z"/>
	<path class="st0" d="M-712.6,1009c-21.2,0-38.4,17.2-38.4,38.4c0,21.2,17.2,38.4,38.4,38.4s38.4-17.2,38.4-38.4
		C-674.1,1026.2-691.3,1009-712.6,1009z M-688.9,1052.3c-0.3,1.6-0.8,3.1-1.4,4.5c-0.6,1.4-1.4,2.8-2.2,4.1c-0.9,1.3-1.9,2.5-3,3.6
		c-1.1,1.1-2.3,2.1-3.6,3c-1.3,0.9-2.7,1.6-4.1,2.2c-1.5,0.6-3,1.1-4.5,1.4c-1.6,0.3-3.2,0.5-4.9,0.5c-1.6,0-3.3-0.2-4.9-0.5
		c-1.6-0.3-3.1-0.8-4.5-1.4c-1.4-0.6-2.8-1.4-4.1-2.2c-1.3-0.9-2.5-1.9-3.6-3c-1.1-1.1-2.1-2.3-3-3.6c-0.9-1.3-1.6-2.7-2.2-4.1
		c-0.6-1.5-1.1-3-1.4-4.5c-0.3-1.6-0.5-3.2-0.5-4.9c0-1.6,0.2-3.3,0.5-4.9c0.3-1.6,0.8-3.1,1.4-4.5c0.6-1.4,1.4-2.8,2.2-4.1
		c0.9-1.3,1.9-2.5,3-3.6c1.1-1.1,2.3-2.1,3.6-2.9c1.3-0.9,2.7-1.6,4.1-2.2c1.5-0.6,3-1.1,4.5-1.4c1.6-0.3,3.2-0.5,4.9-0.5
		c1.6,0,3.3,0.2,4.9,0.5c1.6,0.3,3.1,0.8,4.5,1.4c1.4,0.6,2.8,1.4,4.1,2.2c1.3,0.9,2.5,1.9,3.6,2.9c1.1,1.1,2.1,2.3,3,3.6
		c0.9,1.3,1.6,2.7,2.2,4.1c0.6,1.5,1.1,3,1.4,4.5c0.3,1.6,0.5,3.2,0.5,4.9C-688.4,1049.1-688.5,1050.7-688.9,1052.3z"/>
	<path class="st0" d="M-708.1,1042.5c0.5,1,0.9,2,1.4,3c0.2,0.4,0.3,0.7,0.4,1.1c7.1-0.9,14.1,0.6,14.4,0.7c0-4.9-1.8-9.4-4.7-12.9
		C-696.6,1034.4-700,1039.1-708.1,1042.5z"/>
	<path class="st0" d="M-705,1049.8c2.7,7.4,3.8,13.5,4,14.8c4.6-3.1,7.9-8.1,8.9-13.9C-692.6,1050.6-698.4,1048.7-705,1049.8z"/>
</g>
</svg>
