<?xml version="1.0" encoding="utf-8"?>
<!-- Generator: Adobe Illustrator 19.0.0, SVG Export Plug-In . SVG Version: 6.00 Build 0)  -->
<!DOCTYPE svg PUBLIC "-//W3C//DTD SVG 1.1//EN" "http://www.w3.org/Graphics/SVG/1.1/DTD/svg11.dtd">
<svg version="1.1" id="Layer_1" xmlns="http://www.w3.org/2000/svg" xmlns:xlink="http://www.w3.org/1999/xlink" x="0px" y="0px"
	 viewBox="-739 996.3 56.7 56.7" style="enable-background:new -739 996.3 56.7 56.7;" xml:space="preserve">
<style type="text/css">
	.st0{fill:#FFFFFF;}
</style>
<path class="st0" d="M-710.4,1000.5c-13.6,0-24.6,11-24.6,24.6c0,13.6,11,24.6,24.6,24.6c13.6,0,24.6-11,24.6-24.6
	S-696.8,1000.5-710.4,1000.5z M-715.9,1036.8C-715.9,1036.9-715.9,1036.9-715.9,1036.8C-715.9,1036.9-716,1036.9-715.9,1036.8
	l-8.6-4.2c-0.1-0.1-0.3-0.3-0.3-0.4l0-19.5l8.8,4.4V1036.8z M-714.9,1027.5v-8.9l7.9,12.8L-714.9,1027.5z M-711.3,1022.3l6.1-9.8
	l8.9,4.4l-9.1,14.8L-711.3,1022.3z M-696.1,1036.8C-696.1,1036.8-696.1,1036.9-696.1,1036.8
	C-696.2,1036.9-696.2,1036.9-696.1,1036.8l-8.6-4.2l8.6-13.9V1036.8z"/>
</svg>
