<?xml version="1.0" encoding="utf-8"?>
<!-- Generator: Adobe Illustrator 19.0.0, SVG Export Plug-In . SVG Version: 6.00 Build 0)  -->
<!DOCTYPE svg PUBLIC "-//W3C//DTD SVG 1.1//EN" "http://www.w3.org/Graphics/SVG/1.1/DTD/svg11.dtd">
<svg version="1.1" id="Layer_1" xmlns="http://www.w3.org/2000/svg" xmlns:xlink="http://www.w3.org/1999/xlink" x="0px" y="0px"
	 viewBox="-739 996.3 56.7 56.7" style="enable-background:new -739 996.3 56.7 56.7;" xml:space="preserve">
<style type="text/css">
	.st0{fill:#FFFFFF;}
</style>
<g>
	<polygon class="st0" points="-700.5,1020.7 -700.5,1016.8 -700.5,1016.2 -701.1,1016.2 -705,1016.2 -705,1020.7 	"/>
	<path class="st0" d="M-710.8,1031.2c2.6,0,4.7-2.1,4.7-4.7c0-1-0.3-2-0.9-2.7c-0.9-1.2-2.2-2-3.8-2c-1.6,0-3,0.8-3.8,2
		c-0.6,0.8-0.9,1.7-0.9,2.7C-715.5,1029.1-713.4,1031.2-710.8,1031.2z"/>
	<path class="st0" d="M-710.7,1001.5c-13.6,0-24.6,11-24.6,24.6s11,24.6,24.6,24.6c13.6,0,24.6-11,24.6-24.6
		S-697.1,1001.5-710.7,1001.5z M-697.4,1023.7v11c0,2.9-2.3,5.2-5.2,5.2H-719c-2.9,0-5.2-2.3-5.2-5.2v-11v-5.5
		c0-2.9,2.3-5.2,5.2-5.2h16.4c2.9,0,5.2,2.3,5.2,5.2C-697.4,1018.3-697.4,1023.7-697.4,1023.7z"/>
	<path class="st0" d="M-703.5,1026.5c0,4-3.3,7.3-7.3,7.3c-4,0-7.3-3.3-7.3-7.3c0-1,0.2-1.9,0.5-2.7h-4v11c0,1.4,1.2,2.6,2.6,2.6
		h16.4c1.4,0,2.6-1.1,2.6-2.6v-11h-4C-703.7,1024.6-703.5,1025.5-703.5,1026.5z"/>
</g>
</svg>
