<?xml version="1.0" encoding="utf-8"?>
<!-- Generator: Adobe Illustrator 19.0.0, SVG Export Plug-In . SVG Version: 6.00 Build 0)  -->
<!DOCTYPE svg PUBLIC "-//W3C//DTD SVG 1.1//EN" "http://www.w3.org/Graphics/SVG/1.1/DTD/svg11.dtd">
<svg version="1.1" id="Layer_1" xmlns="http://www.w3.org/2000/svg" xmlns:xlink="http://www.w3.org/1999/xlink" x="0px" y="0px"
	 viewBox="0 0 1500 2004.4" style="enable-background:new 0 0 1500 2004.4;" xml:space="preserve">
<style type="text/css">
	.st0{fill:none;}
	.st1{fill:#363636;}
	.st2{fill:none;stroke:#363636;stroke-width:0;stroke-linecap:round;stroke-linejoin:round;}
</style>
<g>
	<polygon class="st0" points="899.3,200.7 834.4,168.2 875,249.3 	"/>
	<polygon class="st0" points="334.4,332.7 399.3,300.2 375,251.6 	"/>
	<polygon class="st0" points="600.7,200.7 625,249.3 665.6,168.2 	"/>
	<polygon class="st0" points="748.9,125.4 700.2,101.1 667.8,166 	"/>
	<polyline class="st0" points="1497.9,500 1300.2,401.1 1250.8,500 	"/>
	<polygon class="st0" points="250,1.6 200.7,100.2 250,124.9 299.3,100.2 	"/>
	<polygon class="st0" points="2.1,0.9 199.8,99.8 249.2,0.9 	"/>
	<polygon class="st0" points="497.9,0.9 250.8,0.9 300.2,99.8 	"/>
	<polygon class="st0" points="251.1,125.4 332.2,166 299.8,101.1 	"/>
	<polygon class="st0" points="375.6,250.4 400.2,299.8 499.3,250.4 400.2,201.1 	"/>
	<polygon class="st0" points="666.3,166.7 699.3,100.7 501.1,1.6 600.2,199.8 	"/>
	<polygon class="st0" points="1400.7,200.2 1499.5,249.6 1499.5,2.6 	"/>
	<polygon class="st0" points="300.7,100.7 333.7,166.7 399.8,199.8 498.9,1.6 	"/>
	<polyline class="st0" points="999.5,2.6 900.7,200.2 1000.1,249.6 	"/>
	<polygon class="st0" points="665.6,332.7 625,251.6 600.7,300.2 	"/>
	<polygon class="st0" points="875.6,250.4 900.2,299.8 999.5,250.4 900.2,201.1 	"/>
	<polygon class="st0" points="997.9,0.9 750.8,0.9 800.2,99.8 	"/>
	<polygon class="st0" points="834.4,332.7 899.3,300.2 875,251.6 	"/>
	<polygon class="st0" points="1300.7,100.7 1333.7,166.7 1399.8,199.8 1498.9,1.6 	"/>
	<polygon class="st0" points="502.1,0.9 699.8,99.8 749.2,0.9 	"/>
	<polygon class="st0" points="599.8,299.8 624.4,250.4 599.8,201.1 500.5,250.4 	"/>
	<polygon class="st0" points="499.9,251.3 499.9,249.6 599.3,200.2 500.5,2.6 499.5,2.6 400.7,200.2 499.9,249.6 499.9,250.1 
		499.9,250.8 499.9,251.3 400.7,300.7 499.5,498.3 500.5,498.3 599.3,300.7 	"/>
	<polygon class="st0" points="600.2,301.1 501.1,499.3 699.3,400.2 666.3,334.2 	"/>
	<polygon class="st0" points="700.2,399.8 748.9,375.4 667.8,334.9 	"/>
	<polygon class="st0" points="833,167.5 750,126 667,167.5 625.6,250.4 667,333.4 750,374.9 833,333.4 874.4,250.4 	"/>
	<polyline class="st0" points="497.9,500 300.2,401.1 250.8,500 	"/>
	<polygon class="st0" points="200.7,400.7 250,499.3 299.3,400.7 250,376 	"/>
	<polyline class="st0" points="249.2,500 199.8,401.1 2.1,500 	"/>
	<polyline class="st0" points="997.9,500 800.2,401.1 750.8,500 	"/>
	<polygon class="st0" points="750,1.6 700.7,100.2 750,124.9 799.3,100.2 	"/>
	<polygon class="st0" points="299.8,399.8 332.2,334.9 251.1,375.4 	"/>
	<polygon class="st0" points="399.8,301.1 333.7,334.2 300.7,400.2 498.9,499.3 	"/>
	<polyline class="st0" points="1000.1,251.3 900.7,300.7 999.5,498.3 	"/>
	<polygon class="st0" points="1200.7,400.7 1250,499.3 1299.3,400.7 1250,376 	"/>
	<polygon class="st0" points="700.7,400.7 750,499.3 799.3,400.7 750,376 	"/>
	<polygon class="st0" points="399.3,200.7 334.4,168.2 375,249.3 	"/>
	<polygon class="st0" points="799.8,399.8 832.2,334.9 751.1,375.4 	"/>
	<polygon class="st0" points="899.8,301.1 833.7,334.2 800.7,400.2 998.9,499.3 	"/>
	<polygon class="st0" points="333,167.5 250,126 167,167.5 125.6,250.4 167,333.4 250,374.9 333,333.4 374.4,250.4 	"/>
	<polygon class="st0" points="100.7,200.7 125,249.3 165.6,168.2 	"/>
	<polygon class="st0" points="100.2,301.1 1.1,499.3 199.3,400.2 166.3,334.2 	"/>
	<polygon class="st0" points="99.8,299.8 124.4,250.4 99.8,201.1 1.1,250.4 	"/>
	<polyline class="st0" points="1249.2,500 1199.8,401.1 1002.1,500 	"/>
	<polygon class="st0" points="1299.8,399.8 1332.2,334.9 1251.1,375.4 	"/>
	<polygon class="st0" points="200.2,399.8 248.9,375.4 167.8,334.9 	"/>
	<polygon class="st0" points="0.5,251.3 0.5,498.3 99.3,300.7 	"/>
	<polygon class="st0" points="248.9,125.4 200.2,101.1 167.8,166 	"/>
	<polygon class="st0" points="166.3,166.7 199.3,100.7 1.1,1.6 100.2,199.8 	"/>
	<polygon class="st0" points="165.6,332.7 125,251.6 100.7,300.2 	"/>
	<polygon class="st0" points="0.5,2.6 0.5,249.6 99.3,200.2 	"/>
	<polygon class="st0" points="751.1,125.4 832.2,166 799.8,101.1 	"/>
	<polygon class="st0" points="1099.8,201.1 1000.7,250.4 1099.8,299.8 1124.4,250.4 	"/>
	<polyline class="st0" points="1000.1,249.6 1099.3,200.2 1000.5,2.6 	"/>
	<polygon class="st0" points="1100.7,300.2 1165.6,332.7 1125,251.6 	"/>
	<polygon class="st0" points="1100.2,301.1 1001.1,499.3 1199.3,400.2 1166.3,334.2 	"/>
	<polygon class="st0" points="1002.1,0.9 1199.8,99.8 1249.2,0.9 	"/>
	<polyline class="st0" points="1000.5,498.3 1099.3,300.7 1000.1,251.3 	"/>
	<polygon class="st0" points="1499.5,498.3 1499.5,251.3 1400.7,300.7 	"/>
	<polygon class="st0" points="1250,1.6 1200.7,100.2 1250,124.9 1299.3,100.2 	"/>
	<polygon class="st0" points="1200.2,399.8 1248.9,375.4 1167.8,334.9 	"/>
	<polygon class="st0" points="1400.2,299.8 1498.9,250.4 1400.2,201.1 1375.6,250.4 	"/>
	<polygon class="st0" points="1125.6,250.4 1167,333.4 1250,374.9 1333,333.4 1374.4,250.4 1333,167.5 1250,126 1167,167.5 	"/>
	<polygon class="st0" points="1166.3,166.7 1199.3,100.7 1001.1,1.6 1100.2,199.8 	"/>
	<polygon class="st0" points="1100.7,200.7 1125,249.3 1165.6,168.2 	"/>
	<polygon class="st0" points="1497.9,0.9 1250.8,0.9 1300.2,99.8 	"/>
	<polygon class="st0" points="1334.4,332.7 1399.3,300.2 1375,251.6 	"/>
	<polygon class="st0" points="1399.3,200.7 1334.4,168.2 1375,249.3 	"/>
	<polygon class="st0" points="1251.1,125.4 1332.2,166 1299.8,101.1 	"/>
	<polygon class="st0" points="800.7,100.7 833.7,166.7 899.8,199.8 998.9,1.6 	"/>
	<polygon class="st0" points="1248.9,125.4 1200.2,101.1 1167.8,166 	"/>
	<polygon class="st0" points="1333.7,334.2 1300.7,400.2 1498.9,499.3 1399.8,301.1 	"/>
	<polyline class="st0" points="749.2,500 699.8,401.1 502.1,500 	"/>
	<polygon class="st1" points="299.3,100.2 300.2,99.8 250.8,0.9 249.2,0.9 199.8,99.8 200.7,100.2 250,1.6 	"/>
	<polygon class="st1" points="299.8,101.1 332.2,166 333.7,166.7 300.7,100.7 	"/>
	<polygon class="st1" points="99.3,300.7 0.5,498.3 0.5,499.6 1.1,499.3 100.2,301.1 	"/>
	<polygon class="st1" points="375,251.6 399.3,300.2 400.2,299.8 375.6,250.4 	"/>
	<polygon class="st1" points="250,-0.7 249.7,0 250.3,0 	"/>
	<polygon class="st1" points="-0.8,500.9 -0.5,500.9 -0.5,500.3 	"/>
	<polygon class="st1" points="100.7,300.2 125,251.6 124.4,250.4 99.8,299.8 	"/>
	<line class="st1" x1="249.7" y1="500.9" x2="249.2" y2="500"/>
	<line class="st1" x1="2.1" y1="500" x2="0.1" y2="500.9"/>
	<polyline class="st1" points="499.2,500.9 499.3,500.7 497.9,500 	"/>
	<line class="st1" x1="250.8" y1="500" x2="250.3" y2="500.9"/>
	<polygon class="st1" points="375,249.3 334.4,168.2 333,167.5 374.4,250.4 	"/>
	<polygon class="st1" points="399.8,301.1 498.9,499.3 499.5,499.6 499.5,498.3 400.7,300.7 	"/>
	<polygon class="st1" points="125,249.3 125.6,250.4 167,167.5 165.6,168.2 	"/>
	<polygon class="st1" points="167.8,166 200.2,101.1 199.3,100.7 166.3,166.7 	"/>
	<polygon class="st1" points="500.5,0 500.5,-0.4 500,-0.1 500.1,0 	"/>
	<polygon class="st1" points="-1.1,250.4 -0.5,250.8 -0.5,250.1 	"/>
	<polygon class="st1" points="500,501 500.5,501.3 500.5,500.9 500.1,500.9 	"/>
	<polygon class="st1" points="167.8,334.9 248.9,375.4 250,374.9 167,333.4 	"/>
	<polygon class="st1" points="300.7,400.2 300.2,401.1 497.9,500 499.3,500.7 499.5,500.3 499.5,499.6 498.9,499.3 	"/>
	<polygon class="st1" points="250,376 299.3,400.7 299.8,399.8 251.1,375.4 	"/>
	<polygon class="st1" points="300.7,100.7 498.9,1.6 499.2,0.9 497.9,0.9 300.2,99.8 299.3,100.2 250,124.9 251.1,125.4 
		299.8,101.1 	"/>
	<polygon class="st1" points="166.3,166.7 100.2,199.8 100.7,200.7 165.6,168.2 167,167.5 250,126 248.9,125.4 167.8,166 	"/>
	<polygon class="st1" points="100.2,301.1 166.3,334.2 165.6,332.7 100.7,300.2 99.8,299.8 1.1,250.4 99.8,201.1 99.3,200.2 
		0.5,249.6 0.5,251.3 99.3,300.7 	"/>
	<polygon class="st1" points="249.2,0.9 250.8,0.9 497.9,0.9 499.2,0.9 498.9,1.6 399.8,199.8 400.7,200.2 499.5,2.6 499.5,1.3 
		499.5,0.6 499.2,0 250.3,0 249.7,0 0.1,0 2.1,0.9 	"/>
	<polygon class="st1" points="300.2,401.1 300.7,400.2 333.7,334.2 332.2,334.9 299.8,399.8 299.3,400.7 250,499.3 200.7,400.7 
		199.8,401.1 249.2,500 249.7,500.9 250,501.6 250.3,500.9 250.8,500 	"/>
	<polygon class="st1" points="-0.8,0 -0.5,0.6 -0.5,0 	"/>
	<polygon class="st1" points="375.6,250.4 400.2,201.1 399.3,200.7 375,249.3 374.4,250.4 333,333.4 334.4,332.7 375,251.6 	"/>
	<polygon class="st1" points="167,333.4 125.6,250.4 125,249.3 100.7,200.7 100.2,199.8 1.1,1.6 0.5,1.3 0.5,2.6 99.3,200.2 
		99.8,201.1 124.4,250.4 125,251.6 165.6,332.7 166.3,334.2 199.3,400.2 200.2,399.8 167.8,334.9 	"/>
	<polygon class="st1" points="199.8,401.1 200.7,400.7 250,376 251.1,375.4 332.2,334.9 333.7,334.2 399.8,301.1 400.7,300.7 
		499.9,251.3 499.9,250.8 499.3,250.4 400.2,299.8 399.3,300.2 334.4,332.7 333,333.4 250,374.9 248.9,375.4 200.2,399.8 
		199.3,400.2 1.1,499.3 0.5,499.6 0.5,498.3 0.5,251.3 0.5,249.6 0.5,2.6 0.5,1.3 1.1,1.6 199.3,100.7 200.2,101.1 248.9,125.4 
		250,126 333,167.5 334.4,168.2 399.3,200.7 400.2,201.1 499.3,250.4 499.9,250.1 499.9,249.6 400.7,200.2 399.8,199.8 333.7,166.7 
		332.2,166 251.1,125.4 250,124.9 200.7,100.2 199.8,99.8 2.1,0.9 0.1,0 -0.5,-0.4 -0.5,0 -0.5,0.6 -0.5,250.1 -0.5,250.8 
		-0.5,500.3 -0.5,500.9 -0.5,501.3 0.1,500.9 2.1,500 	"/>
	<polygon class="st1" points="875,251.6 899.3,300.2 900.2,299.8 875.6,250.4 	"/>
	<polyline class="st1" points="999.2,500.9 999.3,500.7 997.9,500 	"/>
	<line class="st1" x1="750.8" y1="500" x2="750.3" y2="500.9"/>
	<polygon class="st1" points="799.3,100.2 800.2,99.8 750.8,0.9 749.2,0.9 699.8,99.8 700.7,100.2 750,1.6 	"/>
	<polygon class="st1" points="799.8,101.1 832.2,166 833.7,166.7 800.7,100.7 	"/>
	<polygon class="st1" points="599.3,300.7 500.5,498.3 500.5,499.6 501.1,499.3 600.2,301.1 	"/>
	<line class="st1" x1="749.7" y1="500.9" x2="749.2" y2="500"/>
	<polyline class="st1" points="502.1,500 500.1,500.9 500.5,500.9 500.8,500.9 	"/>
	<polygon class="st1" points="667.8,166 700.2,101.1 699.3,100.7 666.3,166.7 	"/>
	<polygon class="st1" points="875,249.3 834.4,168.2 833,167.5 874.4,250.4 	"/>
	<polygon class="st1" points="899.8,301.1 998.9,499.3 999.5,499.6 999.5,498.3 900.7,300.7 	"/>
	<polygon class="st1" points="625,249.3 625.6,250.4 667,167.5 665.6,168.2 	"/>
	<polygon class="st1" points="600.7,300.2 625,251.6 624.4,250.4 599.8,299.8 	"/>
	<polygon class="st1" points="750,-0.7 749.7,0 750.3,0 	"/>
	<polygon class="st1" points="499.3,500.7 499.2,500.9 499.5,500.9 499.5,500.3 	"/>
	<polygon class="st1" points="1000,501 1000.5,501.3 1000.5,500.9 1000.1,500.9 	"/>
	<polygon class="st1" points="1000.5,0 1000.5,-0.4 1000,-0.1 1000.1,0 	"/>
	<polygon class="st1" points="750,376 799.3,400.7 799.8,399.8 751.1,375.4 	"/>
	<polygon class="st1" points="667.8,334.9 748.9,375.4 750,374.9 667,333.4 	"/>
	<polygon class="st1" points="800.7,400.2 800.2,401.1 997.9,500 999.3,500.7 999.5,500.3 999.5,499.6 998.9,499.3 	"/>
	<polygon class="st1" points="499.3,250.4 499.9,250.8 499.9,250.1 	"/>
	<polygon class="st1" points="800.7,100.7 998.9,1.6 999.2,0.9 997.9,0.9 800.2,99.8 799.3,100.2 750,124.9 751.1,125.4 
		799.8,101.1 	"/>
	<polygon class="st1" points="666.3,166.7 600.2,199.8 600.7,200.7 665.6,168.2 667,167.5 750,126 748.9,125.4 667.8,166 	"/>
	<polygon class="st1" points="499.9,251.3 599.3,300.7 600.2,301.1 666.3,334.2 665.6,332.7 600.7,300.2 599.8,299.8 500.5,250.4 
		599.8,201.1 599.3,200.2 499.9,249.6 	"/>
	<polygon class="st1" points="800.2,401.1 800.7,400.2 833.7,334.2 832.2,334.9 799.8,399.8 799.3,400.7 750,499.3 700.7,400.7 
		699.8,401.1 749.2,500 749.7,500.9 750,501.6 750.3,500.9 750.8,500 	"/>
	<polygon class="st1" points="499.5,0 499.2,0 499.5,0.6 	"/>
	<polygon class="st1" points="502.1,0.9 749.2,0.9 750.8,0.9 997.9,0.9 999.2,0.9 998.9,1.6 899.8,199.8 900.7,200.2 999.5,2.6 
		999.5,1.3 999.5,0.6 999.2,0 750.3,0 749.7,0 500.8,0 500.5,0 500.1,0 	"/>
	<polygon class="st1" points="875.6,250.4 900.2,201.1 899.3,200.7 875,249.3 874.4,250.4 833,333.4 834.4,332.7 875,251.6 	"/>
	<polygon class="st1" points="667,333.4 625.6,250.4 625,249.3 600.7,200.7 600.2,199.8 501.1,1.6 500.5,1.3 500.5,2.6 599.3,200.2 
		599.8,201.1 624.4,250.4 625,251.6 665.6,332.7 666.3,334.2 699.3,400.2 700.2,399.8 667.8,334.9 	"/>
	<line class="st2" x1="499.9" y1="249.6" x2="499.9" y2="251.3"/>
	<polygon class="st1" points="502.1,500 699.8,401.1 700.7,400.7 750,376 751.1,375.4 832.2,334.9 833.7,334.2 899.8,301.1 
		900.7,300.7 1000.1,251.3 1000.1,250.8 999.5,250.4 900.2,299.8 899.3,300.2 834.4,332.7 833,333.4 750,374.9 748.9,375.4 
		700.2,399.8 699.3,400.2 501.1,499.3 500.5,499.6 500.5,498.3 499.5,498.3 499.5,499.6 499.5,500.3 499.5,500.9 499.5,501.3 
		500,501 500.1,500.9 	"/>
	<line class="st2" x1="499.9" y1="249.6" x2="499.9" y2="250.1"/>
	<line class="st2" x1="499.9" y1="250.8" x2="499.9" y2="251.3"/>
	<line class="st2" x1="499.9" y1="250.1" x2="499.9" y2="250.8"/>
	<polygon class="st1" points="499.5,1.3 499.5,2.6 500.5,2.6 500.5,1.3 501.1,1.6 699.3,100.7 700.2,101.1 748.9,125.4 750,126 
		833,167.5 834.4,168.2 899.3,200.7 900.2,201.1 999.5,250.4 1000.1,250.1 1000.1,249.6 900.7,200.2 899.8,199.8 833.7,166.7 
		832.2,166 751.1,125.4 750,124.9 700.7,100.2 699.8,99.8 502.1,0.9 500.1,0 500,-0.1 499.5,-0.4 499.5,0 499.5,0.6 	"/>
	<polygon class="st1" points="1100.2,301.1 1099.3,300.7 1000.5,498.3 1000.5,499.6 1001.1,499.3 	"/>
	<polygon class="st1" points="1299.3,100.2 1300.2,99.8 1250.8,0.9 1249.2,0.9 1199.8,99.8 1200.7,100.2 1250,1.6 	"/>
	<polygon class="st1" points="1375,251.6 1399.3,300.2 1400.2,299.8 1375.6,250.4 	"/>
	<polygon class="st1" points="1500.5,500.9 1500.8,500.9 1500.5,500.3 	"/>
	<polygon class="st1" points="1299.8,101.1 1332.2,166 1333.7,166.7 1300.7,100.7 	"/>
	<polygon class="st1" points="1250,-0.7 1249.7,0 1250.3,0 	"/>
	<polygon class="st1" points="1165.6,168.2 1125,249.3 1125.6,250.4 1167,167.5 	"/>
	<line class="st1" x1="1499.9" y1="500.9" x2="1497.9" y2="500"/>
	<line class="st1" x1="1250.8" y1="500" x2="1250.3" y2="500.9"/>
	<polygon class="st1" points="1399.8,301.1 1498.9,499.3 1499.5,499.6 1499.5,498.3 1400.7,300.7 	"/>
	<line class="st1" x1="1249.7" y1="500.9" x2="1249.2" y2="500"/>
	<polyline class="st1" points="1002.1,500 1000.1,500.9 1000.5,500.9 1000.8,500.9 	"/>
	<polygon class="st1" points="1124.4,250.4 1099.8,299.8 1100.7,300.2 1125,251.6 	"/>
	<polygon class="st1" points="1167.8,166 1200.2,101.1 1199.3,100.7 1166.3,166.7 	"/>
	<polygon class="st1" points="1375,249.3 1334.4,168.2 1333,167.5 1374.4,250.4 	"/>
	<polygon class="st1" points="999.3,500.7 999.2,500.9 999.5,500.9 999.5,500.3 	"/>
	<polygon class="st1" points="1499.5,249.6 1500.5,250.1 1500.5,0.6 1499.5,2.6 	"/>
	<polygon class="st1" points="1250,376 1299.3,400.7 1299.8,399.8 1251.1,375.4 	"/>
	<polygon class="st1" points="1167.8,334.9 1248.9,375.4 1250,374.9 1167,333.4 	"/>
	<polygon class="st1" points="1500.5,-0.4 1499.9,0 1500.5,0 	"/>
	<polygon class="st1" points="1500.5,250.8 1499.5,251.3 1499.5,498.3 1499.5,499.6 1498.9,499.3 1300.7,400.2 1300.2,401.1 
		1497.9,500 1499.9,500.9 1500.5,501.3 1500.5,500.9 1500.5,500.3 	"/>
	<polygon class="st1" points="1000.1,250.8 1000.1,250.1 999.5,250.4 	"/>
	<polygon class="st1" points="1100.2,301.1 1166.3,334.2 1165.6,332.7 1100.7,300.2 1099.8,299.8 1000.7,250.4 1099.8,201.1 
		1099.3,200.2 1000.1,249.6 1000.1,251.3 1099.3,300.7 	"/>
	<polygon class="st1" points="1166.3,166.7 1100.2,199.8 1100.7,200.7 1165.6,168.2 1167,167.5 1250,126 1248.9,125.4 1167.8,166 	
		"/>
	<polygon class="st1" points="1300.7,100.7 1498.9,1.6 1499.2,0.9 1497.9,0.9 1300.2,99.8 1299.3,100.2 1250,124.9 1251.1,125.4 
		1299.8,101.1 	"/>
	<polygon class="st1" points="1300.2,401.1 1300.7,400.2 1333.7,334.2 1332.2,334.9 1299.8,399.8 1299.3,400.7 1250,499.3 
		1200.7,400.7 1199.8,401.1 1249.2,500 1249.7,500.9 1250,501.6 1250.3,500.9 1250.8,500 	"/>
	<polygon class="st1" points="999.5,0 999.2,0 999.5,0.6 	"/>
	<polygon class="st1" points="1002.1,0.9 1249.2,0.9 1250.8,0.9 1497.9,0.9 1499.2,0.9 1498.9,1.6 1399.8,199.8 1400.7,200.2 
		1499.5,2.6 1500.5,0.6 1500.8,0 1500.5,0 1499.9,0 1250.3,0 1249.7,0 1000.8,0 1000.5,0 1000.1,0 	"/>
	<polygon class="st1" points="1374.4,250.4 1333,333.4 1334.4,332.7 1375,251.6 1375.6,250.4 1400.2,201.1 1399.3,200.7 1375,249.3 
			"/>
	<polygon class="st1" points="1099.8,201.1 1124.4,250.4 1125,251.6 1165.6,332.7 1166.3,334.2 1199.3,400.2 1200.2,399.8 
		1167.8,334.9 1167,333.4 1125.6,250.4 1125,249.3 1100.7,200.7 1100.2,199.8 1001.1,1.6 1000.5,1.3 1000.5,2.6 1099.3,200.2 	"/>
	<polygon class="st1" points="1500.5,250.1 1499.5,249.6 1400.7,200.2 1399.8,199.8 1333.7,166.7 1332.2,166 1251.1,125.4 
		1250,124.9 1200.7,100.2 1199.8,99.8 1002.1,0.9 1000.1,0 1000,-0.1 999.5,-0.4 999.5,0 999.5,0.6 999.5,1.3 999.5,2.6 1000.5,2.6 
		1000.5,1.3 1001.1,1.6 1199.3,100.7 1200.2,101.1 1248.9,125.4 1250,126 1333,167.5 1334.4,168.2 1399.3,200.7 1400.2,201.1 
		1498.9,250.4 1400.2,299.8 1399.3,300.2 1334.4,332.7 1333,333.4 1250,374.9 1248.9,375.4 1200.2,399.8 1199.3,400.2 1001.1,499.3 
		1000.5,499.6 1000.5,498.3 999.5,498.3 999.5,499.6 999.5,500.3 999.5,500.9 999.5,501.3 1000,501 1000.1,500.9 1002.1,500 
		1199.8,401.1 1200.7,400.7 1250,376 1251.1,375.4 1332.2,334.9 1333.7,334.2 1399.8,301.1 1400.7,300.7 1499.5,251.3 1500.5,250.8 
		1501.1,250.4 	"/>
</g>
<g>
	<polygon class="st0" points="899.3,700.7 834.4,668.2 875,749.3 	"/>
	<polygon class="st0" points="334.4,832.7 399.3,800.2 375,751.6 	"/>
	<polygon class="st0" points="600.7,700.7 625,749.3 665.6,668.2 	"/>
	<polygon class="st0" points="748.9,625.5 700.2,601.1 667.8,666 	"/>
	<polyline class="st0" points="1497.9,1000 1300.2,901.1 1250.8,1000 	"/>
	<polygon class="st0" points="250,501.6 200.7,600.2 250,624.9 299.3,600.2 	"/>
	<polyline class="st0" points="2.1,501 199.8,599.8 249.2,501 	"/>
	<polyline class="st0" points="250.8,501 300.2,599.8 497.9,501 	"/>
	<polygon class="st0" points="251.1,625.5 332.2,666 299.8,601.1 	"/>
	<polygon class="st0" points="375.6,750.5 400.2,799.8 499.3,750.5 400.2,701.1 	"/>
	<polygon class="st0" points="666.3,666.7 699.3,600.7 501.1,501.6 600.2,699.8 	"/>
	<polygon class="st0" points="1400.7,700.2 1499.5,749.6 1499.5,502.6 	"/>
	<polygon class="st0" points="300.7,600.7 333.7,666.7 399.8,699.8 498.9,501.6 	"/>
	<polyline class="st0" points="999.5,502.6 900.7,700.2 1000.1,749.6 	"/>
	<polygon class="st0" points="665.6,832.7 625,751.6 600.7,800.2 	"/>
	<polygon class="st0" points="875.6,750.5 900.2,799.8 999.5,750.5 900.2,701.1 	"/>
	<polyline class="st0" points="750.8,501 800.2,599.8 997.9,501 	"/>
	<polygon class="st0" points="834.4,832.7 899.3,800.2 875,751.6 	"/>
	<polygon class="st0" points="1300.7,600.7 1333.7,666.7 1399.8,699.8 1498.9,501.6 	"/>
	<polyline class="st0" points="502.1,501 699.8,599.8 749.2,501 	"/>
	<polygon class="st0" points="599.8,799.8 624.4,750.5 599.8,701.1 500.5,750.5 	"/>
	<polygon class="st0" points="499.9,751.3 499.9,749.6 599.3,700.2 500.5,502.6 499.5,502.6 400.7,700.2 499.9,749.6 499.9,750.1 
		499.9,750.8 499.9,751.3 400.7,800.7 499.5,998.3 500.5,998.3 599.3,800.7 	"/>
	<polygon class="st0" points="600.2,801.1 501.1,999.3 699.3,900.2 666.3,834.2 	"/>
	<polygon class="st0" points="700.2,899.8 748.9,875.5 667.8,834.9 	"/>
	<polygon class="st0" points="833,667.5 750,626 667,667.5 625.6,750.5 667,833.4 750,874.9 833,833.4 874.4,750.5 	"/>
	<polyline class="st0" points="497.9,1000 300.2,901.1 250.8,1000 	"/>
	<polygon class="st0" points="200.7,900.7 250,999.3 299.3,900.7 250,876 	"/>
	<polyline class="st0" points="249.2,1000 199.8,901.1 2.1,1000 	"/>
	<polyline class="st0" points="997.9,1000 800.2,901.1 750.8,1000 	"/>
	<polygon class="st0" points="750,501.6 700.7,600.2 750,624.9 799.3,600.2 	"/>
	<polygon class="st0" points="299.8,899.8 332.2,834.9 251.1,875.5 	"/>
	<polygon class="st0" points="399.8,801.1 333.7,834.2 300.7,900.2 498.9,999.3 	"/>
	<polyline class="st0" points="1000.1,751.3 900.7,800.7 999.5,998.3 	"/>
	<polygon class="st0" points="1200.7,900.7 1250,999.3 1299.3,900.7 1250,876 	"/>
	<polygon class="st0" points="700.7,900.7 750,999.3 799.3,900.7 750,876 	"/>
	<polygon class="st0" points="399.3,700.7 334.4,668.2 375,749.3 	"/>
	<polygon class="st0" points="799.8,899.8 832.2,834.9 751.1,875.5 	"/>
	<polygon class="st0" points="899.8,801.1 833.7,834.2 800.7,900.2 998.9,999.3 	"/>
	<polygon class="st0" points="333,667.5 250,626 167,667.5 125.6,750.5 167,833.4 250,874.9 333,833.4 374.4,750.5 	"/>
	<polygon class="st0" points="100.7,700.7 125,749.3 165.6,668.2 	"/>
	<polygon class="st0" points="100.2,801.1 1.1,999.3 199.3,900.2 166.3,834.2 	"/>
	<polygon class="st0" points="99.8,799.8 124.4,750.5 99.8,701.1 1.1,750.5 	"/>
	<polyline class="st0" points="1249.2,1000 1199.8,901.1 1002.1,1000 	"/>
	<polygon class="st0" points="1299.8,899.8 1332.2,834.9 1251.1,875.5 	"/>
	<polygon class="st0" points="200.2,899.8 248.9,875.5 167.8,834.9 	"/>
	<polygon class="st0" points="0.5,751.3 0.5,998.3 99.3,800.7 	"/>
	<polygon class="st0" points="248.9,625.5 200.2,601.1 167.8,666 	"/>
	<polygon class="st0" points="166.3,666.7 199.3,600.7 1.1,501.6 100.2,699.8 	"/>
	<polygon class="st0" points="165.6,832.7 125,751.6 100.7,800.2 	"/>
	<polygon class="st0" points="0.5,502.6 0.5,749.6 99.3,700.2 	"/>
	<polygon class="st0" points="751.1,625.5 832.2,666 799.8,601.1 	"/>
	<polygon class="st0" points="1099.8,701.1 1000.7,750.5 1099.8,799.8 1124.4,750.5 	"/>
	<polyline class="st0" points="1000.1,749.6 1099.3,700.2 1000.5,502.6 	"/>
	<polygon class="st0" points="1100.7,800.2 1165.6,832.7 1125,751.6 	"/>
	<polygon class="st0" points="1100.2,801.1 1001.1,999.3 1199.3,900.2 1166.3,834.2 	"/>
	<polyline class="st0" points="1002.1,501 1199.8,599.8 1249.2,501 	"/>
	<polyline class="st0" points="1000.5,998.3 1099.3,800.7 1000.1,751.3 	"/>
	<polygon class="st0" points="1499.5,998.3 1499.5,751.3 1400.7,800.7 	"/>
	<polygon class="st0" points="1250,501.6 1200.7,600.2 1250,624.9 1299.3,600.2 	"/>
	<polygon class="st0" points="1200.2,899.8 1248.9,875.5 1167.8,834.9 	"/>
	<polygon class="st0" points="1400.2,799.8 1498.9,750.5 1400.2,701.1 1375.6,750.5 	"/>
	<polygon class="st0" points="1125.6,750.5 1167,833.4 1250,874.9 1333,833.4 1374.4,750.5 1333,667.5 1250,626 1167,667.5 	"/>
	<polygon class="st0" points="1166.3,666.7 1199.3,600.7 1001.1,501.6 1100.2,699.8 	"/>
	<polygon class="st0" points="1100.7,700.7 1125,749.3 1165.6,668.2 	"/>
	<polyline class="st0" points="1250.8,501 1300.2,599.8 1497.9,501 	"/>
	<polygon class="st0" points="1334.4,832.7 1399.3,800.2 1375,751.6 	"/>
	<polygon class="st0" points="1399.3,700.7 1334.4,668.2 1375,749.3 	"/>
	<polygon class="st0" points="1251.1,625.5 1332.2,666 1299.8,601.1 	"/>
	<polygon class="st0" points="800.7,600.7 833.7,666.7 899.8,699.8 998.9,501.6 	"/>
	<polygon class="st0" points="1248.9,625.5 1200.2,601.1 1167.8,666 	"/>
	<polygon class="st0" points="1333.7,834.2 1300.7,900.2 1498.9,999.3 1399.8,801.1 	"/>
	<polyline class="st0" points="749.2,1000 699.8,901.1 502.1,1000 	"/>
	<polygon class="st1" points="299.3,600.2 300.2,599.8 250.8,501 249.2,501 199.8,599.8 200.7,600.2 250,501.6 	"/>
	<polygon class="st1" points="299.8,601.1 332.2,666 333.7,666.7 300.7,600.7 	"/>
	<polygon class="st1" points="99.3,800.7 0.5,998.3 0.5,999.6 1.1,999.3 100.2,801.1 	"/>
	<polygon class="st1" points="375,751.6 399.3,800.2 400.2,799.8 375.6,750.5 	"/>
	<polygon class="st1" points="250,499.3 249.7,500 250.3,500 	"/>
	<polygon class="st1" points="-0.8,1001 -0.5,1001 -0.5,1000.3 	"/>
	<polygon class="st1" points="100.7,800.2 125,751.6 124.4,750.5 99.8,799.8 	"/>
	<line class="st1" x1="249.7" y1="1001" x2="249.2" y2="1000"/>
	<line class="st1" x1="2.1" y1="1000" x2="0.1" y2="1001"/>
	<polyline class="st1" points="499.2,1001 499.3,1000.7 497.9,1000 	"/>
	<line class="st1" x1="250.8" y1="1000" x2="250.3" y2="1001"/>
	<polygon class="st1" points="375,749.3 334.4,668.2 333,667.5 374.4,750.5 	"/>
	<polygon class="st1" points="399.8,801.1 498.9,999.3 499.5,999.6 499.5,998.3 400.7,800.7 	"/>
	<polygon class="st1" points="125,749.3 125.6,750.5 167,667.5 165.6,668.2 	"/>
	<polygon class="st1" points="167.8,666 200.2,601.1 199.3,600.7 166.3,666.7 	"/>
	<polygon class="st1" points="500.5,500 500.5,499.6 500,499.9 500.1,500 	"/>
	<polygon class="st1" points="-1.1,750.5 -0.5,750.8 -0.5,750.1 	"/>
	<polygon class="st1" points="500,1001 500.5,1001.3 500.5,1001 500.1,1001 	"/>
	<polygon class="st1" points="167.8,834.9 248.9,875.5 250,874.9 167,833.4 	"/>
	<polygon class="st1" points="300.7,900.2 300.2,901.1 497.9,1000 499.3,1000.7 499.5,1000.3 499.5,999.6 498.9,999.3 	"/>
	<polygon class="st1" points="250,876 299.3,900.7 299.8,899.8 251.1,875.5 	"/>
	<polygon class="st1" points="300.7,600.7 498.9,501.6 499.2,501 497.9,501 300.2,599.8 299.3,600.2 250,624.9 251.1,625.5 
		299.8,601.1 	"/>
	<polygon class="st1" points="166.3,666.7 100.2,699.8 100.7,700.7 165.6,668.2 167,667.5 250,626 248.9,625.5 167.8,666 	"/>
	<polygon class="st1" points="100.2,801.1 166.3,834.2 165.6,832.7 100.7,800.2 99.8,799.8 1.1,750.5 99.8,701.1 99.3,700.2 
		0.5,749.6 0.5,751.3 99.3,800.7 	"/>
	<line class="st1" x1="249.2" y1="501" x2="250.8" y2="501"/>
	<line class="st1" x1="0.1" y1="500" x2="2.1" y2="501"/>
	<line class="st1" x1="250.3" y1="500" x2="249.7" y2="500"/>
	<polyline class="st1" points="497.9,501 499.2,501 498.9,501.6 399.8,699.8 400.7,700.2 499.5,502.6 499.5,501.3 499.5,500.6 
		499.2,500 	"/>
	<polygon class="st1" points="300.2,901.1 300.7,900.2 333.7,834.2 332.2,834.9 299.8,899.8 299.3,900.7 250,999.3 200.7,900.7 
		199.8,901.1 249.2,1000 249.7,1001 250,1001.6 250.3,1001 250.8,1000 	"/>
	<polygon class="st1" points="-0.8,500 -0.5,500.6 -0.5,500 	"/>
	<polygon class="st1" points="375.6,750.5 400.2,701.1 399.3,700.7 375,749.3 374.4,750.5 333,833.4 334.4,832.7 375,751.6 	"/>
	<polygon class="st1" points="167,833.4 125.6,750.5 125,749.3 100.7,700.7 100.2,699.8 1.1,501.6 0.5,501.3 0.5,502.6 99.3,700.2 
		99.8,701.1 124.4,750.5 125,751.6 165.6,832.7 166.3,834.2 199.3,900.2 200.2,899.8 167.8,834.9 	"/>
	<polygon class="st1" points="199.8,901.1 200.7,900.7 250,876 251.1,875.5 332.2,834.9 333.7,834.2 399.8,801.1 400.7,800.7 
		499.9,751.3 499.9,750.8 499.3,750.5 400.2,799.8 399.3,800.2 334.4,832.7 333,833.4 250,874.9 248.9,875.5 200.2,899.8 
		199.3,900.2 1.1,999.3 0.5,999.6 0.5,998.3 0.5,751.3 0.5,749.6 0.5,502.6 0.5,501.3 1.1,501.6 199.3,600.7 200.2,601.1 
		248.9,625.5 250,626 333,667.5 334.4,668.2 399.3,700.7 400.2,701.1 499.3,750.5 499.9,750.1 499.9,749.6 400.7,700.2 399.8,699.8 
		333.7,666.7 332.2,666 251.1,625.5 250,624.9 200.7,600.2 199.8,599.8 2.1,501 0.1,500 -0.5,499.6 -0.5,500 -0.5,500.6 -0.5,750.1 
		-0.5,750.8 -0.5,1000.3 -0.5,1001 -0.5,1001.3 0.1,1001 2.1,1000 	"/>
	<polygon class="st1" points="875,751.6 899.3,800.2 900.2,799.8 875.6,750.5 	"/>
	<polyline class="st1" points="999.2,1001 999.3,1000.7 997.9,1000 	"/>
	<line class="st1" x1="750.8" y1="1000" x2="750.3" y2="1001"/>
	<polygon class="st1" points="799.3,600.2 800.2,599.8 750.8,501 749.2,501 699.8,599.8 700.7,600.2 750,501.6 	"/>
	<polygon class="st1" points="799.8,601.1 832.2,666 833.7,666.7 800.7,600.7 	"/>
	<polygon class="st1" points="599.3,800.7 500.5,998.3 500.5,999.6 501.1,999.3 600.2,801.1 	"/>
	<line class="st1" x1="749.7" y1="1001" x2="749.2" y2="1000"/>
	<polyline class="st1" points="502.1,1000 500.1,1001 500.5,1001 500.8,1001 	"/>
	<polygon class="st1" points="667.8,666 700.2,601.1 699.3,600.7 666.3,666.7 	"/>
	<polygon class="st1" points="875,749.3 834.4,668.2 833,667.5 874.4,750.5 	"/>
	<polygon class="st1" points="899.8,801.1 998.9,999.3 999.5,999.6 999.5,998.3 900.7,800.7 	"/>
	<polygon class="st1" points="625,749.3 625.6,750.5 667,667.5 665.6,668.2 	"/>
	<polygon class="st1" points="600.7,800.2 625,751.6 624.4,750.5 599.8,799.8 	"/>
	<polygon class="st1" points="750,499.3 749.7,500 750.3,500 	"/>
	<polygon class="st1" points="499.3,1000.7 499.2,1001 499.5,1001 499.5,1000.3 	"/>
	<polygon class="st1" points="1000,1001 1000.5,1001.3 1000.5,1001 1000.1,1001 	"/>
	<polygon class="st1" points="1000.5,500 1000.5,499.6 1000,499.9 1000.1,500 	"/>
	<polygon class="st1" points="750,876 799.3,900.7 799.8,899.8 751.1,875.5 	"/>
	<polygon class="st1" points="667.8,834.9 748.9,875.5 750,874.9 667,833.4 	"/>
	<polygon class="st1" points="800.7,900.2 800.2,901.1 997.9,1000 999.3,1000.7 999.5,1000.3 999.5,999.6 998.9,999.3 	"/>
	<polygon class="st1" points="499.3,750.5 499.9,750.8 499.9,750.1 	"/>
	<polygon class="st1" points="800.7,600.7 998.9,501.6 999.2,501 997.9,501 800.2,599.8 799.3,600.2 750,624.9 751.1,625.5 
		799.8,601.1 	"/>
	<polygon class="st1" points="666.3,666.7 600.2,699.8 600.7,700.7 665.6,668.2 667,667.5 750,626 748.9,625.5 667.8,666 	"/>
	<polygon class="st1" points="499.9,751.3 599.3,800.7 600.2,801.1 666.3,834.2 665.6,832.7 600.7,800.2 599.8,799.8 500.5,750.5 
		599.8,701.1 599.3,700.2 499.9,749.6 	"/>
	<polygon class="st1" points="800.2,901.1 800.7,900.2 833.7,834.2 832.2,834.9 799.8,899.8 799.3,900.7 750,999.3 700.7,900.7 
		699.8,901.1 749.2,1000 749.7,1001 750,1001.6 750.3,1001 750.8,1000 	"/>
	<polygon class="st1" points="499.5,500 499.2,500 499.5,500.6 	"/>
	<line class="st1" x1="749.2" y1="501" x2="750.8" y2="501"/>
	<polyline class="st1" points="500.8,500 500.5,500 500.1,500 502.1,501 	"/>
	<line class="st1" x1="750.3" y1="500" x2="749.7" y2="500"/>
	<polyline class="st1" points="997.9,501 999.2,501 998.9,501.6 899.8,699.8 900.7,700.2 999.5,502.6 999.5,501.3 999.5,500.6 
		999.2,500 	"/>
	<polygon class="st1" points="875.6,750.5 900.2,701.1 899.3,700.7 875,749.3 874.4,750.5 833,833.4 834.4,832.7 875,751.6 	"/>
	<polygon class="st1" points="667,833.4 625.6,750.5 625,749.3 600.7,700.7 600.2,699.8 501.1,501.6 500.5,501.3 500.5,502.6 
		599.3,700.2 599.8,701.1 624.4,750.5 625,751.6 665.6,832.7 666.3,834.2 699.3,900.2 700.2,899.8 667.8,834.9 	"/>
	<line class="st2" x1="499.9" y1="749.6" x2="499.9" y2="751.3"/>
	<polygon class="st1" points="502.1,1000 699.8,901.1 700.7,900.7 750,876 751.1,875.5 832.2,834.9 833.7,834.2 899.8,801.1 
		900.7,800.7 1000.1,751.3 1000.1,750.8 999.5,750.5 900.2,799.8 899.3,800.2 834.4,832.7 833,833.4 750,874.9 748.9,875.5 
		700.2,899.8 699.3,900.2 501.1,999.3 500.5,999.6 500.5,998.3 499.5,998.3 499.5,999.6 499.5,1000.3 499.5,1001 499.5,1001.3 
		500,1001 500.1,1001 	"/>
	<line class="st2" x1="499.9" y1="749.6" x2="499.9" y2="750.1"/>
	<line class="st2" x1="499.9" y1="750.8" x2="499.9" y2="751.3"/>
	<line class="st2" x1="499.9" y1="750.1" x2="499.9" y2="750.8"/>
	<polygon class="st1" points="499.5,501.3 499.5,502.6 500.5,502.6 500.5,501.3 501.1,501.6 699.3,600.7 700.2,601.1 748.9,625.5 
		750,626 833,667.5 834.4,668.2 899.3,700.7 900.2,701.1 999.5,750.5 1000.1,750.1 1000.1,749.6 900.7,700.2 899.8,699.8 
		833.7,666.7 832.2,666 751.1,625.5 750,624.9 700.7,600.2 699.8,599.8 502.1,501 500.1,500 500,499.9 499.5,499.6 499.5,500 
		499.5,500.6 	"/>
	<polygon class="st1" points="1100.2,801.1 1099.3,800.7 1000.5,998.3 1000.5,999.6 1001.1,999.3 	"/>
	<polygon class="st1" points="1299.3,600.2 1300.2,599.8 1250.8,501 1249.2,501 1199.8,599.8 1200.7,600.2 1250,501.6 	"/>
	<polygon class="st1" points="1375,751.6 1399.3,800.2 1400.2,799.8 1375.6,750.5 	"/>
	<polygon class="st1" points="1500.5,1001 1500.8,1001 1500.5,1000.3 	"/>
	<polygon class="st1" points="1299.8,601.1 1332.2,666 1333.7,666.7 1300.7,600.7 	"/>
	<polygon class="st1" points="1250,499.3 1249.7,500 1250.3,500 	"/>
	<polygon class="st1" points="1165.6,668.2 1125,749.3 1125.6,750.5 1167,667.5 	"/>
	<line class="st1" x1="1499.9" y1="1001" x2="1497.9" y2="1000"/>
	<line class="st1" x1="1250.8" y1="1000" x2="1250.3" y2="1001"/>
	<polygon class="st1" points="1399.8,801.1 1498.9,999.3 1499.5,999.6 1499.5,998.3 1400.7,800.7 	"/>
	<line class="st1" x1="1249.7" y1="1001" x2="1249.2" y2="1000"/>
	<polyline class="st1" points="1002.1,1000 1000.1,1001 1000.5,1001 1000.8,1001 	"/>
	<polygon class="st1" points="1124.4,750.5 1099.8,799.8 1100.7,800.2 1125,751.6 	"/>
	<polygon class="st1" points="1167.8,666 1200.2,601.1 1199.3,600.7 1166.3,666.7 	"/>
	<polygon class="st1" points="1375,749.3 1334.4,668.2 1333,667.5 1374.4,750.5 	"/>
	<polygon class="st1" points="999.3,1000.7 999.2,1001 999.5,1001 999.5,1000.3 	"/>
	<polygon class="st1" points="1499.5,749.6 1500.5,750.1 1500.5,500.6 1499.5,502.6 	"/>
	<polygon class="st1" points="1250,876 1299.3,900.7 1299.8,899.8 1251.1,875.5 	"/>
	<polygon class="st1" points="1167.8,834.9 1248.9,875.5 1250,874.9 1167,833.4 	"/>
	<polygon class="st1" points="1500.5,499.6 1499.9,500 1500.5,500 	"/>
	<polygon class="st1" points="1500.5,750.8 1499.5,751.3 1499.5,998.3 1499.5,999.6 1498.9,999.3 1300.7,900.2 1300.2,901.1 
		1497.9,1000 1499.9,1001 1500.5,1001.3 1500.5,1001 1500.5,1000.3 	"/>
	<polygon class="st1" points="1000.1,750.8 1000.1,750.1 999.5,750.5 	"/>
	<polygon class="st1" points="1100.2,801.1 1166.3,834.2 1165.6,832.7 1100.7,800.2 1099.8,799.8 1000.7,750.5 1099.8,701.1 
		1099.3,700.2 1000.1,749.6 1000.1,751.3 1099.3,800.7 	"/>
	<polygon class="st1" points="1166.3,666.7 1100.2,699.8 1100.7,700.7 1165.6,668.2 1167,667.5 1250,626 1248.9,625.5 1167.8,666 	
		"/>
	<polygon class="st1" points="1300.7,600.7 1498.9,501.6 1499.2,501 1497.9,501 1300.2,599.8 1299.3,600.2 1250,624.9 1251.1,625.5 
		1299.8,601.1 	"/>
	<polygon class="st1" points="1300.2,901.1 1300.7,900.2 1333.7,834.2 1332.2,834.9 1299.8,899.8 1299.3,900.7 1250,999.3 
		1200.7,900.7 1199.8,901.1 1249.2,1000 1249.7,1001 1250,1001.6 1250.3,1001 1250.8,1000 	"/>
	<polygon class="st1" points="999.5,500 999.2,500 999.5,500.6 	"/>
	<line class="st1" x1="1249.2" y1="501" x2="1250.8" y2="501"/>
	<polyline class="st1" points="1000.8,500 1000.5,500 1000.1,500 1002.1,501 	"/>
	<line class="st1" x1="1250.3" y1="500" x2="1249.7" y2="500"/>
	<polyline class="st1" points="1497.9,501 1499.2,501 1498.9,501.6 1399.8,699.8 1400.7,700.2 1499.5,502.6 1500.5,500.6 
		1500.8,500 1500.5,500 1499.9,500 	"/>
	<polygon class="st1" points="1374.4,750.5 1333,833.4 1334.4,832.7 1375,751.6 1375.6,750.5 1400.2,701.1 1399.3,700.7 1375,749.3 
			"/>
	<polygon class="st1" points="1099.8,701.1 1124.4,750.5 1125,751.6 1165.6,832.7 1166.3,834.2 1199.3,900.2 1200.2,899.8 
		1167.8,834.9 1167,833.4 1125.6,750.5 1125,749.3 1100.7,700.7 1100.2,699.8 1001.1,501.6 1000.5,501.3 1000.5,502.6 1099.3,700.2 
			"/>
	<polygon class="st1" points="1500.5,750.1 1499.5,749.6 1400.7,700.2 1399.8,699.8 1333.7,666.7 1332.2,666 1251.1,625.5 
		1250,624.9 1200.7,600.2 1199.8,599.8 1002.1,501 1000.1,500 1000,499.9 999.5,499.6 999.5,500 999.5,500.6 999.5,501.3 
		999.5,502.6 1000.5,502.6 1000.5,501.3 1001.1,501.6 1199.3,600.7 1200.2,601.1 1248.9,625.5 1250,626 1333,667.5 1334.4,668.2 
		1399.3,700.7 1400.2,701.1 1498.9,750.5 1400.2,799.8 1399.3,800.2 1334.4,832.7 1333,833.4 1250,874.9 1248.9,875.5 1200.2,899.8 
		1199.3,900.2 1001.1,999.3 1000.5,999.6 1000.5,998.3 999.5,998.3 999.5,999.6 999.5,1000.3 999.5,1001 999.5,1001.3 1000,1001 
		1000.1,1001 1002.1,1000 1199.8,901.1 1200.7,900.7 1250,876 1251.1,875.5 1332.2,834.9 1333.7,834.2 1399.8,801.1 1400.7,800.7 
		1499.5,751.3 1500.5,750.8 1501.1,750.5 	"/>
</g>
<g>
	<polygon class="st0" points="899.3,1199.9 834.4,1167.5 875,1248.6 	"/>
	<polygon class="st0" points="334.4,1331.9 399.3,1299.5 375,1250.8 	"/>
	<polygon class="st0" points="600.7,1199.9 625,1248.6 665.6,1167.5 	"/>
	<polygon class="st0" points="748.9,1124.7 700.2,1100.3 667.8,1165.2 	"/>
	<polyline class="st0" points="1497.9,1499.2 1300.2,1400.3 1250.8,1499.2 	"/>
	<polygon class="st0" points="250,1000.8 200.7,1099.5 250,1124.1 299.3,1099.5 	"/>
	<polyline class="st0" points="2.1,1000.2 199.8,1099 249.2,1000.2 	"/>
	<polyline class="st0" points="250.8,1000.2 300.2,1099 497.9,1000.2 	"/>
	<polygon class="st0" points="251.1,1124.7 332.2,1165.2 299.8,1100.3 	"/>
	<polygon class="st0" points="375.6,1249.7 400.2,1299 499.3,1249.7 400.2,1200.3 	"/>
	<polygon class="st0" points="666.3,1166 699.3,1099.9 501.1,1000.8 600.2,1199 	"/>
	<polygon class="st0" points="1400.7,1199.5 1499.5,1248.9 1499.5,1001.8 	"/>
	<polygon class="st0" points="300.7,1099.9 333.7,1166 399.8,1199 498.9,1000.8 	"/>
	<polyline class="st0" points="999.5,1001.8 900.7,1199.5 1000.1,1248.9 	"/>
	<polygon class="st0" points="665.6,1331.9 625,1250.8 600.7,1299.5 	"/>
	<polygon class="st0" points="875.6,1249.7 900.2,1299 999.5,1249.7 900.2,1200.3 	"/>
	<polyline class="st0" points="750.8,1000.2 800.2,1099 997.9,1000.2 	"/>
	<polygon class="st0" points="834.4,1331.9 899.3,1299.5 875,1250.8 	"/>
	<polygon class="st0" points="1300.7,1099.9 1333.7,1166 1399.8,1199 1498.9,1000.8 	"/>
	<polyline class="st0" points="502.1,1000.2 699.8,1099 749.2,1000.2 	"/>
	<polygon class="st0" points="599.8,1299 624.4,1249.7 599.8,1200.3 500.5,1249.7 	"/>
	<polygon class="st0" points="499.9,1250.5 499.9,1248.9 599.3,1199.5 500.5,1001.8 499.5,1001.8 400.7,1199.5 499.9,1248.9 
		499.9,1249.4 499.9,1250 499.9,1250.5 400.7,1299.9 499.5,1497.6 500.5,1497.6 599.3,1299.9 	"/>
	<polygon class="st0" points="600.2,1300.3 501.1,1498.6 699.3,1399.5 666.3,1333.4 	"/>
	<polygon class="st0" points="700.2,1399 748.9,1374.7 667.8,1334.1 	"/>
	<polygon class="st0" points="833,1166.7 750,1125.2 667,1166.7 625.6,1249.7 667,1332.6 750,1374.1 833,1332.6 874.4,1249.7 	"/>
	<polyline class="st0" points="497.9,1499.2 300.2,1400.3 250.8,1499.2 	"/>
	<polygon class="st0" points="200.7,1399.9 250,1498.6 299.3,1399.9 250,1375.2 	"/>
	<polyline class="st0" points="249.2,1499.2 199.8,1400.3 2.1,1499.2 	"/>
	<polyline class="st0" points="997.9,1499.2 800.2,1400.3 750.8,1499.2 	"/>
	<polygon class="st0" points="750,1000.8 700.7,1099.5 750,1124.1 799.3,1099.5 	"/>
	<polygon class="st0" points="299.8,1399 332.2,1334.1 251.1,1374.7 	"/>
	<polygon class="st0" points="399.8,1300.3 333.7,1333.4 300.7,1399.5 498.9,1498.6 	"/>
	<polyline class="st0" points="1000.1,1250.5 900.7,1299.9 999.5,1497.6 	"/>
	<polygon class="st0" points="1200.7,1399.9 1250,1498.6 1299.3,1399.9 1250,1375.2 	"/>
	<polygon class="st0" points="700.7,1399.9 750,1498.6 799.3,1399.9 750,1375.2 	"/>
	<polygon class="st0" points="399.3,1199.9 334.4,1167.5 375,1248.6 	"/>
	<polygon class="st0" points="799.8,1399 832.2,1334.1 751.1,1374.7 	"/>
	<polygon class="st0" points="899.8,1300.3 833.7,1333.4 800.7,1399.5 998.9,1498.6 	"/>
	<polygon class="st0" points="333,1166.7 250,1125.2 167,1166.7 125.6,1249.7 167,1332.6 250,1374.1 333,1332.6 374.4,1249.7 	"/>
	<polygon class="st0" points="100.7,1199.9 125,1248.6 165.6,1167.5 	"/>
	<polygon class="st0" points="100.2,1300.3 1.1,1498.6 199.3,1399.5 166.3,1333.4 	"/>
	<polygon class="st0" points="99.8,1299 124.4,1249.7 99.8,1200.3 1.1,1249.7 	"/>
	<polyline class="st0" points="1249.2,1499.2 1199.8,1400.3 1002.1,1499.2 	"/>
	<polygon class="st0" points="1299.8,1399 1332.2,1334.1 1251.1,1374.7 	"/>
	<polygon class="st0" points="200.2,1399 248.9,1374.7 167.8,1334.1 	"/>
	<polygon class="st0" points="0.5,1250.5 0.5,1497.6 99.3,1299.9 	"/>
	<polygon class="st0" points="248.9,1124.7 200.2,1100.3 167.8,1165.2 	"/>
	<polygon class="st0" points="166.3,1166 199.3,1099.9 1.1,1000.8 100.2,1199 	"/>
	<polygon class="st0" points="165.6,1331.9 125,1250.8 100.7,1299.5 	"/>
	<polygon class="st0" points="0.5,1001.8 0.5,1248.9 99.3,1199.5 	"/>
	<polygon class="st0" points="751.1,1124.7 832.2,1165.2 799.8,1100.3 	"/>
	<polygon class="st0" points="1099.8,1200.3 1000.7,1249.7 1099.8,1299 1124.4,1249.7 	"/>
	<polyline class="st0" points="1000.1,1248.9 1099.3,1199.5 1000.5,1001.8 	"/>
	<polygon class="st0" points="1100.7,1299.5 1165.6,1331.9 1125,1250.8 	"/>
	<polygon class="st0" points="1100.2,1300.3 1001.1,1498.6 1199.3,1399.5 1166.3,1333.4 	"/>
	<polyline class="st0" points="1002.1,1000.2 1199.8,1099 1249.2,1000.2 	"/>
	<polyline class="st0" points="1000.5,1497.6 1099.3,1299.9 1000.1,1250.5 	"/>
	<polygon class="st0" points="1499.5,1497.6 1499.5,1250.5 1400.7,1299.9 	"/>
	<polygon class="st0" points="1250,1000.8 1200.7,1099.5 1250,1124.1 1299.3,1099.5 	"/>
	<polygon class="st0" points="1200.2,1399 1248.9,1374.7 1167.8,1334.1 	"/>
	<polygon class="st0" points="1400.2,1299 1498.9,1249.7 1400.2,1200.3 1375.6,1249.7 	"/>
	<polygon class="st0" points="1125.6,1249.7 1167,1332.6 1250,1374.1 1333,1332.6 1374.4,1249.7 1333,1166.7 1250,1125.2 
		1167,1166.7 	"/>
	<polygon class="st0" points="1166.3,1166 1199.3,1099.9 1001.1,1000.8 1100.2,1199 	"/>
	<polygon class="st0" points="1100.7,1199.9 1125,1248.6 1165.6,1167.5 	"/>
	<polyline class="st0" points="1250.8,1000.2 1300.2,1099 1497.9,1000.2 	"/>
	<polygon class="st0" points="1334.4,1331.9 1399.3,1299.5 1375,1250.8 	"/>
	<polygon class="st0" points="1399.3,1199.9 1334.4,1167.5 1375,1248.6 	"/>
	<polygon class="st0" points="1251.1,1124.7 1332.2,1165.2 1299.8,1100.3 	"/>
	<polygon class="st0" points="800.7,1099.9 833.7,1166 899.8,1199 998.9,1000.8 	"/>
	<polygon class="st0" points="1248.9,1124.7 1200.2,1100.3 1167.8,1165.2 	"/>
	<polygon class="st0" points="1333.7,1333.4 1300.7,1399.5 1498.9,1498.6 1399.8,1300.3 	"/>
	<polyline class="st0" points="749.2,1499.2 699.8,1400.3 502.1,1499.2 	"/>
	<polygon class="st1" points="299.3,1099.5 300.2,1099 250.8,1000.2 249.2,1000.2 199.8,1099 200.7,1099.5 250,1000.8 	"/>
	<polygon class="st1" points="299.8,1100.3 332.2,1165.2 333.7,1166 300.7,1099.9 	"/>
	<polygon class="st1" points="99.3,1299.9 0.5,1497.6 0.5,1498.9 1.1,1498.6 100.2,1300.3 	"/>
	<polygon class="st1" points="375,1250.8 399.3,1299.5 400.2,1299 375.6,1249.7 	"/>
	<polygon class="st1" points="250,998.6 249.7,999.2 250.3,999.2 	"/>
	<polygon class="st1" points="-0.8,1500.2 -0.5,1500.2 -0.5,1499.6 	"/>
	<polygon class="st1" points="100.7,1299.5 125,1250.8 124.4,1249.7 99.8,1299 	"/>
	<line class="st1" x1="249.7" y1="1500.2" x2="249.2" y2="1499.2"/>
	<line class="st1" x1="2.1" y1="1499.2" x2="0.1" y2="1500.2"/>
	<polyline class="st1" points="499.2,1500.2 499.3,1499.9 497.9,1499.2 	"/>
	<line class="st1" x1="250.8" y1="1499.2" x2="250.3" y2="1500.2"/>
	<polygon class="st1" points="375,1248.6 334.4,1167.5 333,1166.7 374.4,1249.7 	"/>
	<polygon class="st1" points="399.8,1300.3 498.9,1498.6 499.5,1498.9 499.5,1497.6 400.7,1299.9 	"/>
	<polygon class="st1" points="125,1248.6 125.6,1249.7 167,1166.7 165.6,1167.5 	"/>
	<polygon class="st1" points="167.8,1165.2 200.2,1100.3 199.3,1099.9 166.3,1166 	"/>
	<polygon class="st1" points="500.5,999.2 500.5,998.9 500,999.1 500.1,999.2 	"/>
	<polygon class="st1" points="-1.1,1249.7 -0.5,1250 -0.5,1249.4 	"/>
	<polygon class="st1" points="500,1500.2 500.5,1500.5 500.5,1500.2 500.1,1500.2 	"/>
	<polygon class="st1" points="167.8,1334.1 248.9,1374.7 250,1374.1 167,1332.6 	"/>
	<polygon class="st1" points="300.7,1399.5 300.2,1400.3 497.9,1499.2 499.3,1499.9 499.5,1499.6 499.5,1498.9 498.9,1498.6 	"/>
	<polygon class="st1" points="250,1375.2 299.3,1399.9 299.8,1399 251.1,1374.7 	"/>
	<polygon class="st1" points="300.7,1099.9 498.9,1000.8 499.2,1000.2 497.9,1000.2 300.2,1099 299.3,1099.5 250,1124.1 
		251.1,1124.7 299.8,1100.3 	"/>
	<polygon class="st1" points="166.3,1166 100.2,1199 100.7,1199.9 165.6,1167.5 167,1166.7 250,1125.2 248.9,1124.7 167.8,1165.2 	
		"/>
	<polygon class="st1" points="100.2,1300.3 166.3,1333.4 165.6,1331.9 100.7,1299.5 99.8,1299 1.1,1249.7 99.8,1200.3 99.3,1199.5 
		0.5,1248.9 0.5,1250.5 99.3,1299.9 	"/>
	<line class="st1" x1="249.2" y1="1000.2" x2="250.8" y2="1000.2"/>
	<line class="st1" x1="0.1" y1="999.2" x2="2.1" y2="1000.2"/>
	<line class="st1" x1="250.3" y1="999.2" x2="249.7" y2="999.2"/>
	<polyline class="st1" points="497.9,1000.2 499.2,1000.2 498.9,1000.8 399.8,1199 400.7,1199.5 499.5,1001.8 499.5,1000.5 
		499.5,999.8 499.2,999.2 	"/>
	<polygon class="st1" points="300.2,1400.3 300.7,1399.5 333.7,1333.4 332.2,1334.1 299.8,1399 299.3,1399.9 250,1498.6 
		200.7,1399.9 199.8,1400.3 249.2,1499.2 249.7,1500.2 250,1500.8 250.3,1500.2 250.8,1499.2 	"/>
	<polygon class="st1" points="-0.8,999.2 -0.5,999.8 -0.5,999.2 	"/>
	<polygon class="st1" points="375.6,1249.7 400.2,1200.3 399.3,1199.9 375,1248.6 374.4,1249.7 333,1332.6 334.4,1331.9 375,1250.8 
			"/>
	<polygon class="st1" points="167,1332.6 125.6,1249.7 125,1248.6 100.7,1199.9 100.2,1199 1.1,1000.8 0.5,1000.5 0.5,1001.8 
		99.3,1199.5 99.8,1200.3 124.4,1249.7 125,1250.8 165.6,1331.9 166.3,1333.4 199.3,1399.5 200.2,1399 167.8,1334.1 	"/>
	<polygon class="st1" points="199.8,1400.3 200.7,1399.9 250,1375.2 251.1,1374.7 332.2,1334.1 333.7,1333.4 399.8,1300.3 
		400.7,1299.9 499.9,1250.5 499.9,1250 499.3,1249.7 400.2,1299 399.3,1299.5 334.4,1331.9 333,1332.6 250,1374.1 248.9,1374.7 
		200.2,1399 199.3,1399.5 1.1,1498.6 0.5,1498.9 0.5,1497.6 0.5,1250.5 0.5,1248.9 0.5,1001.8 0.5,1000.5 1.1,1000.8 199.3,1099.9 
		200.2,1100.3 248.9,1124.7 250,1125.2 333,1166.7 334.4,1167.5 399.3,1199.9 400.2,1200.3 499.3,1249.7 499.9,1249.4 499.9,1248.9 
		400.7,1199.5 399.8,1199 333.7,1166 332.2,1165.2 251.1,1124.7 250,1124.1 200.7,1099.5 199.8,1099 2.1,1000.2 0.1,999.2 
		-0.5,998.9 -0.5,999.2 -0.5,999.8 -0.5,1249.4 -0.5,1250 -0.5,1499.6 -0.5,1500.2 -0.5,1500.5 0.1,1500.2 2.1,1499.2 	"/>
	<polygon class="st1" points="875,1250.8 899.3,1299.5 900.2,1299 875.6,1249.7 	"/>
	<polyline class="st1" points="999.2,1500.2 999.3,1499.9 997.9,1499.2 	"/>
	<line class="st1" x1="750.8" y1="1499.2" x2="750.3" y2="1500.2"/>
	<polygon class="st1" points="799.3,1099.5 800.2,1099 750.8,1000.2 749.2,1000.2 699.8,1099 700.7,1099.5 750,1000.8 	"/>
	<polygon class="st1" points="799.8,1100.3 832.2,1165.2 833.7,1166 800.7,1099.9 	"/>
	<polygon class="st1" points="599.3,1299.9 500.5,1497.6 500.5,1498.9 501.1,1498.6 600.2,1300.3 	"/>
	<line class="st1" x1="749.7" y1="1500.2" x2="749.2" y2="1499.2"/>
	<polyline class="st1" points="502.1,1499.2 500.1,1500.2 500.5,1500.2 500.8,1500.2 	"/>
	<polygon class="st1" points="667.8,1165.2 700.2,1100.3 699.3,1099.9 666.3,1166 	"/>
	<polygon class="st1" points="875,1248.6 834.4,1167.5 833,1166.7 874.4,1249.7 	"/>
	<polygon class="st1" points="899.8,1300.3 998.9,1498.6 999.5,1498.9 999.5,1497.6 900.7,1299.9 	"/>
	<polygon class="st1" points="625,1248.6 625.6,1249.7 667,1166.7 665.6,1167.5 	"/>
	<polygon class="st1" points="600.7,1299.5 625,1250.8 624.4,1249.7 599.8,1299 	"/>
	<polygon class="st1" points="750,998.6 749.7,999.2 750.3,999.2 	"/>
	<polygon class="st1" points="499.3,1499.9 499.2,1500.2 499.5,1500.2 499.5,1499.6 	"/>
	<polygon class="st1" points="1000,1500.2 1000.5,1500.5 1000.5,1500.2 1000.1,1500.2 	"/>
	<polygon class="st1" points="1000.5,999.2 1000.5,998.9 1000,999.1 1000.1,999.2 	"/>
	<polygon class="st1" points="750,1375.2 799.3,1399.9 799.8,1399 751.1,1374.7 	"/>
	<polygon class="st1" points="667.8,1334.1 748.9,1374.7 750,1374.1 667,1332.6 	"/>
	<polygon class="st1" points="800.7,1399.5 800.2,1400.3 997.9,1499.2 999.3,1499.9 999.5,1499.6 999.5,1498.9 998.9,1498.6 	"/>
	<polygon class="st1" points="499.3,1249.7 499.9,1250 499.9,1249.4 	"/>
	<polygon class="st1" points="800.7,1099.9 998.9,1000.8 999.2,1000.2 997.9,1000.2 800.2,1099 799.3,1099.5 750,1124.1 
		751.1,1124.7 799.8,1100.3 	"/>
	<polygon class="st1" points="666.3,1166 600.2,1199 600.7,1199.9 665.6,1167.5 667,1166.7 750,1125.2 748.9,1124.7 667.8,1165.2 	
		"/>
	<polygon class="st1" points="499.9,1250.5 599.3,1299.9 600.2,1300.3 666.3,1333.4 665.6,1331.9 600.7,1299.5 599.8,1299 
		500.5,1249.7 599.8,1200.3 599.3,1199.5 499.9,1248.9 	"/>
	<polygon class="st1" points="800.2,1400.3 800.7,1399.5 833.7,1333.4 832.2,1334.1 799.8,1399 799.3,1399.9 750,1498.6 
		700.7,1399.9 699.8,1400.3 749.2,1499.2 749.7,1500.2 750,1500.8 750.3,1500.2 750.8,1499.2 	"/>
	<polygon class="st1" points="499.5,999.2 499.2,999.2 499.5,999.8 	"/>
	<line class="st1" x1="749.2" y1="1000.2" x2="750.8" y2="1000.2"/>
	<polyline class="st1" points="500.8,999.2 500.5,999.2 500.1,999.2 502.1,1000.2 	"/>
	<line class="st1" x1="750.3" y1="999.2" x2="749.7" y2="999.2"/>
	<polyline class="st1" points="997.9,1000.2 999.2,1000.2 998.9,1000.8 899.8,1199 900.7,1199.5 999.5,1001.8 999.5,1000.5 
		999.5,999.8 999.2,999.2 	"/>
	<polygon class="st1" points="875.6,1249.7 900.2,1200.3 899.3,1199.9 875,1248.6 874.4,1249.7 833,1332.6 834.4,1331.9 875,1250.8 
			"/>
	<polygon class="st1" points="667,1332.6 625.6,1249.7 625,1248.6 600.7,1199.9 600.2,1199 501.1,1000.8 500.5,1000.5 500.5,1001.8 
		599.3,1199.5 599.8,1200.3 624.4,1249.7 625,1250.8 665.6,1331.9 666.3,1333.4 699.3,1399.5 700.2,1399 667.8,1334.1 	"/>
	<line class="st2" x1="499.9" y1="1248.9" x2="499.9" y2="1250.5"/>
	<polygon class="st1" points="502.1,1499.2 699.8,1400.3 700.7,1399.9 750,1375.2 751.1,1374.7 832.2,1334.1 833.7,1333.4 
		899.8,1300.3 900.7,1299.9 1000.1,1250.5 1000.1,1250 999.5,1249.7 900.2,1299 899.3,1299.5 834.4,1331.9 833,1332.6 750,1374.1 
		748.9,1374.7 700.2,1399 699.3,1399.5 501.1,1498.6 500.5,1498.9 500.5,1497.6 499.5,1497.6 499.5,1498.9 499.5,1499.6 
		499.5,1500.2 499.5,1500.5 500,1500.2 500.1,1500.2 	"/>
	<line class="st2" x1="499.9" y1="1248.9" x2="499.9" y2="1249.4"/>
	<line class="st2" x1="499.9" y1="1250" x2="499.9" y2="1250.5"/>
	<line class="st2" x1="499.9" y1="1249.4" x2="499.9" y2="1250"/>
	<polygon class="st1" points="499.5,1000.5 499.5,1001.8 500.5,1001.8 500.5,1000.5 501.1,1000.8 699.3,1099.9 700.2,1100.3 
		748.9,1124.7 750,1125.2 833,1166.7 834.4,1167.5 899.3,1199.9 900.2,1200.3 999.5,1249.7 1000.1,1249.4 1000.1,1248.9 
		900.7,1199.5 899.8,1199 833.7,1166 832.2,1165.2 751.1,1124.7 750,1124.1 700.7,1099.5 699.8,1099 502.1,1000.2 500.1,999.2 
		500,999.1 499.5,998.9 499.5,999.2 499.5,999.8 	"/>
	<polygon class="st1" points="1100.2,1300.3 1099.3,1299.9 1000.5,1497.6 1000.5,1498.9 1001.1,1498.6 	"/>
	<polygon class="st1" points="1299.3,1099.5 1300.2,1099 1250.8,1000.2 1249.2,1000.2 1199.8,1099 1200.7,1099.5 1250,1000.8 	"/>
	<polygon class="st1" points="1375,1250.8 1399.3,1299.5 1400.2,1299 1375.6,1249.7 	"/>
	<polygon class="st1" points="1500.5,1500.2 1500.8,1500.2 1500.5,1499.6 	"/>
	<polygon class="st1" points="1299.8,1100.3 1332.2,1165.2 1333.7,1166 1300.7,1099.9 	"/>
	<polygon class="st1" points="1250,998.6 1249.7,999.2 1250.3,999.2 	"/>
	<polygon class="st1" points="1165.6,1167.5 1125,1248.6 1125.6,1249.7 1167,1166.7 	"/>
	<line class="st1" x1="1499.9" y1="1500.2" x2="1497.9" y2="1499.2"/>
	<line class="st1" x1="1250.8" y1="1499.2" x2="1250.3" y2="1500.2"/>
	<polygon class="st1" points="1399.8,1300.3 1498.9,1498.6 1499.5,1498.9 1499.5,1497.6 1400.7,1299.9 	"/>
	<line class="st1" x1="1249.7" y1="1500.2" x2="1249.2" y2="1499.2"/>
	<polyline class="st1" points="1002.1,1499.2 1000.1,1500.2 1000.5,1500.2 1000.8,1500.2 	"/>
	<polygon class="st1" points="1124.4,1249.7 1099.8,1299 1100.7,1299.5 1125,1250.8 	"/>
	<polygon class="st1" points="1167.8,1165.2 1200.2,1100.3 1199.3,1099.9 1166.3,1166 	"/>
	<polygon class="st1" points="1375,1248.6 1334.4,1167.5 1333,1166.7 1374.4,1249.7 	"/>
	<polygon class="st1" points="999.3,1499.9 999.2,1500.2 999.5,1500.2 999.5,1499.6 	"/>
	<polygon class="st1" points="1499.5,1248.9 1500.5,1249.4 1500.5,999.8 1499.5,1001.8 	"/>
	<polygon class="st1" points="1250,1375.2 1299.3,1399.9 1299.8,1399 1251.1,1374.7 	"/>
	<polygon class="st1" points="1167.8,1334.1 1248.9,1374.7 1250,1374.1 1167,1332.6 	"/>
	<polygon class="st1" points="1500.5,998.9 1499.9,999.2 1500.5,999.2 	"/>
	<polygon class="st1" points="1500.5,1250 1499.5,1250.5 1499.5,1497.6 1499.5,1498.9 1498.9,1498.6 1300.7,1399.5 1300.2,1400.3 
		1497.9,1499.2 1499.9,1500.2 1500.5,1500.5 1500.5,1500.2 1500.5,1499.6 	"/>
	<polygon class="st1" points="1000.1,1250 1000.1,1249.4 999.5,1249.7 	"/>
	<polygon class="st1" points="1100.2,1300.3 1166.3,1333.4 1165.6,1331.9 1100.7,1299.5 1099.8,1299 1000.7,1249.7 1099.8,1200.3 
		1099.3,1199.5 1000.1,1248.9 1000.1,1250.5 1099.3,1299.9 	"/>
	<polygon class="st1" points="1166.3,1166 1100.2,1199 1100.7,1199.9 1165.6,1167.5 1167,1166.7 1250,1125.2 1248.9,1124.7 
		1167.8,1165.2 	"/>
	<polygon class="st1" points="1300.7,1099.9 1498.9,1000.8 1499.2,1000.2 1497.9,1000.2 1300.2,1099 1299.3,1099.5 1250,1124.1 
		1251.1,1124.7 1299.8,1100.3 	"/>
	<polygon class="st1" points="1300.2,1400.3 1300.7,1399.5 1333.7,1333.4 1332.2,1334.1 1299.8,1399 1299.3,1399.9 1250,1498.6 
		1200.7,1399.9 1199.8,1400.3 1249.2,1499.2 1249.7,1500.2 1250,1500.8 1250.3,1500.2 1250.8,1499.2 	"/>
	<polygon class="st1" points="999.5,999.2 999.2,999.2 999.5,999.8 	"/>
	<line class="st1" x1="1249.2" y1="1000.2" x2="1250.8" y2="1000.2"/>
	<polyline class="st1" points="1000.8,999.2 1000.5,999.2 1000.1,999.2 1002.1,1000.2 	"/>
	<line class="st1" x1="1250.3" y1="999.2" x2="1249.7" y2="999.2"/>
	<polyline class="st1" points="1497.9,1000.2 1499.2,1000.2 1498.9,1000.8 1399.8,1199 1400.7,1199.5 1499.5,1001.8 1500.5,999.8 
		1500.8,999.2 1500.5,999.2 1499.9,999.2 	"/>
	<polygon class="st1" points="1374.4,1249.7 1333,1332.6 1334.4,1331.9 1375,1250.8 1375.6,1249.7 1400.2,1200.3 1399.3,1199.9 
		1375,1248.6 	"/>
	<polygon class="st1" points="1099.8,1200.3 1124.4,1249.7 1125,1250.8 1165.6,1331.9 1166.3,1333.4 1199.3,1399.5 1200.2,1399 
		1167.8,1334.1 1167,1332.6 1125.6,1249.7 1125,1248.6 1100.7,1199.9 1100.2,1199 1001.1,1000.8 1000.5,1000.5 1000.5,1001.8 
		1099.3,1199.5 	"/>
	<polygon class="st1" points="1500.5,1249.4 1499.5,1248.9 1400.7,1199.5 1399.8,1199 1333.7,1166 1332.2,1165.2 1251.1,1124.7 
		1250,1124.1 1200.7,1099.5 1199.8,1099 1002.1,1000.2 1000.1,999.2 1000,999.1 999.5,998.9 999.5,999.2 999.5,999.8 999.5,1000.5 
		999.5,1001.8 1000.5,1001.8 1000.5,1000.5 1001.1,1000.8 1199.3,1099.9 1200.2,1100.3 1248.9,1124.7 1250,1125.2 1333,1166.7 
		1334.4,1167.5 1399.3,1199.9 1400.2,1200.3 1498.9,1249.7 1400.2,1299 1399.3,1299.5 1334.4,1331.9 1333,1332.6 1250,1374.1 
		1248.9,1374.7 1200.2,1399 1199.3,1399.5 1001.1,1498.6 1000.5,1498.9 1000.5,1497.6 999.5,1497.6 999.5,1498.9 999.5,1499.6 
		999.5,1500.2 999.5,1500.5 1000,1500.2 1000.1,1500.2 1002.1,1499.2 1199.8,1400.3 1200.7,1399.9 1250,1375.2 1251.1,1374.7 
		1332.2,1334.1 1333.7,1333.4 1399.8,1300.3 1400.7,1299.9 1499.5,1250.5 1500.5,1250 1501.1,1249.7 	"/>
</g>
<g>
	<polygon class="st0" points="899.3,1700.1 834.4,1667.7 875,1748.8 	"/>
	<polygon class="st0" points="334.4,1832.1 399.3,1799.7 375,1751 	"/>
	<polygon class="st0" points="600.7,1700.1 625,1748.8 665.6,1667.7 	"/>
	<polygon class="st0" points="748.9,1624.9 700.2,1600.6 667.8,1665.5 	"/>
	<polygon class="st0" points="1497.9,1999.4 1300.2,1900.6 1250.8,1999.4 	"/>
	<polygon class="st0" points="250,1501 200.7,1599.7 250,1624.3 299.3,1599.7 	"/>
	<polyline class="st0" points="2.1,1500.4 199.8,1599.2 249.2,1500.4 	"/>
	<polyline class="st0" points="250.8,1500.4 300.2,1599.2 497.9,1500.4 	"/>
	<polygon class="st0" points="251.1,1624.9 332.2,1665.5 299.8,1600.6 	"/>
	<polygon class="st0" points="375.6,1749.9 400.2,1799.2 499.3,1749.9 400.2,1700.6 	"/>
	<polygon class="st0" points="666.3,1666.2 699.3,1600.1 501.1,1501 600.2,1699.2 	"/>
	<polygon class="st0" points="1400.7,1699.7 1499.5,1749.1 1499.5,1502 	"/>
	<polygon class="st0" points="300.7,1600.1 333.7,1666.2 399.8,1699.2 498.9,1501 	"/>
	<polyline class="st0" points="999.5,1502 900.7,1699.7 1000.1,1749.1 	"/>
	<polygon class="st0" points="665.6,1832.1 625,1751 600.7,1799.7 	"/>
	<polygon class="st0" points="875.6,1749.9 900.2,1799.2 999.5,1749.9 900.2,1700.6 	"/>
	<polyline class="st0" points="750.8,1500.4 800.2,1599.2 997.9,1500.4 	"/>
	<polygon class="st0" points="834.4,1832.1 899.3,1799.7 875,1751 	"/>
	<polygon class="st0" points="1300.7,1600.1 1333.7,1666.2 1399.8,1699.2 1498.9,1501 	"/>
	<polyline class="st0" points="502.1,1500.4 699.8,1599.2 749.2,1500.4 	"/>
	<polygon class="st0" points="599.8,1799.2 624.4,1749.9 599.8,1700.6 500.5,1749.9 	"/>
	<polygon class="st0" points="499.9,1750.7 499.9,1749.1 599.3,1699.7 500.5,1502 499.5,1502 400.7,1699.7 499.9,1749.1 
		499.9,1749.6 499.9,1750.2 499.9,1750.7 400.7,1800.1 499.5,1997.8 500.5,1997.8 599.3,1800.1 	"/>
	<polygon class="st0" points="600.2,1800.6 501.1,1998.8 699.3,1899.7 666.3,1833.6 	"/>
	<polygon class="st0" points="700.2,1899.2 748.9,1874.9 667.8,1834.4 	"/>
	<polygon class="st0" points="833,1666.9 750,1625.5 667,1666.9 625.6,1749.9 667,1832.9 750,1874.3 833,1832.9 874.4,1749.9 	"/>
	<polygon class="st0" points="250.8,1999.4 497.9,1999.4 300.2,1900.6 	"/>
	<polygon class="st0" points="200.7,1900.1 250,1998.8 299.3,1900.1 250,1875.5 	"/>
	<polygon class="st0" points="249.2,1999.4 199.8,1900.6 2.1,1999.4 	"/>
	<polygon class="st0" points="750.8,1999.4 997.9,1999.4 800.2,1900.6 	"/>
	<polygon class="st0" points="750,1501 700.7,1599.7 750,1624.3 799.3,1599.7 	"/>
	<polygon class="st0" points="299.8,1899.2 332.2,1834.4 251.1,1874.9 	"/>
	<polygon class="st0" points="399.8,1800.6 333.7,1833.6 300.7,1899.7 498.9,1998.8 	"/>
	<polyline class="st0" points="1000.1,1750.7 900.7,1800.1 999.5,1997.8 	"/>
	<polygon class="st0" points="1200.7,1900.1 1250,1998.8 1299.3,1900.1 1250,1875.5 	"/>
	<polygon class="st0" points="700.7,1900.1 750,1998.8 799.3,1900.1 750,1875.5 	"/>
	<polygon class="st0" points="399.3,1700.1 334.4,1667.7 375,1748.8 	"/>
	<polygon class="st0" points="799.8,1899.2 832.2,1834.4 751.1,1874.9 	"/>
	<polygon class="st0" points="899.8,1800.6 833.7,1833.6 800.7,1899.7 998.9,1998.8 	"/>
	<polygon class="st0" points="333,1666.9 250,1625.5 167,1666.9 125.6,1749.9 167,1832.9 250,1874.3 333,1832.9 374.4,1749.9 	"/>
	<polygon class="st0" points="100.7,1700.1 125,1748.8 165.6,1667.7 	"/>
	<polygon class="st0" points="100.2,1800.6 1.1,1998.8 199.3,1899.7 166.3,1833.6 	"/>
	<polygon class="st0" points="99.8,1799.2 124.4,1749.9 99.8,1700.6 1.1,1749.9 	"/>
	<polygon class="st0" points="1249.2,1999.4 1199.8,1900.6 1002.1,1999.4 	"/>
	<polygon class="st0" points="1299.8,1899.2 1332.2,1834.4 1251.1,1874.9 	"/>
	<polygon class="st0" points="200.2,1899.2 248.9,1874.9 167.8,1834.4 	"/>
	<polygon class="st0" points="0.5,1750.7 0.5,1997.8 99.3,1800.1 	"/>
	<polygon class="st0" points="248.9,1624.9 200.2,1600.6 167.8,1665.5 	"/>
	<polygon class="st0" points="166.3,1666.2 199.3,1600.1 1.1,1501 100.2,1699.2 	"/>
	<polygon class="st0" points="165.6,1832.1 125,1751 100.7,1799.7 	"/>
	<polygon class="st0" points="0.5,1502 0.5,1749.1 99.3,1699.7 	"/>
	<polygon class="st0" points="751.1,1624.9 832.2,1665.5 799.8,1600.6 	"/>
	<polygon class="st0" points="1099.8,1700.6 1000.7,1749.9 1099.8,1799.2 1124.4,1749.9 	"/>
	<polyline class="st0" points="1000.1,1749.1 1099.3,1699.7 1000.5,1502 	"/>
	<polygon class="st0" points="1100.7,1799.7 1165.6,1832.1 1125,1751 	"/>
	<polygon class="st0" points="1100.2,1800.6 1001.1,1998.8 1199.3,1899.7 1166.3,1833.6 	"/>
	<polyline class="st0" points="1002.1,1500.4 1199.8,1599.2 1249.2,1500.4 	"/>
	<polyline class="st0" points="1000.5,1997.8 1099.3,1800.1 1000.1,1750.7 	"/>
	<polygon class="st0" points="1499.5,1997.8 1499.5,1750.7 1400.7,1800.1 	"/>
	<polygon class="st0" points="1250,1501 1200.7,1599.7 1250,1624.3 1299.3,1599.7 	"/>
	<polygon class="st0" points="1200.2,1899.2 1248.9,1874.9 1167.8,1834.4 	"/>
	<polygon class="st0" points="1400.2,1799.2 1498.9,1749.9 1400.2,1700.6 1375.6,1749.9 	"/>
	<polygon class="st0" points="1125.6,1749.9 1167,1832.9 1250,1874.3 1333,1832.9 1374.4,1749.9 1333,1666.9 1250,1625.5 
		1167,1666.9 	"/>
	<polygon class="st0" points="1166.3,1666.2 1199.3,1600.1 1001.1,1501 1100.2,1699.2 	"/>
	<polygon class="st0" points="1100.7,1700.1 1125,1748.8 1165.6,1667.7 	"/>
	<polyline class="st0" points="1250.8,1500.4 1300.2,1599.2 1497.9,1500.4 	"/>
	<polygon class="st0" points="1334.4,1832.1 1399.3,1799.7 1375,1751 	"/>
	<polygon class="st0" points="1399.3,1700.1 1334.4,1667.7 1375,1748.8 	"/>
	<polygon class="st0" points="1251.1,1624.9 1332.2,1665.5 1299.8,1600.6 	"/>
	<polygon class="st0" points="800.7,1600.1 833.7,1666.2 899.8,1699.2 998.9,1501 	"/>
	<polygon class="st0" points="1248.9,1624.9 1200.2,1600.6 1167.8,1665.5 	"/>
	<polygon class="st0" points="1333.7,1833.6 1300.7,1899.7 1498.9,1998.8 1399.8,1800.6 	"/>
	<polygon class="st0" points="749.2,1999.4 699.8,1900.6 502.1,1999.4 	"/>
	<polygon class="st1" points="299.3,1599.7 300.2,1599.2 250.8,1500.4 249.2,1500.4 199.8,1599.2 200.7,1599.7 250,1501 	"/>
	<polygon class="st1" points="299.8,1600.6 332.2,1665.5 333.7,1666.2 300.7,1600.1 	"/>
	<polygon class="st1" points="99.3,1800.1 0.5,1997.8 0.5,1999.1 1.1,1998.8 100.2,1800.6 	"/>
	<polygon class="st1" points="375,1751 399.3,1799.7 400.2,1799.2 375.6,1749.9 	"/>
	<polygon class="st1" points="250,1498.8 249.7,1499.4 250.3,1499.4 	"/>
	<polygon class="st1" points="-0.8,2000.4 -0.5,2000.4 -0.5,1999.8 	"/>
	<polygon class="st1" points="100.7,1799.7 125,1751 124.4,1749.9 99.8,1799.2 	"/>
	<polygon class="st1" points="2.1,1999.4 0.1,2000.4 249.7,2000.4 249.2,1999.4 	"/>
	<polygon class="st1" points="497.9,1999.4 250.8,1999.4 250.3,2000.4 499.2,2000.4 499.3,2000.1 	"/>
	<polygon class="st1" points="375,1748.8 334.4,1667.7 333,1666.9 374.4,1749.9 	"/>
	<polygon class="st1" points="399.8,1800.6 498.9,1998.8 499.5,1999.1 499.5,1997.8 400.7,1800.1 	"/>
	<polygon class="st1" points="125,1748.8 125.6,1749.9 167,1666.9 165.6,1667.7 	"/>
	<polygon class="st1" points="167.8,1665.5 200.2,1600.6 199.3,1600.1 166.3,1666.2 	"/>
	<polygon class="st1" points="500.5,1499.4 500.5,1499.1 500,1499.3 500.1,1499.4 	"/>
	<polygon class="st1" points="-1.1,1749.9 -0.5,1750.2 -0.5,1749.6 	"/>
	<polygon class="st1" points="500,2000.5 500.5,2000.7 500.5,2000.4 500.1,2000.4 	"/>
	<polygon class="st1" points="167.8,1834.4 248.9,1874.9 250,1874.3 167,1832.9 	"/>
	<polygon class="st1" points="300.7,1899.7 300.2,1900.6 497.9,1999.4 499.3,2000.1 499.5,1999.8 499.5,1999.1 498.9,1998.8 	"/>
	<polygon class="st1" points="250,1875.5 299.3,1900.1 299.8,1899.2 251.1,1874.9 	"/>
	<polygon class="st1" points="300.7,1600.1 498.9,1501 499.2,1500.4 497.9,1500.4 300.2,1599.2 299.3,1599.7 250,1624.3 
		251.1,1624.9 299.8,1600.6 	"/>
	<polygon class="st1" points="166.3,1666.2 100.2,1699.2 100.7,1700.1 165.6,1667.7 167,1666.9 250,1625.5 248.9,1624.9 
		167.8,1665.5 	"/>
	<polygon class="st1" points="100.2,1800.6 166.3,1833.6 165.6,1832.1 100.7,1799.7 99.8,1799.2 1.1,1749.9 99.8,1700.6 
		99.3,1699.7 0.5,1749.1 0.5,1750.7 99.3,1800.1 	"/>
	<line class="st1" x1="249.2" y1="1500.4" x2="250.8" y2="1500.4"/>
	<line class="st1" x1="0.1" y1="1499.4" x2="2.1" y2="1500.4"/>
	<line class="st1" x1="250.3" y1="1499.4" x2="249.7" y2="1499.4"/>
	<polyline class="st1" points="497.9,1500.4 499.2,1500.4 498.9,1501 399.8,1699.2 400.7,1699.7 499.5,1502 499.5,1500.7 
		499.5,1500 499.2,1499.4 	"/>
	<polygon class="st1" points="300.2,1900.6 300.7,1899.7 333.7,1833.6 332.2,1834.4 299.8,1899.2 299.3,1900.1 250,1998.8 
		200.7,1900.1 199.8,1900.6 249.2,1999.4 249.7,2000.4 250,2001 250.3,2000.4 250.8,1999.4 	"/>
	<polygon class="st1" points="-0.8,1499.4 -0.5,1500 -0.5,1499.4 	"/>
	<polygon class="st1" points="375.6,1749.9 400.2,1700.6 399.3,1700.1 375,1748.8 374.4,1749.9 333,1832.9 334.4,1832.1 375,1751 	
		"/>
	<polygon class="st1" points="167,1832.9 125.6,1749.9 125,1748.8 100.7,1700.1 100.2,1699.2 1.1,1501 0.5,1500.7 0.5,1502 
		99.3,1699.7 99.8,1700.6 124.4,1749.9 125,1751 165.6,1832.1 166.3,1833.6 199.3,1899.7 200.2,1899.2 167.8,1834.4 	"/>
	<polygon class="st1" points="199.8,1900.6 200.7,1900.1 250,1875.5 251.1,1874.9 332.2,1834.4 333.7,1833.6 399.8,1800.6 
		400.7,1800.1 499.9,1750.7 499.9,1750.2 499.3,1749.9 400.2,1799.2 399.3,1799.7 334.4,1832.1 333,1832.9 250,1874.3 248.9,1874.9 
		200.2,1899.2 199.3,1899.7 1.1,1998.8 0.5,1999.1 0.5,1997.8 0.5,1750.7 0.5,1749.1 0.5,1502 0.5,1500.7 1.1,1501 199.3,1600.1 
		200.2,1600.6 248.9,1624.9 250,1625.5 333,1666.9 334.4,1667.7 399.3,1700.1 400.2,1700.6 499.3,1749.9 499.9,1749.6 499.9,1749.1 
		400.7,1699.7 399.8,1699.2 333.7,1666.2 332.2,1665.5 251.1,1624.9 250,1624.3 200.7,1599.7 199.8,1599.2 2.1,1500.4 0.1,1499.4 
		-0.5,1499.1 -0.5,1499.4 -0.5,1500 -0.5,1749.6 -0.5,1750.2 -0.5,1999.8 -0.5,2000.4 -0.5,2000.7 0.1,2000.4 2.1,1999.4 	"/>
	<polygon class="st1" points="875,1751 899.3,1799.7 900.2,1799.2 875.6,1749.9 	"/>
	<polygon class="st1" points="997.9,1999.4 750.8,1999.4 750.3,2000.4 999.2,2000.4 999.3,2000.1 	"/>
	<polygon class="st1" points="799.3,1599.7 800.2,1599.2 750.8,1500.4 749.2,1500.4 699.8,1599.2 700.7,1599.7 750,1501 	"/>
	<polygon class="st1" points="799.8,1600.6 832.2,1665.5 833.7,1666.2 800.7,1600.1 	"/>
	<polygon class="st1" points="599.3,1800.1 500.5,1997.8 500.5,1999.1 501.1,1998.8 600.2,1800.6 	"/>
	<polygon class="st1" points="502.1,1999.4 500.1,2000.4 500.5,2000.4 500.8,2000.4 749.7,2000.4 749.2,1999.4 	"/>
	<polygon class="st1" points="667.8,1665.5 700.2,1600.6 699.3,1600.1 666.3,1666.2 	"/>
	<polygon class="st1" points="875,1748.8 834.4,1667.7 833,1666.9 874.4,1749.9 	"/>
	<polygon class="st1" points="899.8,1800.6 998.9,1998.8 999.5,1999.1 999.5,1997.8 900.7,1800.1 	"/>
	<polygon class="st1" points="625,1748.8 625.6,1749.9 667,1666.9 665.6,1667.7 	"/>
	<polygon class="st1" points="600.7,1799.7 625,1751 624.4,1749.9 599.8,1799.2 	"/>
	<polygon class="st1" points="750,1498.8 749.7,1499.4 750.3,1499.4 	"/>
	<polygon class="st1" points="499.3,2000.1 499.2,2000.4 499.5,2000.4 499.5,1999.8 	"/>
	<polygon class="st1" points="1000,2000.5 1000.5,2000.7 1000.5,2000.4 1000.1,2000.4 	"/>
	<polygon class="st1" points="1000.5,1499.4 1000.5,1499.1 1000,1499.3 1000.1,1499.4 	"/>
	<polygon class="st1" points="750,1875.5 799.3,1900.1 799.8,1899.2 751.1,1874.9 	"/>
	<polygon class="st1" points="667.8,1834.4 748.9,1874.9 750,1874.3 667,1832.9 	"/>
	<polygon class="st1" points="800.7,1899.7 800.2,1900.6 997.9,1999.4 999.3,2000.1 999.5,1999.8 999.5,1999.1 998.9,1998.8 	"/>
	<polygon class="st1" points="499.3,1749.9 499.9,1750.2 499.9,1749.6 	"/>
	<polygon class="st1" points="800.7,1600.1 998.9,1501 999.2,1500.4 997.9,1500.4 800.2,1599.2 799.3,1599.7 750,1624.3 
		751.1,1624.9 799.8,1600.6 	"/>
	<polygon class="st1" points="666.3,1666.2 600.2,1699.2 600.7,1700.1 665.6,1667.7 667,1666.9 750,1625.5 748.9,1624.9 
		667.8,1665.5 	"/>
	<polygon class="st1" points="499.9,1750.7 599.3,1800.1 600.2,1800.6 666.3,1833.6 665.6,1832.1 600.7,1799.7 599.8,1799.2 
		500.5,1749.9 599.8,1700.6 599.3,1699.7 499.9,1749.1 	"/>
	<polygon class="st1" points="800.2,1900.6 800.7,1899.7 833.7,1833.6 832.2,1834.4 799.8,1899.2 799.3,1900.1 750,1998.8 
		700.7,1900.1 699.8,1900.6 749.2,1999.4 749.7,2000.4 750,2001 750.3,2000.4 750.8,1999.4 	"/>
	<polygon class="st1" points="499.5,1499.4 499.2,1499.4 499.5,1500 	"/>
	<line class="st1" x1="749.2" y1="1500.4" x2="750.8" y2="1500.4"/>
	<polyline class="st1" points="500.8,1499.4 500.5,1499.4 500.1,1499.4 502.1,1500.4 	"/>
	<line class="st1" x1="750.3" y1="1499.4" x2="749.7" y2="1499.4"/>
	<polyline class="st1" points="997.9,1500.4 999.2,1500.4 998.9,1501 899.8,1699.2 900.7,1699.7 999.5,1502 999.5,1500.7 
		999.5,1500 999.2,1499.4 	"/>
	<polygon class="st1" points="875.6,1749.9 900.2,1700.6 899.3,1700.1 875,1748.8 874.4,1749.9 833,1832.9 834.4,1832.1 875,1751 	
		"/>
	<polygon class="st1" points="667,1832.9 625.6,1749.9 625,1748.8 600.7,1700.1 600.2,1699.2 501.1,1501 500.5,1500.7 500.5,1502 
		599.3,1699.7 599.8,1700.6 624.4,1749.9 625,1751 665.6,1832.1 666.3,1833.6 699.3,1899.7 700.2,1899.2 667.8,1834.4 	"/>
	<line class="st2" x1="499.9" y1="1749.1" x2="499.9" y2="1750.7"/>
	<polygon class="st1" points="502.1,1999.4 699.8,1900.6 700.7,1900.1 750,1875.5 751.1,1874.9 832.2,1834.4 833.7,1833.6 
		899.8,1800.6 900.7,1800.1 1000.1,1750.7 1000.1,1750.2 999.5,1749.9 900.2,1799.2 899.3,1799.7 834.4,1832.1 833,1832.9 
		750,1874.3 748.9,1874.9 700.2,1899.2 699.3,1899.7 501.1,1998.8 500.5,1999.1 500.5,1997.8 499.5,1997.8 499.5,1999.1 
		499.5,1999.8 499.5,2000.4 499.5,2000.7 500,2000.5 500.1,2000.4 	"/>
	<line class="st2" x1="499.9" y1="1749.1" x2="499.9" y2="1749.6"/>
	<line class="st2" x1="499.9" y1="1750.2" x2="499.9" y2="1750.7"/>
	<line class="st2" x1="499.9" y1="1749.6" x2="499.9" y2="1750.2"/>
	<polygon class="st1" points="499.5,1500.7 499.5,1502 500.5,1502 500.5,1500.7 501.1,1501 699.3,1600.1 700.2,1600.6 748.9,1624.9 
		750,1625.5 833,1666.9 834.4,1667.7 899.3,1700.1 900.2,1700.6 999.5,1749.9 1000.1,1749.6 1000.1,1749.1 900.7,1699.7 
		899.8,1699.2 833.7,1666.2 832.2,1665.5 751.1,1624.9 750,1624.3 700.7,1599.7 699.8,1599.2 502.1,1500.4 500.1,1499.4 500,1499.3 
		499.5,1499.1 499.5,1499.4 499.5,1500 	"/>
	<polygon class="st1" points="1100.2,1800.6 1099.3,1800.1 1000.5,1997.8 1000.5,1999.1 1001.1,1998.8 	"/>
	<polygon class="st1" points="1299.3,1599.7 1300.2,1599.2 1250.8,1500.4 1249.2,1500.4 1199.8,1599.2 1200.7,1599.7 1250,1501 	"/>
	<polygon class="st1" points="1375,1751 1399.3,1799.7 1400.2,1799.2 1375.6,1749.9 	"/>
	<polygon class="st1" points="1500.5,2000.4 1500.8,2000.4 1500.5,1999.8 	"/>
	<polygon class="st1" points="1299.8,1600.6 1332.2,1665.5 1333.7,1666.2 1300.7,1600.1 	"/>
	<polygon class="st1" points="1250,1498.8 1249.7,1499.4 1250.3,1499.4 	"/>
	<polygon class="st1" points="1165.6,1667.7 1125,1748.8 1125.6,1749.9 1167,1666.9 	"/>
	<polygon class="st1" points="1250.8,1999.4 1250.3,2000.4 1499.9,2000.4 1497.9,1999.4 	"/>
	<polygon class="st1" points="1399.8,1800.6 1498.9,1998.8 1499.5,1999.1 1499.5,1997.8 1400.7,1800.1 	"/>
	<polygon class="st1" points="1002.1,1999.4 1000.1,2000.4 1000.5,2000.4 1000.8,2000.4 1249.7,2000.4 1249.2,1999.4 	"/>
	<polygon class="st1" points="1124.4,1749.9 1099.8,1799.2 1100.7,1799.7 1125,1751 	"/>
	<polygon class="st1" points="1167.8,1665.5 1200.2,1600.6 1199.3,1600.1 1166.3,1666.2 	"/>
	<polygon class="st1" points="1375,1748.8 1334.4,1667.7 1333,1666.9 1374.4,1749.9 	"/>
	<polygon class="st1" points="999.3,2000.1 999.2,2000.4 999.5,2000.4 999.5,1999.8 	"/>
	<polygon class="st1" points="1499.5,1749.1 1500.5,1749.6 1500.5,1500 1499.5,1502 	"/>
	<polygon class="st1" points="1250,1875.5 1299.3,1900.1 1299.8,1899.2 1251.1,1874.9 	"/>
	<polygon class="st1" points="1167.8,1834.4 1248.9,1874.9 1250,1874.3 1167,1832.9 	"/>
	<polygon class="st1" points="1500.5,1499.1 1499.9,1499.4 1500.5,1499.4 	"/>
	<polygon class="st1" points="1500.5,1750.2 1499.5,1750.7 1499.5,1997.8 1499.5,1999.1 1498.9,1998.8 1300.7,1899.7 1300.2,1900.6 
		1497.9,1999.4 1499.9,2000.4 1500.5,2000.7 1500.5,2000.4 1500.5,1999.8 	"/>
	<polygon class="st1" points="1000.1,1750.2 1000.1,1749.6 999.5,1749.9 	"/>
	<polygon class="st1" points="1100.2,1800.6 1166.3,1833.6 1165.6,1832.1 1100.7,1799.7 1099.8,1799.2 1000.7,1749.9 1099.8,1700.6 
		1099.3,1699.7 1000.1,1749.1 1000.1,1750.7 1099.3,1800.1 	"/>
	<polygon class="st1" points="1166.3,1666.2 1100.2,1699.2 1100.7,1700.1 1165.6,1667.7 1167,1666.9 1250,1625.5 1248.9,1624.9 
		1167.8,1665.5 	"/>
	<polygon class="st1" points="1300.7,1600.1 1498.9,1501 1499.2,1500.4 1497.9,1500.4 1300.2,1599.2 1299.3,1599.7 1250,1624.3 
		1251.1,1624.9 1299.8,1600.6 	"/>
	<polygon class="st1" points="1300.2,1900.6 1300.7,1899.7 1333.7,1833.6 1332.2,1834.4 1299.8,1899.2 1299.3,1900.1 1250,1998.8 
		1200.7,1900.1 1199.8,1900.6 1249.2,1999.4 1249.7,2000.4 1250,2001 1250.3,2000.4 1250.8,1999.4 	"/>
	<polygon class="st1" points="999.5,1499.4 999.2,1499.4 999.5,1500 	"/>
	<polyline class="st1" points="1000.8,1499.4 1000.5,1499.4 1000.1,1499.4 1002.1,1500.4 	"/>
	<line class="st1" x1="1250.3" y1="1499.4" x2="1249.7" y2="1499.4"/>
	<polyline class="st1" points="1497.9,1500.4 1499.2,1500.4 1498.9,1501 1399.8,1699.2 1400.7,1699.7 1499.5,1502 1500.5,1500 
		1500.8,1499.4 1500.5,1499.4 1499.9,1499.4 	"/>
	<line class="st1" x1="1249.2" y1="1500.4" x2="1250.8" y2="1500.4"/>
	<polygon class="st1" points="1374.4,1749.9 1333,1832.9 1334.4,1832.1 1375,1751 1375.6,1749.9 1400.2,1700.6 1399.3,1700.1 
		1375,1748.8 	"/>
	<polygon class="st1" points="1099.8,1700.6 1124.4,1749.9 1125,1751 1165.6,1832.1 1166.3,1833.6 1199.3,1899.7 1200.2,1899.2 
		1167.8,1834.4 1167,1832.9 1125.6,1749.9 1125,1748.8 1100.7,1700.1 1100.2,1699.2 1001.1,1501 1000.5,1500.7 1000.5,1502 
		1099.3,1699.7 	"/>
	<polygon class="st1" points="1500.5,1749.6 1499.5,1749.1 1400.7,1699.7 1399.8,1699.2 1333.7,1666.2 1332.2,1665.5 1251.1,1624.9 
		1250,1624.3 1200.7,1599.7 1199.8,1599.2 1002.1,1500.4 1000.1,1499.4 1000,1499.3 999.5,1499.1 999.5,1499.4 999.5,1500 
		999.5,1500.7 999.5,1502 1000.5,1502 1000.5,1500.7 1001.1,1501 1199.3,1600.1 1200.2,1600.6 1248.9,1624.9 1250,1625.5 
		1333,1666.9 1334.4,1667.7 1399.3,1700.1 1400.2,1700.6 1498.9,1749.9 1400.2,1799.2 1399.3,1799.7 1334.4,1832.1 1333,1832.9 
		1250,1874.3 1248.9,1874.9 1200.2,1899.2 1199.3,1899.7 1001.1,1998.8 1000.5,1999.1 1000.5,1997.8 999.5,1997.8 999.5,1999.1 
		999.5,1999.8 999.5,2000.4 999.5,2000.7 1000,2000.5 1000.1,2000.4 1002.1,1999.4 1199.8,1900.6 1200.7,1900.1 1250,1875.5 
		1251.1,1874.9 1332.2,1834.4 1333.7,1833.6 1399.8,1800.6 1400.7,1800.1 1499.5,1750.7 1500.5,1750.2 1501.1,1749.9 	"/>
</g>
</svg>
