<?xml version="1.0" encoding="utf-8"?>
<!-- Generator: Adobe Illustrator 17.1.0, SVG Export Plug-In . SVG Version: 6.00 Build 0)  -->
<!DOCTYPE svg PUBLIC "-//W3C//DTD SVG 1.1//EN" "http://www.w3.org/Graphics/SVG/1.1/DTD/svg11.dtd">
<svg version="1.1" id="Layer_1" xmlns="http://www.w3.org/2000/svg" xmlns:xlink="http://www.w3.org/1999/xlink" x="0px" y="0px"
	 viewBox="0 0 612 792" enable-background="new 0 0 612 792" xml:space="preserve">
<line fill="none" stroke="#58595B" stroke-width="0.864" stroke-miterlimit="10" x1="55.2" y1="375.5" x2="557.2" y2="375.5"/>
<g>
	<path fill="#58595B" d="M137.4,394h-25.2v43.5h-10.3V394H76.6v-9.3h60.8V394z"/>
	<path fill="#58595B" d="M236.4,437.5h-11.8l-13.8-19.4h-26.2v19.4h-10.3v-52.8h42.7c5.6,0,10.1,1.5,13.4,4.5c3.3,3,5,7.1,5,12.2
		c0,8.8-4.4,14.1-13.1,16.1L236.4,437.5z M215.4,408.9c6.2,0,9.4-2.4,9.4-7.2c0-5.1-3.3-7.6-10-7.6h-30.2v14.8H215.4z"/>
	<path fill="#58595B" d="M342.6,417.4c0,6.5-3.1,11.7-9.4,15.7c-6.4,4.2-15,6.3-25.7,6.3c-10.7,0-19.3-2.1-25.8-6.3
		c-6.3-4.1-9.4-9.3-9.4-15.7V385h10.1l0.2,29.9c0,4.9,2.1,8.6,6.4,11.2c4.3,2.6,10.5,3.9,18.6,3.9c8.1,0,14.3-1.3,18.5-3.9
		c4.2-2.6,6.3-6.3,6.3-11.2V385h10.3V417.4z"/>
	<path fill="#58595B" d="M435.8,399c-6.9-3.6-20.6-7.6-28.6-7.6c-11.7,0-17.6,2.1-17.6,6.3c0,2.5,2.2,4.1,6.6,4.8
		c6,0.5,12,1.1,18,1.6c8.6,0.9,14.8,2.4,18.5,4.6c4.1,2.5,6.1,6.2,6.1,11.2c0,5.7-2.5,10-7.6,13.1c-5.1,3.1-12.4,4.6-22,4.6
		c-13.6,0-24.4-3.1-32.5-9.3l5.6-7.3c7.3,5.1,16.2,7.6,26.8,7.6c5.9,0,10.6-0.8,13.8-2.3c3.3-1.5,4.9-3.5,4.9-6.1c0-2.8-2-4.8-6-5.9
		c-2.2-0.6-5.7-1.1-10.4-1.3c-7.3-0.3-11.8-0.6-13.5-0.8c-6.5-0.6-11.3-2-14.4-4.2c-3.1-2.2-4.6-5.3-4.6-9.5c0-5,2.5-9,7.4-12
		c4.9-2.9,11.9-4.4,20.8-4.4c11.9,0,21.5,2.6,28.9,7.7L435.8,399z"/>
	<path fill="#58595B" d="M533.5,399.7c-6.9-3.6-20.8-8.3-28.9-8.3c-11.7,0-17.6,2.1-17.6,6.3c0,2.5,2.2,4.1,6.6,4.8
		c6,0.5,12,1.1,18,1.6c8.6,0.9,14.8,2.4,18.5,4.6c4.1,2.5,6.1,6.2,6.1,11.2c0,5.7-2.5,10-7.6,13.1c-5.1,3.1-12.4,4.6-22,4.6
		c-13.6,0-24.4-3.1-32.5-9.3l5.6-7.3c7.3,5.1,16.2,7.6,26.8,7.6c5.9,0,10.6-0.8,13.8-2.3c3.3-1.5,4.9-3.5,4.9-6.1c0-2.8-2-4.8-6-5.9
		c-2.2-0.6-5.7-1.1-10.4-1.3c-7.3-0.3-11.8-0.6-13.5-0.8c-6.5-0.6-11.3-2-14.4-4.2c-3.1-2.2-4.6-5.3-4.6-9.5c0-5,2.5-9,7.4-12
		c4.9-2.9,11.9-4.4,20.8-4.4c11.9,0,21.5,2.6,28.9,7.7L533.5,399.7z"/>
</g>
<rect x="56" y="384.7" fill="#58595B" width="9.2" height="9.2"/>
<rect x="547.8" y="356.8" fill="#D36149" width="9.2" height="9.2"/>
</svg>
