<?xml version="1.0" encoding="utf-8"?>
<!-- Generator: Adobe Illustrator 23.0.6, SVG Export Plug-In . SVG Version: 6.00 Build 0)  -->
<svg version="1.1" id="Layer_1" xmlns="http://www.w3.org/2000/svg" xmlns:xlink="http://www.w3.org/1999/xlink" x="0px" y="0px"
	 viewBox="0 0 518 94" style="enable-background:new 0 0 518 94;" xml:space="preserve">
<style type="text/css">
	.st0{fill:none;stroke:#58595B;stroke-width:0.864;stroke-miterlimit:10;}
	.st1{fill:#58595B;}
	.st2{fill:#D36149;}
</style>
<g>
	<line class="st0" x1="8" y1="24.4" x2="510" y2="24.4"/>
	<g>
		<path class="st1" d="M90.2,42.9H65v43.5H54.7V42.9H29.4v-9.3h60.8V42.9z"/>
		<path class="st1" d="M189.2,86.4h-11.8L163.6,67h-26.2v19.4h-10.3V33.6h42.7c5.6,0,10.1,1.5,13.4,4.5c3.3,3,5,7.1,5,12.2
			c0,8.8-4.4,14.1-13.1,16.1L189.2,86.4z M168.2,57.8c6.2,0,9.4-2.4,9.4-7.2c0-5.1-3.3-7.6-10-7.6h-30.2v14.8L168.2,57.8L168.2,57.8
			z"/>
		<path class="st1" d="M295.4,66.3c0,6.5-3.1,11.7-9.4,15.7c-6.4,4.2-15,6.3-25.7,6.3c-10.7,0-19.3-2.1-25.8-6.3
			c-6.3-4.1-9.4-9.3-9.4-15.7V33.9h10.1l0.2,29.9c0,4.9,2.1,8.6,6.4,11.2s10.5,3.9,18.6,3.9c8.1,0,14.3-1.3,18.5-3.9
			s6.3-6.3,6.3-11.2V33.9h10.3v32.4H295.4z"/>
		<path class="st1" d="M388.6,47.9c-6.9-3.6-20.6-7.6-28.6-7.6c-11.7,0-17.6,2.1-17.6,6.3c0,2.5,2.2,4.1,6.6,4.8
			c6,0.5,12,1.1,18,1.6c8.6,0.9,14.8,2.4,18.5,4.6c4.1,2.5,6.1,6.2,6.1,11.2c0,5.7-2.5,10-7.6,13.1s-12.4,4.6-22,4.6
			c-13.6,0-24.4-3.1-32.5-9.3l5.6-7.3c7.3,5.1,16.2,7.6,26.8,7.6c5.9,0,10.6-0.8,13.8-2.3c3.3-1.5,4.9-3.5,4.9-6.1
			c0-2.8-2-4.8-6-5.9c-2.2-0.6-5.7-1.1-10.4-1.3c-7.3-0.3-11.8-0.6-13.5-0.8c-6.5-0.6-11.3-2-14.4-4.2s-4.6-5.3-4.6-9.5
			c0-5,2.5-9,7.4-12C344,32.5,351,31,359.9,31c11.9,0,21.5,2.6,28.9,7.7L388.6,47.9z"/>
		<path class="st1" d="M486.3,48.6c-6.9-3.6-20.8-8.3-28.9-8.3c-11.7,0-17.6,2.1-17.6,6.3c0,2.5,2.2,4.1,6.6,4.8
			c6,0.5,12,1.1,18,1.6c8.6,0.9,14.8,2.4,18.5,4.6c4.1,2.5,6.1,6.2,6.1,11.2c0,5.7-2.5,10-7.6,13.1s-12.4,4.6-22,4.6
			c-13.6,0-24.4-3.1-32.5-9.3l5.6-7.3c7.3,5.1,16.2,7.6,26.8,7.6c5.9,0,10.6-0.8,13.8-2.3c3.3-1.5,4.9-3.5,4.9-6.1
			c0-2.8-2-4.8-6-5.9c-2.2-0.6-5.7-1.1-10.4-1.3c-7.3-0.3-11.8-0.6-13.5-0.8c-6.5-0.6-11.3-2-14.4-4.2s-4.6-5.3-4.6-9.5
			c0-5,2.5-9,7.4-12c4.9-2.9,11.9-4.4,20.8-4.4c11.9,0,21.5,2.6,28.9,7.7L486.3,48.6z"/>
	</g>
	<rect x="8.8" y="33.6" class="st1" width="9.2" height="9.2"/>
	<rect x="500.6" y="5.7" class="st2" width="9.2" height="9.2"/>
</g>
</svg>
