<?xml version="1.0" encoding="utf-8"?>
<!-- Generator: Adobe Illustrator 19.0.0, SVG Export Plug-In . SVG Version: 6.00 Build 0)  -->
<!DOCTYPE svg PUBLIC "-//W3C//DTD SVG 1.1//EN" "http://www.w3.org/Graphics/SVG/1.1/DTD/svg11.dtd">
<svg version="1.1" id="Layer_1" xmlns="http://www.w3.org/2000/svg" xmlns:xlink="http://www.w3.org/1999/xlink" x="0px" y="0px"
	 viewBox="-751 1009 32 32" style="enable-background:new -751 1009 32 32;" xml:space="preserve">
<path d="M-731.1,1012.5c-2.8,1-4.6,3.6-4.4,6.5l0.1,1.1l-1.1-0.1c-4.1-0.5-7.6-2.3-10.7-5.3l-1.5-1.5l-0.4,1.1
	c-0.8,2.4-0.3,5,1.4,6.7c0.9,1,0.7,1.1-0.9,0.5c-0.5-0.2-1-0.3-1.1-0.2c-0.2,0.2,0.4,2.2,0.8,3c0.6,1.1,1.8,2.2,3.1,2.9l1.1,0.5
	l-1.3,0c-1.3,0-1.3,0-1.2,0.5c0.4,1.5,2.2,3,4.2,3.7l1.4,0.5l-1.2,0.7c-1.8,1-3.9,1.6-6,1.7c-1,0-1.8,0.1-1.8,0.2
	c0,0.2,2.7,1.5,4.3,2c4.8,1.5,10.4,0.8,14.7-1.7c3-1.8,6.1-5.3,7.5-8.8c0.8-1.8,1.5-5.2,1.5-6.8c0-1,0.1-1.2,1.3-2.4
	c0.7-0.7,1.4-1.5,1.6-1.7c0.2-0.4,0.2-0.4-0.9,0c-1.9,0.7-2.2,0.6-1.2-0.4c0.7-0.7,1.5-2,1.5-2.4c0-0.1-0.3,0-0.7,0.2
	c-0.4,0.2-1.3,0.6-2,0.8l-1.2,0.4l-1.1-0.8c-0.6-0.4-1.5-0.9-1.9-1C-728.3,1012.1-730,1012.1-731.1,1012.5z"/>
</svg>
